<?xml version="1.0" encoding="iso-8859-1"?>
<!-- Generator: Adobe Illustrator 16.0.0, SVG Export Plug-In . SVG Version: 6.00 Build 0)  -->
<!DOCTYPE svg PUBLIC "-//W3C//DTD SVG 1.1//EN" "http://www.w3.org/Graphics/SVG/1.1/DTD/svg11.dtd">
<svg version="1.1" id="Layer_1" xmlns="http://www.w3.org/2000/svg" xmlns:xlink="http://www.w3.org/1999/xlink" x="0px" y="0px"
	 width="32px" height="32px" viewBox="0 0 32 32" style="enable-background:new 0 0 32 32;" xml:space="preserve">
<g id="Screw">
	<g>
		<path style="fill-rule:evenodd;clip-rule:evenodd;fill:#999999;" d="M0,32c3,0,4-3,5-4H2C2,29,1,32,0,32z M25,6c-1,0-2,1-3,2l-7,7
			c-1,1-1,3-2,4h3c0-1,1-2,2-3l6-6c1-1,2-2,2-3C26,6.5,25.5,6,25,6z M9,23h3c0-1,0-2,1-3h-3C10,21,10,22,9,23z M5,27h3c0-1,0-2,1-3
			H6C6,25,6,26,5,27z"/>
	</g>
</g>
<g id="Screw_1_">
	<g>
		<path style="fill-rule:evenodd;clip-rule:evenodd;fill:#CCCCCC;" d="M12,18c-1,0-2,1-2,2c3,0,3,1,4,1s2-1,2-2C13,19,13,18,12,18z
			 M6,24c3,0,3,1,4,1s2-1,2-2c-3,0-3-1-4-1S6,23,6,24z M2,28c3,0,3,1,4,1s2-1,2-2c-3,0-3-1-4-1S2,27,2,28z"/>
	</g>
</g>
<g id="Handle_16_">
	<g>
		<path style="fill:#F2CDA7;" d="M28,12c-1-1-1-3-3-5s-4-2-5-3s-3-4-4-4c-2,0-3,1-3,3c0,1,3,3,4,4s1,3,3,5s4,2,5,3s3,4,4,4
			c2,0,3-1,3-3C32,15,29,13,28,12z"/>
	</g>
</g>
<g>
</g>
<g>
</g>
<g>
</g>
<g>
</g>
<g>
</g>
<g>
</g>
<g>
</g>
<g>
</g>
<g>
</g>
<g>
</g>
<g>
</g>
<g>
</g>
<g>
</g>
<g>
</g>
<g>
</g>
</svg>
