<?xml version="1.0" encoding="iso-8859-1"?>
<!-- Generator: Adobe Illustrator 16.0.0, SVG Export Plug-In . SVG Version: 6.00 Build 0)  -->
<!DOCTYPE svg PUBLIC "-//W3C//DTD SVG 1.1//EN" "http://www.w3.org/Graphics/SVG/1.1/DTD/svg11.dtd">
<svg version="1.1" id="Layer_1" xmlns="http://www.w3.org/2000/svg" xmlns:xlink="http://www.w3.org/1999/xlink" x="0px" y="0px"
	 width="32px" height="18px" viewBox="0 0 32 18" style="enable-background:new 0 0 32 18;" xml:space="preserve">
<g id="Legs_10_">
	<g>
		<path style="fill-rule:evenodd;clip-rule:evenodd;fill:#CCCCCC;" d="M3,18h2v-2H3V18z M27,16v2h2v-2H27z"/>
	</g>
</g>
<g id="Backrest_1_">
	<g>
		<path style="fill:#B3B3B3;" d="M16,0C3,0,3,0,3,6v7h26V6C29,0,29,0,16,0z"/>
	</g>
</g>
<g id="Seat_3_">
	<g>
		<path style="fill:#CCCCCC;" d="M27,8H5C4.447,8,4,8.447,4,9v1h24V9C28,8.447,27.552,8,27,8z"/>
	</g>
</g>
<g id="Arms_1_">
	<g>
		<path style="fill-rule:evenodd;clip-rule:evenodd;fill:#666666;" d="M31,6h-2c-0.553,0-1,0.447-1,1v6H4V7c0-0.553-0.448-1-1-1H1
			C0.447,6,0,6.447,0,7v8c0,0.552,0.447,1,1,1h1h1h26h1h1c0.552,0,1-0.448,1-1V7C32,6.447,31.552,6,31,6z"/>
	</g>
</g>
<g>
</g>
<g>
</g>
<g>
</g>
<g>
</g>
<g>
</g>
<g>
</g>
<g>
</g>
<g>
</g>
<g>
</g>
<g>
</g>
<g>
</g>
<g>
</g>
<g>
</g>
<g>
</g>
<g>
</g>
</svg>
