<?xml version="1.0" encoding="utf-8"?>
<!-- Generator: Adobe Illustrator 18.0.0, SVG Export Plug-In . SVG Version: 6.00 Build 0)  -->
<!DOCTYPE svg PUBLIC "-//W3C//DTD SVG 1.1//EN" "http://www.w3.org/Graphics/SVG/1.1/DTD/svg11.dtd">
<svg version="1.1" xmlns="http://www.w3.org/2000/svg" xmlns:xlink="http://www.w3.org/1999/xlink" x="0px" y="0px"
	 viewBox="0 0 48 48" enable-background="new 0 0 48 48" xml:space="preserve">
<g id="home">
</g>
<g id="home-1">
</g>
<g id="home-2">
</g>
<g id="home-3">
</g>
<g id="home-4">
</g>
<g id="door">
</g>
<g id="window">
</g>
<g id="home-5">
</g>
<g id="home-6">
</g>
<g id="home-7">
</g>
<g id="home-8">
</g>
<g id="office">
</g>
<g id="four-floors">
</g>
<g id="classic-pillers">
</g>
<g id="church">
</g>
<g id="detached-church">
</g>
<g id="wind-mill">
</g>
<g id="light-house">
</g>
<g id="light-house_1_">
</g>
<g id="light-house-2">
</g>
<g id="Trash_House-shutter">
</g>
<g id="Trash_House">
</g>
<g id="Layer_1">
</g>
<g id="tree-3">
</g>
<g id="tree-2">
</g>
<g id="tree-1">
</g>
<g id="tree">
</g>
<g id="round-tree-1">
</g>
<g id="round-tree">
</g>
<g id="triangle-tree-1">
</g>
<g id="triangle-tree">
</g>
<g id="ellips-tree-1">
</g>
<g id="ellipse-tree">
</g>
<g id="skyscraper-3">
</g>
<g id="long-story-house">
</g>
<g id="skyscrapers-1">
</g>
<g id="skyscraper">
</g>
<g id="large-building-7">
</g>
<g id="larg-building-6">
</g>
<g id="small-flat">
</g>
<g id="green-building">
</g>
<g id="squar-building">
</g>
<g id="bank">
</g>
<g id="gate-house-2">
</g>
<g id="gate-house">
</g>
<g id="pak-mahal">
</g>
<g id="Indian-mahal">
</g>
<g id="chinees-arch">
</g>
<g id="cathedral">
</g>
<g id="pizza">
</g>
<g id="chinees">
</g>
<g id="large-factory">
</g>
<g id="factory">
</g>
<g id="villa">
</g>
<g id="shope-2">
</g>
<g id="shop">
</g>
<g id="snow-home-3">
</g>
<g id="snow-home-2">
</g>
<g id="snow-home">
</g>
<g id="small-store">
</g>
<g id="frontage-mid">
</g>
<g id="bricks-house">
</g>
<g id="old-house">
</g>
<g id="pillers-gate-2">
</g>
<g id="pillers-gate-1">
</g>
<g id="pillers-gate">
</g>
<g id="dome-pillers">
</g>
<g id="garden-piller-1">
</g>
<g id="graden-pillers">
</g>
<g id="temple-gate">
</g>
<g id="chinees-gate">
</g>
<g id="central-museum">
</g>
<g id="mosque">
</g>
<g id="garden-wall">
</g>
<g id="fire">
	
		<rect x="6" y="27" fill="none" stroke="#0F0F0F" stroke-width="2" stroke-linecap="round" stroke-linejoin="round" stroke-miterlimit="10" width="36" height="20"/>
	
		<line fill="none" stroke="#0F0F0F" stroke-width="2" stroke-linecap="round" stroke-linejoin="round" stroke-miterlimit="10" x1="6" y1="42" x2="42" y2="42"/>
	
		<line fill="none" stroke="#0F0F0F" stroke-width="2" stroke-linecap="round" stroke-linejoin="round" stroke-miterlimit="10" x1="6" y1="37" x2="42" y2="37"/>
	
		<line fill="none" stroke="#0F0F0F" stroke-width="2" stroke-linecap="round" stroke-linejoin="round" stroke-miterlimit="10" x1="6" y1="32" x2="42" y2="32"/>
	
		<line fill="none" stroke="#0F0F0F" stroke-width="2" stroke-linecap="round" stroke-linejoin="round" stroke-miterlimit="10" x1="15" y1="28" x2="15" y2="31"/>
	
		<line fill="none" stroke="#0F0F0F" stroke-width="2" stroke-linecap="round" stroke-linejoin="round" stroke-miterlimit="10" x1="24" y1="28" x2="24" y2="31"/>
	
		<line fill="none" stroke="#0F0F0F" stroke-width="2" stroke-linecap="round" stroke-linejoin="round" stroke-miterlimit="10" x1="33" y1="28" x2="33" y2="31"/>
	
		<line fill="none" stroke="#0F0F0F" stroke-width="2" stroke-linecap="round" stroke-linejoin="round" stroke-miterlimit="10" x1="10" y1="33" x2="10" y2="36"/>
	
		<line fill="none" stroke="#0F0F0F" stroke-width="2" stroke-linecap="round" stroke-linejoin="round" stroke-miterlimit="10" x1="19" y1="33" x2="19" y2="36"/>
	
		<line fill="none" stroke="#0F0F0F" stroke-width="2" stroke-linecap="round" stroke-linejoin="round" stroke-miterlimit="10" x1="28" y1="33" x2="28" y2="36"/>
	
		<line fill="none" stroke="#0F0F0F" stroke-width="2" stroke-linecap="round" stroke-linejoin="round" stroke-miterlimit="10" x1="38" y1="33" x2="38" y2="36"/>
	
		<line fill="none" stroke="#0F0F0F" stroke-width="2" stroke-linecap="round" stroke-linejoin="round" stroke-miterlimit="10" x1="15" y1="38" x2="15" y2="41"/>
	
		<line fill="none" stroke="#0F0F0F" stroke-width="2" stroke-linecap="round" stroke-linejoin="round" stroke-miterlimit="10" x1="24" y1="38" x2="24" y2="41"/>
	
		<line fill="none" stroke="#0F0F0F" stroke-width="2" stroke-linecap="round" stroke-linejoin="round" stroke-miterlimit="10" x1="33" y1="38" x2="33" y2="41"/>
	
		<line fill="none" stroke="#0F0F0F" stroke-width="2" stroke-linecap="round" stroke-linejoin="round" stroke-miterlimit="10" x1="10" y1="43" x2="10" y2="46"/>
	
		<line fill="none" stroke="#0F0F0F" stroke-width="2" stroke-linecap="round" stroke-linejoin="round" stroke-miterlimit="10" x1="19" y1="43" x2="19" y2="46"/>
	
		<line fill="none" stroke="#0F0F0F" stroke-width="2" stroke-linecap="round" stroke-linejoin="round" stroke-miterlimit="10" x1="28" y1="43" x2="28" y2="46"/>
	
		<line fill="none" stroke="#0F0F0F" stroke-width="2" stroke-linecap="round" stroke-linejoin="round" stroke-miterlimit="10" x1="38" y1="43" x2="38" y2="46"/>
	
		<polyline fill="none" stroke="#0F0F0F" stroke-width="2" stroke-linecap="round" stroke-linejoin="round" stroke-miterlimit="10" points="
		12,27 12,24 36,24 36,27 	"/>
	<path fill="none" stroke="#0F0F0F" stroke-width="2" stroke-linecap="round" stroke-linejoin="round" stroke-miterlimit="10" d="
		M33,24c0,0,4.8333321-1.833334,5-6s-4-6-4-6c0.5833321,3.666667-4,6-4,6c1.833334-4.583333-1.25-9.25-6-12
		c-1.083334,4.75-7,5.083333-5,12c0,0-1.6716022-0.8325806-2-3c-0.416666-2.75-2.083333-4.75-4-5
		c-0.083333,2.583333-1.833333,3.75-2,7c-0.286458,5.5859337,4.083333,6.666666,5,7"/>
	<path fill="none" stroke="#0F0F0F" stroke-width="2" stroke-linecap="round" stroke-linejoin="round" stroke-miterlimit="10" d="
		M23,23c0,0-1.333334-1.166666-1-3c0.388731-2.1380157,2.75-2.416666,2-5c0,0,3.166666,3.25,2,6c-0.6709499,1.5815239-2,2-2,2
		s5.5,0,8-3"/>
	<path fill="none" stroke="#0F0F0F" stroke-width="2" stroke-linecap="round" stroke-linejoin="round" stroke-miterlimit="10" d="
		M21,23c-1.25-1.083334-3.5-1.083334-5-3"/>
	<path fill="none" stroke="#0F0F0F" stroke-width="2" stroke-linecap="round" stroke-linejoin="round" stroke-miterlimit="10" d="
		M26,1c0,0,3.333334,1.1666667,4,4"/>
	<path fill="none" stroke="#0F0F0F" stroke-width="2" stroke-linecap="round" stroke-linejoin="round" stroke-miterlimit="10" d="
		M12,3c0,0,1.666667,0,2,2"/>
	
		<line fill="none" stroke="#0F0F0F" stroke-width="2" stroke-linecap="round" stroke-linejoin="round" stroke-miterlimit="10" x1="17.2618923" y1="7" x2="17.2618923" y2="7"/>
	<path fill="none" stroke="#0F0F0F" stroke-width="2" stroke-linecap="round" stroke-linejoin="round" stroke-miterlimit="10" d="
		M39,11c0,0,2.3333321-1.666667,2-4"/>
</g>
<g id="pyramid">
</g>
<g id="large-building-5">
</g>
<g id="large-building-4">
</g>
<g id="large-buildin-3">
</g>
<g id="large-building-2">
</g>
<g id="large-building-1">
</g>
<g id="large-building">
</g>
<g id="facto-house-1">
</g>
<g id="facto-house">
</g>
<g id="golf-area">
</g>
<g id="playground">
</g>
<g id="block-store">
</g>
<g id="favorite">
</g>
<g id="open-store">
</g>
<g id="close-store">
</g>
<g id="locate-house">
</g>
<g id="store">
</g>
<g id="block-house">
</g>
<g id="success-house">
</g>
<g id="load-house">
</g>
<g id="move-house">
</g>
<g id="close-house">
</g>
<g id="add-house">
</g>
<g id="house">
</g>
<g id="Trash_House-door">
</g>
<g id="verticle-wall">
</g>
</svg>
