<?xml version="1.0" encoding="iso-8859-1"?>
<!-- Generator: Adobe Illustrator 16.0.0, SVG Export Plug-In . SVG Version: 6.00 Build 0)  -->
<!DOCTYPE svg PUBLIC "-//W3C//DTD SVG 1.1//EN" "http://www.w3.org/Graphics/SVG/1.1/DTD/svg11.dtd">
<svg version="1.1" id="Layer_1" xmlns="http://www.w3.org/2000/svg" xmlns:xlink="http://www.w3.org/1999/xlink" x="0px" y="0px"
	 width="32.004px" height="31.973px" viewBox="0 0 32.004 31.973" style="enable-background:new 0 0 32.004 31.973;"
	 xml:space="preserve">
<g id="Body_47_">
	<g>
		<path style="fill:#88C057;" d="M22.199,9.787c-3.094-3.092-7.482-3.718-9.803-1.399c-0.937,0.937-1.386,2.212-1.393,3.601H11
			c0,1.021-0.454,1.964-3.834,1.995c-1.979-0.033-3.832,0.609-5.193,1.97c-3.104,3.104-2.476,8.765,1.405,12.645
			c3.881,3.879,9.544,4.508,12.648,1.404c1.323-1.322,1.966-3.11,1.97-5.026h0.006c0-3.534,0.96-3.996,2-3.996v-0.004
			c1.388-0.008,2.662-0.456,3.598-1.392C25.92,17.266,25.293,12.879,22.199,9.787z"/>
	</g>
</g>
<g id="String_Pegs">
	<g>
		<path style="fill:#6C9945;" d="M10.673,23.15l-1.879-1.878c-0.415-0.413-1.087-0.413-1.501,0c-0.414,0.414-0.414,1.086,0,1.499
			l1.88,1.878c0.414,0.413,1.086,0.413,1.5,0C11.088,24.235,11.088,23.564,10.673,23.15z"/>
	</g>
</g>
<g id="Sound_Hole">
	<g>
		<circle style="fill:#75A64B;" cx="16.001" cy="15.984" r="3.996"/>
	</g>
</g>
<g id="Sound_Hole_1_">
	<g>
		<circle style="fill:#517334;" cx="16.001" cy="15.984" r="1.998"/>
	</g>
</g>
<g id="Headstock">
	<g>
		<path style="fill-rule:evenodd;clip-rule:evenodd;fill:#666666;" d="M29.004,0l-1,0.999h-1.001v0.999h-1v0.999h-1v1.998
			l-9.002,8.992c1.104,0,2.001,0.895,2.001,1.997l9.001-8.99h2.001V5.994h1V4.995h1V3.996l1-0.999L29.004,0z"/>
	</g>
</g>
<g>
</g>
<g>
</g>
<g>
</g>
<g>
</g>
<g>
</g>
<g>
</g>
<g>
</g>
<g>
</g>
<g>
</g>
<g>
</g>
<g>
</g>
<g>
</g>
<g>
</g>
<g>
</g>
<g>
</g>
</svg>
