<?xml version="1.0" encoding="iso-8859-1"?>
<!-- Generator: Adobe Illustrator 16.0.0, SVG Export Plug-In . SVG Version: 6.00 Build 0)  -->
<!DOCTYPE svg PUBLIC "-//W3C//DTD SVG 1.1//EN" "http://www.w3.org/Graphics/SVG/1.1/DTD/svg11.dtd">
<svg version="1.1" id="Layer_1" xmlns="http://www.w3.org/2000/svg" xmlns:xlink="http://www.w3.org/1999/xlink" x="0px" y="0px"
	 width="34.167px" height="31.996px" viewBox="0 0 34.167 31.996" style="enable-background:new 0 0 34.167 31.996;"
	 xml:space="preserve">
<g id="Base_29_">
	<g>
		<path style="fill:#ED7161;" d="M26.021,17.996h-22c-1.104,0-2,0.896-2,2v10c0,1.104,0.896,2,2,2h22c1.104,0,2-0.896,2-2v-10
			C28.021,18.892,27.126,17.996,26.021,17.996z"/>
	</g>
</g>
<g id="Keys">
	<g>
		<path style="fill:#FFFFFF;" d="M25.021,21.996h-20c-0.553,0-1,0.447-1,1v6c0,0.552,0.447,1,1,1h20c0.553,0,1-0.448,1-1v-6
			C26.021,22.443,25.574,21.996,25.021,21.996z"/>
	</g>
</g>
<g id="Keys_1_">
	<g>
		<path style="fill-rule:evenodd;clip-rule:evenodd;fill:#666666;" d="M10.021,26.996c0,0.552,0.447,1,1,1s1-0.448,1-1v-5h-2V26.996
			z M6.021,26.996c0,0.552,0.447,1,1,1s1-0.448,1-1v-5h-2V26.996z M14.021,26.996c0,0.552,0.447,1,1,1s1-0.448,1-1v-5h-2V26.996z
			 M22.021,21.996v5c0,0.552,0.447,1,1,1s1-0.448,1-1v-5H22.021z M18.021,26.996c0,0.552,0.447,1,1,1s1-0.448,1-1v-5h-2V26.996z"/>
	</g>
</g>
<g id="Shape_35_">
	<g>
		<path style="fill:#CCCCCC;" d="M11.021,2.996c-8.333,3.667-9,17-9,17h26c0-3,4-3,4-3L11.021,2.996z"/>
	</g>
</g>
<g id="Stripes_3_">
	<g>
		<path style="fill-rule:evenodd;clip-rule:evenodd;fill:#808080;" d="M32.021,16.996l-2.854-1.902L9.641,3.736
			c-0.649,0.41-1.241,0.885-1.785,1.406l14.241,8.282L6.414,6.773C5.983,7.348,5.59,7.949,5.238,8.57l15.156,6.428L4.256,10.563
			c-0.275,0.643-0.518,1.287-0.73,1.923l12.703,3.491L3,14.231c-0.19,0.715-0.344,1.398-0.469,2.029l13.149,1.736H2.236
			c-0.175,1.223-0.215,2-0.215,2h26C28.021,16.996,32.021,16.996,32.021,16.996z"/>
	</g>
</g>
<g id="Upper_Base">
	<g>
		<path style="fill:#ED7161;" d="M33.02,12.359L12.492,0.271c-0.945-0.557-2.153-0.227-2.698,0.737L9.3,1.88
			c-0.546,0.964-0.222,2.196,0.723,2.753l20.528,12.089c0.945,0.556,2.153,0.226,2.698-0.737l0.494-0.873
			C34.288,14.147,33.965,12.916,33.02,12.359z"/>
	</g>
</g>
<g>
</g>
<g>
</g>
<g>
</g>
<g>
</g>
<g>
</g>
<g>
</g>
<g>
</g>
<g>
</g>
<g>
</g>
<g>
</g>
<g>
</g>
<g>
</g>
<g>
</g>
<g>
</g>
<g>
</g>
</svg>
