<?xml version="1.0" encoding="iso-8859-1"?>
<!-- Generator: Adobe Illustrator 16.0.0, SVG Export Plug-In . SVG Version: 6.00 Build 0)  -->
<!DOCTYPE svg PUBLIC "-//W3C//DTD SVG 1.1//EN" "http://www.w3.org/Graphics/SVG/1.1/DTD/svg11.dtd">
<svg version="1.1" id="Layer_1" xmlns="http://www.w3.org/2000/svg" xmlns:xlink="http://www.w3.org/1999/xlink" x="0px" y="0px"
	 width="31.955px" height="31.996px" viewBox="0 0 31.955 31.996" style="enable-background:new 0 0 31.955 31.996;"
	 xml:space="preserve">
<g id="Cable_6_">
	<g>
		<rect x="19" y="26.996" style="fill:#B3B3B3;" width="2" height="5"/>
	</g>
</g>
<g id="Cable_7_">
	<g>
		<rect x="9" y="26.996" style="fill:#B3B3B3;" width="2" height="5"/>
	</g>
</g>
<g id="Plastic">
	<g>
		<path style="fill-rule:evenodd;clip-rule:evenodd;fill:#CCCCCC;" d="M31.951,7c0,0,0.044-1.883-0.313-2.625
			C30.341,1.68,27.027,0,23.506,0C19.016,0,16,3.134,16,7c0,1.896,0.729,3.614,2,4.875v15.121c0,0.553,0.447,1,1,1h2
			c0.552,0,1-0.447,1-1V13.87c0.481,0.081,0.982,0.128,1.506,0.128c3.491,0,6.812-1.716,8.133-4.374C32.017,8.862,31.951,7,31.951,7
			z"/>
	</g>
</g>
<g id="Muffle">
	<g>
		<path style="fill:#999999;" d="M30.5,5C30.224,5,30,5.224,30,5.5v2.999c0,0.276,0.224,0.5,0.5,0.5s0.5-0.224,0.5-0.5V5.5
			C31,5.224,30.776,5,30.5,5z"/>
	</g>
</g>
<g id="Shape_9_">
	<g>
		<path style="fill:#999999;" d="M22,5.999h-2c-0.553,0-1,0.448-1,1.001c0,0.552,0.447,0.999,1,0.999h2c0.552,0,1-0.447,1-0.999
			C23,6.447,22.552,5.999,22,5.999z"/>
	</g>
</g>
<g id="Plastic_1_">
	<g>
		<path style="fill-rule:evenodd;clip-rule:evenodd;fill:#CCCCCC;" d="M6,0C2.687,0,0,3.134,0,7c0,3.865,2.687,6.998,6,6.998
			c0.606,0,1.303-0.34,2-0.838v13.836c0,0.553,0.447,1,1,1h2c0.552,0,1-0.447,1-1V8.999v-0.75c0-0.3,0-0.7,0-1.249
			C12,3.134,9.313,0,6,0z"/>
	</g>
</g>
<g id="Muffle_1_">
	<g>
		<ellipse style="fill:#999999;" cx="4" cy="7" rx="2" ry="3"/>
	</g>
</g>
<g>
</g>
<g>
</g>
<g>
</g>
<g>
</g>
<g>
</g>
<g>
</g>
<g>
</g>
<g>
</g>
<g>
</g>
<g>
</g>
<g>
</g>
<g>
</g>
<g>
</g>
<g>
</g>
<g>
</g>
</svg>
