<?xml version="1.0" encoding="iso-8859-1"?>
<!-- Generator: Adobe Illustrator 16.0.0, SVG Export Plug-In . SVG Version: 6.00 Build 0)  -->
<!DOCTYPE svg PUBLIC "-//W3C//DTD SVG 1.1//EN" "http://www.w3.org/Graphics/SVG/1.1/DTD/svg11.dtd">
<svg version="1.1" id="Layer_1" xmlns="http://www.w3.org/2000/svg" xmlns:xlink="http://www.w3.org/1999/xlink" x="0px" y="0px"
	 width="32px" height="31.996px" viewBox="0 0 32 31.996" style="enable-background:new 0 0 32 31.996;" xml:space="preserve">
<g id="Ear_9_">
	<g>
		<rect x="23" y="12.998" style="fill:#CCCCCC;" width="4" height="5.999"/>
	</g>
</g>
<g id="Ear_7_">
	<g>
		<circle style="fill:#999999;" cx="25" cy="6.999" r="6.999"/>
	</g>
</g>
<g id="Ear_4_">
	<g>
		<circle style="fill:#CCCCCC;" cx="25" cy="6.999" r="4.999"/>
	</g>
</g>
<g id="Ear_5_">
	<g>
		<circle style="fill:#999999;" cx="25" cy="7" r="3"/>
	</g>
</g>
<g id="Cable_Protection_2_">
	<g>
		<path style="fill-rule:evenodd;clip-rule:evenodd;fill:#999999;" d="M23,18.997v6v1c0,0.552,0.447,0.999,1,0.999h2
			c0.552,0,1-0.447,1-0.999v-1v-6H23z"/>
	</g>
</g>
<g id="Rectangle_2">
	<g>
		<rect x="24" y="26.996" style="fill:#CCCCCC;" width="2" height="5"/>
	</g>
</g>
<g id="Cable_Protection_3_">
	<g>
		<path style="fill-rule:evenodd;clip-rule:evenodd;fill:#999999;" d="M8,18.997v6v1c0,0.552,0.447,0.999,1,0.999h2
			c0.552,0,1-0.447,1-0.999v-1v-6H8z"/>
	</g>
</g>
<g id="Cable_8_">
	<g>
		<rect x="9" y="26.996" style="fill:#CCCCCC;" width="2" height="5"/>
	</g>
</g>
<g id="Ear_6_">
	<g>
		<path style="fill:#999999;" d="M0,3v7.998c0,1.657,1.343,3,3,3V0C1.343,0,0,1.343,0,3z"/>
	</g>
</g>
<g id="Case_2_">
	<g>
		<path style="fill-rule:evenodd;clip-rule:evenodd;fill:#CCCCCC;" d="M8,12.998v5.999h4v-5.999H8z M12,12.998C12,7.864,7,0,3,0
			v13.998c2.012,0,2.639-3,4-3c0.982,0,1,2,1,2S12,12.986,12,12.998z"/>
	</g>
</g>
<g>
</g>
<g>
</g>
<g>
</g>
<g>
</g>
<g>
</g>
<g>
</g>
<g>
</g>
<g>
</g>
<g>
</g>
<g>
</g>
<g>
</g>
<g>
</g>
<g>
</g>
<g>
</g>
<g>
</g>
</svg>
