<?xml version="1.0" encoding="iso-8859-1"?>
<!-- Generator: Adobe Illustrator 16.0.0, SVG Export Plug-In . SVG Version: 6.00 Build 0)  -->
<!DOCTYPE svg PUBLIC "-//W3C//DTD SVG 1.1//EN" "http://www.w3.org/Graphics/SVG/1.1/DTD/svg11.dtd">
<svg version="1.1" id="Layer_1" xmlns="http://www.w3.org/2000/svg" xmlns:xlink="http://www.w3.org/1999/xlink" x="0px" y="0px"
	 width="26px" height="32px" viewBox="0 0 26 32" style="enable-background:new 0 0 26 32;" xml:space="preserve">
<g id="Cover">
	<g>
		<path style="fill-rule:evenodd;clip-rule:evenodd;fill:#48A0DC;" d="M24,0H7H2H0v2v28v2h2h5h17c1.104,0,2-0.896,2-2V2
			C26,0.896,25.104,0,24,0z"/>
	</g>
</g>
<g id="Cover_1_">
	<g>
		<rect style="fill:#387BA8;" width="4" height="32"/>
	</g>
</g>
<g id="Music_Shape">
	<g>
		<path style="fill-rule:evenodd;clip-rule:evenodd;fill:#FFFFFF;" d="M19.827,10.676c-1.492-2.029-3.611-2.526-4.845-2.636
			C14.953,7.463,14.528,7,13.995,7c-0.552,0-0.999,0.492-0.999,1.099v13.022c-0.314-0.075-0.648-0.123-1.001-0.123
			c-1.655,0-2.997,0.896-2.997,2.001s1.342,2.003,2.997,2.003c1.558,0,2.822-0.797,2.968-1.812C14.984,23.151,15,23.097,15,23
			l-0.006-12.768c2.554,0.401,3.994,2.276,4.004,3.752c0,0.008-0.005,0.015-0.005,0.023c0,0.551,0.448,0.998,1.002,0.998
			c0.553,0,1.001-0.447,1.001-0.998c0-0.001-0.001-0.003-0.001-0.004C20.996,14.002,21,14.002,21,14
			C21,13.184,21.154,12.48,19.827,10.676z"/>
	</g>
</g>
<g>
</g>
<g>
</g>
<g>
</g>
<g>
</g>
<g>
</g>
<g>
</g>
<g>
</g>
<g>
</g>
<g>
</g>
<g>
</g>
<g>
</g>
<g>
</g>
<g>
</g>
<g>
</g>
<g>
</g>
</svg>
