<?xml version="1.0" encoding="iso-8859-1"?>
<!-- Generator: Adobe Illustrator 16.0.0, SVG Export Plug-In . SVG Version: 6.00 Build 0)  -->
<!DOCTYPE svg PUBLIC "-//W3C//DTD SVG 1.1//EN" "http://www.w3.org/Graphics/SVG/1.1/DTD/svg11.dtd">
<svg version="1.1" id="Layer_1" xmlns="http://www.w3.org/2000/svg" xmlns:xlink="http://www.w3.org/1999/xlink" x="0px" y="0px"
	 width="60px" height="60px" viewBox="0 0 60 60" style="enable-background:new 0 0 60 60;" xml:space="preserve">
<g id="Pipe">
	<g>
		<path style="fill-rule:evenodd;clip-rule:evenodd;fill:#808080;" d="M47.963,33.079l-1.976-2.72l-4.122-16.634
			c-0.132-0.534-0.652-0.848-1.161-0.7c-0.51,0.147-0.815,0.7-0.683,1.234L44,30.32l0.005,3.874
			c0.147,0.575,0.709,0.917,1.256,0.763l1.979-0.558C47.786,34.246,48.11,33.654,47.963,33.079z"/>
	</g>
</g>
<g id="Pipe_1_">
	<g>
		<path style="fill-rule:evenodd;clip-rule:evenodd;fill:#808080;" d="M36.503,25.222l-0.647-0.33
			c-0.034-0.048-0.055-0.102-0.098-0.144l-2.829-2.767c0.2,0.022,0.407,0.001,0.594-0.105c0.088-0.05,0.153-0.121,0.218-0.19
			c0.203,0.247,0.479,0.387,0.747,0.32C34.889,21.906,36.143,20.52,36,20L30.515,4.749c-0.143-0.52-0.583-0.86-0.984-0.76
			c-0.401,0.1-0.611,0.602-0.469,1.122l3.746,13.609L23.855,3.497c-0.276-0.47-0.884-0.635-1.355-0.366
			c-0.473,0.268-0.631,0.867-0.354,1.337l9.643,16.399l-6.121-5.986c-0.389-0.383-1.018-0.385-1.404-0.003
			c-0.387,0.381-0.385,1,0.004,1.384l5.829,5.699l-5.59-2.845c-0.483-0.262-1.102-0.104-1.381,0.351
			c-0.279,0.456-0.114,1.037,0.368,1.299l11.998,6.105c0.482,0.262,1.101,0.104,1.38-0.351
			C37.151,26.064,36.986,25.483,36.503,25.222z"/>
	</g>
</g>
<g id="Bag">
	<g>
		<path style="fill:#ED7161;" d="M43,15c0,0,0.618-8-6-8s-2.703,9.702-6,13c-3.298,3.297-15,4.245-15,10c0,3.723,2.758,5,6,5
			c5.867,0,13.442-1.914,17-8c1.96-3.354-1.171-11,1-11c0,0-0.847,1.269,0,2c1.049,0.905,3.039,1.233,4,0
			C44.335,17.57,42.753,16.688,43,15z"/>
	</g>
</g>
<g id="Stripes_2_">
	<g>
		<path style="fill-rule:evenodd;clip-rule:evenodd;fill:#B35549;" d="M42.921,13c-0.075-0.612-0.205-1.304-0.439-2H40V7.733
			c-0.556-0.322-1.223-0.547-2-0.655V11h-4V8.206c-2.007,2.402-0.78,7.807-2.293,10.794H32v4h-4v-1.17
			c-0.629,0.278-1.302,0.547-2,0.814V23h-0.941c-1.727,0.648-3.522,1.313-5.059,2.113V29h-3.873C16.045,29.317,16,29.649,16,30
			c0,0.358,0.033,0.687,0.082,1H20v3.807C20.63,34.937,21.303,35,22,35v-4h4v3.7c0.664-0.098,1.332-0.22,2-0.373V31h4v2.003
			c0.688-0.306,1.355-0.652,2-1.042V31h1.418c0.773-0.589,1.495-1.251,2.144-2H34v-4h4v3.452c0.356-0.458,0.697-0.935,1-1.452
			c1.96-3.354-1.171-11,1-11v-3H42.921z M26,29h-4v-4h4V29z M32,29h-4v-4h4V29z M38,23h-4v-4h4V23z M38,17h-4v-4h4V17z M43.553,17
			H40v-1c0,0-0.847,1.269,0,2c1.049,0.905,3.039,1.233,4,0C44.164,17.79,43.868,17.469,43.553,17z"/>
	</g>
</g>
<g>
</g>
<g>
</g>
<g>
</g>
<g>
</g>
<g>
</g>
<g>
</g>
<g>
</g>
<g>
</g>
<g>
</g>
<g>
</g>
<g>
</g>
<g>
</g>
<g>
</g>
<g>
</g>
<g>
</g>
</svg>
