<?xml version="1.0" encoding="iso-8859-1"?>
<!-- Generator: Adobe Illustrator 16.0.0, SVG Export Plug-In . SVG Version: 6.00 Build 0)  -->
<!DOCTYPE svg PUBLIC "-//W3C//DTD SVG 1.1//EN" "http://www.w3.org/Graphics/SVG/1.1/DTD/svg11.dtd">
<svg version="1.1" id="Layer_1" xmlns="http://www.w3.org/2000/svg" xmlns:xlink="http://www.w3.org/1999/xlink" x="0px" y="0px"
	 width="32.009px" height="31.982px" viewBox="0 0 32.009 31.982" style="enable-background:new 0 0 32.009 31.982;"
	 xml:space="preserve">
<g id="Connector">
	<g>
		<path style="fill-rule:evenodd;clip-rule:evenodd;fill:#FFCC66;" d="M31.725,5.802c-0.38-0.381-0.995-0.381-1.375,0l-2.75,2.76
			c-1.139,1.141-2.983,1.14-4.121-0.002c-1.139-1.143-1.139-2.994,0-4.137l2.188-2.195l0.561-0.563c0.379-0.381,0.379-0.999,0-1.38
			c-0.38-0.38-0.995-0.38-1.375,0l-3.051,3.063c-0.031,0.03-0.06,0.059-0.091,0.091l-0.294,0.295
			c-0.004,0.004-0.005,0.009-0.008,0.013c-2.063,2.111-5.2,5.793-2.054,8.95c3.104,3.115,6.8,0.008,8.913-2.055
			c0.006-0.006,0.014-0.008,0.02-0.014l0.501-0.503c0.063-0.062,0.129-0.129,0.187-0.187c0.001-0.001,0.001-0.001,0.002-0.002
			l2.747-2.756C32.104,6.8,32.104,6.183,31.725,5.802z"/>
	</g>
</g>
<g id="Body_5_">
	<g>
		<path style="fill:#666666;" d="M20.001,12.013c-1.366-1.367-3.587-1.363-4.958,0.009C15.018,12.046,0.291,25.26,0.291,25.26
			c-0.389,0.388-0.389,1.017,0,1.405l5.031,5.026c0.389,0.389,1.019,0.389,1.407,0c0,0,13.267-14.724,13.263-14.721
			C21.364,15.6,21.368,13.379,20.001,12.013z"/>
	</g>
</g>
<g id="Stripes_1_">
	<g>
		<path style="fill:#333333;" d="M9.231,17.208l-1.053,0.947l5.667,5.667l0.949-1.051L9.231,17.208z M1.865,23.842l6.282,6.282
			l0.949-1.051l-6.179-6.179L1.865,23.842z M6.074,20.052l-1.052,0.947l2.996,2.996l2.978,2.978l0.948-1.049l-0.91-0.908
			L6.074,20.052z"/>
	</g>
</g>
<g>
</g>
<g>
</g>
<g>
</g>
<g>
</g>
<g>
</g>
<g>
</g>
<g>
</g>
<g>
</g>
<g>
</g>
<g>
</g>
<g>
</g>
<g>
</g>
<g>
</g>
<g>
</g>
<g>
</g>
</svg>
