<?xml version="1.0" encoding="iso-8859-1"?>
<!-- Generator: Adobe Illustrator 16.0.0, SVG Export Plug-In . SVG Version: 6.00 Build 0)  -->
<!DOCTYPE svg PUBLIC "-//W3C//DTD SVG 1.1//EN" "http://www.w3.org/Graphics/SVG/1.1/DTD/svg11.dtd">
<svg version="1.1" id="Layer_1" xmlns="http://www.w3.org/2000/svg" xmlns:xlink="http://www.w3.org/1999/xlink" x="0px" y="0px"
	 width="32.008px" height="32.024px" viewBox="0 0 32.008 32.024" style="enable-background:new 0 0 32.008 32.024;"
	 xml:space="preserve">
<g id="Body_44_">
	<g>
		<circle style="fill:#ED7161;" cx="11.001" cy="21.02" r="11.004"/>
	</g>
</g>
<g id="Shape_47_">
	<g>
		<circle style="fill:#FFFFFF;" cx="11.002" cy="21.022" r="9.003"/>
	</g>
</g>
<g id="Grif">
	<g>
		<path style="fill-rule:evenodd;clip-rule:evenodd;fill:#666666;" d="M31.834,4.341l-0.457-0.456l0.119-0.119
			c0.675-0.675,0.675-1.77,0-2.444l-0.814-0.815c-0.675-0.675-1.77-0.675-2.444,0l-0.119,0.119l-0.438-0.438
			c-0.231-0.231-0.606-0.231-0.838,0c-0.232,0.231-0.232,0.607,0,0.838l0.438,0.438l-0.94,0.94l-0.447-0.447
			c-0.231-0.231-0.607-0.231-0.838,0s-0.231,0.606,0,0.838l0.448,0.448l-0.117,0.117c-0.349,0.349-0.513,0.809-0.502,1.265
			L9.855,19.658L9.36,19.163c-0.242-0.241-0.634-0.241-0.875,0c-0.242,0.242-0.242,0.635,0,0.876l0.495,0.495L3,26.514
			c-0.232,0.231-0.232,0.606,0,0.838l1.676,1.677c0.231,0.231,0.606,0.231,0.838,0l5.979-5.98l0.494,0.494
			c0.242,0.242,0.634,0.242,0.876,0c0.242-0.242,0.242-0.634,0-0.876l-0.494-0.494L27.414,7.124
			c0.445,0.002,0.892-0.166,1.231-0.505l0.117-0.117l0.447,0.447c0.231,0.231,0.606,0.231,0.838,0c0.231-0.231,0.231-0.606,0-0.838
			L29.6,5.664l0.94-0.94l0.456,0.457c0.231,0.231,0.607,0.231,0.838,0C32.065,4.948,32.065,4.573,31.834,4.341z M8.188,24.667
			c-0.229,0.229-0.6,0.229-0.829,0c-0.229-0.229-0.229-0.6,0-0.829l2.464-2.462l0.829,0.829L8.188,24.667z M16.691,16.169
			l-5.164,5.161l-0.829-0.829l5.164-5.161c0.229-0.229,0.6-0.229,0.829,0C16.92,15.569,16.92,15.94,16.691,16.169z"/>
	</g>
</g>
<g>
</g>
<g>
</g>
<g>
</g>
<g>
</g>
<g>
</g>
<g>
</g>
<g>
</g>
<g>
</g>
<g>
</g>
<g>
</g>
<g>
</g>
<g>
</g>
<g>
</g>
<g>
</g>
<g>
</g>
</svg>
