<?xml version="1.0" encoding="iso-8859-1"?>
<!-- Generator: Adobe Illustrator 16.0.0, SVG Export Plug-In . SVG Version: 6.00 Build 0)  -->
<!DOCTYPE svg PUBLIC "-//W3C//DTD SVG 1.1//EN" "http://www.w3.org/Graphics/SVG/1.1/DTD/svg11.dtd">
<svg version="1.1" id="Layer_1" xmlns="http://www.w3.org/2000/svg" xmlns:xlink="http://www.w3.org/1999/xlink" x="0px" y="0px"
	 width="32px" height="16.001px" viewBox="0 0 32 16.001" style="enable-background:new 0 0 32 16.001;" xml:space="preserve">
<g id="Bridge_1_">
	<g>
		<rect x="12" y="10.001" style="fill:#808080;" width="8" height="2"/>
	</g>
</g>
<g id="Body_31_">
	<g>
		<path style="fill:#FF8833;" d="M17.012,4.001c0,0,1.326,8.937,1.555,9.8c0.389,1.466,0.411,2.2,5.442,2.2s5.054-0.734,5.443-2.2
			c0.229-0.863,1.555-9.8,1.555-9.8H17.012z"/>
	</g>
</g>
<g id="Rim_3_">
	<g>
		<path style="fill-rule:evenodd;clip-rule:evenodd;fill:#808080;" d="M31.239,2H16.75C16.335,2,16,2.448,16,3
			c0,0.553,0.335,1.001,0.75,1.001h14.489c0.414,0,0.75-0.448,0.75-1.001C31.988,2.448,31.653,2,31.239,2z M29.239,14H18.75
			C18.335,14,18,14.448,18,15c0,0.553,0.335,1.001,0.75,1.001h10.489c0.414,0,0.75-0.448,0.75-1.001
			C29.988,14.448,29.653,14,29.239,14z"/>
	</g>
</g>
<g id="Leather">
	<g>
		<path style="fill-rule:evenodd;clip-rule:evenodd;fill:#CCCCCC;" d="M31.007,2.001C31.007,2,31.007,2,31.007,2.001
			c0-1.105-0.87-2.001-1.944-2.001H18.956c-1.074,0-1.944,0.896-1.944,2c0,0,0,0,0,0.001H31.007z"/>
	</g>
</g>
<g id="Body_32_">
	<g>
		<path style="fill:#88C057;" d="M1.012,4.001c0,0,1.326,8.937,1.555,9.8c0.389,1.466,0.411,2.2,5.442,2.2s5.054-0.734,5.443-2.2
			c0.229-0.863,1.555-9.8,1.555-9.8H1.012z"/>
	</g>
</g>
<g id="Rim_4_">
	<g>
		<path style="fill-rule:evenodd;clip-rule:evenodd;fill:#808080;" d="M15.239,2H0.75C0.335,2,0,2.448,0,3
			c0,0.553,0.335,1.001,0.75,1.001h14.489c0.414,0,0.75-0.448,0.75-1.001C15.988,2.448,15.653,2,15.239,2z M13.239,14H2.75
			C2.335,14,2,14.448,2,15c0,0.553,0.335,1.001,0.75,1.001h10.489c0.414,0,0.75-0.448,0.75-1.001C13.988,14.448,13.653,14,13.239,14
			z"/>
	</g>
</g>
<g id="Leather_1_">
	<g>
		<path style="fill-rule:evenodd;clip-rule:evenodd;fill:#CCCCCC;" d="M15.008,2.001C15.008,2,15.008,2,15.008,2.001
			C15.008,0.896,14.137,0,13.063,0H2.956C1.882,0,1.012,0.896,1.012,2c0,0,0,0,0,0.001H15.008z"/>
	</g>
</g>
<g>
</g>
<g>
</g>
<g>
</g>
<g>
</g>
<g>
</g>
<g>
</g>
<g>
</g>
<g>
</g>
<g>
</g>
<g>
</g>
<g>
</g>
<g>
</g>
<g>
</g>
<g>
</g>
<g>
</g>
</svg>
