<?xml version="1.0" encoding="iso-8859-1"?>
<!-- Generator: Adobe Illustrator 16.0.0, SVG Export Plug-In . SVG Version: 6.00 Build 0)  -->
<!DOCTYPE svg PUBLIC "-//W3C//DTD SVG 1.1//EN" "http://www.w3.org/Graphics/SVG/1.1/DTD/svg11.dtd">
<svg version="1.1" id="Layer_1" xmlns="http://www.w3.org/2000/svg" xmlns:xlink="http://www.w3.org/1999/xlink" x="0px" y="0px"
	 width="32px" height="26px" viewBox="0 0 32 26" style="enable-background:new 0 0 32 26;" xml:space="preserve">
<g id="Cord">
	<g>
		<path style="fill:#48A0DC;" d="M26,12h-1H10.442H7H6c-2.209,0-4-1.791-4-4s1.791-4,4-4h1h3.442H26c0.553,0,1-0.448,1-1
			c0-0.553-0.447-1-1-1H7C6.91,2,6.829,2.029,6.746,2.051C6.502,2.02,6.254,2,6,2C2.687,2,0,4.687,0,8s2.687,6,6,6h1h14.557H25h1
			c2.209,0,4,1.791,4,4s-1.791,4-4,4h-1h-3.443H6c-0.553,0-1,0.447-1,1c0,0.552,0.447,1,1,1h19c0.09,0,0.171-0.029,0.254-0.051
			C25.498,23.979,25.746,24,26,24c3.313,0,6-2.687,6-6C32,14.686,29.313,12,26,12z"/>
	</g>
</g>
<g id="Plug">
	<g>
		<path style="fill-rule:evenodd;clip-rule:evenodd;fill:#B3B3B3;" d="M6,22H1c-0.553,0-1,0.447-1,1c0,0.552,0.447,1,1,1h5
			c0.553,0,1-0.448,1-1C7,22.447,6.553,22,6,22z M31,2h-5c-0.553,0-1,0.447-1,1c0,0.552,0.447,1,1,1h5c0.553,0,1-0.448,1-1
			C32,2.447,31.553,2,31,2z"/>
	</g>
</g>
<g id="Body_4_">
	<g>
		<path style="fill-rule:evenodd;clip-rule:evenodd;fill:#666666;" d="M14,20H9H8H6v2v2v2h2h1h5c1.104,0,2-0.896,2-2v-2
			C16,20.896,15.104,20,14,20z M24,0h-1h-5c-1.104,0-2,0.896-2,2v2c0,1.104,0.896,2,2,2h5h1h2V4V2V0H24z"/>
	</g>
</g>
<g id="Shape_7_">
	<g>
		<path style="fill-rule:evenodd;clip-rule:evenodd;fill:#4D4D4D;" d="M6,26h2v-6H6V26z M24,0v6h2V0H24z"/>
	</g>
</g>
<g>
</g>
<g>
</g>
<g>
</g>
<g>
</g>
<g>
</g>
<g>
</g>
<g>
</g>
<g>
</g>
<g>
</g>
<g>
</g>
<g>
</g>
<g>
</g>
<g>
</g>
<g>
</g>
<g>
</g>
</svg>
