<?xml version="1.0" encoding="iso-8859-1"?>
<!-- Generator: Adobe Illustrator 16.0.0, SVG Export Plug-In . SVG Version: 6.00 Build 0)  -->
<!DOCTYPE svg PUBLIC "-//W3C//DTD SVG 1.1//EN" "http://www.w3.org/Graphics/SVG/1.1/DTD/svg11.dtd">
<svg version="1.1" id="Layer_1" xmlns="http://www.w3.org/2000/svg" xmlns:xlink="http://www.w3.org/1999/xlink" x="0px" y="0px"
	 width="32px" height="32px" viewBox="0 0 32 32" style="enable-background:new 0 0 32 32;" xml:space="preserve">
<g id="Body_16_">
	<g>
		<path style="fill:#4D4D4D;" d="M30,0H2C0.896,0,0,0.895,0,2v28c0,1.104,0.896,2,2,2h28c1.104,0,2-0.896,2-2V2
			C32,0.895,31.104,0,30,0z"/>
	</g>
</g>
<g id="Shape_16_">
	<g>
		<rect x="2" y="2" style="fill:#B3B3B3;" width="28" height="22"/>
	</g>
</g>
<g id="Container">
	<g>
		<path style="fill:#666666;" d="M25,5H7C5.896,5,5,5.896,5,7v12c0,1.104,0.896,2,2,2h18c1.104,0,2-0.896,2-2V7
			C27,5.896,26.104,5,25,5z"/>
	</g>
</g>
<g id="Body_17_">
	<g>
		<path style="fill-rule:evenodd;clip-rule:evenodd;fill:#808080;" d="M24,9H8c-0.553,0-1,0.447-1,1v11h18V10
			C25,9.447,24.553,9,24,9z"/>
	</g>
</g>
<g id="Holes_1_">
	<g>
		<path style="fill-rule:evenodd;clip-rule:evenodd;fill:#4D4D4D;" d="M11,15c-0.553,0-1,0.447-1,1s0.447,1,1,1s1-0.447,1-1
			S11.553,15,11,15z M21,15c-0.553,0-1,0.447-1,1s0.447,1,1,1s1-0.447,1-1S21.553,15,21,15z"/>
	</g>
</g>
<g id="label">
	<g>
		<rect x="14" y="15" style="fill:#CCCCCC;" width="4" height="2"/>
	</g>
</g>
<g id="Rec">
	<g>
		<path style="fill:#ED7161;" d="M5,26H3c-0.553,0-1,0.447-1,1v2c0,0.552,0.447,1,1,1h2c0.553,0,1-0.448,1-1v-2
			C6,26.447,5.553,26,5,26z"/>
	</g>
</g>
<g id="Btns_1_">
	<g>
		<path style="fill-rule:evenodd;clip-rule:evenodd;fill:#808080;" d="M11,26H9c-0.553,0-1,0.447-1,1v2c0,0.552,0.447,1,1,1h2
			c0.553,0,1-0.448,1-1v-2C12,26.447,11.553,26,11,26z M17,26h-2c-0.553,0-1,0.447-1,1v2c0,0.552,0.447,1,1,1h2c0.553,0,1-0.448,1-1
			v-2C18,26.447,17.553,26,17,26z M23,26h-2c-0.553,0-1,0.447-1,1v2c0,0.552,0.447,1,1,1h2c0.553,0,1-0.448,1-1v-2
			C24,26.447,23.553,26,23,26z M29,26h-2c-0.553,0-1,0.447-1,1v2c0,0.552,0.447,1,1,1h2c0.553,0,1-0.448,1-1v-2
			C30,26.447,29.553,26,29,26z"/>
	</g>
</g>
<g>
</g>
<g>
</g>
<g>
</g>
<g>
</g>
<g>
</g>
<g>
</g>
<g>
</g>
<g>
</g>
<g>
</g>
<g>
</g>
<g>
</g>
<g>
</g>
<g>
</g>
<g>
</g>
<g>
</g>
</svg>
