<?xml version="1.0" encoding="iso-8859-1"?>
<!-- Generator: Adobe Illustrator 16.0.0, SVG Export Plug-In . SVG Version: 6.00 Build 0)  -->
<!DOCTYPE svg PUBLIC "-//W3C//DTD SVG 1.1//EN" "http://www.w3.org/Graphics/SVG/1.1/DTD/svg11.dtd">
<svg version="1.1" id="Layer_1" xmlns="http://www.w3.org/2000/svg" xmlns:xlink="http://www.w3.org/1999/xlink" x="0px" y="0px"
	 width="32px" height="28px" viewBox="0 0 32 28" style="enable-background:new 0 0 32 28;" xml:space="preserve">
<g id="Body_18_">
	<g>
		<path style="fill:#FF8833;" d="M30,6H2C0.896,6,0,6.896,0,8v18c0,1.105,0.896,2,2,2h28c1.104,0,2-0.895,2-2V8
			C32,6.896,31.104,6,30,6z"/>
	</g>
</g>
<g id="Speaker_8_">
	<g>
		<circle style="fill:#B35F24;" cx="11" cy="17" r="8"/>
	</g>
</g>
<g id="Speaker_9_">
	<g>
		<circle style="fill:#FF8833;" cx="11" cy="17" r="2"/>
	</g>
</g>
<g id="Btns_6_">
	<g>
		<path style="fill-rule:evenodd;clip-rule:evenodd;fill:#FFFFFF;" d="M23,12c-0.553,0-1,0.448-1,1c0,0.553,0.447,1,1,1s1-0.447,1-1
			C24,12.448,23.553,12,23,12z M27,14c0.552,0,1-0.447,1-1c0-0.552-0.448-1-1-1c-0.553,0-1,0.448-1,1C26,13.553,26.447,14,27,14z
			 M23,20c-0.553,0-1,0.448-1,1c0,0.553,0.447,1,1,1s1-0.447,1-1C24,20.448,23.553,20,23,20z M27,20c-0.553,0-1,0.448-1,1
			c0,0.553,0.447,1,1,1c0.552,0,1-0.447,1-1C28,20.448,27.552,20,27,20z M23,16c-0.553,0-1,0.448-1,1c0,0.553,0.447,1,1,1
			s1-0.447,1-1C24,16.448,23.553,16,23,16z M27,16c-0.553,0-1,0.448-1,1c0,0.553,0.447,1,1,1c0.552,0,1-0.447,1-1
			C28,16.448,27.552,16,27,16z"/>
	</g>
</g>
<g id="handle">
	<g>
		<path style="fill-rule:evenodd;clip-rule:evenodd;fill:#CCCCCC;" d="M9,3c0-0.552,0.447-1,1-1h12c0.553,0,1,0.448,1,1v3h2V2
			c0-1.104-0.896-2-2-2H9C7.896,0,7,0.896,7,2v4h2V3z"/>
	</g>
</g>
<g>
</g>
<g>
</g>
<g>
</g>
<g>
</g>
<g>
</g>
<g>
</g>
<g>
</g>
<g>
</g>
<g>
</g>
<g>
</g>
<g>
</g>
<g>
</g>
<g>
</g>
<g>
</g>
<g>
</g>
</svg>
