<?xml version="1.0" encoding="iso-8859-1"?>
<!-- Generator: Adobe Illustrator 16.0.0, SVG Export Plug-In . SVG Version: 6.00 Build 0)  -->
<!DOCTYPE svg PUBLIC "-//W3C//DTD SVG 1.1//EN" "http://www.w3.org/Graphics/SVG/1.1/DTD/svg11.dtd">
<svg version="1.1" id="Layer_1" xmlns="http://www.w3.org/2000/svg" xmlns:xlink="http://www.w3.org/1999/xlink" x="0px" y="0px"
	 width="32px" height="28px" viewBox="0 0 32 28" style="enable-background:new 0 0 32 28;" xml:space="preserve">
<g id="Base_23_">
	<g>
		<path style="fill:#48A0DC;" d="M30,6.001H2C0.896,6.001,0,6.896,0,8v18c0,1.104,0.896,2,2,2h28c1.104,0,2-0.896,2-2V8
			C32,6.896,31.104,6.001,30,6.001z"/>
	</g>
</g>
<g id="Shape_25_">
	<g>
		<path style="fill:#54BBFF;" d="M30,6.001H2C0.896,6.001,0,6.896,0,8v2c0,1.104,0.896,2,2,2h28c1.104,0,2-0.896,2-2V8
			C32,6.896,31.104,6.001,30,6.001z"/>
	</g>
</g>
<g id="Speakers_1_">
	<g>
		<path style="fill-rule:evenodd;clip-rule:evenodd;fill:#387BA8;" d="M8,14c-3.313,0-6,2.687-6,6s2.687,6,6,6s6-2.687,6-6
			S11.313,14,8,14z M24,14c-3.313,0-6,2.687-6,6s2.687,6,6,6s6-2.687,6-6S27.313,14,24,14z"/>
	</g>
</g>
<g id="Shape_26_">
	<g>
		<path style="fill-rule:evenodd;clip-rule:evenodd;fill:#4D4D4D;" d="M8,19c-0.553,0-1,0.448-1,1c0,0.553,0.447,1,1,1
			c0.552,0,1-0.447,1-1C9,19.448,8.552,19,8,19z M24,19c-0.553,0-1,0.448-1,1c0,0.553,0.447,1,1,1s1-0.447,1-1
			C25,19.448,24.553,19,24,19z"/>
	</g>
</g>
<g id="Handle">
	<g>
		<path style="fill-rule:evenodd;clip-rule:evenodd;fill:#CCCCCC;" d="M4,3c0-0.552,0.447-1,1-1h22c0.553,0,1,0.448,1,1v3.001h2V2
			c0-1.104-0.896-2-2-2H4C2.896,0,2,0.896,2,2v4.001h2V3z"/>
	</g>
</g>
<g id="Btns_9_">
	<g>
		<path style="fill-rule:evenodd;clip-rule:evenodd;fill:#FFFFFF;" d="M5,8C4.447,8,4,8.448,4,9c0,0.553,0.447,1,1,1s1-0.447,1-1
			C6,8.448,5.553,8,5,8z M9,8C8.447,8,8,8.448,8,9c0,0.553,0.447,1,1,1s1-0.447,1-1C10,8.448,9.553,8,9,8z"/>
	</g>
</g>
<g id="Btns_10_">
	<g>
		<path style="fill-rule:evenodd;clip-rule:evenodd;fill:#666666;" d="M23,8c-0.553,0-1,0.448-1,1c0,0.553,0.447,1,1,1s1-0.447,1-1
			C24,8.448,23.553,8,23,8z M27,8c-0.553,0-1,0.448-1,1c0,0.553,0.447,1,1,1s1-0.447,1-1C28,8.448,27.553,8,27,8z"/>
	</g>
</g>
<g>
</g>
<g>
</g>
<g>
</g>
<g>
</g>
<g>
</g>
<g>
</g>
<g>
</g>
<g>
</g>
<g>
</g>
<g>
</g>
<g>
</g>
<g>
</g>
<g>
</g>
<g>
</g>
<g>
</g>
</svg>
