<?xml version="1.0" encoding="iso-8859-1"?>
<!-- Generator: Adobe Illustrator 16.0.0, SVG Export Plug-In . SVG Version: 6.00 Build 0)  -->
<!DOCTYPE svg PUBLIC "-//W3C//DTD SVG 1.1//EN" "http://www.w3.org/Graphics/SVG/1.1/DTD/svg11.dtd">
<svg version="1.1" id="Layer_1" xmlns="http://www.w3.org/2000/svg" xmlns:xlink="http://www.w3.org/1999/xlink" x="0px" y="0px"
	 width="32.001px" height="21px" viewBox="0 0 32.001 21" style="enable-background:new 0 0 32.001 21;" xml:space="preserve">
<g id="Base_28_">
	<g>
		<path style="fill:#CCCCCC;" d="M30.001,0H2C0.896,0,0,0.896,0,2v17c0,1.104,0.896,2,2,2h28.001c1.104,0,2-0.896,2-2V2
			C32.001,0.896,31.106,0,30.001,0z"/>
	</g>
</g>
<g id="Shape_31_">
	<g>
		<rect x="2" y="2" style="fill:#E6E6E6;" width="28.001" height="17"/>
	</g>
</g>
<g id="Shape_32_">
	<g>
		<path style="fill:#999999;" d="M24.037,15.496c-0.205-0.322-0.579-0.485-0.961-0.481C23.049,15.013,23.027,15,23.001,15H9
			c-0.026,0-0.048,0.013-0.074,0.015c-0.382-0.004-0.757,0.159-0.961,0.481L4.471,21h2.52h18.02h2.52L24.037,15.496z"/>
	</g>
</g>
<g id="Holes_4_">
	<g>
		<path style="fill-rule:evenodd;clip-rule:evenodd;fill:#FFFFFF;" d="M11,17c-0.552,0-1,0.448-1,1s0.448,1,1,1s1-0.448,1-1
			S11.553,17,11,17z M21.001,17c-0.552,0-1,0.448-1,1s0.448,1,1,1s1-0.448,1-1S21.553,17,21.001,17z"/>
	</g>
</g>
<g id="Label_5_">
	<g>
		<path style="fill:#ED7161;" d="M18.001,8h-4c-0.553,0-1,0.447-1,1c0,0.552,0.448,1,1,1h4c0.552,0,1-0.448,1-1
			C19.001,8.447,18.553,8,18.001,8z"/>
	</g>
</g>
<g id="Holes_5_">
	<g>
		<path style="fill-rule:evenodd;clip-rule:evenodd;fill:#666666;" d="M9,7C7.896,7,7,7.896,7,9s0.896,2,2,2s2-0.896,2-2
			S10.105,7,9,7z M23.001,7c-1.104,0-2,0.896-2,2s0.896,2,2,2s2-0.896,2-2S24.105,7,23.001,7z"/>
	</g>
</g>
<g>
</g>
<g>
</g>
<g>
</g>
<g>
</g>
<g>
</g>
<g>
</g>
<g>
</g>
<g>
</g>
<g>
</g>
<g>
</g>
<g>
</g>
<g>
</g>
<g>
</g>
<g>
</g>
<g>
</g>
</svg>
