<?xml version="1.0" encoding="iso-8859-1"?>
<!-- Generator: Adobe Illustrator 16.0.0, SVG Export Plug-In . SVG Version: 6.00 Build 0)  -->
<!DOCTYPE svg PUBLIC "-//W3C//DTD SVG 1.1//EN" "http://www.w3.org/Graphics/SVG/1.1/DTD/svg11.dtd">
<svg version="1.1" id="Layer_1" xmlns="http://www.w3.org/2000/svg" xmlns:xlink="http://www.w3.org/1999/xlink" x="0px" y="0px"
	 width="32.565px" height="32px" viewBox="0 0 32.565 32" style="enable-background:new 0 0 32.565 32;" xml:space="preserve">
<g id="Case_4_">
	<g>
		<path style="fill:#666666;" d="M30,0H2C0.895,0,0,0.896,0,2v28c0,1.104,0.895,2,2,2h28c1.104,0,2-0.896,2-2V2
			C32,0.896,31.104,0,30,0z"/>
	</g>
</g>
<g id="Case_Side">
	<g>
		<path style="fill-rule:evenodd;clip-rule:evenodd;fill:#4D4B4B;" d="M2,0C0.895,0,0,0.896,0,2v28c0,1.104,0.895,2,2,2h2V0H2z"/>
	</g>
</g>
<g id="Base_24_">
	<g>
		<path style="fill-rule:evenodd;clip-rule:evenodd;fill:#CCCCCC;" d="M18,5C11.925,5,7,9.925,7,16s4.925,11,11,11
			c6.075,0,11-4.925,11-11S24.075,5,18,5z M18,17c-0.552,0-1-0.447-1-1c0-0.552,0.447-1,1-1c0.553,0,1,0.448,1,1
			C19,16.553,18.552,17,18,17z"/>
	</g>
</g>
<g id="Reflection_2_">
	<g>
		<path style="fill-rule:evenodd;clip-rule:evenodd;fill:#E6E6E6;" d="M8.467,17.263c0.302,2.303,1.417,4.345,3.05,5.837
			l3.265-3.544c-0.801-0.727-1.351-1.71-1.521-2.828L8.467,17.263z M24.483,8.901l-3.264,3.544c0.801,0.726,1.35,1.71,1.52,2.829
			l4.794-0.535C27.23,12.435,26.116,10.393,24.483,8.901z"/>
	</g>
</g>
<g id="Base_25_">
	<g>
		<path style="fill-rule:evenodd;clip-rule:evenodd;fill:#666666;" d="M18,12c-2.209,0-4,1.791-4,4s1.791,4,4,4c2.209,0,4-1.791,4-4
			S20.209,12,18,12z M18,18.008c-1.109,0-2.008-0.899-2.008-2.008s0.899-2.008,2.008-2.008s2.008,0.899,2.008,2.008
			S19.108,18.008,18,18.008z"/>
	</g>
</g>
<g>
</g>
<g>
</g>
<g>
</g>
<g>
</g>
<g>
</g>
<g>
</g>
<g>
</g>
<g>
</g>
<g>
</g>
<g>
</g>
<g>
</g>
<g>
</g>
<g>
</g>
<g>
</g>
<g>
</g>
</svg>
