<?xml version="1.0" encoding="iso-8859-1"?>
<!-- Generator: Adobe Illustrator 16.0.0, SVG Export Plug-In . SVG Version: 6.00 Build 0)  -->
<!DOCTYPE svg PUBLIC "-//W3C//DTD SVG 1.1//EN" "http://www.w3.org/Graphics/SVG/1.1/DTD/svg11.dtd">
<svg version="1.1" id="Layer_1" xmlns="http://www.w3.org/2000/svg" xmlns:xlink="http://www.w3.org/1999/xlink" x="0px" y="0px"
	 width="32.015px" height="32px" viewBox="0 0 32.015 32" style="enable-background:new 0 0 32.015 32;" xml:space="preserve">
<g id="Base_10_">
	<g>
		<path style="fill:#CCCCCC;" d="M32.007,25V2c0-1.104-0.896-2-2-2h-28c-1.104,0-2,0.896-2,2v23c0,1.104-0.237,2.754,2,4
			c0,0,6.604,3,13.397,3c7.195,0,14.603-3,14.603-3C32.253,28.111,32.007,26.104,32.007,25z"/>
	</g>
</g>
<g id="Base_11_">
	<g>
		<path style="fill:#E6E6E6;" d="M32.007,21V2c0-1.104-0.896-2-2-2h-28c-1.104,0-2,0.896-2,2v19c0,1.104-0.237,2.754,2,4
			c0,0,6.604,3,13.397,3c7.195,0,14.603-3,14.603-3C32.253,24.111,32.007,22.104,32.007,21z"/>
	</g>
</g>
<g id="Display_1_">
	<g>
		<path style="fill:#88C057;" d="M21.007,19h-10c-0.553,0-1,0.448-1,1v2c0,0.553,0.447,1,1,1h10c0.552,0,1-0.447,1-1v-2
			C22.007,19.448,21.559,19,21.007,19z"/>
	</g>
</g>
<g id="Btns_2_">
	<g>
		<path style="fill-rule:evenodd;clip-rule:evenodd;fill:#B3B3B3;" d="M6.007,20h-2c-0.553,0-1,0.448-1,1c0,0.553,0.447,1,1,1h2
			c0.552,0,1-0.447,1-1C7.007,20.448,6.559,20,6.007,20z M28.007,20h-2c-0.553,0-1,0.448-1,1c0,0.553,0.447,1,1,1h2
			c0.552,0,1-0.447,1-1C29.007,20.448,28.559,20,28.007,20z"/>
	</g>
</g>
<g>
</g>
<g>
</g>
<g>
</g>
<g>
</g>
<g>
</g>
<g>
</g>
<g>
</g>
<g>
</g>
<g>
</g>
<g>
</g>
<g>
</g>
<g>
</g>
<g>
</g>
<g>
</g>
<g>
</g>
</svg>
