<?xml version="1.0" encoding="iso-8859-1"?>
<!-- Generator: Adobe Illustrator 16.0.0, SVG Export Plug-In . SVG Version: 6.00 Build 0)  -->
<!DOCTYPE svg PUBLIC "-//W3C//DTD SVG 1.1//EN" "http://www.w3.org/Graphics/SVG/1.1/DTD/svg11.dtd">
<svg version="1.1" id="Layer_1" xmlns="http://www.w3.org/2000/svg" xmlns:xlink="http://www.w3.org/1999/xlink" x="0px" y="0px"
	 width="42.375px" height="32px" viewBox="0 0 42.375 32" style="enable-background:new 0 0 42.375 32;" xml:space="preserve">
<g id="Base_26_">
	<g>
		<path style="fill-rule:evenodd;clip-rule:evenodd;fill:#CCCCCC;" d="M21.187,0c-8.837,0-16,7.163-16,16c0,8.836,7.164,16,16,16
			s16-7.164,16-16C37.188,7.163,30.024,0,21.187,0z M21.187,18c-1.105,0-2-0.896-2-2s0.895-2,2-2c1.104,0,2,0.896,2,2
			S22.292,18,21.187,18z"/>
	</g>
</g>
<g id="Reflection_3_">
	<g>
		<path style="fill-rule:evenodd;clip-rule:evenodd;fill:#E6E6E6;" d="M7.321,17.837c0.44,3.35,2.061,6.319,4.436,8.489l4.737-5.144
			c-1.166-1.056-1.971-2.495-2.219-4.123L7.321,17.837z M30.617,5.673l-4.737,5.143c1.166,1.056,1.971,2.497,2.219,4.124
			l6.955-0.776C34.614,10.813,32.992,7.843,30.617,5.673z"/>
	</g>
</g>
<g id="Base_27_">
	<g>
		<path style="fill-rule:evenodd;clip-rule:evenodd;fill:#666666;" d="M21.187,11c-2.762,0-5,2.238-5,5c0,2.761,2.238,5,5,5
			c2.761,0,5-2.239,5-5C26.188,13.238,23.948,11,21.187,11z M21.187,18c-1.105,0-2-0.896-2-2s0.895-2,2-2c1.104,0,2,0.896,2,2
			S22.292,18,21.187,18z"/>
	</g>
</g>
<g>
</g>
<g>
</g>
<g>
</g>
<g>
</g>
<g>
</g>
<g>
</g>
<g>
</g>
<g>
</g>
<g>
</g>
<g>
</g>
<g>
</g>
<g>
</g>
<g>
</g>
<g>
</g>
<g>
</g>
</svg>
