<?xml version="1.0" encoding="iso-8859-1"?>
<!-- Generator: Adobe Illustrator 16.0.0, SVG Export Plug-In . SVG Version: 6.00 Build 0)  -->
<!DOCTYPE svg PUBLIC "-//W3C//DTD SVG 1.1//EN" "http://www.w3.org/Graphics/SVG/1.1/DTD/svg11.dtd">
<svg version="1.1" id="Layer_1" xmlns="http://www.w3.org/2000/svg" xmlns:xlink="http://www.w3.org/1999/xlink" x="0px" y="0px"
	 width="32.004px" height="30.009px" viewBox="0 0 32.004 30.009" style="enable-background:new 0 0 32.004 30.009;"
	 xml:space="preserve">
<g id="Body_43_">
	<g>
		<path style="fill-rule:evenodd;clip-rule:evenodd;fill:#88C057;" d="M29,3.009c-0.525-0.525-3.33-3.179-4-3
			c-0.329,0.088-1.741,3.741-2,4L5.168,23.392C5.67,23.755,6,24.342,6,25.009c0,1.104-0.896,2-2,2c-0.607,0-1.145-0.277-1.512-0.704
			L0,29.009v1h5l23-21c0.298-0.298,3.929-1.615,4-2C32.117,6.38,29.486,3.495,29,3.009z"/>
	</g>
</g>
<g id="Holes_9_">
	<g>
		<path style="fill-rule:evenodd;clip-rule:evenodd;fill:#638C3F;" d="M8,19.009c-0.553,0-1,0.447-1,1c0,0.552,0.447,1,1,1
			s1-0.448,1-1C9,19.456,8.553,19.009,8,19.009z M11,16.009c-0.553,0-1,0.447-1,1c0,0.552,0.447,1,1,1s1-0.448,1-1
			C12,16.456,11.553,16.009,11,16.009z M14,13.009c-0.553,0-1,0.447-1,1c0,0.552,0.447,1,1,1s1-0.448,1-1
			C15,13.456,14.553,13.009,14,13.009z M17,10.009c-0.553,0-1,0.447-1,1c0,0.552,0.447,1,1,1s1-0.448,1-1
			C18,10.456,17.553,10.009,17,10.009z M20,7.009c-0.553,0-1,0.447-1,1c0,0.552,0.447,1,1,1s1-0.448,1-1
			C21,7.456,20.553,7.009,20,7.009z"/>
	</g>
</g>
<g>
</g>
<g>
</g>
<g>
</g>
<g>
</g>
<g>
</g>
<g>
</g>
<g>
</g>
<g>
</g>
<g>
</g>
<g>
</g>
<g>
</g>
<g>
</g>
<g>
</g>
<g>
</g>
<g>
</g>
</svg>
