<?xml version="1.0" encoding="iso-8859-1"?>
<!-- Generator: Adobe Illustrator 16.0.0, SVG Export Plug-In . SVG Version: 6.00 Build 0)  -->
<!DOCTYPE svg PUBLIC "-//W3C//DTD SVG 1.1//EN" "http://www.w3.org/Graphics/SVG/1.1/DTD/svg11.dtd">
<svg version="1.1" id="Layer_1" xmlns="http://www.w3.org/2000/svg" xmlns:xlink="http://www.w3.org/1999/xlink" x="0px" y="0px"
	 width="16px" height="31.999px" viewBox="0 0 16 31.999" style="enable-background:new 0 0 16 31.999;" xml:space="preserve">
<g id="Leg">
	<g>
		<rect x="6" y="24.999" style="fill:#B3B3B3;" width="4" height="5.001"/>
	</g>
</g>
<g id="Base_5_">
	<g>
		<path style="fill:#CCCCCC;" d="M8,28.999c-3.357,0-6.226,0.069-7.413,3h14.827C14.226,29.068,11.357,28.999,8,28.999z"/>
	</g>
</g>
<g id="Body_3_">
	<g>
		<path style="fill:#ED7161;" d="M8,0C3.582,0,0,3.581,0,8v10c0,4.418,3.582,8,8,8c4.418,0,8-3.582,8-8V8C16,3.581,12.419,0,8,0z"/>
	</g>
</g>
<g id="Speaker_Body">
	<g>
		<path style="fill-rule:evenodd;clip-rule:evenodd;fill:#B35549;" d="M8,13c-2.762,0-5,2.238-5,5c0,2.761,2.239,5,5,5
			c2.761,0,5-2.239,5-5C13,15.238,10.762,13,8,13z M8,10c1.657,0,3-1.344,3-3c0-1.657-1.343-3-3-3C6.343,4,5,5.343,5,7
			C5,8.656,6.343,10,8,10z"/>
	</g>
</g>
<g id="Speaker">
	<g>
		<path style="fill-rule:evenodd;clip-rule:evenodd;fill:#ED7161;" d="M8,17c-0.552,0-1,0.447-1,1c0,0.552,0.448,1,1,1s1-0.448,1-1
			C9,17.447,8.553,17,8,17z M8,8c0.552,0,1-0.448,1-1c0-0.553-0.448-1-1-1S7,6.447,7,7C7,7.552,7.448,8,8,8z"/>
	</g>
</g>
<g>
</g>
<g>
</g>
<g>
</g>
<g>
</g>
<g>
</g>
<g>
</g>
<g>
</g>
<g>
</g>
<g>
</g>
<g>
</g>
<g>
</g>
<g>
</g>
<g>
</g>
<g>
</g>
<g>
</g>
</svg>
