<?xml version="1.0" encoding="iso-8859-1"?>
<!-- Generator: Adobe Illustrator 16.0.0, SVG Export Plug-In . SVG Version: 6.00 Build 0)  -->
<!DOCTYPE svg PUBLIC "-//W3C//DTD SVG 1.1//EN" "http://www.w3.org/Graphics/SVG/1.1/DTD/svg11.dtd">
<svg version="1.1" id="Layer_1" xmlns="http://www.w3.org/2000/svg" xmlns:xlink="http://www.w3.org/1999/xlink" x="0px" y="0px"
	 width="32px" height="32.022px" viewBox="0 0 32 32.022" style="enable-background:new 0 0 32 32.022;" xml:space="preserve">
<g id="Tripod_1_">
	<g>
		<path style="fill-rule:evenodd;clip-rule:evenodd;fill:#CCCCCC;" d="M21.855,30.484L17.01,22.49
			c-0.002-0.004-0.007-0.006-0.01-0.011V1c0-0.553-0.448-1-1-1s-1,0.447-1,1v21.479c-0.002,0.004-0.007,0.006-0.01,0.011
			l-4.846,7.994c-0.297,0.49-0.121,1.117,0.395,1.4S11.712,32,12.009,31.51L15,26.576V30c0,0.552,0.448,1,1,1s1-0.448,1-1v-3.423
			l2.99,4.933c0.297,0.49,0.956,0.658,1.471,0.375S22.153,30.975,21.855,30.484z"/>
	</g>
</g>
<g id="Cymbal">
	<g>
		<path style="fill-rule:evenodd;clip-rule:evenodd;fill:#CCA352;" d="M16,2c-1.657,0-3,1.343-3,3h6C19,3.343,17.657,2,16,2z M16,12
			c1.657,0,3-1.344,3-3h-6C13,10.656,14.343,12,16,12z"/>
	</g>
</g>
<g id="Cymbal_1_">
	<g>
		<path style="fill-rule:evenodd;clip-rule:evenodd;fill:#FFCC66;" d="M22,4H10C7.791,4,0,3.791,0,6h32C32,3.791,24.209,4,22,4z
			 M10,10h12c2.209,0,10,0.209,10-2H0C0,10.209,7.791,10,10,10z"/>
	</g>
</g>
<g>
</g>
<g>
</g>
<g>
</g>
<g>
</g>
<g>
</g>
<g>
</g>
<g>
</g>
<g>
</g>
<g>
</g>
<g>
</g>
<g>
</g>
<g>
</g>
<g>
</g>
<g>
</g>
<g>
</g>
</svg>
