<?xml version="1.0" encoding="iso-8859-1"?>
<!-- Generator: Adobe Illustrator 16.0.0, SVG Export Plug-In . SVG Version: 6.00 Build 0)  -->
<!DOCTYPE svg PUBLIC "-//W3C//DTD SVG 1.1//EN" "http://www.w3.org/Graphics/SVG/1.1/DTD/svg11.dtd">
<svg version="1.1" id="Layer_1" xmlns="http://www.w3.org/2000/svg" xmlns:xlink="http://www.w3.org/1999/xlink" x="0px" y="0px"
	 width="22px" height="31.938px" viewBox="0 0 22 31.938" style="enable-background:new 0 0 22 31.938;" xml:space="preserve">
<g id="Base_35_">
	<g>
		<path style="fill:#FF8833;" d="M19,0H3C1.896,0,1,0.895,1,1.997v27.945c0,1.103,0.896,1.996,2,1.996h16c1.104,0,2-0.894,2-1.996
			V1.997C21,0.895,20.104,0,19,0z"/>
	</g>
</g>
<g id="Knobs_3_">
	<g>
		<path style="fill-rule:evenodd;clip-rule:evenodd;fill:#B35F24;" d="M6,1.996c-1.104,0-2,0.894-2,1.996s0.896,1.996,2,1.996
			s2-0.894,2-1.996S7.104,1.996,6,1.996z M11,5.989c-1.104,0-2,0.894-2,1.996c0,1.102,0.896,1.996,2,1.996s2-0.895,2-1.996
			C13,6.883,12.104,5.989,11,5.989z M16,1.996c-1.104,0-2,0.894-2,1.996s0.896,1.996,2,1.996s2-0.894,2-1.996S17.104,1.996,16,1.996
			z"/>
	</g>
</g>
<g id="Pedal_Body">
	<g>
		<path style="fill:#FF9E59;" d="M20,11.978H2c-1.104,0-2,0.894-2,1.996v15.969c0,1.103,0.896,1.996,2,1.996h18
			c1.104,0,2-0.894,2-1.996V13.974C22,12.871,21.104,11.978,20,11.978z"/>
	</g>
</g>
<g id="Pedal">
	<g>
		<path style="fill:#333333;" d="M18,13.974H4c-1.104,0-2,0.894-2,1.996v11.977c0,1.102,0.896,1.996,2,1.996h14
			c1.104,0,2-0.895,2-1.996V15.97C20,14.867,19.104,13.974,18,13.974z"/>
	</g>
</g>
<g id="Stripes_6_">
	<g>
		<path style="fill-rule:evenodd;clip-rule:evenodd;fill:#4D4D4D;" d="M5,15.97c-0.552,0-1,0.446-1,0.998v9.98
			c0,0.551,0.448,0.998,1,0.998s1-0.447,1-0.998v-9.98C6,16.416,5.552,15.97,5,15.97z M9,15.97c-0.552,0-1,0.446-1,0.998v9.98
			c0,0.551,0.448,0.998,1,0.998s1-0.447,1-0.998v-9.98C10,16.416,9.552,15.97,9,15.97z M13,15.97c-0.552,0-1,0.446-1,0.998v9.98
			c0,0.551,0.448,0.998,1,0.998s1-0.447,1-0.998v-9.98C14,16.416,13.552,15.97,13,15.97z M17,15.97c-0.552,0-1,0.446-1,0.998v9.98
			c0,0.551,0.448,0.998,1,0.998s1-0.447,1-0.998v-9.98C18,16.416,17.552,15.97,17,15.97z"/>
	</g>
</g>
<g>
</g>
<g>
</g>
<g>
</g>
<g>
</g>
<g>
</g>
<g>
</g>
<g>
</g>
<g>
</g>
<g>
</g>
<g>
</g>
<g>
</g>
<g>
</g>
<g>
</g>
<g>
</g>
<g>
</g>
</svg>
