<?xml version="1.0" encoding="iso-8859-1"?>
<!-- Generator: Adobe Illustrator 16.0.0, SVG Export Plug-In . SVG Version: 6.00 Build 0)  -->
<!DOCTYPE svg PUBLIC "-//W3C//DTD SVG 1.1//EN" "http://www.w3.org/Graphics/SVG/1.1/DTD/svg11.dtd">
<svg version="1.1" id="Layer_1" xmlns="http://www.w3.org/2000/svg" xmlns:xlink="http://www.w3.org/1999/xlink" x="0px" y="0px"
	 width="32px" height="32px" viewBox="0 0 32 32" style="enable-background:new 0 0 32 32;" xml:space="preserve">
<g id="Body_20_">
	<g>
		<path style="fill-rule:evenodd;clip-rule:evenodd;fill:#666666;" d="M18,0H2C0.896,0,0,0.896,0,2v28c0,1.104,0.896,2,2,2h16h2v-2
			V2V0H18z"/>
	</g>
</g>
<g id="Shape_33_">
	<g>
		<circle style="fill:#CCCCCC;" cx="10" cy="20" r="8"/>
	</g>
</g>
<g id="Shape_34_">
	<g>
		<circle style="fill:#FFFBF2;" cx="10" cy="20" r="5"/>
	</g>
</g>
<g id="Hole_2_">
	<g>
		<circle style="fill:#666666;" cx="10" cy="20" r="1"/>
	</g>
</g>
<g id="Body_21_">
	<g>
		<path style="fill-rule:evenodd;clip-rule:evenodd;fill:#CCCCCC;" d="M30,0h-6h-2h-2v2v28v2h2h2h6c1.104,0,2-0.896,2-2V2
			C32,0.896,31.104,0,30,0z"/>
	</g>
</g>
<g id="Slides">
	<g>
		<path style="fill-rule:evenodd;clip-rule:evenodd;fill:#999999;" d="M29,26h-6c-0.553,0-1,0.448-1,1s0.447,1,1,1h6
			c0.552,0,1-0.448,1-1S29.552,26,29,26z M23,22h6c0.552,0,1-0.448,1-1c0-0.553-0.448-1-1-1h-6c-0.553,0-1,0.447-1,1
			C22,21.552,22.447,22,23,22z"/>
	</g>
</g>
<g id="Controllers">
	<g>
		<path style="fill-rule:evenodd;clip-rule:evenodd;fill:#808080;" d="M26,20c0-0.553-0.448-1-1-1c-0.553,0-1,0.447-1,1v2
			c0,0.552,0.447,1,1,1c0.552,0,1-0.448,1-1V20z M27,25c-0.553,0-1,0.447-1,1v2c0,0.553,0.447,1,1,1c0.552,0,1-0.447,1-1v-2
			C28,25.447,27.552,25,27,25z"/>
	</g>
</g>
<g id="Btns_11_">
	<g>
		<path style="fill-rule:evenodd;clip-rule:evenodd;fill:#999999;" d="M5,3C4.447,3,4,3.447,4,4c0,0.552,0.447,1,1,1s1-0.448,1-1
			C6,3.447,5.553,3,5,3z M9,3C8.447,3,8,3.447,8,4c0,0.552,0.447,1,1,1s1-0.448,1-1C10,3.447,9.553,3,9,3z M9,7C8.447,7,8,7.447,8,8
			c0,0.552,0.447,1,1,1s1-0.448,1-1C10,7.447,9.553,7,9,7z M5,7C4.447,7,4,7.447,4,8c0,0.552,0.447,1,1,1s1-0.448,1-1
			C6,7.447,5.553,7,5,7z M14,4c-1.104,0-2,0.896-2,2s0.896,2,2,2s2-0.896,2-2S15.104,4,14,4z M28,5c0.553,0,1-0.448,1-1
			c0-0.553-0.447-1-1-1s-1,0.447-1,1C27,4.552,27.447,5,28,5z M24,3c-0.553,0-1,0.447-1,1c0,0.552,0.447,1,1,1s1-0.448,1-1
			C25,3.447,24.553,3,24,3z M28,7c-0.553,0-1,0.447-1,1c0,0.552,0.447,1,1,1s1-0.448,1-1C29,7.447,28.553,7,28,7z M28,11
			c-0.553,0-1,0.447-1,1c0,0.552,0.447,1,1,1s1-0.448,1-1C29,11.447,28.553,11,28,11z M24,11c-0.553,0-1,0.447-1,1
			c0,0.552,0.447,1,1,1s1-0.448,1-1C25,11.447,24.553,11,24,11z M24,7c-0.553,0-1,0.447-1,1c0,0.552,0.447,1,1,1s1-0.448,1-1
			C25,7.447,24.553,7,24,7z"/>
	</g>
</g>
<g>
</g>
<g>
</g>
<g>
</g>
<g>
</g>
<g>
</g>
<g>
</g>
<g>
</g>
<g>
</g>
<g>
</g>
<g>
</g>
<g>
</g>
<g>
</g>
<g>
</g>
<g>
</g>
<g>
</g>
</svg>
