<?xml version="1.0" encoding="iso-8859-1"?>
<!-- Generator: Adobe Illustrator 16.0.0, SVG Export Plug-In . SVG Version: 6.00 Build 0)  -->
<!DOCTYPE svg PUBLIC "-//W3C//DTD SVG 1.1//EN" "http://www.w3.org/Graphics/SVG/1.1/DTD/svg11.dtd">
<svg version="1.1" id="Layer_1" xmlns="http://www.w3.org/2000/svg" xmlns:xlink="http://www.w3.org/1999/xlink" x="0px" y="0px"
	 width="24px" height="32.001px" viewBox="0 0 24 32.001" style="enable-background:new 0 0 24 32.001;" xml:space="preserve">
<g id="Stand">
	<g>
		<polygon style="fill-rule:evenodd;clip-rule:evenodd;fill:#E6B85C;" points="16,21 12,21 8,21 4,32.001 12,32.001 20,32.001 		"/>
	</g>
</g>
<g id="Body_34_">
	<g>
		<path style="fill-rule:evenodd;clip-rule:evenodd;fill:#FFCC66;" d="M23,12.001v-7H12H1v7c0,0-0.409,10,11,10S23,12.001,23,12.001
			z"/>
	</g>
</g>
<g id="Ropes">
	<g>
		<path style="fill-rule:evenodd;clip-rule:evenodd;fill:#ED7161;" d="M22,9.001c-2.209,0-4-1.791-4-4h-2c0,2.209-1.791,4-4,4
			s-4-1.791-4-4H6c0,2.209-1.791,4-4,4c-0.348,0-0.679-0.059-1-0.142v2.04c0.327,0.056,0.657,0.102,1,0.102
			c2.088,0,3.926-1.068,5-2.686c1.074,1.618,2.912,2.686,5,2.686s3.926-1.068,5-2.686c1.074,1.618,2.912,2.686,5,2.686
			c0.343,0,0.673-0.046,1-0.102v-2.04C22.679,8.942,22.348,9.001,22,9.001z"/>
	</g>
</g>
<g id="Rim_5_">
	<g>
		<path style="fill:#808080;" d="M23,3.001H1c-0.553,0-1,0.447-1,1c0,0.552,0.447,1,1,1h22c0.552,0,1-0.448,1-1
			C24,3.448,23.552,3.001,23,3.001z"/>
	</g>
</g>
<g id="Leather_2_">
	<g>
		<path style="fill-rule:evenodd;clip-rule:evenodd;fill:#CCCCCC;" d="M22.949,3.001C22.982,2.839,23,2.672,23,2.5
			C23,1.12,21.881,0,20.5,0h-17C2.119,0,1,1.12,1,2.5c0,0.172,0.018,0.339,0.051,0.501H22.949z"/>
	</g>
</g>
<g>
</g>
<g>
</g>
<g>
</g>
<g>
</g>
<g>
</g>
<g>
</g>
<g>
</g>
<g>
</g>
<g>
</g>
<g>
</g>
<g>
</g>
<g>
</g>
<g>
</g>
<g>
</g>
<g>
</g>
</svg>
