<?xml version="1.0" encoding="iso-8859-1"?>
<!-- Generator: Adobe Illustrator 16.0.0, SVG Export Plug-In . SVG Version: 6.00 Build 0)  -->
<!DOCTYPE svg PUBLIC "-//W3C//DTD SVG 1.1//EN" "http://www.w3.org/Graphics/SVG/1.1/DTD/svg11.dtd">
<svg version="1.1" id="Layer_1" xmlns="http://www.w3.org/2000/svg" xmlns:xlink="http://www.w3.org/1999/xlink" x="0px" y="0px"
	 width="32px" height="25.993px" viewBox="0 0 32 25.993" style="enable-background:new 0 0 32 25.993;" xml:space="preserve">
<g id="Tripod">
	<g>
		<path style="fill-rule:evenodd;clip-rule:evenodd;fill:#CCCCCC;" d="M24.713,24.367L17,16.654V5c0-0.553-0.447-1-1-1s-1,0.447-1,1
			v11.619l-7.743,7.743c-0.373,0.373-0.373,0.978,0,1.351s0.978,0.373,1.351,0l7.379-7.379l7.38,7.38
			c0.372,0.372,0.975,0.372,1.347,0S25.085,24.739,24.713,24.367z"/>
	</g>
</g>
<g id="Bridge">
	<g>
		<path style="fill:#CCCCCC;" d="M19,4h-6c-0.553,0-1,0.447-1,1c0,0.552,0.447,1,1,1h6c0.552,0,1-0.448,1-1C20,4.447,19.552,4,19,4z
			"/>
	</g>
</g>
<g id="Body_30_">
	<g>
		<path style="fill-rule:evenodd;clip-rule:evenodd;fill:#88C057;" d="M1,9h12V1H1V9z M19,1v8h12V1H19z"/>
	</g>
</g>
<g id="SHape">
	<g>
		<path style="fill-rule:evenodd;clip-rule:evenodd;fill:#666666;" d="M13,0H1C0.447,0,0,0.447,0,1c0,0.552,0.447,1,1,1h12
			c0.553,0,1-0.448,1-1C14,0.447,13.553,0,13,0z M13,8H1C0.447,8,0,8.447,0,9c0,0.552,0.447,1,1,1h12c0.553,0,1-0.448,1-1
			C14,8.447,13.553,8,13,8z M19,2h12c0.553,0,1-0.448,1-1c0-0.553-0.447-1-1-1H19c-0.553,0-1,0.447-1,1C18,1.552,18.447,2,19,2z
			 M31,8H19c-0.553,0-1,0.447-1,1c0,0.552,0.447,1,1,1h12c0.553,0,1-0.448,1-1C32,8.447,31.553,8,31,8z"/>
	</g>
</g>
<g>
</g>
<g>
</g>
<g>
</g>
<g>
</g>
<g>
</g>
<g>
</g>
<g>
</g>
<g>
</g>
<g>
</g>
<g>
</g>
<g>
</g>
<g>
</g>
<g>
</g>
<g>
</g>
<g>
</g>
</svg>
