<?xml version="1.0" encoding="iso-8859-1"?>
<!-- Generator: Adobe Illustrator 16.0.0, SVG Export Plug-In . SVG Version: 6.00 Build 0)  -->
<!DOCTYPE svg PUBLIC "-//W3C//DTD SVG 1.1//EN" "http://www.w3.org/Graphics/SVG/1.1/DTD/svg11.dtd">
<svg version="1.1" id="Layer_1" xmlns="http://www.w3.org/2000/svg" xmlns:xlink="http://www.w3.org/1999/xlink" x="0px" y="0px"
	 width="32.004px" height="28.008px" viewBox="0 0 32.004 28.008" style="enable-background:new 0 0 32.004 28.008;"
	 xml:space="preserve">
<g id="Tripod_2_">
	<g>
		<path style="fill-rule:evenodd;clip-rule:evenodd;fill:#CCCCCC;" d="M29.708,26.234l-2.704-2.704V1c0-0.553-0.448-1-1-1
			s-1,0.447-1,1v22.54l-2.675,2.675c-0.403,0.402-0.403,1.057,0,1.46s1.057,0.403,1.46,0l2.21-2.21l2.239,2.239
			c0.406,0.405,1.064,0.405,1.47,0C30.114,27.298,30.114,26.641,29.708,26.234z"/>
	</g>
</g>
<g id="Legs_3_">
	<g>
		<path style="fill-rule:evenodd;clip-rule:evenodd;fill:#B3B3B3;" d="M4.004,19c-0.552,0-1,0.447-1,1v7c0,0.552,0.448,1,1,1
			s1-0.448,1-1v-7C5.004,19.447,4.557,19,4.004,19z M18.004,19c-0.552,0-1,0.447-1,1v7c0,0.552,0.448,1,1,1s1-0.448,1-1v-7
			C19.004,19.447,18.557,19,18.004,19z"/>
	</g>
</g>
<g id="Legs_2_">
	<g>
		<path style="fill-rule:evenodd;clip-rule:evenodd;fill:#B3B3B3;" d="M5.04,10.496c-0.301-0.475-0.968-0.637-1.49-0.363
			c-0.522,0.274-0.701,0.881-0.399,1.355l3.818,6.015c0.301,0.476,0.968,0.638,1.49,0.364c0.521-0.274,0.701-0.882,0.399-1.355
			L5.04,10.496z M18.459,10.133c-0.522-0.273-1.189-0.111-1.49,0.363l-3.818,6.016c-0.301,0.474-0.123,1.081,0.399,1.355
			c0.522,0.273,1.189,0.111,1.49-0.364l3.818-6.015C19.16,11.014,18.98,10.407,18.459,10.133z"/>
	</g>
</g>
<g id="Rim_2_">
	<g>
		<circle style="fill:#ED7161;" cx="11.004" cy="20" r="8"/>
	</g>
</g>
<g id="Drum">
	<g>
		<circle style="fill:#CCCCCC;" cx="11.004" cy="20" r="6"/>
	</g>
</g>
<g id="Drums_1_">
	<g>
		<path style="fill-rule:evenodd;clip-rule:evenodd;fill:#666666;" d="M21.52,10.257l-5.077-3.14
			c-0.467-0.289-1.065-0.118-1.335,0.383l-0.977,1.813c-0.27,0.501-0.109,1.142,0.358,1.43l5.077,3.141
			C20.033,14.172,20.631,14,20.9,13.5l0.977-1.813C22.147,11.187,21.987,10.546,21.52,10.257z M6.9,7.526
			C6.631,7.03,6.033,6.86,5.566,7.146l-5.077,3.112c-0.467,0.286-0.627,0.921-0.358,1.418l0.977,1.797
			c0.27,0.496,0.868,0.666,1.335,0.379L7.52,10.74c0.467-0.286,0.627-0.921,0.357-1.417L6.9,7.526z"/>
	</g>
</g>
<g id="Cymbal_3_">
	<g>
		<path style="fill:#FFCC66;" d="M26.004,2c-2.209,0-6-0.209-6,2h12C32.004,1.791,28.213,2,26.004,2z"/>
	</g>
</g>
<g>
</g>
<g>
</g>
<g>
</g>
<g>
</g>
<g>
</g>
<g>
</g>
<g>
</g>
<g>
</g>
<g>
</g>
<g>
</g>
<g>
</g>
<g>
</g>
<g>
</g>
<g>
</g>
<g>
</g>
</svg>
