<?xml version="1.0" encoding="iso-8859-1"?>
<!-- Generator: Adobe Illustrator 16.0.0, SVG Export Plug-In . SVG Version: 6.00 Build 0)  -->
<!DOCTYPE svg PUBLIC "-//W3C//DTD SVG 1.1//EN" "http://www.w3.org/Graphics/SVG/1.1/DTD/svg11.dtd">
<svg version="1.1" id="Layer_1" xmlns="http://www.w3.org/2000/svg" xmlns:xlink="http://www.w3.org/1999/xlink" x="0px" y="0px"
	 width="32px" height="31.996px" viewBox="0 0 32 31.996" style="enable-background:new 0 0 32 31.996;" xml:space="preserve">
<g id="Cord_1_">
	<g>
		<path style="fill-rule:evenodd;clip-rule:evenodd;fill:#B3B3B3;" d="M23,18.997v7.999c0,1.657-1.344,3-3,3c-1.657,0-3-1.343-3-3
			V12.021c-1.208,0.912-2,2.346-2,3.977v10.998c0,1.131,0.39,2.162,1.022,3H13c-1.657,0-3-1.343-3-3V12.021
			c-1.208,0.912-2,2.346-2,3.977v10.998c0,2.762,2.238,5,5,5h7c2.762,0,5-2.238,5-5v-7.999H23z"/>
	</g>
</g>
<g id="Plug_10_">
	<g>
		<path style="fill:#CCCCCC;" d="M31,18.997h-1c-0.553,0-1,0.448-1,1c0,0.553,0.447,1,1,1h1c0.552,0,1-0.447,1-1
			C32,19.445,31.552,18.997,31,18.997z"/>
	</g>
</g>
<g id="Plug_11_">
	<g>
		<path style="fill-rule:evenodd;clip-rule:evenodd;fill:#808080;" d="M29,16.998h-1v5.999h1c0.552,0,1-0.447,1-1v-3.999
			C30,17.445,29.552,16.998,29,16.998z"/>
	</g>
</g>
<g id="Plug_12_">
	<g>
		<path style="fill-rule:evenodd;clip-rule:evenodd;fill:#B3B3B3;" d="M27,16.998h-3c-0.553,0-1,0.447-1,1v3.999
			c0,0.553,0.447,1,1,1h3h1v-1v-3.999v-1H27z"/>
	</g>
</g>
<g id="Shape_10_">
	<g>
		<path style="fill-rule:evenodd;clip-rule:evenodd;fill:#48A0DC;" d="M17,2h-2v12.998h2c1.104,0,2-0.896,2-2V4
			C19,2.896,18.104,2,17,2z M10,10.998H8v12.999h2c1.104,0,2-0.896,2-2v-8.999C12,11.895,11.104,10.998,10,10.998z"/>
	</g>
</g>
<g id="Plug_Back">
	<g>
		<path style="fill-rule:evenodd;clip-rule:evenodd;fill:#808080;" d="M9,12.998c0-0.737-0.404-1.376-1-1.723v-0.277H7H6H4
			c-1.104,0-2,0.896-2,2c0,1.104,0.896,2,2,2h2h1h1v-0.277C8.596,14.374,9,13.736,9,12.998z"/>
	</g>
</g>
<g id="Plug_Back_1_">
	<g>
		<path style="fill-rule:evenodd;clip-rule:evenodd;fill:#808080;" d="M16,4c0-0.738-0.404-1.376-1-1.723V2h-1h-1h-2
			C9.896,2,9,2.896,9,4c0,1.104,0.896,1.999,2,1.999h2h1h1V5.722C15.596,5.375,16,4.737,16,4z"/>
	</g>
</g>
<g id="Ear_Plugs">
	<g>
		<path style="fill-rule:evenodd;clip-rule:evenodd;fill:#CCCCCC;" d="M4,8.999c-2.209,0-4,1.79-4,3.999s1.791,4,4,4s2-1.791,2-4
			S6.209,8.999,4,8.999z M11,0C8.791,0,7,1.791,7,4c0,2.208,1.791,3.999,4,3.999S13,6.208,13,4C13,1.791,13.209,0,11,0z"/>
	</g>
</g>
<g>
</g>
<g>
</g>
<g>
</g>
<g>
</g>
<g>
</g>
<g>
</g>
<g>
</g>
<g>
</g>
<g>
</g>
<g>
</g>
<g>
</g>
<g>
</g>
<g>
</g>
<g>
</g>
<g>
</g>
</svg>
