<?xml version="1.0" encoding="iso-8859-1"?>
<!-- Generator: Adobe Illustrator 16.0.0, SVG Export Plug-In . SVG Version: 6.00 Build 0)  -->
<!DOCTYPE svg PUBLIC "-//W3C//DTD SVG 1.1//EN" "http://www.w3.org/Graphics/SVG/1.1/DTD/svg11.dtd">
<svg version="1.1" id="Layer_1" xmlns="http://www.w3.org/2000/svg" xmlns:xlink="http://www.w3.org/1999/xlink" x="0px" y="0px"
	 width="32px" height="31.996px" viewBox="0 0 32 31.996" style="enable-background:new 0 0 32 31.996;" xml:space="preserve">
<g id="Cable_9_">
	<g>
		<polygon style="fill:#ED7161;" points="20,21.006 18,23.006 23,31.996 26,31.996 		"/>
	</g>
</g>
<g id="Base_7_">
	<g>
		<path style="fill-rule:evenodd;clip-rule:evenodd;fill:#4D4D4D;" d="M14,7c0-3.866-3.134-7-7-7S0,3.134,0,7
			c0,0.002,0,0.004,0,0.006h0c0,4.539,2.939,10.901,2.99,17.991h8.019C11.061,17.907,14,11.545,14,7.006h0C14,7.004,14,7.002,14,7z"
			/>
	</g>
</g>
<g id="Plug_13_">
	<g>
		<path style="fill-rule:evenodd;clip-rule:evenodd;fill:#4D4D4D;" d="M26,0c-2.228,0-4.168,1.218-5.203,3.021
			C19.236,3.127,18,4.412,18,5.999c0,1.588,1.236,2.873,2.797,2.979c1.035,1.803,2.975,3.021,5.203,3.021c3.313,0,6-2.687,6-6
			C32,2.687,29.313,0,26,0z"/>
	</g>
</g>
<g id="Shape_11_">
	<g>
		<path style="fill-rule:evenodd;clip-rule:evenodd;fill:#CCCCCC;" d="M22.932,25.488c-0.011-0.039-0.03-0.074-0.042-0.112
			l0.008-0.003l-3-9l-0.008,0.003c-0.333-0.996-1.38-1.577-2.407-1.302c-1.067,0.285-1.7,1.383-1.414,2.449
			c0.011,0.04,0.03,0.074,0.042,0.112l-0.008,0.003l3,9l0.008-0.003c0.332,0.995,1.38,1.577,2.407,1.302
			C22.585,27.652,23.218,26.555,22.932,25.488z"/>
	</g>
</g>
<g id="Shape_12_">
	<g>
		<path style="fill-rule:evenodd;clip-rule:evenodd;fill:#4D4D4D;" d="M21.932,22.488c-0.011-0.039-0.03-0.074-0.042-0.112
			l0.008-0.003L20,16.681V2c0-1.104-0.896-2-2-2s-2,0.896-2,2v14.998c0,0.02,0.005,0.038,0.006,0.058
			c0.002,0.073,0.012,0.146,0.022,0.221c0.008,0.06,0.015,0.119,0.029,0.178c0.005,0.022,0.005,0.046,0.011,0.069
			c0.011,0.04,0.03,0.074,0.042,0.112l-0.008,0.003l2,6l0.008-0.003c0.332,0.996,1.379,1.577,2.407,1.302
			C21.585,24.652,22.218,23.555,21.932,22.488z"/>
	</g>
</g>
<g id="Shape_13_">
	<g>
		<rect x="3" y="24.997" style="fill:#CCCCCC;" width="8" height="1.999"/>
	</g>
</g>
<g id="Cable_10_">
	<g>
		<rect x="5" y="26.996" style="fill:#ED7161;" width="4" height="5"/>
	</g>
</g>
<g id="Logo_Base">
	<g>
		<circle style="fill:#ED7161;" cx="7" cy="6.999" r="3.999"/>
	</g>
</g>
<g id="Beats_Logo">
	<g>
		<path style="fill-rule:evenodd;clip-rule:evenodd;fill:#ED7161;" d="M8.219,6.999C8.219,6.326,7.674,5.78,7,5.78
			S5.78,6.326,5.78,6.999c0,0.674,0.546,1.22,1.22,1.22S8.219,7.673,8.219,6.999z M7,3C6.619,3,6.251,3.055,5.901,3.153v2.162
			C6.218,5.109,6.595,4.988,7,4.988c1.11,0,2.011,0.9,2.011,2.011S8.11,9.01,7,9.01s-2.011-0.9-2.011-2.011
			c0-0.035,0.001-0.071,0.003-0.106L4.989,6.895V3.543C3.8,4.235,3,5.523,3,6.999c0,2.209,1.791,3.999,4,3.999s4-1.79,4-3.999
			S9.209,3,7,3z"/>
	</g>
</g>
<g id="Ear_Hole">
	<g>
		<ellipse cx="29" cy="6" rx="1" ry="2"/>
	</g>
</g>
<g>
</g>
<g>
</g>
<g>
</g>
<g>
</g>
<g>
</g>
<g>
</g>
<g>
</g>
<g>
</g>
<g>
</g>
<g>
</g>
<g>
</g>
<g>
</g>
<g>
</g>
<g>
</g>
<g>
</g>
</svg>
