<?xml version="1.0" encoding="iso-8859-1"?>
<!-- Generator: Adobe Illustrator 16.0.0, SVG Export Plug-In . SVG Version: 6.00 Build 0)  -->
<!DOCTYPE svg PUBLIC "-//W3C//DTD SVG 1.1//EN" "http://www.w3.org/Graphics/SVG/1.1/DTD/svg11.dtd">
<svg version="1.1" id="Layer_1" xmlns="http://www.w3.org/2000/svg" xmlns:xlink="http://www.w3.org/1999/xlink" x="0px" y="0px"
	 width="22px" height="32px" viewBox="0 0 22 32" style="enable-background:new 0 0 22 32;" xml:space="preserve">
<g id="Ear">
	<g>
		<path style="fill:#F6CBAD;" d="M10,0C1.319,0,0,8,0,8l2,17c0,0,0.171,7,5,7c8.287,0,4.486-5.051,8-10s7-5.901,7-11
			C22,5.9,18.681,0,10,0z"/>
	</g>
</g>
<g id="Ear_Shape">
	<g>
		<path style="fill:#CC9C7A;" d="M10.792,5.006c-2.203,0-3.916,0.594-5.087,1.763c-1.706,1.705-1.704,4.076-1.702,5.044
			c0,2.886,1.092,4.349,3.258,4.349c1.709,0,2.274-1.307,2.671-2.059c0.295-0.557,0.51-0.87,1.021-0.996
			c0.807-0.197,1.583,0.095,1.583,2.026c0,1.114-0.53,1.411-1.244,1.903c-0.73,0.503-1.929,1.192-1.929,2.812v0.178
			c0,0.674,0.208,2.251-0.304,2.762c-0.072,0.074,0.021,0.148-0.221,0.148c-0.291,0-0.496-0.058-0.607-0.171
			C7.956,22.486,7.996,22.21,8,21.842c0-0.597-0.514-1.053-1-1.053s-0.972,0.5-0.972,1.097l-0.002,0.141
			C6.02,22.688,5.88,23.319,6.762,24.21c0.515,0.521,1.213,0.783,2.077,0.783c0.739,0,1.191-0.26,1.684-0.753
			c1.116-1.117,0.905-3.138,0.905-4.223v-0.17c0-0.518,0.387-0.67,1.039-1.119c0.81-0.559,2.233-1.403,2.233-3.596
			c0-2.152-0.282-4.084-3.696-4.084c-1.885,0-2.529,1.362-2.915,2.176c-0.382,0.809-0.481,0.879-0.815,0.879
			c-0.68,0-1.2-0.169-1.2-2.371c-0.001-0.722-0.005-2.41,1.097-3.51c0.769-0.769,1.988-1.158,3.624-1.158
			c4.724,0,5.176,3.929,5.203,4.397c0.029,0.533,0.474,0.941,1.05,0.917c0.551-0.026,0.977-0.48,0.949-1.015
			C17.884,9.165,16.225,5.006,10.792,5.006z"/>
	</g>
</g>
<g>
</g>
<g>
</g>
<g>
</g>
<g>
</g>
<g>
</g>
<g>
</g>
<g>
</g>
<g>
</g>
<g>
</g>
<g>
</g>
<g>
</g>
<g>
</g>
<g>
</g>
<g>
</g>
<g>
</g>
</svg>
