<?xml version="1.0" encoding="iso-8859-1"?>
<!-- Generator: Adobe Illustrator 16.0.0, SVG Export Plug-In . SVG Version: 6.00 Build 0)  -->
<!DOCTYPE svg PUBLIC "-//W3C//DTD SVG 1.1//EN" "http://www.w3.org/Graphics/SVG/1.1/DTD/svg11.dtd">
<svg version="1.1" id="Layer_1" xmlns="http://www.w3.org/2000/svg" xmlns:xlink="http://www.w3.org/1999/xlink" x="0px" y="0px"
	 width="32px" height="31.938px" viewBox="0 0 32 31.938" style="enable-background:new 0 0 32 31.938;" xml:space="preserve">
<g id="Body_49_">
	<g>
		<path style="fill-rule:evenodd;clip-rule:evenodd;fill:#9B7CAB;" d="M18,11.977c-1.584,0.188-3,0.998-3,0.998l-13,4.99
			c0,0-2,0.894-2,1.995c0,1.104,0.896,1.997,2,1.997c0,0,4.213,0,6,0c1.458,0,2,0.488,2,1.996c0,1.936,0,5.988,0,5.988
			c0,1.102,0.896,1.996,2,1.996s2-1.996,2-1.996l5-12.975c0,0,0.594-0.883,1-2.994C20.416,11.808,20.193,11.718,18,11.977z"/>
	</g>
</g>
<g id="Pickup_2_">
	<g>
		<path style="fill:#FFFFFF;" d="M15.731,17.452l-1.245-1.243c-0.344-0.343-0.902-0.343-1.246,0s-0.344,0.899,0,1.243l1.246,1.243
			c0.344,0.343,0.901,0.343,1.245,0C16.075,18.352,16.075,17.795,15.731,17.452z"/>
	</g>
</g>
<g id="Controlls_1_">
	<g>
		<path style="fill-rule:evenodd;clip-rule:evenodd;fill:#FFFFFF;" d="M5.5,18.963c-0.276,0-0.5,0.224-0.5,0.499
			s0.224,0.498,0.5,0.498S6,19.737,6,19.462S5.776,18.963,5.5,18.963z M7.5,18.963c-0.276,0-0.5,0.224-0.5,0.499
			s0.224,0.498,0.5,0.498S8,19.737,8,19.462S7.776,18.963,7.5,18.963z"/>
	</g>
</g>
<g id="Headstock_2_">
	<g>
		<polygon style="fill-rule:evenodd;clip-rule:evenodd;fill:#666666;" points="31,0 27,0.998 26.5,3.493 16,13.973 18,15.969 
			28.5,5.489 31,4.99 32,0.998 32,0 		"/>
	</g>
</g>
<g>
</g>
<g>
</g>
<g>
</g>
<g>
</g>
<g>
</g>
<g>
</g>
<g>
</g>
<g>
</g>
<g>
</g>
<g>
</g>
<g>
</g>
<g>
</g>
<g>
</g>
<g>
</g>
<g>
</g>
</svg>
