<?xml version="1.0" encoding="iso-8859-1"?>
<!-- Generator: Adobe Illustrator 16.0.0, SVG Export Plug-In . SVG Version: 6.00 Build 0)  -->
<!DOCTYPE svg PUBLIC "-//W3C//DTD SVG 1.1//EN" "http://www.w3.org/Graphics/SVG/1.1/DTD/svg11.dtd">
<svg version="1.1" id="Layer_1" xmlns="http://www.w3.org/2000/svg" xmlns:xlink="http://www.w3.org/1999/xlink" x="0px" y="0px"
	 width="32px" height="32px" viewBox="0 0 32 32" style="enable-background:new 0 0 32 32;" xml:space="preserve">
<g id="Neck_1_">
	<g>
		<rect x="12" y="16" style="fill:#DBB599;" width="8" height="7"/>
	</g>
</g>
<g id="Shirt">
	<g>
		<path style="fill-rule:evenodd;clip-rule:evenodd;fill:#5D4A66;" d="M30,26c-0.94-0.94-10-5-10-5v-0.152
			C18.938,21.562,17.539,22,16,22s-2.938-0.438-4-1.152V21c0,0-9.06,4.06-10,5c-1.88,1.88-2,5.999-2,5.999L12,32v-0.001h8h12
			C32,31.999,31.88,27.88,30,26z"/>
	</g>
</g>
<g id="Stripes">
	<g>
		<path style="fill:#99466D;" d="M11.466,21.24c-0.753,0.342-2.23,1.016-3.802,1.76H16C14.179,23,12.566,22.309,11.466,21.24z
			 M20.534,21.24C19.434,22.309,17.821,23,16,23h8.336C22.765,22.256,21.287,21.582,20.534,21.24z M31.534,29H0.466
			c-0.2,0.742-0.317,1.455-0.382,2h31.832C31.852,30.455,31.733,29.742,31.534,29z M30,26c-0.207-0.208-0.813-0.567-1.623-1H3.623
			C2.813,25.433,2.207,25.792,2,26c-0.287,0.287-0.529,0.631-0.74,1h29.48C30.529,26.631,30.287,26.287,30,26z"/>
	</g>
</g>
<g id="Head_1_">
	<g>
		<path style="fill:#F6CBAD;" d="M16,2C9.645,2,9,5.236,9,8.997C9,8.998,9,8.998,9,9c0,3,1,4.999,2,7c1,1.999,3.041,3.999,5,3.999
			s4-2,5-3.999c1-2.001,2-4,2-7C23,5.068,22.357,2,16,2z"/>
	</g>
</g>
<g id="Hair_1_">
	<g>
		<path style="fill-rule:evenodd;clip-rule:evenodd;fill:#333333;" d="M23.993,7.736C23.996,7.706,24,7.671,24,7.654
			c0-0.098-0.01-0.197-0.018-0.296C23.805,3.637,22.012,0,16,0C9.643,0,8,3.892,8,7.654c0-0.4,0.064-0.707,0.176-0.943
			C8.067,7.146,8,7.58,8,8c0,0.449,0.813,3.738,2,5c0-1.846,0.395-4.252,1.088-5.943C12.055,13.09,21.302,13,23,13
			c-0.011,0,0.865-4.258,0.985-5.192C23.99,7.872,24,7.936,24,8C24,7.912,23.995,7.824,23.993,7.736z"/>
	</g>
</g>
<g>
</g>
<g>
</g>
<g>
</g>
<g>
</g>
<g>
</g>
<g>
</g>
<g>
</g>
<g>
</g>
<g>
</g>
<g>
</g>
<g>
</g>
<g>
</g>
<g>
</g>
<g>
</g>
<g>
</g>
</svg>
