<?xml version="1.0" encoding="iso-8859-1"?>
<!-- Generator: Adobe Illustrator 16.0.0, SVG Export Plug-In . SVG Version: 6.00 Build 0)  -->
<!DOCTYPE svg PUBLIC "-//W3C//DTD SVG 1.1//EN" "http://www.w3.org/Graphics/SVG/1.1/DTD/svg11.dtd">
<svg version="1.1" id="Layer_1" xmlns="http://www.w3.org/2000/svg" xmlns:xlink="http://www.w3.org/1999/xlink" x="0px" y="0px"
	 width="28px" height="30px" viewBox="0 0 28 30" style="enable-background:new 0 0 28 30;" xml:space="preserve">
<g id="Bars">
	<g>
		<path style="fill-rule:evenodd;clip-rule:evenodd;fill:#FFCC66;" d="M7,27.999H1c-0.553,0-1,0.448-1,1.001c0,0.552,0.447,1,1,1h6
			c0.552,0,1-0.448,1-1C8,28.447,7.552,27.999,7,27.999z M17,27.999h-6c-0.553,0-1,0.448-1,1.001c0,0.552,0.447,1,1,1h6
			c0.552,0,1-0.448,1-1C18,28.447,17.552,27.999,17,27.999z M27,27.999h-6c-0.553,0-1,0.448-1,1.001c0,0.552,0.447,1,1,1h6
			c0.552,0,1-0.448,1-1C28,28.447,27.552,27.999,27,27.999z M7,24H1c-0.553,0-1,0.447-1,1c0,0.552,0.447,1,1,1h6
			c0.552,0,1-0.448,1-1C8,24.447,7.552,24,7,24z M17,24h-6c-0.553,0-1,0.447-1,1c0,0.552,0.447,1,1,1h6c0.552,0,1-0.448,1-1
			C18,24.447,17.552,24,17,24z M21,26h6c0.552,0,1-0.448,1-1c0-0.553-0.448-1-1-1h-6c-0.553,0-1,0.447-1,1
			C20,25.552,20.447,26,21,26z"/>
	</g>
</g>
<g id="Bars_3_">
	<g>
		<path style="fill-rule:evenodd;clip-rule:evenodd;fill:#88C057;" d="M7,19.999H1c-0.553,0-1,0.448-1,1.001c0,0.552,0.447,1,1,1h6
			c0.552,0,1-0.448,1-1C8,20.447,7.552,19.999,7,19.999z M27,19.999h-6c-0.553,0-1,0.448-1,1.001c0,0.552,0.447,1,1,1h6
			c0.552,0,1-0.448,1-1C28,20.447,27.552,19.999,27,19.999z M7,15.999H1c-0.553,0-1,0.448-1,1.001c0,0.552,0.447,0.999,1,0.999h6
			c0.552,0,1-0.447,1-0.999C8,16.447,7.552,15.999,7,15.999z M17,15.999h-6c-0.553,0-1,0.448-1,1.001c0,0.552,0.447,0.999,1,0.999h6
			c0.552,0,1-0.447,1-0.999C18,16.447,17.552,15.999,17,15.999z M21,17.999h6c0.552,0,1-0.447,1-0.999c0-0.553-0.448-1.001-1-1.001
			h-6c-0.553,0-1,0.448-1,1.001C20,17.552,20.447,17.999,21,17.999z"/>
	</g>
</g>
<g id="Bars_2_">
	<g>
		<path style="fill-rule:evenodd;clip-rule:evenodd;fill:#9B7CAB;" d="M7,11.999H1c-0.553,0-1,0.448-1,1.001c0,0.552,0.447,1,1,1h6
			c0.552,0,1-0.448,1-1C8,12.447,7.552,11.999,7,11.999z M7,7.999H1C0.447,7.999,0,8.447,0,9c0,0.552,0.447,0.999,1,0.999h6
			c0.552,0,1-0.447,1-0.999C8,8.447,7.552,7.999,7,7.999z M27,7.999h-6c-0.553,0-1,0.448-1,1.001c0,0.552,0.447,0.999,1,0.999h6
			c0.552,0,1-0.447,1-0.999C28,8.447,27.552,7.999,27,7.999z"/>
	</g>
</g>
<g id="Bar">
	<g>
		<path style="fill:#ED7161;" d="M7,0H1C0.447,0,0,0.447,0,1c0,0.552,0.447,0.999,1,0.999h6c0.552,0,1-0.447,1-0.999
			C8,0.447,7.552,0,7,0z"/>
	</g>
</g>
<g>
</g>
<g>
</g>
<g>
</g>
<g>
</g>
<g>
</g>
<g>
</g>
<g>
</g>
<g>
</g>
<g>
</g>
<g>
</g>
<g>
</g>
<g>
</g>
<g>
</g>
<g>
</g>
<g>
</g>
</svg>
