<?xml version="1.0" encoding="iso-8859-1"?>
<!-- Generator: Adobe Illustrator 16.0.0, SVG Export Plug-In . SVG Version: 6.00 Build 0)  -->
<!DOCTYPE svg PUBLIC "-//W3C//DTD SVG 1.1//EN" "http://www.w3.org/Graphics/SVG/1.1/DTD/svg11.dtd">
<svg version="1.1" id="Layer_1" xmlns="http://www.w3.org/2000/svg" xmlns:xlink="http://www.w3.org/1999/xlink" x="0px" y="0px"
	 width="32px" height="32px" viewBox="0 0 32 32" style="enable-background:new 0 0 32 32;" xml:space="preserve">
<g id="Tube_1_">
	<g>
		<path style="fill:#E8AD72;" d="M29,0L1.561,27.692c-0.759,0.759-0.759,1.989,0,2.748c0.758,0.759,1.988,0.759,2.747,0L32,3L29,0z"
			/>
	</g>
</g>
<g id="Shape_46_">
	<g>
		<polygon style="fill:#B38557;" points="4.342,24.991 0,29 3,32 7.009,27.658 		"/>
	</g>
</g>
<g id="Hole_3_">
	<g>
		
			<rect x="1.302" y="27.87" transform="matrix(0.707 -0.7072 0.7072 0.707 -19.6225 10.6231)" style="fill:#664C32;" width="3.412" height="2.241"/>
	</g>
</g>
<g id="Holes_8_">
	<g>
		<path style="fill-rule:evenodd;clip-rule:evenodd;fill:#B38557;" d="M12.012,19.019c-0.553,0-1.001,0.448-1.001,1.001
			s0.448,1.001,1.001,1.001s1.001-0.448,1.001-1.001S12.564,19.019,12.012,19.019z M15.015,16.016c-0.553,0-1.001,0.448-1.001,1.001
			s0.448,1.001,1.001,1.001s1.001-0.448,1.001-1.001S15.567,16.016,15.015,16.016z M18.018,13.013c-0.553,0-1.001,0.448-1.001,1.001
			s0.448,1.001,1.001,1.001s1.001-0.448,1.001-1.001S18.57,13.013,18.018,13.013z M21.021,10.01c-0.553,0-1.001,0.448-1.001,1.001
			s0.448,1.001,1.001,1.001s1.001-0.448,1.001-1.001S21.573,10.01,21.021,10.01z M24.023,7.007c-0.553,0-1.001,0.448-1.001,1.001
			s0.448,1.001,1.001,1.001s1.001-0.448,1.001-1.001S24.576,7.007,24.023,7.007z"/>
	</g>
</g>
<g>
</g>
<g>
</g>
<g>
</g>
<g>
</g>
<g>
</g>
<g>
</g>
<g>
</g>
<g>
</g>
<g>
</g>
<g>
</g>
<g>
</g>
<g>
</g>
<g>
</g>
<g>
</g>
<g>
</g>
</svg>
