<?xml version="1.0" encoding="iso-8859-1"?>
<!-- Generator: Adobe Illustrator 16.0.0, SVG Export Plug-In . SVG Version: 6.00 Build 0)  -->
<!DOCTYPE svg PUBLIC "-//W3C//DTD SVG 1.1//EN" "http://www.w3.org/Graphics/SVG/1.1/DTD/svg11.dtd">
<svg version="1.1" id="Layer_1" xmlns="http://www.w3.org/2000/svg" xmlns:xlink="http://www.w3.org/1999/xlink" x="0px" y="0px"
	 width="32px" height="32px" viewBox="0 0 32 32" style="enable-background:new 0 0 32 32;" xml:space="preserve">
<g id="Body_48_">
	<g>
		<path style="fill-rule:evenodd;clip-rule:evenodd;fill:#ED7161;" d="M17.2,20c-0.806-0.266-0.406-1.475-0.254-1.867
			C16.979,18.061,17,18.008,17,18c0-2.209-1.791-4-4-4c-1.681,0-3.114,1.04-3.706,2.508C8.413,18.083,7,18,7,18
			c-3.866,0-7,3.134-7,7c0,2.99,4.009,7,7,7c3.866,0,7-3.135,7-7c0-0.034-0.005-0.068-0.005-0.102L14,24.899
			c0-3.285,2.731-2.859,3.2-2.899c0.552,0,1-0.448,1-1C18.2,20.447,17.752,20,17.2,20z"/>
	</g>
</g>
<g id="Body_Plate">
	<g>
		<path style="fill-rule:evenodd;clip-rule:evenodd;fill:#9D5F57;" d="M13.994,24.897L14,24.899c0-3.285,2.731-2.859,3.2-2.899
			c0.552,0,1-0.448,1-1c0-0.553-0.448-1-1-1c-0.806-0.266-0.406-1.475-0.254-1.867C16.979,18.06,17,18.008,17,18
			c0-0.596-0.139-1.156-0.373-1.664C14.827,17.955,7,25,7,25s3.688,3.925,6.061,3.491C13.654,27.463,14,26.273,14,25
			C14,24.965,13.994,24.932,13.994,24.897z"/>
	</g>
</g>
<g id="Pickup">
	<g>
		<path style="fill:#FFFFFF;" d="M12.731,20.485l-1.245-1.246c-0.344-0.344-0.902-0.344-1.246,0c-0.344,0.345-0.344,0.902,0,1.246
			l1.246,1.245c0.344,0.344,0.901,0.344,1.245,0S13.075,20.829,12.731,20.485z"/>
	</g>
</g>
<g id="Pickup_1_">
	<g>
		<path style="fill:#FFFFFF;" d="M8.731,24.485l-1.245-1.246c-0.344-0.344-0.902-0.344-1.246,0c-0.344,0.345-0.344,0.902,0,1.246
			l1.246,1.245c0.344,0.345,0.901,0.345,1.245,0C9.075,25.387,9.075,24.829,8.731,24.485z"/>
	</g>
</g>
<g id="Controlls">
	<g>
		<path style="fill-rule:evenodd;clip-rule:evenodd;fill:#FFFFFF;" d="M7.5,27.999c-0.276,0-0.5,0.224-0.5,0.5s0.224,0.5,0.5,0.5
			s0.5-0.224,0.5-0.5S7.776,27.999,7.5,27.999z M9.5,27.999c-0.276,0-0.5,0.224-0.5,0.5s0.224,0.5,0.5,0.5s0.5-0.224,0.5-0.5
			S9.776,27.999,9.5,27.999z"/>
	</g>
</g>
<g id="Headstock_1_">
	<g>
		<polygon style="fill-rule:evenodd;clip-rule:evenodd;fill:#E8AD72;" points="31,1 31,0.999 30.999,0.999 30,0 29,0 26,3 26.5,3.5 
			12,17.999 14,19.999 28.5,5.5 29,6 32,3 32,2 		"/>
	</g>
</g>
<g id="Head_9_">
	<g>
		<polygon style="fill-rule:evenodd;clip-rule:evenodd;fill:#666666;" points="31,1 30,0 29,0 26,3 26,4 27,5 28,6 29,6 32,3 32,2 
					"/>
	</g>
</g>
<g>
</g>
<g>
</g>
<g>
</g>
<g>
</g>
<g>
</g>
<g>
</g>
<g>
</g>
<g>
</g>
<g>
</g>
<g>
</g>
<g>
</g>
<g>
</g>
<g>
</g>
<g>
</g>
<g>
</g>
</svg>
