<?xml version="1.0" encoding="iso-8859-1"?>
<!-- Generator: Adobe Illustrator 16.0.0, SVG Export Plug-In . SVG Version: 6.00 Build 0)  -->
<!DOCTYPE svg PUBLIC "-//W3C//DTD SVG 1.1//EN" "http://www.w3.org/Graphics/SVG/1.1/DTD/svg11.dtd">
<svg version="1.1" id="Layer_1" xmlns="http://www.w3.org/2000/svg" xmlns:xlink="http://www.w3.org/1999/xlink" x="0px" y="0px"
	 width="33.326px" height="28.34px" viewBox="0 0 33.326 28.34" style="enable-background:new 0 0 33.326 28.34;"
	 xml:space="preserve">
<g id="Keys_3_">
	<g>
		<path style="fill-rule:evenodd;clip-rule:evenodd;fill:#999999;" d="M9.667,8.701l3.006,2.998l1.418-1.413l-3.007-2.999
			L9.667,8.701z M13.676,6.701L16.682,9.7L18.1,8.287l-3.007-2.999L13.676,6.701z M17.684,4.702l3.007,2.999l1.417-1.414
			l-3.006-2.999L17.684,4.702z M23.11,1.289l-1.418,1.414l3.007,2.999l1.417-1.414L23.11,1.289z"/>
	</g>
</g>
<g id="Neck_5_">
	<g>
		<path style="fill:#99724B;" d="M13.812,18.023l-3.5-3.492c-0.748-0.746-1.96-0.746-2.708,0l-5.714,5.7
			c-0.748,0.745-0.748,1.954,0,2.7l3.501,3.492c0.747,0.746,1.959,0.746,2.707,0l5.714-5.7C14.56,19.979,14.56,18.769,13.812,18.023
			z"/>
	</g>
</g>
<g id="Strings_4_">
	<g>
		<path style="fill-rule:evenodd;clip-rule:evenodd;fill:#CCCCCC;" d="M13.027,18.637l-7.722,7.702l0.085,0.085
			c0.226,0.226,0.497,0.375,0.782,0.464l7.563-7.544L13.027,18.637z M9.019,14.638l-7.58,7.562c0.092,0.267,0.237,0.52,0.451,0.732
			l0.116,0.116l7.722-7.703L9.019,14.638z M11.023,16.638L3.302,24.34l0.708,0.707l7.722-7.702L11.023,16.638z"/>
	</g>
</g>
<g id="Head_8_">
	<g>
		<path style="fill-rule:evenodd;clip-rule:evenodd;fill:#E8AD72;" d="M28.315,2.968c-0.617,0-1.201,0.126-1.747,0.33L26.563,3.28
			l-0.17,0.071c-0.019,0.008-0.037,0.016-0.055,0.023l-18.066,7.59l-1.002,2.999c0,0-0.396,1.604,0,1.999s6.013,5.998,6.013,5.998
			s1.675-1.999,3.007-1.999c1.331,0,0.582,0.999,3.006,0.999c2.361,0,2.137-3.891,6.654-8.615c0.707,0.381,1.505,0.618,2.365,0.618
			c2.768,0,5.011-2.238,5.011-4.998C33.326,5.205,31.083,2.968,28.315,2.968z"/>
	</g>
</g>
<g id="Keys_4_">
	<g>
		<path style="fill-rule:evenodd;clip-rule:evenodd;fill:#666666;" d="M9.87,5.998c-0.831,0-1.504,0.671-1.504,1.499
			s0.673,1.5,1.504,1.5c0.83,0,1.503-0.672,1.503-1.5S10.7,5.998,9.87,5.998z M13.878,3.998c-0.83,0-1.503,0.672-1.503,1.5
			s0.673,1.499,1.503,1.499s1.504-0.671,1.504-1.499S14.708,3.998,13.878,3.998z M17.887,1.999c-0.83,0-1.503,0.672-1.503,1.5
			s0.673,1.499,1.503,1.499s1.503-0.671,1.503-1.499S18.717,1.999,17.887,1.999z M21.896,0c-0.83,0-1.503,0.671-1.503,1.499
			s0.673,1.5,1.503,1.5s1.503-0.672,1.503-1.5S22.726,0,21.896,0z"/>
	</g>
</g>
<g id="Keys_5_">
	<g>
		<path style="fill-rule:evenodd;clip-rule:evenodd;fill:#99724B;" d="M14.881,10.996c-0.831,0-1.504,0.671-1.504,1.499
			s0.673,1.5,1.504,1.5c0.83,0,1.503-0.672,1.503-1.5S15.711,10.996,14.881,10.996z M18.889,8.997c-0.83,0-1.503,0.671-1.503,1.499
			s0.673,1.5,1.503,1.5c0.831,0,1.504-0.672,1.504-1.5S19.72,8.997,18.889,8.997z M22.897,6.997c-0.83,0-1.503,0.672-1.503,1.5
			s0.673,1.499,1.503,1.499s1.504-0.671,1.504-1.499S23.728,6.997,22.897,6.997z M26.906,4.998c-0.83,0-1.503,0.671-1.503,1.499
			s0.673,1.5,1.503,1.5s1.503-0.672,1.503-1.5S27.736,4.998,26.906,4.998z"/>
	</g>
</g>
<g>
</g>
<g>
</g>
<g>
</g>
<g>
</g>
<g>
</g>
<g>
</g>
<g>
</g>
<g>
</g>
<g>
</g>
<g>
</g>
<g>
</g>
<g>
</g>
<g>
</g>
<g>
</g>
<g>
</g>
</svg>
