<?xml version="1.0" encoding="iso-8859-1"?>
<!-- Generator: Adobe Illustrator 16.0.0, SVG Export Plug-In . SVG Version: 6.00 Build 0)  -->
<!DOCTYPE svg PUBLIC "-//W3C//DTD SVG 1.1//EN" "http://www.w3.org/Graphics/SVG/1.1/DTD/svg11.dtd">
<svg version="1.1" id="Layer_1" xmlns="http://www.w3.org/2000/svg" xmlns:xlink="http://www.w3.org/1999/xlink" x="0px" y="0px"
	 width="37.014px" height="45.061px" viewBox="0 0 37.014 45.061" style="enable-background:new 0 0 37.014 45.061;"
	 xml:space="preserve">
<g id="Guitar_Pick">
	<g>
		<path style="fill:#6D5778;" d="M30.764,13.231c-5.542-5.5-11.041-8.961-16.725-3.319S2.56,34.271,6.063,37.749
			c4.099,4.068,22.361-2.275,28.045-7.917S36.306,18.732,30.764,13.231z"/>
	</g>
</g>
<g id="Stripes_5_">
	<g>
		<path style="fill-rule:evenodd;clip-rule:evenodd;fill:#88C057;" d="M30.764,13.231c-0.464-0.46-0.927-0.899-1.39-1.326
			L5.816,37.446c0.078,0.108,0.157,0.214,0.247,0.303c0.788,0.782,2.104,1.176,3.749,1.268l22.399-24.285
			C31.748,14.231,31.268,13.732,30.764,13.231z M22.823,7.529L6.413,25.32c-0.751,2.668-1.251,5.251-1.38,7.4L26.457,9.492
			C25.247,8.625,24.037,7.952,22.823,7.529z"/>
	</g>
</g>
<g>
</g>
<g>
</g>
<g>
</g>
<g>
</g>
<g>
</g>
<g>
</g>
<g>
</g>
<g>
</g>
<g>
</g>
<g>
</g>
<g>
</g>
<g>
</g>
<g>
</g>
<g>
</g>
<g>
</g>
</svg>
