<?xml version="1.0" encoding="iso-8859-1"?>
<!-- Generator: Adobe Illustrator 16.0.0, SVG Export Plug-In . SVG Version: 6.00 Build 0)  -->
<!DOCTYPE svg PUBLIC "-//W3C//DTD SVG 1.1//EN" "http://www.w3.org/Graphics/SVG/1.1/DTD/svg11.dtd">
<svg version="1.1" id="Layer_1" xmlns="http://www.w3.org/2000/svg" xmlns:xlink="http://www.w3.org/1999/xlink" x="0px" y="0px"
	 width="52.02px" height="52.02px" viewBox="0 0 52.02 52.02" style="enable-background:new 0 0 52.02 52.02;" xml:space="preserve"
	>
<g id="Body_46_">
	<g>
		<path style="fill:#FFD580;" d="M40.01,10.01h-28c-1.104,0-2,0.896-2,2v28c0,1.104,0.896,2,2,2h28c1.104,0,2-0.896,2-2v-28
			C42.01,10.905,41.114,10.01,40.01,10.01z"/>
	</g>
</g>
<g id="Shape_48_">
	<g>
		<circle style="fill:#E8AD72;" cx="26.01" cy="26.01" r="12"/>
	</g>
</g>
<g id="Neck_4_">
	<g>
		<path style="fill-rule:evenodd;clip-rule:evenodd;fill:#666666;" d="M40.01,10.01h-6.459l-10.27,10.27
			c-0.395,0.395-0.395,1.034,0,1.429l6.999,6.999c0.394,0.395,1.033,0.395,1.428,0L42.01,18.405V12.01
			C42.01,10.905,41.114,10.01,40.01,10.01z"/>
	</g>
</g>
<g id="Hole_4_">
	<g>
		<circle style="fill:#664C32;" cx="26.01" cy="26.01" r="8"/>
	</g>
</g>
<g id="Strings_3_">
	<g>
		<path style="fill-rule:evenodd;clip-rule:evenodd;fill:#999999;" d="M40.01,10.01h-0.716L10.01,39.294v0.716
			c0,0.214,0.043,0.417,0.105,0.611L40.62,10.115C40.427,10.052,40.225,10.01,40.01,10.01z M41.904,11.399L11.399,41.905
			c0.193,0.063,0.396,0.105,0.61,0.105h0.716L42.01,12.726V12.01C42.01,11.795,41.967,11.593,41.904,11.399z M35.294,10.01
			L10.01,35.294v1.432L36.726,10.01H35.294z M16.726,42.01L42.01,16.726v-1.432L15.294,42.01H16.726z"/>
	</g>
</g>
<g>
</g>
<g>
</g>
<g>
</g>
<g>
</g>
<g>
</g>
<g>
</g>
<g>
</g>
<g>
</g>
<g>
</g>
<g>
</g>
<g>
</g>
<g>
</g>
<g>
</g>
<g>
</g>
<g>
</g>
</svg>
