<?xml version="1.0" encoding="iso-8859-1"?>
<!-- Generator: Adobe Illustrator 16.0.0, SVG Export Plug-In . SVG Version: 6.00 Build 0)  -->
<!DOCTYPE svg PUBLIC "-//W3C//DTD SVG 1.1//EN" "http://www.w3.org/Graphics/SVG/1.1/DTD/svg11.dtd">
<svg version="1.1" id="Layer_1" xmlns="http://www.w3.org/2000/svg" xmlns:xlink="http://www.w3.org/1999/xlink" x="0px" y="0px"
	 width="32px" height="12px" viewBox="0 0 32 12" style="enable-background:new 0 0 32 12;" xml:space="preserve">
<g id="Base_30_">
	<g>
		<path style="fill:#B3B3B3;" d="M27,0H5C3.896,0,3,0.896,3,2h26C29,0.896,28.104,0,27,0z M5,12h22c1.104,0,2-0.896,2-2H3
			C3,11.104,3.896,12,5,12z"/>
	</g>
</g>
<g id="Body_29_">
	<g>
		<polygon style="fill-rule:evenodd;clip-rule:evenodd;fill:#FF8833;" points="31,2 1,2 0,2 0,3 0,9 0,10 1,10 31,10 32,10 32,9 
			32,3 32,2 		"/>
	</g>
</g>
<g id="Holes_6_">
	<g>
		<path style="fill-rule:evenodd;clip-rule:evenodd;fill:#A65821;" d="M4,4C3.447,4,3,4.447,3,5v2c0,0.552,0.447,1,1,1
			c0.552,0,1-0.448,1-1V5C5,4.447,4.552,4,4,4z M8,4C7.447,4,7,4.447,7,5v2c0,0.552,0.447,1,1,1c0.552,0,1-0.448,1-1V5
			C9,4.447,8.552,4,8,4z M12,4c-0.553,0-1,0.447-1,1v2c0,0.552,0.447,1,1,1c0.552,0,1-0.448,1-1V5C13,4.447,12.552,4,12,4z M16,4
			c-0.553,0-1,0.447-1,1v2c0,0.552,0.447,1,1,1c0.552,0,1-0.448,1-1V5C17,4.447,16.552,4,16,4z M20,4c-0.553,0-1,0.447-1,1v2
			c0,0.552,0.447,1,1,1c0.552,0,1-0.448,1-1V5C21,4.447,20.552,4,20,4z M24,4c-0.553,0-1,0.447-1,1v2c0,0.552,0.447,1,1,1
			c0.552,0,1-0.448,1-1V5C25,4.447,24.552,4,24,4z M28,4c-0.553,0-1,0.447-1,1v2c0,0.552,0.447,1,1,1c0.552,0,1-0.448,1-1V5
			C29,4.447,28.552,4,28,4z"/>
	</g>
</g>
<g>
</g>
<g>
</g>
<g>
</g>
<g>
</g>
<g>
</g>
<g>
</g>
<g>
</g>
<g>
</g>
<g>
</g>
<g>
</g>
<g>
</g>
<g>
</g>
<g>
</g>
<g>
</g>
<g>
</g>
</svg>
