<?xml version="1.0" encoding="iso-8859-1"?>
<!-- Generator: Adobe Illustrator 16.0.0, SVG Export Plug-In . SVG Version: 6.00 Build 0)  -->
<!DOCTYPE svg PUBLIC "-//W3C//DTD SVG 1.1//EN" "http://www.w3.org/Graphics/SVG/1.1/DTD/svg11.dtd">
<svg version="1.1" id="Layer_1" xmlns="http://www.w3.org/2000/svg" xmlns:xlink="http://www.w3.org/1999/xlink" x="0px" y="0px"
	 width="22px" height="32px" viewBox="0 0 22 32" style="enable-background:new 0 0 22 32;" xml:space="preserve">
<g id="Strings">
	<g>
		<path style="fill-rule:evenodd;clip-rule:evenodd;fill:#CCCCCC;" d="M7.5,5C7.224,5,7,5.224,7,5.499V26.5
			C7,26.775,7.224,27,7.5,27S8,26.775,8,26.5V5.499C8,5.224,7.776,5,7.5,5z M9.5,5C9.224,5,9,5.224,9,5.499V26.5
			C9,26.775,9.224,27,9.5,27s0.5-0.225,0.5-0.5V5.499C10,5.224,9.776,5,9.5,5z M11.5,7C11.224,7,11,7.224,11,7.5v14
			c0,0.275,0.224,0.5,0.5,0.5s0.5-0.225,0.5-0.5v-14C12,7.224,11.776,7,11.5,7z M13.5,7C13.224,7,13,7.224,13,7.5v14
			c0,0.275,0.224,0.5,0.5,0.5s0.5-0.225,0.5-0.5v-14C14,7.224,13.776,7,13.5,7z M15.5,9C15.224,9,15,9.224,15,9.5v8
			c0,0.275,0.224,0.5,0.5,0.5s0.5-0.225,0.5-0.5v-8C16,9.224,15.776,9,15.5,9z M17.5,9C17.224,9,17,9.224,17,9.5v7
			c0,0.275,0.224,0.5,0.5,0.5s0.5-0.225,0.5-0.5v-7C18,9.224,17.776,9,17.5,9z"/>
	</g>
</g>
<g id="Arm">
	<g>
		<path style="fill:#E6B85C;" d="M17,8c-1.938,0-3.375-1.688-5-4S6,2,6,2v4c0.938,0,2.938-0.313,5,2c2.063,2.313,4.625,3,5,3
			s1.912-0.332,2,1c0.077,1.178-1,2-1,2L6,24.999V30h3c0,0,13-16,13-19C22,8.312,20.666,8,17,8z"/>
	</g>
</g>
<g id="Leg_2_">
	<g>
		<path style="fill-rule:evenodd;clip-rule:evenodd;fill:#FFCC66;" d="M8,28H6V7.182C6.604,6.452,7,5.304,7,4c0-2.21-1.119-4-2.5-4
			C4.434,0,4.372,0.023,4.308,0.031C4.207,0.015,4.105,0,4,0C2.896,0,2,0.896,2,2v26c-1.104,0-2,0.896-2,2s0.896,2,2,2h6
			c1.104,0,2-0.896,2-2S9.104,28,8,28z"/>
	</g>
</g>
<g>
</g>
<g>
</g>
<g>
</g>
<g>
</g>
<g>
</g>
<g>
</g>
<g>
</g>
<g>
</g>
<g>
</g>
<g>
</g>
<g>
</g>
<g>
</g>
<g>
</g>
<g>
</g>
<g>
</g>
</svg>
