<?xml version="1.0" encoding="iso-8859-1"?>
<!-- Generator: Adobe Illustrator 16.0.0, SVG Export Plug-In . SVG Version: 6.00 Build 0)  -->
<!DOCTYPE svg PUBLIC "-//W3C//DTD SVG 1.1//EN" "http://www.w3.org/Graphics/SVG/1.1/DTD/svg11.dtd">
<svg version="1.1" id="Layer_1" xmlns="http://www.w3.org/2000/svg" xmlns:xlink="http://www.w3.org/1999/xlink" x="0px" y="0px"
	 width="32px" height="29.996px" viewBox="0 0 32 29.996" style="enable-background:new 0 0 32 29.996;" xml:space="preserve">
<g id="Headphone_7_">
	<g>
		<path style="fill:#CCCCCC;" d="M16,0C8.268,0,2,6.268,2,13.998v4.999c0,0.553,0.447,1,1,1c0.552,0,1-0.447,1-0.999v-5
			C4,7.372,9.373,2,16,2s12,5.372,12,11.998v4.999c0,0.553,0.448,1,1,1s1-0.447,1-0.999v-5C30,6.268,23.732,0,16,0z"/>
	</g>
</g>
<g id="Headphone_8_">
	<g>
		<path style="fill-rule:evenodd;clip-rule:evenodd;fill:#88C057;" d="M3.5,16.998c-3.038,0-3.5,2.462-3.5,5.499
			s0.462,5.499,3.5,5.499S5,25.534,5,22.497S6.538,16.998,3.5,16.998z M28.802,16.998c-2.871,0-1.418,2.462-1.418,5.499
			s-1.453,5.499,1.418,5.499c2.871,0,3.198-2.462,3.198-5.499S31.672,16.998,28.802,16.998z"/>
	</g>
</g>
<g id="Headphone_9_">
	<g>
		<path style="fill-rule:evenodd;clip-rule:evenodd;fill:#666666;" d="M6,14.998c-1.657,0-3,1.343-3,3v8.998c0,1.657,1.343,3,3,3
			c1.657,0,3-1.343,3-3v-8.998C9,16.341,7.657,14.998,6,14.998z M26,14.998c-1.657,0-3,1.343-3,3v8.998c0,1.657,1.343,3,3,3
			c1.657,0,3-1.343,3-3v-8.998C29,16.341,27.657,14.998,26,14.998z"/>
	</g>
</g>
<g>
</g>
<g>
</g>
<g>
</g>
<g>
</g>
<g>
</g>
<g>
</g>
<g>
</g>
<g>
</g>
<g>
</g>
<g>
</g>
<g>
</g>
<g>
</g>
<g>
</g>
<g>
</g>
<g>
</g>
</svg>
