<?xml version="1.0" encoding="iso-8859-1"?>
<!-- Generator: Adobe Illustrator 16.0.0, SVG Export Plug-In . SVG Version: 6.00 Build 0)  -->
<!DOCTYPE svg PUBLIC "-//W3C//DTD SVG 1.1//EN" "http://www.w3.org/Graphics/SVG/1.1/DTD/svg11.dtd">
<svg version="1.1" id="Layer_1" xmlns="http://www.w3.org/2000/svg" xmlns:xlink="http://www.w3.org/1999/xlink" x="0px" y="0px"
	 width="28px" height="30.987px" viewBox="0 0 28 30.987" style="enable-background:new 0 0 28 30.987;" xml:space="preserve">
<g id="Headphone">
	<g>
		<path style="fill:#4D4D4D;" d="M14,0C6.268,0,0,6.262,0,13.984l2,13.983h0c0,0.552,0.448,0.999,1,0.999c0.552,0,1-0.447,1-0.998h0
			L2,13.984C2,7.364,7.373,1.998,14,1.998s12,5.366,12,11.986l-2,13.983c0,0.552,0.448,0.999,1,0.999s1-0.447,1-0.998l2-13.984
			C28,6.262,21.732,0,14,0z"/>
	</g>
</g>
<g id="Headphone_17_">
	<g>
		<path style="fill:#CCCCCC;" d="M23,17.979c-2.934-0.642-1.434,2.863-2.257,5.862c-0.824,3-4.648,5.365-1.743,6.124
			c2.905,0.76,5.99-1.884,6-4.994C25.011,21.629,25.186,18.459,23,17.979z"/>
	</g>
</g>
<g id="Headphone_15_">
	<g>
		<path style="fill:#ED7161;" d="M22.375,18.068c-1.676-0.439-3.4,0.532-3.849,2.168l-1.44,5.891
			c-0.449,1.637,0.545,3.317,2.222,3.756s3.4-0.532,3.849-2.168l1.44-5.892C25.047,20.188,24.052,18.506,22.375,18.068z"/>
	</g>
</g>
<g id="Headphone_13_">
	<g>
		<path style="fill:#666666;" d="M21.375,16.07c-1.676-0.438-3.4,0.532-3.849,2.168l-2.44,8.888
			c-0.449,1.636,0.545,3.317,2.222,3.756c1.676,0.438,3.4-0.532,3.849-2.169l2.44-8.887C24.047,18.19,23.052,16.509,21.375,16.07z"
			/>
	</g>
</g>
<g id="Headphone_4_">
	<g>
		<path style="fill:#CCCCCC;" d="M7.257,23.842C6.434,20.843,7.933,17.338,5,17.979c-2.187,0.479-2.011,3.649-2,6.992
			c0.01,3.11,3.095,5.754,6,4.994C11.905,29.207,8.081,26.842,7.257,23.842z"/>
	</g>
</g>
<g id="Headphone_5_">
	<g>
		<path style="fill:#ED7161;" d="M10.914,26.127l-1.44-5.891c-0.449-1.636-2.172-2.607-3.849-2.168
			c-1.677,0.438-2.671,2.119-2.222,3.755l1.44,5.892c0.449,1.636,2.173,2.606,3.85,2.168C10.368,29.444,11.363,27.764,10.914,26.127
			z"/>
	</g>
</g>
<g id="Headphone_6_">
	<g>
		<path style="fill:#666666;" d="M12.914,27.126l-2.44-8.888c-0.449-1.636-2.172-2.606-3.849-2.168s-2.671,2.12-2.223,3.756
			l2.44,8.887c0.449,1.637,2.173,2.607,3.85,2.169C12.368,30.443,13.363,28.762,12.914,27.126z"/>
	</g>
</g>
<g>
</g>
<g>
</g>
<g>
</g>
<g>
</g>
<g>
</g>
<g>
</g>
<g>
</g>
<g>
</g>
<g>
</g>
<g>
</g>
<g>
</g>
<g>
</g>
<g>
</g>
<g>
</g>
<g>
</g>
</svg>
