<?xml version="1.0" encoding="iso-8859-1"?>
<!-- Generator: Adobe Illustrator 16.0.0, SVG Export Plug-In . SVG Version: 6.00 Build 0)  -->
<!DOCTYPE svg PUBLIC "-//W3C//DTD SVG 1.1//EN" "http://www.w3.org/Graphics/SVG/1.1/DTD/svg11.dtd">
<svg version="1.1" id="Layer_1" xmlns="http://www.w3.org/2000/svg" xmlns:xlink="http://www.w3.org/1999/xlink" x="0px" y="0px"
	 width="32px" height="30.996px" viewBox="0 0 32 30.996" style="enable-background:new 0 0 32 30.996;" xml:space="preserve">
<g id="Headphone_10_">
	<g>
		<path style="fill-rule:evenodd;clip-rule:evenodd;fill:#CCCCCC;" d="M32,13.998C32,6.268,23.731,0,16,0C8.268,0,0,6.268,0,13.998
			v10.998v0.001C0,24.999,0.001,25,0.001,25.002C0.001,25.003,0,25.004,0,25.006c0,0.553,0.447,1,1,1h4c0.553,0,1-0.447,1-1
			c0-0.552-0.447-0.999-1-0.999H2V13.998C2,7.372,9.372,2,16,2c6.627,0,14,5.372,14,11.998v10.009h-5c-0.553,0-1,0.447-1,0.999
			c0,0.553,0.447,1,1,1h6c0.552,0,1-0.447,1-1c0-0.001-0.001-0.003-0.001-0.004S32,24.999,32,24.998V13.998z"/>
	</g>
</g>
<g id="Headphone_11_">
	<g>
		<path style="fill-rule:evenodd;clip-rule:evenodd;fill:#666666;" d="M5,24.007H2v-4H0v4.989v0.001C0,24.999,0.001,25,0.001,25.002
			C0.001,25.003,0,25.004,0,25.006c0,0.553,0.447,1,1,1h4c0.553,0,1-0.447,1-1C6,24.454,5.553,24.007,5,24.007z M15.823,0.009h0.354
			C16.118,0.008,16.059,0,16,0S15.882,0.008,15.823,0.009z M32,20.007h-2v4h-5c-0.553,0-1,0.447-1,0.999c0,0.553,0.447,1,1,1h6
			c0.552,0,1-0.447,1-1c0-0.001-0.001-0.003-0.001-0.004S32,24.999,32,24.998V20.007z"/>
	</g>
</g>
<g id="Headphone_12_">
	<g>
		<path style="fill-rule:evenodd;clip-rule:evenodd;fill:#ED7161;" d="M7,19.998c-1.657,0-3,1.343-3,3v4.998c0,1.657,1.343,3,3,3
			c1.656,0,3-1.343,3-3v-4.998C10,21.341,8.656,19.998,7,19.998z M25,19.998c-1.657,0-3,1.343-3,3v4.998c0,1.657,1.343,3,3,3
			c1.656,0,3-1.343,3-3v-4.998C28,21.341,26.656,19.998,25,19.998z"/>
	</g>
</g>
<g>
</g>
<g>
</g>
<g>
</g>
<g>
</g>
<g>
</g>
<g>
</g>
<g>
</g>
<g>
</g>
<g>
</g>
<g>
</g>
<g>
</g>
<g>
</g>
<g>
</g>
<g>
</g>
<g>
</g>
</svg>
