<?xml version="1.0" encoding="iso-8859-1"?>
<!-- Generator: Adobe Illustrator 16.0.0, SVG Export Plug-In . SVG Version: 6.00 Build 0)  -->
<!DOCTYPE svg PUBLIC "-//W3C//DTD SVG 1.1//EN" "http://www.w3.org/Graphics/SVG/1.1/DTD/svg11.dtd">
<svg version="1.1" id="Layer_1" xmlns="http://www.w3.org/2000/svg" xmlns:xlink="http://www.w3.org/1999/xlink" x="0px" y="0px"
	 width="32.001px" height="31.996px" viewBox="0 0 32.001 31.996" style="enable-background:new 0 0 32.001 31.996;"
	 xml:space="preserve">
<g id="BTNS_1_">
	<g>
		<path style="fill-rule:evenodd;clip-rule:evenodd;fill:#B3B3B3;" d="M12.501,0h-1C10.672,0,10,0.671,10,1.5
			c0,0.828,0.672,1.5,1.5,1.5h1c0.828,0,1.5-0.672,1.5-1.5C14.001,0.671,13.329,0,12.501,0z M5.5,0h-1C3.672,0,3,0.671,3,1.5
			C3,2.328,3.672,3,4.5,3h1C6.329,3,7,2.328,7,1.5C7,0.671,6.329,0,5.5,0z M26.501,0h-3c-0.829,0-1.5,0.671-1.5,1.5
			c0,0.828,0.671,1.5,1.5,1.5h3c0.829,0,1.5-0.672,1.5-1.5C28.001,0.671,27.33,0,26.501,0z"/>
	</g>
</g>
<g id="Body_26_">
	<g>
		<path style="fill:#48A0DC;" d="M30.001,1H2C0.896,1,0,1.896,0,3v26.996c0,1.104,0.896,2,2,2h28.001c1.105,0,2-0.896,2-2V3
			C32.001,1.896,31.106,1,30.001,1z"/>
	</g>
</g>
<g id="Rounded_Rectangle_59">
	<g>
		<path style="fill:#4D4D4D;" d="M28.001,3.999H4C3.448,3.999,3,4.447,3,5v22.996c0,0.553,0.448,1,1,1h24.001c0.552,0,1-0.447,1-1V5
			C29.001,4.447,28.554,3.999,28.001,3.999z"/>
	</g>
</g>
<g id="Apple_Logo">
	<g>
		<path style="fill-rule:evenodd;clip-rule:evenodd;fill:#FFFFFF;" d="M18.071,10.994c-0.556,0.02-1.229,0.318-1.628,0.721
			c-0.358,0.357-0.67,0.928-0.587,1.475c0.621,0.041,1.253-0.271,1.64-0.675C17.881,12.112,18.142,11.553,18.071,10.994z
			 M18.679,16.369c-0.012-1.251,1.015-1.852,1.061-1.882c-0.577-0.849-1.476-0.966-1.796-0.979
			c-0.765-0.078-1.492,0.453-1.881,0.453c-0.387,0-0.985-0.442-1.62-0.431c-0.834,0.014-1.603,0.487-2.032,1.239
			c-0.866,1.512-0.222,3.753,0.623,4.979c0.413,0.601,0.904,1.274,1.55,1.25c0.623-0.024,0.858-0.404,1.609-0.404
			c0.752,0,0.963,0.404,1.621,0.392c0.669-0.012,1.094-0.611,1.503-1.214c0.473-0.696,0.668-1.37,0.68-1.404
			C19.982,18.36,18.693,17.864,18.679,16.369z"/>
	</g>
</g>
<g>
</g>
<g>
</g>
<g>
</g>
<g>
</g>
<g>
</g>
<g>
</g>
<g>
</g>
<g>
</g>
<g>
</g>
<g>
</g>
<g>
</g>
<g>
</g>
<g>
</g>
<g>
</g>
<g>
</g>
</svg>
