<?xml version="1.0" encoding="iso-8859-1"?>
<!-- Generator: Adobe Illustrator 16.0.0, SVG Export Plug-In . SVG Version: 6.00 Build 0)  -->
<!DOCTYPE svg PUBLIC "-//W3C//DTD SVG 1.1//EN" "http://www.w3.org/Graphics/SVG/1.1/DTD/svg11.dtd">
<svg version="1.1" id="Layer_1" xmlns="http://www.w3.org/2000/svg" xmlns:xlink="http://www.w3.org/1999/xlink" x="0px" y="0px"
	 width="32.002px" height="30.996px" viewBox="0 0 32.002 30.996" style="enable-background:new 0 0 32.002 30.996;"
	 xml:space="preserve">
<g id="BTNS">
	<g>
		<path style="fill-rule:evenodd;clip-rule:evenodd;fill:#B3B3B3;" d="M27.502,0h-1.001c-0.828,0-1.5,0.671-1.5,1.5
			c0,0.828,0.672,1.499,1.5,1.499h1.001c0.828,0,1.5-0.671,1.5-1.499C29.002,0.671,28.33,0,27.502,0z M20.501,0h-1
			c-0.828,0-1.5,0.671-1.5,1.5c0,0.828,0.672,1.499,1.5,1.499h1c0.828,0,1.5-0.671,1.5-1.499C22.001,0.671,21.329,0,20.501,0z"/>
	</g>
</g>
<g id="Body_24_">
	<g>
		<path style="fill:#F06EAA;" d="M30.002,1H2C0.896,1,0,1.896,0,2.999v25.997c0,1.104,0.896,2,2,2h28.002c1.104,0,2-0.896,2-2V2.999
			C32.002,1.896,31.106,1,30.002,1z"/>
	</g>
</g>
<g id="Wheel">
	<g>
		<circle style="fill:#FFFFFF;" cx="16.001" cy="15.998" r="11.998"/>
	</g>
</g>
<g id="Btn_5_">
	<g>
		<circle style="fill:#F06EAA;" cx="16.001" cy="15.998" r="7.999"/>
	</g>
</g>
<g id="Pause">
	<g>
		<path style="fill-rule:evenodd;clip-rule:evenodd;fill:#FFFFFF;" d="M17.547,13.998c-0.302,0-0.546,0.224-0.546,0.5v2.999
			c0,0.276,0.244,0.501,0.546,0.501c0.301,0,0.545-0.225,0.545-0.501v-2.999C18.092,14.222,17.848,13.998,17.547,13.998z
			 M19.455,13.998c-0.301,0-0.545,0.224-0.545,0.5v2.999c0,0.276,0.244,0.501,0.545,0.501c0.302,0,0.546-0.225,0.546-0.501v-2.999
			C20.001,14.222,19.757,13.998,19.455,13.998z"/>
	</g>
</g>
<g id="Play">
	<g>
		<path style="fill:#FFFFFF;" d="M15.995,15.971c0.003-0.153-0.059-0.305-0.181-0.388l-2.246-1.521
			c-0.036-0.023-0.074-0.039-0.117-0.049c-0.018-0.004-0.034-0.01-0.052-0.011c-0.009-0.001-0.016-0.005-0.023-0.005
			c-0.019,0-0.035,0.008-0.053,0.011c-0.022,0.004-0.043,0.006-0.063,0.014c-0.038,0.014-0.07,0.033-0.102,0.059
			c-0.004,0.003-0.009,0.005-0.012,0.009c-0.082,0.068-0.136,0.169-0.142,0.286c0,0.002-0.001,0.004-0.001,0.006
			c0,0.006-0.003,0.011-0.003,0.016v3.2c0,0.005,0.003,0.01,0.003,0.016c0,0.002,0.001,0.004,0.001,0.007
			c0.007,0.116,0.06,0.217,0.141,0.285c0.005,0.005,0.01,0.007,0.016,0.011c0.03,0.023,0.062,0.043,0.097,0.057
			c0.022,0.008,0.045,0.011,0.067,0.014c0.018,0.003,0.032,0.011,0.051,0.011c0.008,0,0.015-0.004,0.022-0.004
			c0.019-0.002,0.036-0.008,0.055-0.013c0.04-0.009,0.076-0.023,0.11-0.045l2.251-1.523c0.122-0.083,0.184-0.233,0.181-0.388
			c0.002-0.009,0.001-0.018,0.002-0.026C15.996,15.988,15.997,15.979,15.995,15.971z"/>
	</g>
</g>
<g>
</g>
<g>
</g>
<g>
</g>
<g>
</g>
<g>
</g>
<g>
</g>
<g>
</g>
<g>
</g>
<g>
</g>
<g>
</g>
<g>
</g>
<g>
</g>
<g>
</g>
<g>
</g>
<g>
</g>
</svg>
