<?xml version="1.0" encoding="iso-8859-1"?>
<!-- Generator: Adobe Illustrator 16.0.0, SVG Export Plug-In . SVG Version: 6.00 Build 0)  -->
<!DOCTYPE svg PUBLIC "-//W3C//DTD SVG 1.1//EN" "http://www.w3.org/Graphics/SVG/1.1/DTD/svg11.dtd">
<svg version="1.1" id="Layer_1" xmlns="http://www.w3.org/2000/svg" xmlns:xlink="http://www.w3.org/1999/xlink" x="0px" y="0px"
	 width="16px" height="31.996px" viewBox="0 0 16 31.996" style="enable-background:new 0 0 16 31.996;" xml:space="preserve">
<g id="Body_28_">
	<g>
		<path style="fill:#88C057;" d="M15,0H1C0.447,0,0,0.447,0,1v29.996c0,0.553,0.447,1,1,1h14c0.552,0,1-0.447,1-1V1
			C16,0.447,15.553,0,15,0z"/>
	</g>
</g>
<g id="Screen_2_">
	<g>
		<path style="fill:#4D4D4D;" d="M13,2H3C2.448,2,2,2.447,2,3v11.998c0,0.552,0.448,1,1,1h10c0.552,0,1-0.448,1-1V3
			C14,2.447,13.553,2,13,2z"/>
	</g>
</g>
<g id="Wheel_2_">
	<g>
		<circle style="fill:#FFFFFF;" cx="8" cy="23.997" r="4.999"/>
	</g>
</g>
<g id="Btn_8_">
	<g>
		<circle style="fill:#88C057;" cx="8" cy="23.997" r="2"/>
	</g>
</g>
<g>
</g>
<g>
</g>
<g>
</g>
<g>
</g>
<g>
</g>
<g>
</g>
<g>
</g>
<g>
</g>
<g>
</g>
<g>
</g>
<g>
</g>
<g>
</g>
<g>
</g>
<g>
</g>
<g>
</g>
</svg>
