<?xml version="1.0" encoding="iso-8859-1"?>
<!-- Generator: Adobe Illustrator 16.0.0, SVG Export Plug-In . SVG Version: 6.00 Build 0)  -->
<!DOCTYPE svg PUBLIC "-//W3C//DTD SVG 1.1//EN" "http://www.w3.org/Graphics/SVG/1.1/DTD/svg11.dtd">
<svg version="1.1" id="Layer_1" xmlns="http://www.w3.org/2000/svg" xmlns:xlink="http://www.w3.org/1999/xlink" x="0px" y="0px"
	 width="32px" height="32px" viewBox="0 0 32 32" style="enable-background:new 0 0 32 32;" xml:space="preserve">
<g id="Base_6_">
	<g>
		<circle style="fill:#4D4D4D;" cx="16" cy="16" r="16"/>
	</g>
</g>
<g id="Rim">
	<g>
		<path style="fill-rule:evenodd;clip-rule:evenodd;fill:#B3B3B3;" d="M16,2C8.268,2,2,8.268,2,16c0,7.731,6.268,14,14,14
			s14-6.269,14-14C30,8.268,23.732,2,16,2z M16,28C9.372,28,4,22.627,4,16C4,9.372,9.372,4,16,4c6.627,0,12,5.372,12,12
			C28,22.627,22.627,28,16,28z"/>
	</g>
</g>
<g id="Label">
	<g>
		<path style="fill-rule:evenodd;clip-rule:evenodd;fill:#88C057;" d="M16,8c-4.418,0-8,3.582-8,8s3.582,8,8,8s8-3.582,8-8
			S20.418,8,16,8z M16,20c-2.209,0-4-1.791-4-4s1.791-4,4-4s4,1.791,4,4S18.209,20,16,20z"/>
	</g>
</g>
<g>
</g>
<g>
</g>
<g>
</g>
<g>
</g>
<g>
</g>
<g>
</g>
<g>
</g>
<g>
</g>
<g>
</g>
<g>
</g>
<g>
</g>
<g>
</g>
<g>
</g>
<g>
</g>
<g>
</g>
</svg>
