<?xml version="1.0" encoding="iso-8859-1"?>
<!-- Generator: Adobe Illustrator 16.0.0, SVG Export Plug-In . SVG Version: 6.00 Build 0)  -->
<!DOCTYPE svg PUBLIC "-//W3C//DTD SVG 1.1//EN" "http://www.w3.org/Graphics/SVG/1.1/DTD/svg11.dtd">
<svg version="1.1" id="Layer_1" xmlns="http://www.w3.org/2000/svg" xmlns:xlink="http://www.w3.org/1999/xlink" x="0px" y="0px"
	 width="31.985px" height="32.002px" viewBox="0 0 31.985 32.002" style="enable-background:new 0 0 31.985 32.002;"
	 xml:space="preserve">
<g id="Cable_2_">
	<g>
		<path style="fill:#333333;" d="M12.396,19.576c-0.761-0.763-1.994-0.763-2.755,0L0,29.24v2.762h2.755l9.642-9.664
			C13.157,21.575,13.157,20.339,12.396,19.576z"/>
	</g>
</g>
<g id="Socket">
	<g>
		<path style="fill:#FFCC66;" d="M31.362,5l-4.394-4.394c-0.809-0.809-2.12-0.809-2.929,0l-1.465,1.465
			c-0.809,0.809-0.809,2.12,0,2.929l4.394,4.394c0.81,0.81,2.12,0.81,2.93,0l1.464-1.464C32.172,7.12,32.172,5.81,31.362,5z"/>
	</g>
</g>
<g id="Body_8_">
	<g>
		<polygon style="fill:#666666;" points="22.985,0.039 11.985,11.028 7.985,21.019 10.985,24.016 20.985,20.019 31.985,9.03 		"/>
	</g>
</g>
<g id="Body_9_">
	<g>
		<path style="fill-rule:evenodd;clip-rule:evenodd;fill:#333333;" d="M10.271,15.31l6.429,6.422l1.428-0.57l-7.286-7.278
			L10.271,15.31z M9.128,18.164l4.714,4.709l1.428-0.57L9.7,16.736L9.128,18.164z M11.985,11.028l-0.571,1.427l8.142,8.135
			l1.429-0.571L11.985,11.028z"/>
	</g>
</g>
<g id="Body_10_">
	<g>
		<polygon style="fill:#333333;" points="19.495,3.526 16.493,6.524 25.488,15.52 28.49,12.521 		"/>
	</g>
</g>
<g>
</g>
<g>
</g>
<g>
</g>
<g>
</g>
<g>
</g>
<g>
</g>
<g>
</g>
<g>
</g>
<g>
</g>
<g>
</g>
<g>
</g>
<g>
</g>
<g>
</g>
<g>
</g>
<g>
</g>
</svg>
