<?xml version="1.0" encoding="iso-8859-1"?>
<!-- Generator: Adobe Illustrator 16.0.0, SVG Export Plug-In . SVG Version: 6.00 Build 0)  -->
<!DOCTYPE svg PUBLIC "-//W3C//DTD SVG 1.1//EN" "http://www.w3.org/Graphics/SVG/1.1/DTD/svg11.dtd">
<svg version="1.1" id="Layer_1" xmlns="http://www.w3.org/2000/svg" xmlns:xlink="http://www.w3.org/1999/xlink" x="0px" y="0px"
	 width="32.01px" height="31.978px" viewBox="0 0 32.01 31.978" style="enable-background:new 0 0 32.01 31.978;"
	 xml:space="preserve">
<g id="Plug_8_">
	<g>
		<path style="fill:#CCCCCC;" d="M31.435,0.575c-0.767-0.767-2.01-0.767-2.776,0L17.553,11.669c-0.767,0.766-0.767,2.008,0,2.773
			c0.767,0.767,2.01,0.767,2.776,0L31.435,3.349C32.202,2.582,32.202,1.341,31.435,0.575z"/>
	</g>
</g>
<g id="Plug_9_">
	<g>
		<path style="fill:#999999;" d="M27.62,1.612L25.619,3.61l2.775,2.775l2.001-1.999L27.62,1.612z M22.618,6.609l2.775,2.774
			l2.001-1.998L24.619,4.61L22.618,6.609z"/>
	</g>
</g>
<g id="Body_14_">
	<g>
		<path style="fill:#ED7161;" d="M15.219,8.211L1.781,21.621c-2.374,2.369-2.374,6.21,0,8.579s6.223,2.369,8.597,0l13.429-13.402
			L15.219,8.211z"/>
	</g>
</g>
<g id="Body_15_">
	<g>
		<polygon style="fill:#D46557;" points="11.517,12.011 9.025,14.509 17.501,23.001 19.993,20.503 		"/>
	</g>
</g>
<g>
</g>
<g>
</g>
<g>
</g>
<g>
</g>
<g>
</g>
<g>
</g>
<g>
</g>
<g>
</g>
<g>
</g>
<g>
</g>
<g>
</g>
<g>
</g>
<g>
</g>
<g>
</g>
<g>
</g>
</svg>
