<?xml version="1.0" encoding="iso-8859-1"?>
<!-- Generator: Adobe Illustrator 16.0.0, SVG Export Plug-In . SVG Version: 6.00 Build 0)  -->
<!DOCTYPE svg PUBLIC "-//W3C//DTD SVG 1.1//EN" "http://www.w3.org/Graphics/SVG/1.1/DTD/svg11.dtd">
<svg version="1.1" id="Layer_1" xmlns="http://www.w3.org/2000/svg" xmlns:xlink="http://www.w3.org/1999/xlink" x="0px" y="0px"
	 width="34.001px" height="32.998px" viewBox="0 0 34.001 32.998" style="enable-background:new 0 0 34.001 32.998;"
	 xml:space="preserve">
<g id="Plug_6_">
	<g>
		<path style="fill:#FFCC66;" d="M33.425,0.574c-0.767-0.766-2.01-0.766-2.776,0L19.543,11.669c-0.767,0.766-0.767,2.008,0,2.773
			s2.01,0.766,2.776,0L33.425,3.349C34.192,2.582,34.192,1.341,33.425,0.574z"/>
	</g>
</g>
<g id="Plug_7_">
	<g>
		<path style="fill:#CCA352;" d="M24.608,6.609l2.775,2.774l2.001-1.999L26.609,4.61L24.608,6.609z M29.611,1.611L27.61,3.61
			l2.775,2.775l2.001-1.999L29.611,1.611z"/>
	</g>
</g>
<g id="Body_11_">
	<g>
		<polygon style="fill:#666666;" points="17,8.023 6,19.013 2,29.003 5,31.999 15,28.004 26,17.015 		"/>
	</g>
</g>
<g id="Body_12_">
	<g>
		<path style="fill-rule:evenodd;clip-rule:evenodd;fill:#333333;" d="M6,19.013l-0.571,1.427l8.143,8.136L15,28.004h0L6,19.013z
			 M3.143,26.148l4.714,4.709l1.429-0.57l-5.572-5.565L3.143,26.148z M4.286,23.294l6.429,6.422l1.429-0.57l-7.286-7.278
			L4.286,23.294z"/>
	</g>
</g>
<g id="Body_13_">
	<g>
		
			<rect x="14.385" y="11.147" transform="matrix(0.7075 -0.7067 0.7067 0.7075 -7.5449 16.786)" style="fill:#333333;" width="4.242" height="12.722"/>
	</g>
</g>
<g>
</g>
<g>
</g>
<g>
</g>
<g>
</g>
<g>
</g>
<g>
</g>
<g>
</g>
<g>
</g>
<g>
</g>
<g>
</g>
<g>
</g>
<g>
</g>
<g>
</g>
<g>
</g>
<g>
</g>
</svg>
