<?xml version="1.0" encoding="iso-8859-1"?>
<!-- Generator: Adobe Illustrator 16.0.0, SVG Export Plug-In . SVG Version: 6.00 Build 0)  -->
<!DOCTYPE svg PUBLIC "-//W3C//DTD SVG 1.1//EN" "http://www.w3.org/Graphics/SVG/1.1/DTD/svg11.dtd">
<svg version="1.1" id="Layer_1" xmlns="http://www.w3.org/2000/svg" xmlns:xlink="http://www.w3.org/1999/xlink" x="0px" y="0px"
	 width="26px" height="32px" viewBox="0 0 26 32" style="enable-background:new 0 0 26 32;" xml:space="preserve">
<g id="Base_18_">
	<g>
		<path style="fill-rule:evenodd;clip-rule:evenodd;fill:#666666;" d="M23,11h-1.023C21.738,5.037,19.283,2,13,2
			c-6.284,0-9.636,3.037-9.967,9H3c-1.104,0-2,0.896-2,2v17c0,1.105,0.896,2,2,2h20c1.104,0,2-0.895,2-2V13
			C25,11.896,24.104,11,23,11z"/>
	</g>
</g>
<g id="Tray">
	<g>
		<path style="fill-rule:evenodd;clip-rule:evenodd;fill:#4D4D4D;" d="M11,20H9c-0.553,0-1,0.448-1,1v2c0,0.553,0.447,1.001,1,1.001
			h2c0.553,0,1-0.448,1-1.001v-2C12,20.448,11.553,20,11,20z M17,20h-2c-0.553,0-1,0.448-1,1v2c0,0.553,0.447,1.001,1,1.001h2
			c0.552,0,1-0.448,1-1.001v-2C18,20.448,17.552,20,17,20z M11,26H9c-0.553,0-1,0.448-1,1v2.001C8,29.553,8.447,30,9,30h2
			c0.553,0,1-0.447,1-0.999V27C12,26.448,11.553,26,11,26z M17,26h-2c-0.553,0-1,0.448-1,1v2.001C14,29.553,14.447,30,15,30h2
			c0.552,0,1-0.447,1-0.999V27C18,26.448,17.552,26,17,26z"/>
	</g>
</g>
<g id="Case_3_">
	<g>
		<path style="fill-rule:evenodd;clip-rule:evenodd;fill:#FFCC66;" d="M25,12c0-6.627-5.373-12-12-12C6.372,0,1,5.373,1,12
			c0,0,0,0,0,0.001l0,0V30c0,1.105,0.896,2,2,2h2v-2v-9.073v-8.926V12c0-4.418,3.582-8,8-8s8,3.582,8,8v0.001v8.926V30v2h2
			c1.104,0,2-0.895,2-2V12L25,12C25,12,25,12,25,12z"/>
	</g>
</g>
<g id="Sep_1_">
	<g>
		<path style="fill-rule:evenodd;clip-rule:evenodd;fill:#E6E6E6;" d="M5,16H1c-0.553,0-1,0.448-1,1c0,0.553,0.447,1,1,1h4
			c0.552,0,1-0.447,1-1C6,16.448,5.552,16,5,16z M25,16h-4c-0.553,0-1,0.448-1,1c0,0.553,0.447,1,1,1h4c0.552,0,1-0.447,1-1
			C26,16.448,25.552,16,25,16z"/>
	</g>
</g>
<g id="Display_2_">
	<g>
		<path style="fill-rule:evenodd;clip-rule:evenodd;fill:#333333;" d="M18,12.999C18,10.238,15.762,8,13,8s-5,2.238-5,4.999
			C8,13,8,13,8,13.001l0,0V18h10v-4.999l0,0C18,13,18,13,18,12.999z"/>
	</g>
</g>
<g>
</g>
<g>
</g>
<g>
</g>
<g>
</g>
<g>
</g>
<g>
</g>
<g>
</g>
<g>
</g>
<g>
</g>
<g>
</g>
<g>
</g>
<g>
</g>
<g>
</g>
<g>
</g>
<g>
</g>
</svg>
