<?xml version="1.0" encoding="iso-8859-1"?>
<!-- Generator: Adobe Illustrator 16.0.0, SVG Export Plug-In . SVG Version: 6.00 Build 0)  -->
<!DOCTYPE svg PUBLIC "-//W3C//DTD SVG 1.1//EN" "http://www.w3.org/Graphics/SVG/1.1/DTD/svg11.dtd">
<svg version="1.1" id="Layer_1" xmlns="http://www.w3.org/2000/svg" xmlns:xlink="http://www.w3.org/1999/xlink" x="0px" y="0px"
	 width="32.035px" height="32.053px" viewBox="0 0 32.035 32.053" style="enable-background:new 0 0 32.035 32.053;"
	 xml:space="preserve">
<g id="Body_50_">
	<g>
		<path style="fill:#4D4D4D;" d="M31.443,0.593c-0.789-0.79-2.068-0.79-2.857,0l-5.318,6.481h-5.217
			c-1.579,0.094-3.321-0.241-4.102,0.54L0.585,23.998c-0.78,0.78-0.78,2.047,0,2.828l4.65,4.655
			c0.428,0.428,0.998,0.599,1.558,0.558c0.588,0.064,1.195-0.099,1.646-0.551L31.443,3.452C32.232,2.663,32.232,1.383,31.443,0.593z
			"/>
	</g>
</g>
<g id="Keys_6_">
	<g>
		<path style="fill:#E6E6E6;" d="M20.143,12.422l-5.882-4.896c-0.228-0.235-0.386,0.06-0.75,0.5l-12.75,15.5
			c-0.364,0.44-0.184,0.88,0.25,1.25l4.911,4.726c0.418,0.361,1.042,0.307,1.393-0.124l12.949-15.521
			C20.615,13.426,20.561,12.783,20.143,12.422z"/>
	</g>
</g>
<g id="Keys_7_">
	<g>
		<path style="fill-rule:evenodd;clip-rule:evenodd;fill:#666666;" d="M18.252,16.029l-2.744-2.494
			c-0.344-0.344-0.901-0.344-1.245,0s-0.344,0.901,0,1.245l2.744,2.494c0.106,0.105,0.234,0.167,0.368,0.208l1.027-1.229
			C18.361,16.175,18.319,16.096,18.252,16.029z M12.014,16.284c-0.344,0.344-0.344,0.901,0,1.245l2.994,2.743
			c0.006,0.007,0.016,0.008,0.022,0.015l1.126-1.348l-2.897-2.655C12.916,15.94,12.358,15.94,12.014,16.284z M6.012,24.03
			c-0.344-0.344-0.901-0.344-1.245,0s-0.344,0.901,0,1.245l3.244,2.993c0.066,0.066,0.145,0.108,0.224,0.148l1.084-1.297
			c-0.023-0.031-0.035-0.067-0.063-0.095L6.012,24.03z M8.511,21.531c-0.344-0.344-0.901-0.344-1.245,0s-0.344,0.901,0,1.245
			l2.744,2.494c0.177,0.177,0.411,0.259,0.643,0.254l0.836-1c-0.026-0.182-0.094-0.359-0.234-0.499L8.511,21.531z M11.26,18.283
			c-0.344-0.344-0.901-0.344-1.245,0s-0.344,0.901,0,1.244l2.994,2.744c0.069,0.069,0.151,0.113,0.233,0.155l1.082-1.294
			c-0.025-0.034-0.039-0.074-0.07-0.105L11.26,18.283z"/>
	</g>
</g>
<g>
</g>
<g>
</g>
<g>
</g>
<g>
</g>
<g>
</g>
<g>
</g>
<g>
</g>
<g>
</g>
<g>
</g>
<g>
</g>
<g>
</g>
<g>
</g>
<g>
</g>
<g>
</g>
<g>
</g>
</svg>
