<?xml version="1.0" encoding="iso-8859-1"?>
<!-- Generator: Adobe Illustrator 16.0.0, SVG Export Plug-In . SVG Version: 6.00 Build 0)  -->
<!DOCTYPE svg PUBLIC "-//W3C//DTD SVG 1.1//EN" "http://www.w3.org/Graphics/SVG/1.1/DTD/svg11.dtd">
<svg version="1.1" id="Layer_1" xmlns="http://www.w3.org/2000/svg" xmlns:xlink="http://www.w3.org/1999/xlink" x="0px" y="0px"
	 width="32.016px" height="24.999px" viewBox="0 0 32.016 24.999" style="enable-background:new 0 0 32.016 24.999;"
	 xml:space="preserve">
<g id="Cable_3_">
	<g>
		<path style="fill:#ED7161;" d="M9.698,15.302c-0.399-0.399-1.047-0.399-1.446,0L0.3,23.253c-0.399,0.4-0.399,1.047,0,1.446
			c0.399,0.399,1.046,0.399,1.446,0l7.952-7.952C10.097,16.348,10.097,15.7,9.698,15.302z"/>
	</g>
</g>
<g id="Plug_4_">
	<g>
		<path style="fill:#FFCC66;" d="M31.442,14.673L20.371,3.59c-0.764-0.765-2.003-0.765-2.768,0c-0.764,0.765-0.764,2.006,0,2.771
			l11.072,11.082c0.764,0.766,2.003,0.766,2.768,0C32.207,16.678,32.207,15.438,31.442,14.673z"/>
	</g>
</g>
<g id="Plug_5_">
	<g>
		<path style="fill:#CCA352;" d="M28.402,11.629l-2.769,2.77l1.999,2.001l2.769-2.77L28.402,11.629z M25.403,8.628l-2.769,2.77
			l1.999,2l2.769-2.769L25.403,8.628z"/>
	</g>
</g>
<g id="Rim_1_">
	<g>
		<polygon style="fill:#666666;" points="23.507,4.001 18.015,9.525 20.513,12.031 26.004,6.507 		"/>
	</g>
</g>
<g id="Shape_8_">
	<g>
		<path style="fill:#333333;" d="M24.413,2.003l-1.416-1.416c-0.782-0.782-2.051-0.782-2.833,0L4.585,16.166
			c-0.782,0.782-0.782,2.051,0,2.833l1.416,1.416c0.782,0.782,2.05,0.782,2.833,0l15.58-15.58
			C25.195,4.053,25.195,2.785,24.413,2.003z"/>
	</g>
</g>
<g>
</g>
<g>
</g>
<g>
</g>
<g>
</g>
<g>
</g>
<g>
</g>
<g>
</g>
<g>
</g>
<g>
</g>
<g>
</g>
<g>
</g>
<g>
</g>
<g>
</g>
<g>
</g>
<g>
</g>
</svg>
