<?xml version="1.0" encoding="iso-8859-1"?>
<!-- Generator: Adobe Illustrator 16.0.0, SVG Export Plug-In . SVG Version: 6.00 Build 0)  -->
<!DOCTYPE svg PUBLIC "-//W3C//DTD SVG 1.1//EN" "http://www.w3.org/Graphics/SVG/1.1/DTD/svg11.dtd">
<svg version="1.1" id="Layer_1" xmlns="http://www.w3.org/2000/svg" xmlns:xlink="http://www.w3.org/1999/xlink" x="0px" y="0px"
	 width="26px" height="32.003px" viewBox="0 0 26 32.003" style="enable-background:new 0 0 26 32.003;" xml:space="preserve">
<g id="Shape_42_">
	<g>
		<path style="fill-rule:evenodd;clip-rule:evenodd;fill:#CCCCCC;" d="M4,21.025c0-3.836,0.344-6.673,3-12.973
			c2.656-6.298-0.556-8.12-5-7.982c-1.104,0-2,0.894-2,1.996s0.896,1.995,2,1.995c0.608,0,1.147-0.277,1.514-0.705
			C3.961,3.187,4.418,3.052,4.75,3.052c0.906,0,1.813,1.103,0.25,4.003s-5,9.604-5,13.97s3.563,8.888,7,9.979l2-3.991
			C9,27.012,4,24.861,4,21.025z M21.25,2.99c0.332,0,0.789,0.135,1.236,0.305C22.853,3.722,23.392,4,24,4c1.104,0,2-0.894,2-1.996
			s-0.896-1.996-2-1.996c-4.445-0.138-7.656,1.684-5,7.983c2.656,6.299,3,9.137,3,12.972c0,3.836-5,5.987-5,5.987l2,3.991
			c3.438-1.091,7-5.612,7-9.979c0-4.365-3.438-11.07-5-13.97C19.438,4.092,20.344,2.99,21.25,2.99z"/>
	</g>
</g>
<g id="Strings_1_">
	<g>
		<path style="fill-rule:evenodd;clip-rule:evenodd;fill:#CCCCCC;" d="M8.5,4.023c-0.276,0-0.5,0.224-0.5,0.5v22.996
			c0,0.277,0.224,0.501,0.5,0.501S9,27.796,9,27.519V4.523C9,4.247,8.776,4.023,8.5,4.023z M11.5,4.023c-0.276,0-0.5,0.224-0.5,0.5
			v22.996c0,0.277,0.224,0.501,0.5,0.501s0.5-0.224,0.5-0.501V4.523C12,4.247,11.776,4.023,11.5,4.023z M14.5,4.023
			c-0.276,0-0.5,0.224-0.5,0.5v22.996c0,0.277,0.224,0.501,0.5,0.501s0.5-0.224,0.5-0.501V4.523C15,4.247,14.776,4.023,14.5,4.023z
			 M17.5,4.023c-0.276,0-0.5,0.224-0.5,0.5v22.996c0,0.277,0.224,0.501,0.5,0.501s0.5-0.224,0.5-0.501V4.523
			C18,4.247,17.776,4.023,17.5,4.023z"/>
	</g>
</g>
<g id="Shape_43_">
	<g>
		<path style="fill:#B3B3B3;" d="M20,3.023H6c-0.553,0-1,0.447-1,1c0,0.552,0.447,1,1,1h14c0.552,0,1-0.448,1-1
			C21,3.47,20.552,3.023,20,3.023z"/>
	</g>
</g>
<g id="Base_33_">
	<g>
		<path style="fill-rule:evenodd;clip-rule:evenodd;fill:#9B7CAB;" d="M19,26.004h-2c0-1.104-0.896-2-2-2h-4c-1.104,0-2,0.896-2,2H7
			c-0.553,0-1,0.447-1,1v3.999c0,0.553,0.447,1,1,1h12c0.552,0,1-0.447,1-1v-3.999C20,26.452,19.552,26.004,19,26.004z"/>
	</g>
</g>
<g>
</g>
<g>
</g>
<g>
</g>
<g>
</g>
<g>
</g>
<g>
</g>
<g>
</g>
<g>
</g>
<g>
</g>
<g>
</g>
<g>
</g>
<g>
</g>
<g>
</g>
<g>
</g>
<g>
</g>
</svg>
