<?xml version="1.0" encoding="iso-8859-1"?>
<!-- Generator: Adobe Illustrator 16.0.0, SVG Export Plug-In . SVG Version: 6.00 Build 0)  -->
<!DOCTYPE svg PUBLIC "-//W3C//DTD SVG 1.1//EN" "http://www.w3.org/Graphics/SVG/1.1/DTD/svg11.dtd">
<svg version="1.1" id="Layer_1" xmlns="http://www.w3.org/2000/svg" xmlns:xlink="http://www.w3.org/1999/xlink" x="0px" y="0px"
	 width="42.99px" height="37.021px" viewBox="0 0 42.99 37.021" style="enable-background:new 0 0 42.99 37.021;"
	 xml:space="preserve">
<g id="Handle_5_">
	<g>
		<path style="fill:#A67C52;" d="M27.391,15.585c-0.793-0.794-2.079-0.794-2.873,0L6.56,33.543c-0.794,0.793-0.794,2.08,0,2.873
			c0.793,0.794,2.08,0.794,2.873,0l17.958-17.958C28.185,17.665,28.185,16.378,27.391,15.585z"/>
	</g>
</g>
<g id="Body_38_">
	<g>
		<path style="fill:#6D5778;" d="M34.483,8.524C29.358,3.4,20.337,4.114,15.213,9.238s-5.838,14.146-0.714,19.27
			c5.124,5.125,14.146,4.411,19.271-0.713C38.894,22.67,39.607,13.648,34.483,8.524z"/>
	</g>
</g>
<g id="Model">
	<g>
		<path style="fill-rule:evenodd;clip-rule:evenodd;fill:#F06EAA;" d="M35.424,21.228l0.741-6.659
			c0.031-0.281-0.07-0.513-0.246-0.664c-0.151-0.176-0.382-0.277-0.663-0.245L28.604,14.4l0.74-6.658
			c0.031-0.282-0.069-0.513-0.245-0.665c-0.151-0.176-0.383-0.277-0.663-0.246l-6.651,0.742l0.234-2.111
			c-0.658,0.162-1.304,0.374-1.937,0.624l-0.29,2.608c-0.03,0.271,0.06,0.499,0.223,0.651c0.152,0.163,0.38,0.252,0.649,0.222
			l6.693-0.746l-0.746,6.7c-0.03,0.271,0.06,0.498,0.223,0.65c0.152,0.163,0.379,0.252,0.649,0.223l6.693-0.747l-0.745,6.701
			c-0.03,0.27,0.06,0.498,0.222,0.649c0.152,0.163,0.379,0.253,0.649,0.223l2.615-0.292c0.251-0.633,0.463-1.28,0.625-1.938
			L35.424,21.228z M29.075,27.485l-6.651,0.742l0.741-6.658c0.031-0.282-0.07-0.514-0.246-0.665
			c-0.151-0.176-0.382-0.277-0.663-0.245L15.604,21.4l0.74-6.658c0.031-0.282-0.069-0.513-0.245-0.665
			c-0.151-0.176-0.383-0.277-0.663-0.246l-3.415,0.381c-0.001,0.003-0.002,0.005-0.003,0.008c-0.244,0.631-0.454,1.273-0.61,1.929
			l2.95-0.329l-0.746,6.7c-0.03,0.271,0.06,0.498,0.223,0.65c0.152,0.163,0.379,0.252,0.649,0.223l6.693-0.747l-0.745,6.7
			c-0.03,0.271,0.06,0.498,0.222,0.65c0.152,0.163,0.379,0.253,0.649,0.223l6.693-0.746l-0.207,1.864
			c0.299-0.092,0.594-0.197,0.887-0.308c0.054-0.021,0.108-0.041,0.162-0.061c0.304-0.12,0.604-0.247,0.901-0.386l0.001,0
			l0.243-2.188c0.031-0.281-0.07-0.513-0.245-0.664C29.587,27.555,29.356,27.454,29.075,27.485z"/>
	</g>
</g>
<g id="Dots">
	<g>
		<path style="fill-rule:evenodd;clip-rule:evenodd;fill:#F06EAA;" d="M21.991,13.017c-1.104,0-2,0.896-2,2s0.896,2,2,2s2-0.896,2-2
			S23.096,13.017,21.991,13.017z M28.991,20.017c-1.104,0-2,0.896-2,2s0.896,2,2,2s2-0.896,2-2S30.096,20.017,28.991,20.017z"/>
	</g>
</g>
<g>
</g>
<g>
</g>
<g>
</g>
<g>
</g>
<g>
</g>
<g>
</g>
<g>
</g>
<g>
</g>
<g>
</g>
<g>
</g>
<g>
</g>
<g>
</g>
<g>
</g>
<g>
</g>
<g>
</g>
</svg>
