<?xml version="1.0" encoding="iso-8859-1"?>
<!-- Generator: Adobe Illustrator 16.0.0, SVG Export Plug-In . SVG Version: 6.00 Build 0)  -->
<!DOCTYPE svg PUBLIC "-//W3C//DTD SVG 1.1//EN" "http://www.w3.org/Graphics/SVG/1.1/DTD/svg11.dtd">
<svg version="1.1" id="Layer_1" xmlns="http://www.w3.org/2000/svg" xmlns:xlink="http://www.w3.org/1999/xlink" x="0px" y="0px"
	 width="48.199px" height="48.199px" viewBox="0 0 48.199 48.199" style="enable-background:new 0 0 48.199 48.199;"
	 xml:space="preserve">
<g id="Handle_4_">
	<g>
		<path style="fill:#ED7161;" d="M25.999,22.168c-0.793-0.794-2.079-0.794-2.873,0L5.168,40.126c-0.794,0.793-0.794,2.08,0,2.873
			c0.793,0.794,2.08,0.794,2.873,0l17.958-17.958C26.793,24.248,26.793,22.961,25.999,22.168z"/>
	</g>
</g>
<g id="Body_37_">
	<g>
		
			<ellipse transform="matrix(0.7071 -0.7071 0.7071 0.7071 -9.4821 24.3057)" style="fill:#FFCC66;" cx="24.6" cy="23.599" rx="13.82" ry="9.872"/>
	</g>
</g>
<g id="Red_1_">
	<g>
		<path style="fill-rule:evenodd;clip-rule:evenodd;fill:#ED7161;" d="M26.503,34.188L14.011,21.697
			c-2.072,4.358-1.922,8.936,0.816,11.674C17.566,36.11,22.145,36.26,26.503,34.188z"/>
	</g>
</g>
<g id="Green_1_">
	<g>
		<path style="fill-rule:evenodd;clip-rule:evenodd;fill:#90C462;" d="M21.391,13.704l13.104,13.104
			c2.771-4.724,2.892-9.966-0.123-12.981C31.356,10.812,26.115,10.932,21.391,13.704z"/>
	</g>
</g>
<g>
</g>
<g>
</g>
<g>
</g>
<g>
</g>
<g>
</g>
<g>
</g>
<g>
</g>
<g>
</g>
<g>
</g>
<g>
</g>
<g>
</g>
<g>
</g>
<g>
</g>
<g>
</g>
<g>
</g>
</svg>
