<?xml version="1.0" encoding="iso-8859-1"?>
<!-- Generator: Adobe Illustrator 16.0.0, SVG Export Plug-In . SVG Version: 6.00 Build 0)  -->
<!DOCTYPE svg PUBLIC "-//W3C//DTD SVG 1.1//EN" "http://www.w3.org/Graphics/SVG/1.1/DTD/svg11.dtd">
<svg version="1.1" id="Layer_1" xmlns="http://www.w3.org/2000/svg" xmlns:xlink="http://www.w3.org/1999/xlink" x="0px" y="0px"
	 width="32px" height="29.941px" viewBox="0 0 32 29.941" style="enable-background:new 0 0 32 29.941;" xml:space="preserve">
<g id="Handle_6_">
	<g>
		<path style="fill:#4D4A4A;" d="M24,0h-1c0,0-3.504,0-7,0c-3.504,0-7,0-7,0H8C7.448,0,7,0.447,7,0.998v0.998h18V0.998
			C25,0.447,24.552,0,24,0z"/>
	</g>
</g>
<g id="Base_36_">
	<g>
		<path style="fill:#666666;" d="M29,1.996H3c-1.657,0-3,1.341-3,2.994v21.957c0,1.653,1.343,2.994,3,2.994h26
			c1.657,0,3-1.341,3-2.994V4.99C32,3.337,30.657,1.996,29,1.996z"/>
	</g>
</g>
<g id="Shape_49_">
	<g>
		<rect x="3" y="4.99" style="fill-rule:evenodd;clip-rule:evenodd;fill:#4D4D4D;" width="26" height="21.957"/>
	</g>
</g>
<g id="Corners">
	<g>
		<path style="fill-rule:evenodd;clip-rule:evenodd;" d="M0,3.992V4.99h3V1.996H2C0.895,1.996,0,2.89,0,3.992z M0,27.945
			c0,1.103,0.895,1.996,2,1.996h1v-2.994H0V27.945z M29,29.941h1c1.104,0,2-0.894,2-1.996v-0.998h-3V29.941z M30,1.996h-1V4.99h3
			V3.992C32,2.89,31.104,1.996,30,1.996z"/>
	</g>
</g>
<g id="Bar_3_">
	<g>
		<polygon style="fill-rule:evenodd;clip-rule:evenodd;fill:#FFCC66;" points="28,4.99 4,4.99 3,4.99 3,5.988 3,9.98 3,10.979 
			4,10.979 28,10.979 29,10.979 29,9.98 29,5.988 29,4.99 		"/>
	</g>
</g>
<g id="Rec_Btn">
	<g>
		<circle style="fill:#ED7161;" cx="6" cy="7.984" r="0.998"/>
	</g>
</g>
<g id="Btns_14_">
	<g>
		<path style="fill-rule:evenodd;clip-rule:evenodd;fill:#FFFFFF;" d="M18,6.986c-0.553,0-1,0.446-1,0.998
			c0,0.551,0.447,0.998,1,0.998c0.552,0,1-0.447,1-0.998C19,7.433,18.552,6.986,18,6.986z M22,6.986c-0.552,0-1,0.446-1,0.998
			c0,0.551,0.448,0.998,1,0.998s1-0.447,1-0.998C23,7.433,22.552,6.986,22,6.986z M26,6.986c-0.552,0-1,0.446-1,0.998
			c0,0.551,0.448,0.998,1,0.998s1-0.447,1-0.998C27,7.433,26.552,6.986,26,6.986z M14,6.986c-0.552,0-1,0.446-1,0.998
			c0,0.551,0.448,0.998,1,0.998s1-0.447,1-0.998C15,7.433,14.552,6.986,14,6.986z"/>
	</g>
</g>
<g>
</g>
<g>
</g>
<g>
</g>
<g>
</g>
<g>
</g>
<g>
</g>
<g>
</g>
<g>
</g>
<g>
</g>
<g>
</g>
<g>
</g>
<g>
</g>
<g>
</g>
<g>
</g>
<g>
</g>
</svg>
