<?xml version="1.0" encoding="iso-8859-1"?>
<!-- Generator: Adobe Illustrator 16.0.0, SVG Export Plug-In . SVG Version: 6.00 Build 0)  -->
<!DOCTYPE svg PUBLIC "-//W3C//DTD SVG 1.1//EN" "http://www.w3.org/Graphics/SVG/1.1/DTD/svg11.dtd">
<svg version="1.1" id="Layer_1" xmlns="http://www.w3.org/2000/svg" xmlns:xlink="http://www.w3.org/1999/xlink" x="0px" y="0px"
	 width="26.002px" height="32px" viewBox="0 0 26.002 32" style="enable-background:new 0 0 26.002 32;" xml:space="preserve">
<g id="Base_32_">
	<g>
		<path style="fill:#333333;" d="M18,28H4c-1.104,0-2,0.896-2,2s0.896,2,2,2h14c1.104,0,2-0.896,2-2S19.105,28,18,28z"/>
	</g>
</g>
<g id="Body_35_">
	<g>
		<path style="fill:#666666;" d="M15.54,1.897C15.165,0.693,14.669,0,13.597,0h-5.18C7.344,0,6.756,0.725,6.475,1.897L0,28.094
			c0,1.048,0.87,1.897,1.942,1.897h18.129c1.073,0,1.942-0.85,1.942-1.897L15.54,1.897z"/>
	</g>
</g>
<g id="Shape_40_">
	<g>
		<rect x="9" y="0.004" style="fill:#333333;" width="4" height="21.997"/>
	</g>
</g>
<g id="Needle_1_">
	<g>
		<path style="fill-rule:evenodd;clip-rule:evenodd;fill:#FFCC66;" d="M25.708,7.282c-0.39-0.39-1.021-0.393-1.408-0.006
			L10.283,21.283c-0.202,0.202-0.292,0.469-0.282,0.735v0.983h1v-0.019c0.252-0.001,0.503-0.096,0.695-0.287L25.714,8.688
			C26.101,8.302,26.099,7.673,25.708,7.282z"/>
	</g>
</g>
<g id="Shape_41_">
	<g>
		<path style="fill:#CCA352;" d="M23.605,9.384c-1.17-1.171-2.36-1.879-3.521-0.718c-1.161,1.16-1.016,4.588-0.684,4.92
			c0.397,0.397,3.762,0.477,4.923-0.684S24.776,10.553,23.605,9.384z"/>
	</g>
</g>
<g id="Body_36_">
	<g>
		<path style="fill-rule:evenodd;clip-rule:evenodd;fill:#A67C52;" d="M15.54,1.897C15.54,0.85,14.669,0,13.597,0h-5.18
			C7.344,0,6.475,0.85,6.475,1.897L6.449,2.003h9.116L15.54,1.897z M20.508,22.001H1.506L0,28.094c0,1.048,0.87,1.897,1.942,1.897
			h18.129c1.073,0,1.942-0.85,1.942-1.897L20.508,22.001z"/>
	</g>
</g>
<g>
</g>
<g>
</g>
<g>
</g>
<g>
</g>
<g>
</g>
<g>
</g>
<g>
</g>
<g>
</g>
<g>
</g>
<g>
</g>
<g>
</g>
<g>
</g>
<g>
</g>
<g>
</g>
<g>
</g>
</svg>
