<?xml version="1.0" encoding="iso-8859-1"?>
<!-- Generator: Adobe Illustrator 16.0.0, SVG Export Plug-In . SVG Version: 6.00 Build 0)  -->
<!DOCTYPE svg PUBLIC "-//W3C//DTD SVG 1.1//EN" "http://www.w3.org/Graphics/SVG/1.1/DTD/svg11.dtd">
<svg version="1.1" id="Layer_1" xmlns="http://www.w3.org/2000/svg" xmlns:xlink="http://www.w3.org/1999/xlink" x="0px" y="0px"
	 width="22.002px" height="32px" viewBox="0 0 22.002 32" style="enable-background:new 0 0 22.002 32;" xml:space="preserve">
<g id="Head_5_">
	<g>
		<path style="fill:#CCCCCC;" d="M11.001,0c-3.313,0-6,2.687-6,6v4.001h12V6C17.001,2.687,14.314,0,11.001,0z"/>
	</g>
</g>
<g id="Rims">
	<g>
		<path style="fill-rule:evenodd;clip-rule:evenodd;fill:#999999;" d="M5.091,5h4.91V4.001H5.35C5.235,4.322,5.148,4.656,5.091,5z
			 M15.465,2.001h-3.464V3h4.19C15.983,2.642,15.74,2.308,15.465,2.001z M5.811,3h4.19V2.001H6.537C6.262,2.308,6.019,2.642,5.811,3
			z M16.652,4.001h-4.651V5h4.91C16.854,4.656,16.767,4.322,16.652,4.001z M5.001,7h5V6h-5V7z M12.001,6v1h5V6H12.001z M5.001,9h5
			V8.001h-5V9z M12.001,9h5V8.001h-5V9z"/>
	</g>
</g>
<g id="Axe">
	<g>
		<rect x="2.001" y="11" style="fill:#999999;" width="18.001" height="2"/>
	</g>
</g>
<g id="Base_37_">
	<g>
		<path style="fill:#666666;" d="M5.001,14.001V17c0,3.314,2.687,6,6,6s6-2.686,6-6v-2.999H5.001z"/>
	</g>
</g>
<g id="Shape_5_">
	<g>
		<rect x="5.001" y="10.001" style="fill:#333333;" width="12" height="4"/>
	</g>
</g>
<g id="Foot">
	<g>
		<path style="fill-rule:evenodd;clip-rule:evenodd;fill:#CCCCCC;" d="M19.001,9v3.001V15v2c0,4.419-3.581,8-8,8s-8-3.581-8-8v-2
			v-2.999V9C1.344,9,0,10.344,0,12.001c0,0.885,0.391,1.672,1.001,2.221V17c0,4.839,3.436,8.874,8,9.8V31h4v-4.2
			c4.565-0.926,8.001-4.961,8.001-9.8v-2.778c0.609-0.549,1-1.336,1-2.221C22.002,10.344,20.658,9,19.001,9z"/>
	</g>
</g>
<g id="Base_2_">
	<g>
		<path style="fill:#666666;" d="M18.001,29h-14c-0.553,0-1,0.448-1,1v1c0,0.553,0.447,1,1,1h14c0.553,0,1-0.447,1-1v-1
			C19.001,29.448,18.554,29,18.001,29z"/>
	</g>
</g>
<g>
</g>
<g>
</g>
<g>
</g>
<g>
</g>
<g>
</g>
<g>
</g>
<g>
</g>
<g>
</g>
<g>
</g>
<g>
</g>
<g>
</g>
<g>
</g>
<g>
</g>
<g>
</g>
<g>
</g>
</svg>
