<?xml version="1.0" encoding="iso-8859-1"?>
<!-- Generator: Adobe Illustrator 16.0.0, SVG Export Plug-In . SVG Version: 6.00 Build 0)  -->
<!DOCTYPE svg PUBLIC "-//W3C//DTD SVG 1.1//EN" "http://www.w3.org/Graphics/SVG/1.1/DTD/svg11.dtd">
<svg version="1.1" id="Layer_1" xmlns="http://www.w3.org/2000/svg" xmlns:xlink="http://www.w3.org/1999/xlink" x="0px" y="0px"
	 width="32.018px" height="31.984px" viewBox="0 0 32.018 31.984" style="enable-background:new 0 0 32.018 31.984;"
	 xml:space="preserve">
<g id="Body_2_">
	<g>
		<path style="fill:#666666;" d="M26.409,8.445l-2.868-2.869c-0.792-0.792-2.076-0.792-2.868,0L0.594,27.654
			c-0.792,0.792-0.792,2.076,0,2.868l0.868,0.868c0.792,0.792,2.076,0.792,2.868,0l22.079-20.078
			C27.201,10.521,27.201,9.236,26.409,8.445z"/>
	</g>
</g>
<g id="Ball">
	<g>
		<circle style="fill:#CCCCCC;" cx="24.017" cy="8" r="8"/>
	</g>
</g>
<g id="Lines_1_">
	<g>
		<path style="fill-rule:evenodd;clip-rule:evenodd;fill:#B3B3B3;" d="M16.726,9.294C16.545,9.112,16.295,9,16.018,9
			c-0.553,0-1,0.447-1,1c0,0.277,0.112,0.527,0.294,0.708l5.998,5.998C21.49,16.888,21.74,17,22.018,17c0.553,0,1-0.447,1-1
			c0-0.277-0.112-0.527-0.294-0.708L16.726,9.294z M28.724,14.292L17.726,3.294C17.545,3.112,17.295,3,17.018,3
			c-0.553,0-1,0.447-1,1c0,0.277,0.112,0.527,0.294,0.708L27.31,15.706C27.49,15.888,27.74,16,28.018,16c0.553,0,1-0.447,1-1
			C29.018,14.723,28.905,14.473,28.724,14.292z"/>
	</g>
</g>
<g>
</g>
<g>
</g>
<g>
</g>
<g>
</g>
<g>
</g>
<g>
</g>
<g>
</g>
<g>
</g>
<g>
</g>
<g>
</g>
<g>
</g>
<g>
</g>
<g>
</g>
<g>
</g>
<g>
</g>
</svg>
