<?xml version="1.0" encoding="iso-8859-1"?>
<!-- Generator: Adobe Illustrator 16.0.0, SVG Export Plug-In . SVG Version: 6.00 Build 0)  -->
<!DOCTYPE svg PUBLIC "-//W3C//DTD SVG 1.1//EN" "http://www.w3.org/Graphics/SVG/1.1/DTD/svg11.dtd">
<svg version="1.1" id="Layer_1" xmlns="http://www.w3.org/2000/svg" xmlns:xlink="http://www.w3.org/1999/xlink" x="0px" y="0px"
	 width="32px" height="32px" viewBox="0 0 32 32" style="enable-background:new 0 0 32 32;" xml:space="preserve">
<g id="Base_15_">
	<g>
		<path style="fill:#4D4D4D;" d="M30,0H2C0.896,0,0,0.896,0,2v28c0,1.104,0.896,2,2,2h28c1.105,0,2-0.896,2-2V2
			C32,0.896,31.105,0,30,0z"/>
	</g>
</g>
<g id="Base_16_">
	<g>
		<path style="fill-rule:evenodd;clip-rule:evenodd;fill:#48A0DC;" d="M32,20.001L32,20.001V2c0-1.104-0.895-2-2-2H2
			C0.896,0,0,0.896,0,2v18c0,0.002,0,0.003,0,0.005V22h2h28h2L32,20.001L32,20.001z"/>
	</g>
</g>
<g id="Btns_5_">
	<g>
		<path style="fill-rule:evenodd;clip-rule:evenodd;fill:#808080;" d="M5,24.999c-1.104,0-2,0.896-2,2.001s0.896,2,2,2s2-0.896,2-2
			S6.104,24.999,5,24.999z M27,24.999c-1.104,0-2,0.896-2,2.001s0.896,2,2,2s2-0.896,2-2S28.104,24.999,27,24.999z M10,26
			c-0.552,0-1,0.448-1,1s0.448,1,1,1s1-0.448,1-1S10.552,26,10,26z M22,26c-0.552,0-1,0.448-1,1s0.448,1,1,1s1-0.448,1-1
			S22.552,26,22,26z"/>
	</g>
</g>
<g id="Equalizer_1_">
	<g>
		<path style="fill-rule:evenodd;clip-rule:evenodd;fill:#41779C;" d="M17,9V6c0-0.552-0.448-1-1-1c-0.553,0-1,0.448-1,1v3
			c-0.552,0-1,0.448-1,1s0.448,1,1,1v5c0,0.553,0.448,1,1,1c0.552,0,1-0.447,1-1v-5c0.553,0,1-0.448,1-1S17.553,9,17,9z M12,8V6
			c0-0.552-0.448-1-1-1s-1,0.448-1,1v2C9.448,8,9,8.447,9,9c0,0.552,0.447,1,1,1v6c0,0.553,0.447,1,1,1s1-0.447,1-1v-6
			c0.552,0,1-0.448,1-1C13,8.447,12.552,8,12,8z M7,12V6c0-0.552-0.448-1-1-1S5,5.448,5,6v6c-0.552,0-1,0.447-1,1
			c0,0.552,0.448,1,1,1v2c0,0.553,0.448,1,1,1s1-0.447,1-1v-2c0.552,0,1-0.448,1-1C8,12.447,7.552,12,7,12z M27,8V6
			c0-0.552-0.448-1-1-1c-0.552,0-1,0.448-1,1v2c-0.553,0-1,0.447-1,1c0,0.552,0.448,1,1,1v6c0,0.553,0.447,1,1,1
			c0.553,0,1-0.447,1-1v-6c0.552,0,1-0.448,1-1C28,8.447,27.552,8,27,8z M22,12V6c0-0.552-0.448-1-1-1s-1,0.448-1,1v6
			c-0.552,0-1,0.447-1,1c0,0.552,0.447,1,1,1v2c0,0.553,0.448,1,1,1s1-0.447,1-1v-2c0.552,0,1-0.448,1-1C23,12.447,22.552,12,22,12z
			"/>
	</g>
</g>
<g>
</g>
<g>
</g>
<g>
</g>
<g>
</g>
<g>
</g>
<g>
</g>
<g>
</g>
<g>
</g>
<g>
</g>
<g>
</g>
<g>
</g>
<g>
</g>
<g>
</g>
<g>
</g>
<g>
</g>
</svg>
