<?xml version="1.0" encoding="iso-8859-1"?>
<!-- Generator: Adobe Illustrator 16.0.0, SVG Export Plug-In . SVG Version: 6.00 Build 0)  -->
<!DOCTYPE svg PUBLIC "-//W3C//DTD SVG 1.1//EN" "http://www.w3.org/Graphics/SVG/1.1/DTD/svg11.dtd">
<svg version="1.1" id="Layer_1" xmlns="http://www.w3.org/2000/svg" xmlns:xlink="http://www.w3.org/1999/xlink" x="0px" y="0px"
	 width="32px" height="32.001px" viewBox="0 0 32 32.001" style="enable-background:new 0 0 32 32.001;" xml:space="preserve">
<g id="Cap">
	<g>
		<path style="fill:#4D4D4D;" d="M29.685,2.316c-3.089-3.089-8.097-3.089-11.185,0L2.315,18.501c-3.088,3.088-3.088,8.096,0,11.184
			c3.089,3.089,8.096,3.089,11.185,0l16.185-16.184C32.772,10.412,32.772,5.405,29.685,2.316z"/>
	</g>
</g>
<g id="Body_23_">
	<g>
		<path style="fill:#666666;" d="M22.694,9.307c-3.089-3.089-8.096-3.089-11.185,0l-9.194,9.194c-3.088,3.088-3.088,8.096,0,11.184
			c3.089,3.089,8.096,3.089,11.185,0l9.194-9.193C25.782,17.402,25.782,12.396,22.694,9.307z"/>
	</g>
</g>
<g id="Display_4_">
	<g>
		<path style="fill-rule:evenodd;clip-rule:evenodd;fill:#48A0DC;" d="M19.122,12.848c-1.167-1.167-3.059-1.167-4.225,0
			l-7.222,7.222c2.197,0.3,3.926,2.01,4.25,4.199l7.196-7.197C20.288,15.905,20.288,14.014,19.122,12.848z"/>
	</g>
</g>
<g id="Btn_4_">
	<g>
		<circle style="fill:#8C8C8C;" cx="7" cy="25.001" r="3"/>
	</g>
</g>
<g>
</g>
<g>
</g>
<g>
</g>
<g>
</g>
<g>
</g>
<g>
</g>
<g>
</g>
<g>
</g>
<g>
</g>
<g>
</g>
<g>
</g>
<g>
</g>
<g>
</g>
<g>
</g>
<g>
</g>
</svg>
