<?xml version="1.0" encoding="iso-8859-1"?>
<!-- Generator: Adobe Illustrator 16.0.0, SVG Export Plug-In . SVG Version: 6.00 Build 0)  -->
<!DOCTYPE svg PUBLIC "-//W3C//DTD SVG 1.1//EN" "http://www.w3.org/Graphics/SVG/1.1/DTD/svg11.dtd">
<svg version="1.1" id="Layer_1" xmlns="http://www.w3.org/2000/svg" xmlns:xlink="http://www.w3.org/1999/xlink" x="0px" y="0px"
	 width="32px" height="28.999px" viewBox="0 0 32 28.999" style="enable-background:new 0 0 32 28.999;" xml:space="preserve">
<g id="Lines">
	<g>
		<path style="fill:#CCCCCC;" d="M1,16.999h0.758C1.287,16.409,0.997,15.732,0.997,15C0.446,15.002,0,15.448,0,16
			S0.448,16.999,1,16.999z M1,23h11.244c0.313-0.794,0.98-1.482,1.888-2.001H1c-0.552,0-1,0.448-1,1.001C0,22.552,0.448,23,1,23z
			 M1,10.999h5v-2H1c-0.552,0-1,0.448-1,1.001C0,10.552,0.448,10.999,1,10.999z M1,5h5V2.999H1C0.448,2.999,0,3.447,0,4
			C0,4.552,0.448,5,1,5z M17.012,15H12h-0.003c0,0.731-0.29,1.409-0.762,1.999h5.777V15z M16.738,5H31c0.552,0,1-0.448,1-1
			c0-0.553-0.448-1.001-1-1.001H15.476c0.04,0.057,0.083,0.103,0.122,0.159C16.089,3.874,16.445,4.469,16.738,5z M31,8.999H15.224
			c-0.547,0.62-1.336,1.018-2.224,1.018c-0.353,0-0.686-0.072-1-0.185V11l19-0.001c0.552,0,1-0.447,1-0.999
			C32,9.447,31.552,8.999,31,8.999z M31,15h-1.033l0.005,1.999H31c0.552,0,1-0.447,1-0.999C32,15.447,31.552,15,31,15z M31,27
			h-0.167c-0.257,0.789-0.803,1.478-1.548,1.999H31c0.552,0,1-0.447,1-0.999C32,27.447,31.552,27,31,27z M21.288,27.307
			c-0.943,0.423-2.06,0.685-3.282,0.685c-1.503,0-2.86-0.382-3.911-0.991H1c-0.552,0-1,0.447-1,1c0,0.552,0.448,0.999,1,0.999
			h21.717C22.071,28.547,21.577,27.97,21.288,27.307z M31,20.999h-1.019L29.985,23H31c0.552,0,1-0.448,1-1
			C32,21.447,31.552,20.999,31,20.999z"/>
	</g>
</g>
<g id="Music_1_">
	<g>
		<path style="fill-rule:evenodd;clip-rule:evenodd;fill:#666666;" d="M9.999,1.254V1.029C9.999,0.461,9.552,0,9,0
			C8.462,0,8.031,0.44,8.01,0.989C8.002,0.99,7.99,0.991,7.99,0.991v2.004c0.004,0,0.008,0.001,0.012,0.001v10.125
			c-0.315-0.075-0.649-0.123-1.003-0.123c-1.657,0-3,0.896-3,2.001s1.343,2.003,3,2.003c1.65,0,2.988-0.891,2.998-1.991
			C9.997,15.007,10,15.004,10,15L9.999,3.467C11.286,4.135,11.91,5.4,11.91,6.502c0,0.157,0.01,0.279,0.021,0.395
			c-0.004,0.037-0.021,0.069-0.021,0.106c0,0.554,0.439,1.003,0.98,1.003c0.542,0,0.98-0.449,0.98-1.003
			c0-0.771,0.134-1.802-0.98-3.507C12.037,2.19,10.94,1.56,9.999,1.254z M28.012,17.234v-1.852c0-0.512-0.403-1-0.901-1.09
			l-7.207-1.307c-0.497-0.09-0.9,0.251-0.9,0.763v1.25v0.603v6.505c-0.314-0.075-0.648-0.124-1-0.124
			c-1.651,0-2.99,0.898-2.99,2.006c0,1.108,1.339,2.007,2.99,2.007c1.617,0,2.926-0.863,2.98-1.939C20.99,24.038,21,24.021,21,24
			l-0.005-7.107l4.991,0.92v6.215c-0.157-0.024-0.319-0.039-0.485-0.039c-1.384,0-2.506,0.898-2.506,2.007
			c0,1.107,1.122,2.006,2.506,2.006c1.384,0,2.506-0.898,2.506-2.006c0-0.018-0.006-0.033-0.006-0.051V17.28
			C28.001,17.264,28.012,17.251,28.012,17.234z"/>
	</g>
</g>
<g>
</g>
<g>
</g>
<g>
</g>
<g>
</g>
<g>
</g>
<g>
</g>
<g>
</g>
<g>
</g>
<g>
</g>
<g>
</g>
<g>
</g>
<g>
</g>
<g>
</g>
<g>
</g>
<g>
</g>
</svg>
