<?xml version="1.0" encoding="iso-8859-1"?>
<!-- Generator: Adobe Illustrator 16.0.0, SVG Export Plug-In . SVG Version: 6.00 Build 0)  -->
<!DOCTYPE svg PUBLIC "-//W3C//DTD SVG 1.1//EN" "http://www.w3.org/Graphics/SVG/1.1/DTD/svg11.dtd">
<svg version="1.1" id="Layer_1" xmlns="http://www.w3.org/2000/svg" xmlns:xlink="http://www.w3.org/1999/xlink" x="0px" y="0px"
	 width="25.98px" height="30.001px" viewBox="0 0 25.98 30.001" style="enable-background:new 0 0 25.98 30.001;"
	 xml:space="preserve">
<g id="Music">
	<g>
		<path style="fill-rule:evenodd;clip-rule:evenodd;fill:#F06EAA;" d="M25.98,26.505l-0.02-17.107
			c0.001-0.031,0.009-0.06,0.009-0.092V5.262c0-1.117-0.85-2.182-1.898-2.379L8.89,0.031C7.841-0.166,6.992,0.579,6.992,1.696v3.296
			v0.749V18.13c-0.479-0.087-0.981-0.137-1.504-0.137C2.457,17.993,0,19.561,0,21.496s2.457,3.505,5.488,3.505
			s5.488-1.569,5.488-3.505c0-0.006-0.001-0.012-0.001-0.019c0.009-0.073,0.023-0.144,0.023-0.222L10.982,8.513l10.993,2.065V23.13
			c-0.479-0.087-0.981-0.137-1.503-0.137c-3.031,0-5.489,1.567-5.489,3.503s2.458,3.505,5.489,3.505c2.838,0,5.172-1.376,5.458-3.14
			C25.961,26.768,25.98,26.654,25.98,26.505z"/>
	</g>
</g>
<g>
</g>
<g>
</g>
<g>
</g>
<g>
</g>
<g>
</g>
<g>
</g>
<g>
</g>
<g>
</g>
<g>
</g>
<g>
</g>
<g>
</g>
<g>
</g>
<g>
</g>
<g>
</g>
<g>
</g>
</svg>
