<?xml version="1.0" encoding="iso-8859-1"?>
<!-- Generator: Adobe Illustrator 16.0.0, SVG Export Plug-In . SVG Version: 6.00 Build 0)  -->
<!DOCTYPE svg PUBLIC "-//W3C//DTD SVG 1.1//EN" "http://www.w3.org/Graphics/SVG/1.1/DTD/svg11.dtd">
<svg version="1.1" id="Layer_1" xmlns="http://www.w3.org/2000/svg" xmlns:xlink="http://www.w3.org/1999/xlink" x="0px" y="0px"
	 width="21.006px" height="32.002px" viewBox="0 0 21.006 32.002" style="enable-background:new 0 0 21.006 32.002;"
	 xml:space="preserve">
<g id="Music_Shape_1_">
	<g>
		<path style="fill-rule:evenodd;clip-rule:evenodd;fill:#9B7CAB;" d="M18.997,7.032c-2.445-3.655-5.875-4.667-8.014-4.927V2.001
			C10.983,0.896,10.09,0,8.989,0C7.888,0,6.995,0.896,6.995,2.001v23.132c-0.479-0.087-0.982-0.137-1.504-0.137
			C2.458,24.996,0,26.563,0,28.498s2.458,3.504,5.491,3.504c2.929,0,5.315-1.466,5.475-3.309c0.023-0.059,0.037-0.122,0.037-0.194
			L10.986,6.224c4.096,0.805,6.012,4.072,6.012,6.794c0,0.27,0.012,0.496,0.029,0.704c-0.014,0.097-0.029,0.192-0.029,0.293
			c0,1.103,0.895,1.995,1.999,1.995c1.104,0,1.999-0.893,1.999-1.995C20.996,12.479,21.268,10.427,18.997,7.032z"/>
	</g>
</g>
<g>
</g>
<g>
</g>
<g>
</g>
<g>
</g>
<g>
</g>
<g>
</g>
<g>
</g>
<g>
</g>
<g>
</g>
<g>
</g>
<g>
</g>
<g>
</g>
<g>
</g>
<g>
</g>
<g>
</g>
</svg>
