<?xml version="1.0" encoding="iso-8859-1"?>
<!-- Generator: Adobe Illustrator 16.0.0, SVG Export Plug-In . SVG Version: 6.00 Build 0)  -->
<!DOCTYPE svg PUBLIC "-//W3C//DTD SVG 1.1//EN" "http://www.w3.org/Graphics/SVG/1.1/DTD/svg11.dtd">
<svg version="1.1" id="Layer_1" xmlns="http://www.w3.org/2000/svg" xmlns:xlink="http://www.w3.org/1999/xlink" x="0px" y="0px"
	 width="22px" height="32px" viewBox="0 0 22 32" style="enable-background:new 0 0 22 32;" xml:space="preserve">
<g id="Ring">
	<g>
		<path style="fill-rule:evenodd;clip-rule:evenodd;fill:#CCCCCC;" d="M21.268,16.921c0.103-0.268,0.199-0.538,0.28-0.815
			c0.063-0.209,0.114-0.423,0.164-0.637C21.895,14.674,22,13.85,22,13c0-0.844-0.104-1.662-0.283-2.451
			c-0.052-0.221-0.104-0.441-0.169-0.657c-0.082-0.276-0.178-0.545-0.28-0.813c-0.001-0.002-0.001-0.004-0.002-0.006l0,0
			c-1.115-2.912-3.427-5.224-6.339-6.339l0,0c-0.002-0.001-0.004-0.001-0.006-0.002c-0.268-0.103-0.537-0.199-0.814-0.28
			c-0.292-0.089-0.589-0.167-0.892-0.229l0,0C12.499,2.077,11.759,2,11,2S9.501,2.077,8.785,2.223l0,0
			C8.48,2.285,8.184,2.363,7.891,2.453C7.615,2.534,7.346,2.631,7.079,2.732C7.077,2.733,7.075,2.733,7.073,2.734l0,0
			C4.161,3.85,1.85,6.16,0.735,9.072c-0.001,0-0.001,0-0.001,0C0.731,9.079,0.729,9.087,0.727,9.095
			c-0.1,0.262-0.194,0.525-0.273,0.797c-0.066,0.216-0.119,0.438-0.17,0.66C0.104,11.34,0,12.157,0,13
			c0,0.85,0.105,1.674,0.288,2.469c0.05,0.214,0.101,0.428,0.164,0.637c0.081,0.277,0.178,0.548,0.28,0.815
			c0.001,0.002,0.001,0.004,0.002,0.006l0,0c1.115,2.912,3.427,5.224,6.339,6.339l0,0c0.002,0.001,0.004,0.001,0.006,0.002
			c0.268,0.103,0.536,0.198,0.813,0.28c0.216,0.065,0.437,0.117,0.657,0.169C9.338,23.896,10.156,24,11,24
			c0.847,0,1.668-0.104,2.459-0.286c0.218-0.051,0.436-0.102,0.647-0.166c0.277-0.081,0.547-0.178,0.814-0.28
			c0.002-0.001,0.004-0.001,0.006-0.002l0,0c2.912-1.115,5.224-3.427,6.339-6.339l0,0C21.267,16.925,21.267,16.923,21.268,16.921z
			 M20,13c0,0.482-0.049,0.951-0.122,1.413L14.988,13l4.89-1.413C19.951,12.049,20,12.518,20,13z M19.273,9.457l-6.653,1.922
			l1.923-6.652C16.664,5.636,18.364,7.336,19.273,9.457z M12.413,4.122L11,9.012l-1.413-4.89C10.049,4.049,10.518,4,11,4
			S11.951,4.049,12.413,4.122z M7.457,4.727l1.923,6.652L2.727,9.457C3.636,7.336,5.336,5.636,7.457,4.727z M2,13
			c0-0.482,0.049-0.951,0.122-1.413L7.012,13l-4.89,1.413C2.049,13.951,2,13.482,2,13z M2.726,16.542L9.38,14.62l-1.923,6.653
			C5.336,20.364,3.636,18.663,2.726,16.542z M9.587,21.878L11,16.988l1.413,4.89C11.951,21.951,11.482,22,11,22
			S10.049,21.951,9.587,21.878z M14.543,21.273L12.62,14.62l6.654,1.922C18.364,18.664,16.664,20.364,14.543,21.273z"/>
	</g>
</g>
<g id="Microphone">
	<g>
		<circle style="fill:#333333;" cx="11" cy="13" r="5"/>
	</g>
</g>
<g id="Base">
	<g>
		<path style="fill-rule:evenodd;clip-rule:evenodd;fill:#808080;" d="M14,30h-1v-7H9v7H8c-0.553,0-1,0.447-1,1c0,0.552,0.447,1,1,1
			h6c0.553,0,1-0.448,1-1C15,30.447,14.553,30,14,30z"/>
	</g>
</g>
<g id="Shape">
	<g>
		<path style="fill-rule:evenodd;clip-rule:evenodd;fill:#999999;" d="M16,20c0,0-2.5,1-5,1s-5-1-5-1c-1.011-0.406-2,0.896-2,2
			s0.833,1.625,2,2c0,0,2.5,1,5,1s5-1,5-1c1.073-0.406,2-0.896,2-2S16.979,19.5,16,20z"/>
	</g>
</g>
<g id="Shape_1_">
	<g>
		<path style="fill:#999999;" d="M16,1c0,0-2.5-1-5-1S6,1,6,1C4.927,1.438,4,1.896,4,3s1.052,2.406,2,2c0,0,2.521-1,5.031-1
			C13.521,4,16,5,16,5c1.073,0.5,2-0.896,2-2S17.073,1.5,16,1z"/>
	</g>
</g>
<g>
</g>
<g>
</g>
<g>
</g>
<g>
</g>
<g>
</g>
<g>
</g>
<g>
</g>
<g>
</g>
<g>
</g>
<g>
</g>
<g>
</g>
<g>
</g>
<g>
</g>
<g>
</g>
<g>
</g>
</svg>
