<?xml version="1.0" encoding="iso-8859-1"?>
<!-- Generator: Adobe Illustrator 16.0.0, SVG Export Plug-In . SVG Version: 6.00 Build 0)  -->
<!DOCTYPE svg PUBLIC "-//W3C//DTD SVG 1.1//EN" "http://www.w3.org/Graphics/SVG/1.1/DTD/svg11.dtd">
<svg version="1.1" id="Layer_1" xmlns="http://www.w3.org/2000/svg" xmlns:xlink="http://www.w3.org/1999/xlink" x="0px" y="0px"
	 width="28px" height="31.996px" viewBox="0 0 28 31.996" style="enable-background:new 0 0 28 31.996;" xml:space="preserve">
<g id="Flute">
	<g>
		<path style="fill-rule:evenodd;clip-rule:evenodd;fill:#FFCC66;" d="M4,0C2.896,0,2,0.896,2,2v27.996c0,1.104,0.896,2,2,2
			s2-0.896,2-2V2C6,0.896,5.104,0,4,0z M9,0C7.895,0,7,0.896,7,2v23.997c0,1.104,0.895,1.999,2,1.999c1.104,0,2-0.895,2-1.999V2
			C11,0.896,10.104,0,9,0z M14,0c-1.105,0-2,0.896-2,2v19.998c0,1.104,0.895,1.999,2,1.999c1.104,0,2-0.896,2-1.999V2
			C16,0.896,15.104,0,14,0z M19,0c-1.105,0-2,0.896-2,2v15.998c0,1.104,0.895,2,2,2c1.104,0,2-0.896,2-2V2C21,0.896,20.104,0,19,0z
			 M24,0c-1.104,0-2,0.896-2,2v11.999c0,1.104,0.896,1.999,2,1.999s2-0.896,2-1.999V2C26,0.896,25.104,0,24,0z"/>
	</g>
</g>
<g id="Flute_1_">
	<g>
		<path style="fill:#E6B85C;" d="M26,3H2C0.895,3,0,3.896,0,5c0,1.104,0.895,1.999,2,1.999h24c1.104,0,2-0.896,2-1.999
			C28,3.896,27.104,3,26,3z"/>
	</g>
</g>
<g>
</g>
<g>
</g>
<g>
</g>
<g>
</g>
<g>
</g>
<g>
</g>
<g>
</g>
<g>
</g>
<g>
</g>
<g>
</g>
<g>
</g>
<g>
</g>
<g>
</g>
<g>
</g>
<g>
</g>
</svg>
