<?xml version="1.0" encoding="iso-8859-1"?>
<!-- Generator: Adobe Illustrator 16.0.0, SVG Export Plug-In . SVG Version: 6.00 Build 0)  -->
<!DOCTYPE svg PUBLIC "-//W3C//DTD SVG 1.1//EN" "http://www.w3.org/Graphics/SVG/1.1/DTD/svg11.dtd">
<svg version="1.1" id="Layer_1" xmlns="http://www.w3.org/2000/svg" xmlns:xlink="http://www.w3.org/1999/xlink" x="0px" y="0px"
	 width="25px" height="31.986px" viewBox="0 0 25 31.986" style="enable-background:new 0 0 25 31.986;" xml:space="preserve">
<g id="Base_17_">
	<g>
		<path style="fill:#666666;" d="M19,23.993H3c-0.552,0-1,0.447-1,1v5.994c0,0.552,0.448,0.999,1,0.999h16c0.552,0,1-0.447,1-0.999
			v-5.994C20,24.44,19.552,23.993,19,23.993z"/>
	</g>
</g>
<g id="Leg_1_">
	<g>
		<path style="fill:#333333;" d="M21,29.987H1c-0.552,0-1,0.448-1,1s0.448,0.999,1,0.999h20c0.552,0,1-0.447,1-0.999
			S21.552,29.987,21,29.987z"/>
	</g>
</g>
<g id="Shape_20_">
	<g>
		<path style="fill:#999999;" d="M20,22.995H2c-0.552,0-1,0.447-1,0.998c0,0.553,0.448,1,1,1h18c0.552,0,1-0.447,1-1
			C21,23.442,20.552,22.995,20,22.995z"/>
	</g>
</g>
<g id="Disc_2_">
	<g>
		<path style="fill-rule:evenodd;clip-rule:evenodd;fill:#B3B3B3;" d="M17,21.991c-0.002-0.551-0.448-0.996-1-0.996H6
			c-0.551,0-0.998,0.445-1,0.996h0v1h0.99c0.003,0,0.006,0.002,0.01,0.002h10c0.003,0,0.006-0.002,0.01-0.002H17L17,21.991
			L17,21.991z"/>
	</g>
</g>
<g id="Patefon">
	<g>
		<path style="fill-rule:evenodd;clip-rule:evenodd;fill:#FFCC66;" d="M21.857,14.205c0-0.001-0.007-0.011-0.007-0.011
			S12,7.442,12,1.047c0,0,0.25-1.311-1-0.999c0,0-10,3.497-10,14.986c0,0-0.094,0.999,1,0.999s3.875-2.058,8-2.058
			c6.832,0,11.674,2.297,12.845,4.845C22.938,19.201,23,19.595,23,20.005c0,2.052-1.236,3.81-3,4.583v2.099
			c2.884-0.865,5-3.512,5-6.682C25,17.569,23.744,15.452,21.857,14.205z"/>
	</g>
</g>
<g>
</g>
<g>
</g>
<g>
</g>
<g>
</g>
<g>
</g>
<g>
</g>
<g>
</g>
<g>
</g>
<g>
</g>
<g>
</g>
<g>
</g>
<g>
</g>
<g>
</g>
<g>
</g>
<g>
</g>
</svg>
