<?xml version="1.0" encoding="iso-8859-1"?>
<!-- Generator: Adobe Illustrator 16.0.0, SVG Export Plug-In . SVG Version: 6.00 Build 0)  -->
<!DOCTYPE svg PUBLIC "-//W3C//DTD SVG 1.1//EN" "http://www.w3.org/Graphics/SVG/1.1/DTD/svg11.dtd">
<svg version="1.1" id="Layer_1" xmlns="http://www.w3.org/2000/svg" xmlns:xlink="http://www.w3.org/1999/xlink" x="0px" y="0px"
	 width="32px" height="31.97px" viewBox="0 0 32 31.97" style="enable-background:new 0 0 32 31.97;" xml:space="preserve">
<g id="White_Keys">
	<g>
		<path style="fill:#E6E6E6;" d="M5,19.981V0H2C0.896,0,0,0.895,0,1.999v27.974c0,1.104,0.896,1.997,2,1.997h5
			c1.104,0,2-0.894,2-1.997v-8.993H6C5.448,20.979,5,20.533,5,19.981z M30,0h-3v19.981c0,0.552-0.447,0.998-1,0.998h-3v8.993
			c0,1.104,0.896,1.997,2,1.997h5c1.104,0,2-0.894,2-1.997V1.999C32,0.895,31.104,0,30,0z M17,19.981V0h-2v19.981
			c0,0.552-0.447,0.998-1,0.998h-3v8.993c0,1.104,0.896,1.997,2,1.997h6c1.104,0,2-0.894,2-1.997v-8.993h-3
			C17.447,20.979,17,20.533,17,19.981z"/>
	</g>
</g>
<g id="Black_Keys_1_">
	<g>
		<path style="fill-rule:evenodd;clip-rule:evenodd;fill:#666666;" d="M19,0.001v17.982c0,0.552,0.448,0.999,1,0.999h4
			c0.552,0,1-0.447,1-0.999V0.001H19z M7,17.983c0,0.552,0.448,0.999,1,0.999h4c0.552,0,1-0.447,1-0.999V0.001H7V17.983z"/>
	</g>
</g>
<g>
</g>
<g>
</g>
<g>
</g>
<g>
</g>
<g>
</g>
<g>
</g>
<g>
</g>
<g>
</g>
<g>
</g>
<g>
</g>
<g>
</g>
<g>
</g>
<g>
</g>
<g>
</g>
<g>
</g>
</svg>
