<?xml version="1.0" encoding="iso-8859-1"?>
<!-- Generator: Adobe Illustrator 16.0.0, SVG Export Plug-In . SVG Version: 6.00 Build 0)  -->
<!DOCTYPE svg PUBLIC "-//W3C//DTD SVG 1.1//EN" "http://www.w3.org/Graphics/SVG/1.1/DTD/svg11.dtd">
<svg version="1.1" id="Layer_1" xmlns="http://www.w3.org/2000/svg" xmlns:xlink="http://www.w3.org/1999/xlink" x="0px" y="0px"
	 width="32px" height="25.975px" viewBox="0 0 32 25.975" style="enable-background:new 0 0 32 25.975;" xml:space="preserve">
<g id="Box_7_">
	<g>
		<path style="fill:#CCCCCC;" d="M30,0H2C0.896,0,0,0.895,0,1.998v21.979c0,1.104,0.896,1.998,2,1.998h28c1.104,0,2-0.895,2-1.998
			V1.998C32,0.895,31.104,0,30,0z"/>
	</g>
</g>
<g id="Upper_Side">
	<g>
		<path style="fill-rule:evenodd;clip-rule:evenodd;fill:#9B7CAB;" d="M30,0H2C0.896,0,0,0.895,0,1.998V9.99h32V1.998
			C32,0.895,31.104,0,30,0z"/>
	</g>
</g>
<g id="White_keys">
	<g>
		<path style="fill-rule:evenodd;clip-rule:evenodd;fill:#FFFFFF;" d="M28,9.99H4H3v0.999v3.996v6.994c0,0.552,0.447,0.999,1,0.999
			h24c0.552,0,1-0.447,1-0.999v-6.994v-3.996V9.99H28z"/>
	</g>
</g>
<g id="Black_Keys">
	<g>
		<path style="fill-rule:evenodd;clip-rule:evenodd;fill:#484848;" d="M5,10.989v0.999v5.994c0,0.552,0.447,0.999,1,0.999
			s1-0.447,1-0.999v-5.994v-0.999V9.99H5V10.989z M9,10.989v0.999v5.994c0,0.552,0.447,0.999,1,0.999c0.552,0,1-0.447,1-0.999
			v-5.994v-0.999V9.99H9V10.989z M13,10.989v0.999v5.994c0,0.552,0.447,0.999,1,0.999c0.552,0,1-0.447,1-0.999v-5.994v-0.999V9.99
			h-2V10.989z M21,10.989v0.999v5.994c0,0.552,0.447,0.999,1,0.999c0.552,0,1-0.447,1-0.999v-5.994v-0.999V9.99h-2V10.989z M25,9.99
			v0.999v0.999v5.994c0,0.552,0.447,0.999,1,0.999c0.552,0,1-0.447,1-0.999v-5.994v-0.999V9.99H25z"/>
	</g>
</g>
<g id="Knobs_2_">
	<g>
		<path style="fill-rule:evenodd;clip-rule:evenodd;fill:#6D5778;" d="M8,3.996c-0.553,0-1,0.447-1,0.999s0.447,0.999,1,0.999
			c0.552,0,1-0.447,1-0.999S8.552,3.996,8,3.996z M4,3.996c-0.553,0-1,0.447-1,0.999s0.447,0.999,1,0.999c0.552,0,1-0.447,1-0.999
			S4.552,3.996,4,3.996z"/>
	</g>
</g>
<g id="Btn_9_">
	<g>
		<circle style="fill:#FFFFFF;" cx="28" cy="4.995" r="0.999"/>
	</g>
</g>
<g>
</g>
<g>
</g>
<g>
</g>
<g>
</g>
<g>
</g>
<g>
</g>
<g>
</g>
<g>
</g>
<g>
</g>
<g>
</g>
<g>
</g>
<g>
</g>
<g>
</g>
<g>
</g>
<g>
</g>
</svg>
