<?xml version="1.0" encoding="iso-8859-1"?>
<!-- Generator: Adobe Illustrator 16.0.0, SVG Export Plug-In . SVG Version: 6.00 Build 0)  -->
<!DOCTYPE svg PUBLIC "-//W3C//DTD SVG 1.1//EN" "http://www.w3.org/Graphics/SVG/1.1/DTD/svg11.dtd">
<svg version="1.1" id="Layer_1" xmlns="http://www.w3.org/2000/svg" xmlns:xlink="http://www.w3.org/1999/xlink" x="0px" y="0px"
	 width="32px" height="29.004px" viewBox="0 0 32 29.004" style="enable-background:new 0 0 32 29.004;" xml:space="preserve">
<g id="Keys_2_">
	<g>
		<path style="fill:#808080;" d="M29,22.003H3c-0.552,0-1,0.447-1,1v5c0,0.553,0.448,1.001,1,1.001h26c0.552,0,1-0.448,1-1.001v-5
			C30,22.45,29.552,22.003,29,22.003z"/>
	</g>
</g>
<g id="Body_39_">
	<g>
		<path style="fill-rule:evenodd;clip-rule:evenodd;fill:#4D4D4D;" d="M24.5,13.001c-0.169,0-0.334,0.015-0.5,0.025v-0.025H24.5H25
			c-3.974,0-6.742-0.092-7-4C18,4.029,13.971,0,9,0S0,4.029,0,9.001v7.001v7.001c0,1.104,0.896,2,2,2h7h8h13c1.104,0,2-0.896,2-2
			v-2.5C32,16.359,28.642,13.001,24.5,13.001z"/>
	</g>
</g>
<g>
</g>
<g>
</g>
<g>
</g>
<g>
</g>
<g>
</g>
<g>
</g>
<g>
</g>
<g>
</g>
<g>
</g>
<g>
</g>
<g>
</g>
<g>
</g>
<g>
</g>
<g>
</g>
<g>
</g>
</svg>
