<?xml version="1.0" encoding="iso-8859-1"?>
<!-- Generator: Adobe Illustrator 16.0.0, SVG Export Plug-In . SVG Version: 6.00 Build 0)  -->
<!DOCTYPE svg PUBLIC "-//W3C//DTD SVG 1.1//EN" "http://www.w3.org/Graphics/SVG/1.1/DTD/svg11.dtd">
<svg version="1.1" id="Layer_1" xmlns="http://www.w3.org/2000/svg" xmlns:xlink="http://www.w3.org/1999/xlink" x="0px" y="0px"
	 width="32px" height="32px" viewBox="0 0 32 32" style="enable-background:new 0 0 32 32;" xml:space="preserve">
<g id="Suit_2_">
	<g>
		<path style="fill:#666666;" d="M2,23.999c-1.88,1.881-2,8-2,8h13l-2-11C11,20.999,2.94,23.06,2,23.999z M30,23.999
			c-0.94-0.939-9-3-9-3l-1,11h12C32,31.999,31.88,25.88,30,23.999z"/>
	</g>
</g>
<g id="Badge">
	<g>
		<circle style="fill:#999999;" cx="5" cy="29" r="1"/>
	</g>
</g>
<g id="Collar">
	<g>
		<path style="fill:#404040;" d="M9,23l-2,1.999l4,7h1V19l-5,2.999L9,23z M25,21.999L20,19v12.999h1l4-7L23,23L25,21.999z"/>
	</g>
</g>
<g id="Shirt_2_">
	<g>
		<polygon style="fill:#DBB599;" points="12,18 12,19 12,32 20,31.999 20,19 20,18 		"/>
	</g>
</g>
<g id="Shirt_3_">
	<g>
		<path style="fill-rule:evenodd;clip-rule:evenodd;fill:#9B7CAB;" d="M16,27c-1.539,0-2.938-0.487-4-1.281v6.28h8v-6.28
			C18.938,26.513,17.539,27,16,27z"/>
	</g>
</g>
<g id="Head_3_">
	<g>
		<path style="fill:#F6CBAD;" d="M16,4c-6.356,0-7,3.236-7,6.997C9,10.998,9,10.998,9,11c0,3,1,4.999,2,7c1,1.999,3.041,4,5,4
			c1.959,0,4-2.001,5-4c1-2.001,2-4,2-7C23,7.068,22.357,4,16,4z"/>
	</g>
</g>
<g id="Beard">
	<g>
		<path style="fill-rule:evenodd;clip-rule:evenodd;fill:#997149;" d="M22.968,9.76C22.815,12.343,21.912,14.175,21,16
			c-0.839,1.678-2.413,3.34-4.055,3.837L16,17l-0.945,2.837C13.413,19.34,11.839,17.678,11,16c-0.909-1.819-1.81-3.646-1.967-6.217
			C9.01,10.18,9,10.584,9,10.997C9,10.998,9,10.998,9,11c0,3,1,4.999,2,7c1,1.999,3.041,4,5,4c1.959,0,4-2.001,5-4c1-2.001,2-4,2-7
			C23,10.575,22.99,10.162,22.968,9.76z"/>
	</g>
</g>
<g id="Mohawk">
	<g>
		<polygon style="fill-rule:evenodd;clip-rule:evenodd;fill:#9B7CAB;" points="16,0 14,4 14,5 16,9 18,5 18,4 		"/>
	</g>
</g>
<g>
</g>
<g>
</g>
<g>
</g>
<g>
</g>
<g>
</g>
<g>
</g>
<g>
</g>
<g>
</g>
<g>
</g>
<g>
</g>
<g>
</g>
<g>
</g>
<g>
</g>
<g>
</g>
<g>
</g>
</svg>
