<?xml version="1.0" encoding="iso-8859-1"?>
<!-- Generator: Adobe Illustrator 16.0.0, SVG Export Plug-In . SVG Version: 6.00 Build 0)  -->
<!DOCTYPE svg PUBLIC "-//W3C//DTD SVG 1.1//EN" "http://www.w3.org/Graphics/SVG/1.1/DTD/svg11.dtd">
<svg version="1.1" id="Layer_1" xmlns="http://www.w3.org/2000/svg" xmlns:xlink="http://www.w3.org/1999/xlink" x="0px" y="0px"
	 width="32px" height="32px" viewBox="0 0 32 32" style="enable-background:new 0 0 32 32;" xml:space="preserve">
<g id="Base_21_">
	<g>
		<path style="fill:#ED7161;" d="M30,12H2c-1.104,0-2,0.896-2,2v16c0,1.104,0.896,2,2,2h28c1.104,0,2-0.896,2-2V14
			C32,12.896,31.104,12,30,12z"/>
	</g>
</g>
<g id="Bar_1_">
	<g>
		<path style="fill:#CC6254;" d="M21,26H11c-0.552,0-1,0.447-1,0.999C10,27.552,10.448,28,11,28h10c0.552,0,1-0.448,1-1.001
			C22,26.447,21.552,26,21,26z"/>
	</g>
</g>
<g id="Signal_Box">
	<g>
		<rect x="4" y="16" style="fill:#FFFFFF;" width="24" height="6"/>
	</g>
</g>
<g id="Signal_Bars">
	<g>
		<path style="fill-rule:evenodd;clip-rule:evenodd;fill:#CCCCCC;" d="M5,22h1v-5H5V22z M7,22h1v-3H7V22z M9,22h1v-3H9V22z M11,22h1
			v-5h-1V22z M13,22h1v-3h-1V22z M15,22h1v-3h-1V22z M19,22h1v-3h-1V22z M21,22h1v-3h-1V22z M23,22h1v-5h-1V22z M25,22h1v-3h-1V22z
			 M27,19v3h1v-3H27z"/>
	</g>
</g>
<g id="Signal_Bar_2_">
	<g>
		<rect x="17" y="17" style="fill:#9B7CAB;" width="1" height="5"/>
	</g>
</g>
<g id="Knobs_1_">
	<g>
		<path style="fill-rule:evenodd;clip-rule:evenodd;fill:#FFFFFF;" d="M6,24c-1.104,0-2,0.896-2,2s0.896,2,2,2s2-0.896,2-2
			S7.104,24,6,24z M26,24c-1.104,0-2,0.896-2,2s0.896,2,2,2s2-0.896,2-2S27.104,24,26,24z"/>
	</g>
</g>
<g id="Antena">
	<g>
		<path style="fill-rule:evenodd;clip-rule:evenodd;fill:#CCCCCC;" d="M28,1c-0.553,0-1,0.447-1,1v8v1v1h2v-1v-1V2
			C29,1.447,28.552,1,28,1z"/>
	</g>
</g>
<g id="Antena_1_">
	<g>
		<circle style="fill:#999999;" cx="28" cy="2" r="2"/>
	</g>
</g>
<g>
</g>
<g>
</g>
<g>
</g>
<g>
</g>
<g>
</g>
<g>
</g>
<g>
</g>
<g>
</g>
<g>
</g>
<g>
</g>
<g>
</g>
<g>
</g>
<g>
</g>
<g>
</g>
<g>
</g>
</svg>
