<?xml version="1.0" encoding="iso-8859-1"?>
<!-- Generator: Adobe Illustrator 16.0.0, SVG Export Plug-In . SVG Version: 6.00 Build 0)  -->
<!DOCTYPE svg PUBLIC "-//W3C//DTD SVG 1.1//EN" "http://www.w3.org/Graphics/SVG/1.1/DTD/svg11.dtd">
<svg version="1.1" id="Layer_1" xmlns="http://www.w3.org/2000/svg" xmlns:xlink="http://www.w3.org/1999/xlink" x="0px" y="0px"
	 width="32px" height="32px" viewBox="0 0 32 32" style="enable-background:new 0 0 32 32;" xml:space="preserve">
<g id="Box_5_">
	<g>
		<path style="fill:#88C057;" d="M30,0H2C0.896,0,0,0.896,0,2v28c0,1.104,0.896,2,2,2h28c1.104,0,2-0.896,2-2V2
			C32,0.896,31.104,0,30,0z"/>
	</g>
</g>
<g id="Box_6_">
	<g>
		<path style="fill-rule:evenodd;clip-rule:evenodd;fill:#666666;" d="M28,0H4H2v2v3v23c0,1.104,0.896,2,2,2h24c1.104,0,2-0.896,2-2
			V5V2V0H28z"/>
	</g>
</g>
<g id="Knobs">
	<g>
		<path style="fill-rule:evenodd;clip-rule:evenodd;fill:#CCCCCC;" d="M8,22c-1.104,0-2,0.896-2,2s0.896,2,2,2s2-0.896,2-2
			S9.104,22,8,22z M24,22c-1.104,0-2,0.896-2,2s0.896,2,2,2s2-0.896,2-2S25.104,22,24,22z M16,22c-1.104,0-2,0.896-2,2s0.896,2,2,2
			s2-0.896,2-2S17.104,22,16,22z"/>
	</g>
</g>
<g id="Grid">
	<g>
		<path style="fill-rule:evenodd;clip-rule:evenodd;fill:#404040;" d="M5,6h22c0.552,0,1-0.447,1-1s-0.448-1-1-1H5
			C4.448,4,4,4.447,4,5S4.448,6,5,6z M27,8H5C4.448,8,4,8.448,4,9s0.448,1,1,1h22c0.552,0,1-0.448,1-1S27.552,8,27,8z M27,12H5
			c-0.552,0-1,0.448-1,1s0.448,1,1,1h22c0.552,0,1-0.448,1-1S27.552,12,27,12z M27,16H5c-0.552,0-1,0.448-1,1c0,0.553,0.448,1,1,1
			h22c0.552,0,1-0.447,1-1C28,16.448,27.552,16,27,16z"/>
	</g>
</g>
<g id="Speaker_10_">
	<g>
		<path style="fill-rule:evenodd;clip-rule:evenodd;" d="M12.13,18h7.74c0.915-0.507,1.719-1.189,2.369-2H9.761
			C10.411,16.811,11.215,17.493,12.13,18z M19.87,4h-7.74c-0.916,0.507-1.719,1.189-2.37,2h12.479
			C21.589,5.189,20.785,4.507,19.87,4z M23.413,8H8.587c-0.255,0.631-0.431,1.302-0.518,2h15.861
			C23.844,9.302,23.668,8.631,23.413,8z M8.587,14h14.826c0.255-0.631,0.431-1.302,0.518-2H8.069
			C8.156,12.698,8.332,13.369,8.587,14z"/>
	</g>
</g>
<g>
</g>
<g>
</g>
<g>
</g>
<g>
</g>
<g>
</g>
<g>
</g>
<g>
</g>
<g>
</g>
<g>
</g>
<g>
</g>
<g>
</g>
<g>
</g>
<g>
</g>
<g>
</g>
<g>
</g>
</svg>
