<?xml version="1.0" encoding="iso-8859-1"?>
<!-- Generator: Adobe Illustrator 16.0.0, SVG Export Plug-In . SVG Version: 6.00 Build 0)  -->
<!DOCTYPE svg PUBLIC "-//W3C//DTD SVG 1.1//EN" "http://www.w3.org/Graphics/SVG/1.1/DTD/svg11.dtd">
<svg version="1.1" id="Layer_1" xmlns="http://www.w3.org/2000/svg" xmlns:xlink="http://www.w3.org/1999/xlink" x="0px" y="0px"
	 width="22px" height="32px" viewBox="0 0 22 32" style="enable-background:new 0 0 22 32;" xml:space="preserve">
<g id="Box_3_">
	<g>
		<path style="fill:#CCCCCC;" d="M20,4H2C0.896,4,0,4.896,0,6v24c0,1.104,0.896,2,2,2h18c1.104,0,2-0.896,2-2V6
			C22,4.896,21.104,4,20,4z"/>
	</g>
</g>
<g id="Shape_22_">
	<g>
		<circle style="fill:#9B7CAB;" cx="11" cy="14" r="7"/>
	</g>
</g>
<g id="Shape_23_">
	<g>
		<circle style="fill:#846A91;" cx="11" cy="14" r="4"/>
	</g>
</g>
<g id="Shape_24_">
	<g>
		<circle style="fill:#FFFFFF;" cx="11" cy="14" r="1"/>
	</g>
</g>
<g id="Signal">
	<g>
		<path style="fill:#666666;" d="M14,25H8c-0.553,0-1,0.448-1,1v2c0,0.553,0.447,1,1,1h6c0.552,0,1-0.447,1-1v-2
			C15,25.448,14.552,25,14,25z"/>
	</g>
</g>
<g id="Signal_Bar">
	<g>
		<path style="fill-rule:evenodd;clip-rule:evenodd;fill:#FFFFFF;" d="M11,27c-0.553,0-1,0.448-1,1v1h2v-1
			C12,27.448,11.552,27,11,27z"/>
	</g>
</g>
<g id="Btns_8_">
	<g>
		<path style="fill-rule:evenodd;clip-rule:evenodd;fill:#9B7CAB;" d="M4,26c-0.553,0-1,0.448-1,1c0,0.553,0.447,1,1,1
			c0.552,0,1-0.447,1-1C5,26.448,4.552,26,4,26z M18,26c-0.553,0-1,0.448-1,1c0,0.553,0.447,1,1,1s1-0.447,1-1
			C19,26.448,18.553,26,18,26z"/>
	</g>
</g>
<g id="Antena_Head">
	<g>
		<path style="fill-rule:evenodd;clip-rule:evenodd;fill:#B3B3B3;" d="M18,0c-0.553,0-1,0.448-1,1v1v2h2V2V1C19,0.448,18.553,0,18,0
			z"/>
	</g>
</g>
<g>
</g>
<g>
</g>
<g>
</g>
<g>
</g>
<g>
</g>
<g>
</g>
<g>
</g>
<g>
</g>
<g>
</g>
<g>
</g>
<g>
</g>
<g>
</g>
<g>
</g>
<g>
</g>
<g>
</g>
</svg>
