<?xml version="1.0" encoding="iso-8859-1"?>
<!-- Generator: Adobe Illustrator 16.0.0, SVG Export Plug-In . SVG Version: 6.00 Build 0)  -->
<!DOCTYPE svg PUBLIC "-//W3C//DTD SVG 1.1//EN" "http://www.w3.org/Graphics/SVG/1.1/DTD/svg11.dtd">
<svg version="1.1" id="Layer_1" xmlns="http://www.w3.org/2000/svg" xmlns:xlink="http://www.w3.org/1999/xlink" x="0px" y="0px"
	 width="32px" height="32px" viewBox="0 0 32 32" style="enable-background:new 0 0 32 32;" xml:space="preserve">
<g id="Antena_2_">
	<g>
		<path style="fill:#666666;" d="M28.714,12.333l-1-1L17.667,1.285l-1-1c-0.382-0.381-1-0.381-1.381,0s-0.381,1,0,1.381l1,1
			l10.048,10.048l1,1c0.381,0.382,1,0.382,1.381,0C29.096,13.333,29.096,12.715,28.714,12.333z"/>
	</g>
</g>
<g id="Base_22_">
	<g>
		<path style="fill:#88C057;" d="M30,12H2c-1.105,0-2,0.896-2,2v16c0,1.104,0.895,2,2,2h28c1.104,0,2-0.896,2-2V14
			C32,12.896,31.104,12,30,12z"/>
	</g>
</g>
<g id="Background_2_">
	<g>
		<rect x="2" y="14" style="fill:#FFFFFF;" width="28" height="16"/>
	</g>
</g>
<g id="Speaker_11_">
	<g>
		<path style="fill-rule:evenodd;clip-rule:evenodd;fill:#CCCCCC;" d="M15,23c0.552,0,1-0.447,1-1c0-0.552-0.448-1-1-1s-1,0.448-1,1
			C14,22.553,14.448,23,15,23z M19,23c0.552,0,1-0.447,1-1c0-0.552-0.448-1-1-1s-1,0.448-1,1C18,22.553,18.448,23,19,23z M23,23
			c0.552,0,1-0.447,1-1c0-0.552-0.448-1-1-1s-1,0.448-1,1C22,22.553,22.448,23,23,23z M27,23c0.552,0,1-0.447,1-1
			c0-0.552-0.448-1-1-1s-1,0.448-1,1C26,22.553,26.448,23,27,23z M17,25c0.552,0,1-0.447,1-1c0-0.552-0.448-1-1-1s-1,0.448-1,1
			C16,24.553,16.448,25,17,25z M21,25c0.552,0,1-0.447,1-1c0-0.552-0.448-1-1-1s-1,0.448-1,1C20,24.553,20.448,25,21,25z M25,25
			c0.552,0,1-0.447,1-1c0-0.552-0.448-1-1-1s-1,0.448-1,1C24,24.553,24.448,25,25,25z M15,25c-0.552,0-1,0.448-1,1
			c0,0.553,0.448,1,1,1s1-0.447,1-1C16,25.448,15.552,25,15,25z M19,25c-0.552,0-1,0.448-1,1c0,0.553,0.448,1,1,1s1-0.447,1-1
			C20,25.448,19.552,25,19,25z M23,25c-0.552,0-1,0.448-1,1c0,0.553,0.448,1,1,1s1-0.447,1-1C24,25.448,23.552,25,23,25z M27,25
			c-0.552,0-1,0.448-1,1c0,0.553,0.448,1,1,1s1-0.447,1-1C28,25.448,27.552,25,27,25z M17,27c-0.552,0-1,0.448-1,1
			c0,0.553,0.448,1,1,1s1-0.447,1-1C18,27.448,17.552,27,17,27z M21,27c-0.552,0-1,0.448-1,1c0,0.553,0.448,1,1,1s1-0.447,1-1
			C22,27.448,21.552,27,21,27z M25,27c-0.552,0-1,0.448-1,1c0,0.553,0.448,1,1,1s1-0.447,1-1C26,27.448,25.552,27,25,27z"/>
	</g>
</g>
<g id="Bar_2_">
	<g>
		<path style="fill:#CCCCCC;" d="M27,16H9c-0.553,0-1,0.447-1,1c0,0.552,0.447,1,1,1h18c0.552,0,1-0.448,1-1
			C28,16.447,27.552,16,27,16z"/>
	</g>
</g>
<g id="Knob_3_">
	<g>
		<circle style="fill:#666666;" cx="5" cy="17" r="1"/>
	</g>
</g>
<g id="Knob_2_">
	<g>
		<circle style="fill:#88C057;" cx="8" cy="25" r="4"/>
	</g>
</g>
<g>
</g>
<g>
</g>
<g>
</g>
<g>
</g>
<g>
</g>
<g>
</g>
<g>
</g>
<g>
</g>
<g>
</g>
<g>
</g>
<g>
</g>
<g>
</g>
<g>
</g>
<g>
</g>
<g>
</g>
</svg>
