<?xml version="1.0" encoding="iso-8859-1"?>
<!-- Generator: Adobe Illustrator 16.0.0, SVG Export Plug-In . SVG Version: 6.00 Build 0)  -->
<!DOCTYPE svg PUBLIC "-//W3C//DTD SVG 1.1//EN" "http://www.w3.org/Graphics/SVG/1.1/DTD/svg11.dtd">
<svg version="1.1" id="Layer_1" xmlns="http://www.w3.org/2000/svg" xmlns:xlink="http://www.w3.org/1999/xlink" x="0px" y="0px"
	 width="34px" height="28px" viewBox="0 0 34 28" style="enable-background:new 0 0 34 28;" xml:space="preserve">
<g id="Box_4_">
	<g>
		<path style="fill:#FFCC66;" d="M30,4H2C0.896,4,0,4.896,0,6v20c0,1.104,0.896,2,2,2h28c1.104,0,2-0.896,2-2V6
			C32,4.896,31.104,4,30,4z"/>
	</g>
</g>
<g id="Speakers">
	<g>
		<path style="fill-rule:evenodd;clip-rule:evenodd;fill:#CCA352;" d="M10.459,13H19v-2h-7.651
			C10.985,11.628,10.681,12.295,10.459,13z M12.865,9H19V7h-3.337C14.617,7.505,13.669,8.18,12.865,9z M10,16
			c0,0.338,0.018,0.671,0.05,1H19v-2h-8.95C10.018,15.329,10,15.662,10,16z M24.337,7H21v2h6.135C26.331,8.18,25.383,7.505,24.337,7
			z M28.651,11H21v2h8.541C29.319,12.295,29.015,11.628,28.651,11z M21,21h7.651c0.364-0.628,0.668-1.295,0.89-2H21V21z M11.349,21
			H19v-2h-8.541C10.681,19.705,10.985,20.372,11.349,21z M29.95,15H21v2h8.95c0.033-0.329,0.05-0.662,0.05-1S29.982,15.329,29.95,15
			z M21,25h3.337c1.046-0.505,1.994-1.18,2.798-2H21V25z M15.663,25H19v-2h-6.135C13.669,23.82,14.617,24.495,15.663,25z"/>
	</g>
</g>
<g id="Signal_1_">
	<g>
		<path style="fill:#FFFFFF;" d="M7,6H3C2.447,6,2,6.448,2,7v18c0,0.553,0.447,1,1,1h4c0.553,0,1-0.447,1-1V7C8,6.448,7.553,6,7,6z"
			/>
	</g>
</g>
<g id="Signal_Bar_1_">
	<g>
		<path style="fill-rule:evenodd;clip-rule:evenodd;fill:#ED7161;" d="M7,19H5c-0.553,0-1,0.448-1,1c0,0.553,0.447,1,1,1h2h1v-2H7z"
			/>
	</g>
</g>
<g id="Antena_Body">
	<g>
		<rect x="4" y="2" style="fill:#CCCCCC;" width="2" height="2"/>
	</g>
</g>
<g id="Antena_Head_1_">
	<g>
		<path style="fill:#B3B3B3;" d="M6,0H4C3.447,0,3,0.447,3,1s0.447,1,1,1h2c0.553,0,1-0.447,1-1S6.553,0,6,0z"/>
	</g>
</g>
<g>
</g>
<g>
</g>
<g>
</g>
<g>
</g>
<g>
</g>
<g>
</g>
<g>
</g>
<g>
</g>
<g>
</g>
<g>
</g>
<g>
</g>
<g>
</g>
<g>
</g>
<g>
</g>
<g>
</g>
</svg>
