<?xml version="1.0" encoding="iso-8859-1"?>
<!-- Generator: Adobe Illustrator 16.0.0, SVG Export Plug-In . SVG Version: 6.00 Build 0)  -->
<!DOCTYPE svg PUBLIC "-//W3C//DTD SVG 1.1//EN" "http://www.w3.org/Graphics/SVG/1.1/DTD/svg11.dtd">
<svg version="1.1" id="Layer_1" xmlns="http://www.w3.org/2000/svg" xmlns:xlink="http://www.w3.org/1999/xlink" x="0px" y="0px"
	 width="32px" height="32px" viewBox="0 0 32 32" style="enable-background:new 0 0 32 32;" xml:space="preserve">
<g id="Body_1_">
	<g>
		<path style="fill-rule:evenodd;clip-rule:evenodd;fill:#805F3E;" d="M30,23.999C29.06,23.06,20,19,20,19l-0.005,0.021
			c-0.033-0.044-0.071-0.083-0.104-0.125c-0.017,0.074-0.048,0.142-0.068,0.214L19,14.999h-6l-0.822,4.111
			c-0.021-0.072-0.051-0.14-0.068-0.214c-0.034,0.042-0.072,0.081-0.104,0.125L12,19c0,0-9.06,4.06-10,4.999C0.12,25.88,0,32,0,32
			h10h5h2h5h10C32,32,31.88,25.88,30,23.999z"/>
	</g>
</g>
<g id="Bling">
	<g>
		<path style="fill-rule:evenodd;clip-rule:evenodd;fill:#FFCC66;" d="M19.735,18.867C19.904,19.531,20,20.248,20,21
			c0,3.313-1.791,6-4,6s-4-2.687-4-6c0-0.752,0.096-1.469,0.265-2.133l-2.21,1.105C10.022,20.31,10,20.651,10,21
			c0,4.418,2.686,8,6,8c3.313,0,6-3.582,6-8c0-0.349-0.022-0.69-0.055-1.027L19.735,18.867z"/>
	</g>
</g>
<g id="Head_4_">
	<g>
		<path style="fill:#997149;" d="M16,1c-3.866,0-7,1.999-7,6c0,3,1,4.999,2,7c1,1.999,3.041,4,5,4c1.959,0,4-2.001,5-4
			c1-2.001,2-4,2-7C23,2.999,19.866,1,16,1z"/>
	</g>
</g>
<g id="Hair_3_">
	<g>
		<path style="fill-rule:evenodd;clip-rule:evenodd;fill:#333333;" d="M22.997,7.73C22.997,7.705,23,7.679,23,7.654
			c0-0.057-0.005-0.115-0.006-0.173C22.931,3.719,22.078,0,16,0C9.643,0,9,3.892,9,7.654C9,7.383,9.032,7.118,9.085,6.86
			C9.031,7.245,9,7.629,9,8c0,0.449,0.04,0.921,0.103,1.401C9.36,8.078,10.155,5,12,5c1.664,0,1.109,0,3.703,0
			c0.098,0,0.19,0,0.297,0c0.654,0,1.477,0.045,2.208,0C18.794,5,18.98,5,20,5c1.845,0,2.64,2.729,2.897,3.995
			c0.051-0.376,0.081-0.744,0.092-1.102C22.991,7.93,23,7.964,23,8C23,7.91,22.998,7.82,22.997,7.73z"/>
	</g>
</g>
<g>
</g>
<g>
</g>
<g>
</g>
<g>
</g>
<g>
</g>
<g>
</g>
<g>
</g>
<g>
</g>
<g>
</g>
<g>
</g>
<g>
</g>
<g>
</g>
<g>
</g>
<g>
</g>
<g>
</g>
</svg>
