<?xml version="1.0" encoding="iso-8859-1"?>
<!-- Generator: Adobe Illustrator 16.0.0, SVG Export Plug-In . SVG Version: 6.00 Build 0)  -->
<!DOCTYPE svg PUBLIC "-//W3C//DTD SVG 1.1//EN" "http://www.w3.org/Graphics/SVG/1.1/DTD/svg11.dtd">
<svg version="1.1" id="Layer_1" xmlns="http://www.w3.org/2000/svg" xmlns:xlink="http://www.w3.org/1999/xlink" x="0px" y="0px"
	 width="31.988px" height="31.987px" viewBox="0 0 31.988 31.987" style="enable-background:new 0 0 31.988 31.987;"
	 xml:space="preserve">
<g id="Plug_15_">
	<g>
		<path style="fill-rule:evenodd;clip-rule:evenodd;fill:#999999;" d="M23.072,10.989l-0.036,0.036L21,8.989l-2-5l-1,1l-11,11
			c-0.742,0.741-0.186,1.688,0.557,2.43c0.152,0.152,0.314,0.341,0.481,0.536L8,18.989l4,4l0.145-0.133
			c0.327,0.539,1.126,1.103,1.595,1.576c0.734,0.742,1.527,1.298,2.261,0.557l11.031-11l0.969-1L23.072,10.989z"/>
	</g>
</g>
<g id="Plug_2_">
	<g>
		<path style="fill:#B3B3B3;" d="M29.302,0L18.557,10.734c-0.742,0.741-0.742,1.943,0,2.685c0.741,0.741,1.944,0.741,2.686,0
			L31.988,2.684V0H29.302z"/>
	</g>
</g>
<g id="Plug_3_">
	<g>
		
			<rect x="25.583" y="3.088" transform="matrix(0.7075 -0.7068 0.7068 0.7075 4.3738 20.5392)" style="fill:#808080;" width="2.828" height="3.797"/>
	</g>
</g>
<g id="Body_6_">
	<g>
		<polygon style="fill:#88C057;" points="15,7.98 4,18.972 0,28.987 3,31.987 13,27.986 24,16.983 		"/>
	</g>
</g>
<g id="Body_7_">
	<g>
		<path style="fill-rule:evenodd;clip-rule:evenodd;fill:#638C3F;" d="M4.002,18.999L13,27.987l1-1l-8.998-8.988L4.002,18.999z
			 M9.002,14.003l-1,1l9,8.99l1-0.998L9.002,14.003z M6.002,17.001l9,8.99l1.001-0.999l-9-8.991L6.002,17.001z"/>
	</g>
</g>
<g>
</g>
<g>
</g>
<g>
</g>
<g>
</g>
<g>
</g>
<g>
</g>
<g>
</g>
<g>
</g>
<g>
</g>
<g>
</g>
<g>
</g>
<g>
</g>
<g>
</g>
<g>
</g>
<g>
</g>
</svg>
