<?xml version="1.0" encoding="iso-8859-1"?>
<!-- Generator: Adobe Illustrator 16.0.0, SVG Export Plug-In . SVG Version: 6.00 Build 0)  -->
<!DOCTYPE svg PUBLIC "-//W3C//DTD SVG 1.1//EN" "http://www.w3.org/Graphics/SVG/1.1/DTD/svg11.dtd">
<svg version="1.1" id="Layer_1" xmlns="http://www.w3.org/2000/svg" xmlns:xlink="http://www.w3.org/1999/xlink" x="0px" y="0px"
	 width="32px" height="27px" viewBox="0 0 32 27" style="enable-background:new 0 0 32 27;" xml:space="preserve">
<g id="Base_14_">
	<g>
		<path style="fill:#88C057;" d="M25,9H7c-1.104,0-2,0.896-2,2v14c0,1.104,0.896,2,2,2h18c1.105,0,2-0.896,2-2V11
			C27,9.896,26.104,9,25,9z"/>
	</g>
</g>
<g id="Btns_4_">
	<g>
		<path style="fill-rule:evenodd;clip-rule:evenodd;fill:#FFFFFF;" d="M8,21c-0.553,0-1,0.448-1,1c0,0.553,0.448,1,1,1
			c0.552,0,1-0.447,1-1C9,21.448,8.552,21,8,21z M24,21c-0.553,0-1,0.448-1,1c0,0.553,0.448,1,1,1c0.552,0,1-0.447,1-1
			C25,21.448,24.552,21,24,21z"/>
	</g>
</g>
<g id="Shape_19_">
	<g>
		<path style="fill:#666666;" d="M18,17h-4c-0.552,0-1,0.448-1,1v4c0,0.553,0.448,1,1,1h4c0.552,0,1-0.447,1-1v-4
			C19,17.448,18.552,17,18,17z"/>
	</g>
</g>
<g id="Disc_1_">
	<g>
		<path style="fill-rule:evenodd;clip-rule:evenodd;fill:#CCCCCC;" d="M7,0C3.134,0,0,3.134,0,7s3.134,7,7,7c3.866,0,7-3.134,7-7
			S10.866,0,7,0z M25,0c-3.866,0-7,3.134-7,7s3.134,7,7,7c3.866,0,7-3.134,7-7S28.866,0,25,0z"/>
	</g>
</g>
<g id="Holes_3_">
	<g>
		<path style="fill-rule:evenodd;clip-rule:evenodd;fill:#4D4D4D;" d="M8,3c0-0.552-0.448-1-1-1C6.447,2,6,2.448,6,3v2
			c0,0.553,0.447,1,1,1c0.553,0,1-0.447,1-1V3z M11.481,8.134l-1.879-1C9.084,6.857,8.42,7.021,8.121,7.5
			c-0.3,0.479-0.122,1.09,0.397,1.366l1.879,1c0.519,0.276,1.182,0.112,1.481-0.366C12.178,9.021,12,8.41,11.481,8.134z
			 M4.444,7.146L2.55,8.188C2.027,8.475,1.828,9.08,2.105,9.54c0.277,0.461,0.926,0.601,1.45,0.313l1.894-1.04
			C5.972,8.526,6.171,7.92,5.894,7.46C5.617,6.999,4.968,6.859,4.444,7.146z M26,3c0-0.552-0.448-1-1-1c-0.552,0-1,0.448-1,1v2
			c0,0.553,0.447,1,1,1c0.553,0,1-0.447,1-1V3z M29.481,8.134l-1.879-1C27.084,6.857,26.42,7.021,26.121,7.5
			c-0.3,0.479-0.122,1.09,0.397,1.366l1.879,1c0.519,0.276,1.182,0.112,1.481-0.366C30.178,9.021,30,8.41,29.481,8.134z
			 M22.444,7.146L20.55,8.188c-0.523,0.287-0.722,0.893-0.445,1.353c0.277,0.461,0.926,0.601,1.45,0.313l1.894-1.04
			c0.523-0.287,0.722-0.894,0.445-1.354C23.617,6.999,22.968,6.859,22.444,7.146z"/>
	</g>
</g>
<g>
</g>
<g>
</g>
<g>
</g>
<g>
</g>
<g>
</g>
<g>
</g>
<g>
</g>
<g>
</g>
<g>
</g>
<g>
</g>
<g>
</g>
<g>
</g>
<g>
</g>
<g>
</g>
<g>
</g>
</svg>
