<?xml version="1.0" encoding="iso-8859-1"?>
<!-- Generator: Adobe Illustrator 16.0.0, SVG Export Plug-In . SVG Version: 6.00 Build 0)  -->
<!DOCTYPE svg PUBLIC "-//W3C//DTD SVG 1.1//EN" "http://www.w3.org/Graphics/SVG/1.1/DTD/svg11.dtd">
<svg version="1.1" id="Layer_1" xmlns="http://www.w3.org/2000/svg" xmlns:xlink="http://www.w3.org/1999/xlink" x="0px" y="0px"
	 width="32px" height="32px" viewBox="0 0 32 32" style="enable-background:new 0 0 32 32;" xml:space="preserve">
<g id="Base_12_">
	<g>
		<path style="fill:#999999;" d="M30,0H2C0.896,0,0,0.896,0,2v28c0,1.104,0.896,2,2,2h28c1.104,0,2-0.896,2-2V2
			C32,0.896,31.104,0,30,0z"/>
	</g>
</g>
<g id="Base_13_">
	<g>
		<path style="fill:#9B7CAB;" d="M30,0H2C0.896,0,0,0.896,0,2v12c0,1.104,0.896,2,2,2h28c1.104,0,2-0.896,2-2V2
			C32,0.896,31.104,0,30,0z"/>
	</g>
</g>
<g id="Btns_3_">
	<g>
		<path style="fill-rule:evenodd;clip-rule:evenodd;fill:#CCCCCC;" d="M5,22c-1.105,0-2,0.896-2,2s0.895,2,2,2c1.104,0,2-0.896,2-2
			S6.104,22,5,22z M27,22c-1.104,0-2,0.896-2,2s0.896,2,2,2s2-0.896,2-2S28.104,22,27,22z"/>
	</g>
</g>
<g id="Shape_17_">
	<g>
		<path style="fill:#CCCCCC;" d="M21,18H11c-0.553,0-1,0.448-1,1v2c0,0.553,0.447,1,1,1h10c0.552,0,1-0.447,1-1v-2
			C22,18.448,21.552,18,21,18z"/>
	</g>
</g>
<g id="Shape_18_">
	<g>
		<path style="fill:#808080;" d="M21,22H11c-0.553,0-1,0.448-1,1v8c0,0.553,0.447,1,1,1h10c0.552,0,1-0.447,1-1v-8
			C22,22.448,21.552,22,21,22z"/>
	</g>
</g>
<g id="Disc">
	<g>
		<path style="fill-rule:evenodd;clip-rule:evenodd;fill:#CCCCCC;" d="M8,2C4.686,2,2,4.687,2,8s2.686,6,6,6c3.313,0,6-2.687,6-6
			S11.313,2,8,2z M24,2c-3.314,0-6,2.687-6,6s2.686,6,6,6c3.313,0,6-2.687,6-6S27.313,2,24,2z"/>
	</g>
</g>
<g id="Holes_2_">
	<g>
		<path style="fill-rule:evenodd;clip-rule:evenodd;fill:#4D4D4D;" d="M9,4c0-0.553-0.448-1-1-1C7.447,3,7,3.447,7,4v2
			c0,0.553,0.447,1,1,1c0.552,0,1-0.447,1-1V4z M12.481,9.134l-1.879-1C10.084,7.858,9.421,8.021,9.121,8.5S8.999,9.59,9.518,9.866
			l1.879,1c0.52,0.275,1.183,0.112,1.482-0.366C13.178,10.021,13,9.41,12.481,9.134z M5.444,8.146l-1.894,1.04
			c-0.523,0.288-0.723,0.894-0.445,1.354c0.277,0.46,0.927,0.6,1.449,0.313l1.895-1.04C6.973,9.525,7.172,8.92,6.894,8.46
			C6.616,7.999,5.968,7.859,5.444,8.146z M25,4c0-0.553-0.448-1-1-1c-0.553,0-1,0.447-1,1v2c0,0.553,0.447,1,1,1
			c0.552,0,1-0.447,1-1V4z M28.481,9.134l-1.879-1c-0.519-0.275-1.182-0.112-1.481,0.366s-0.122,1.09,0.396,1.366l1.879,1
			c0.52,0.275,1.183,0.112,1.482-0.366C29.178,10.021,29,9.41,28.481,9.134z M21.444,8.146l-1.894,1.04
			c-0.523,0.288-0.723,0.894-0.445,1.354c0.277,0.46,0.927,0.6,1.449,0.313l1.895-1.04c0.523-0.288,0.723-0.894,0.444-1.354
			C22.616,7.999,21.968,7.859,21.444,8.146z"/>
	</g>
</g>
<g>
</g>
<g>
</g>
<g>
</g>
<g>
</g>
<g>
</g>
<g>
</g>
<g>
</g>
<g>
</g>
<g>
</g>
<g>
</g>
<g>
</g>
<g>
</g>
<g>
</g>
<g>
</g>
<g>
</g>
</svg>
