<?xml version="1.0" encoding="iso-8859-1"?>
<!-- Generator: Adobe Illustrator 16.0.0, SVG Export Plug-In . SVG Version: 6.00 Build 0)  -->
<!DOCTYPE svg PUBLIC "-//W3C//DTD SVG 1.1//EN" "http://www.w3.org/Graphics/SVG/1.1/DTD/svg11.dtd">
<svg version="1.1" id="Layer_1" xmlns="http://www.w3.org/2000/svg" xmlns:xlink="http://www.w3.org/1999/xlink" x="0px" y="0px"
	 width="32.045px" height="32px" viewBox="0 0 32.045 32" style="enable-background:new 0 0 32.045 32;" xml:space="preserve">
<g id="Shape_50_">
	<g>
		<path style="fill-rule:evenodd;clip-rule:evenodd;fill:#CCCCCC;" d="M31.905,26.456L26.099,16l5.807-10.456
			c0.118-0.213,0.144-0.448,0.116-0.672c-0.002-0.022-0.001-0.043-0.004-0.065c-0.014-0.073-0.042-0.139-0.07-0.206
			c-0.019-0.048-0.021-0.098-0.049-0.143c-0.008-0.013-0.021-0.02-0.03-0.032c-0.035-0.054-0.085-0.095-0.131-0.141
			s-0.087-0.097-0.142-0.132c-0.013-0.009-0.02-0.022-0.032-0.03c-0.045-0.027-0.096-0.03-0.144-0.049
			c-0.067-0.028-0.132-0.057-0.204-0.07C31.193,4.001,31.171,4.002,31.147,4c-0.223-0.027-0.456-0.002-0.669,0.116l-10.931,6.071
			c-0.503,0.279-0.683,0.886-0.401,1.354c0.281,0.469,0.917,0.621,1.42,0.342l8.036-4.463L24.393,15H7.652l-4.21-7.58l8.036,4.463
			c0.503,0.279,1.139,0.127,1.42-0.342c0.281-0.468,0.102-1.074-0.401-1.354L1.566,4.116C1.354,3.998,1.12,3.973,0.897,4
			C0.874,4.002,0.852,4.001,0.829,4.004c-0.072,0.014-0.137,0.042-0.204,0.07C0.577,4.093,0.526,4.096,0.481,4.123
			c-0.013,0.008-0.02,0.021-0.032,0.03C0.395,4.188,0.354,4.238,0.308,4.284C0.262,4.331,0.212,4.372,0.176,4.426
			c-0.008,0.013-0.021,0.02-0.029,0.032C0.12,4.502,0.117,4.552,0.099,4.598C0.069,4.667,0.04,4.733,0.026,4.808
			C0.023,4.829,0.025,4.849,0.023,4.869C-0.005,5.094,0.021,5.33,0.14,5.544L5.946,16L0.14,26.456
			c-0.119,0.214-0.145,0.449-0.116,0.674c0.002,0.021,0,0.041,0.003,0.062c0.015,0.075,0.044,0.143,0.073,0.212
			c0.019,0.046,0.021,0.095,0.047,0.138c0.008,0.013,0.021,0.02,0.029,0.031c0.036,0.055,0.086,0.096,0.133,0.144
			c0.046,0.045,0.087,0.096,0.142,0.131c0.012,0.008,0.019,0.021,0.031,0.029c0.044,0.026,0.094,0.029,0.14,0.048
			c0.069,0.028,0.135,0.058,0.209,0.071c0.021,0.003,0.043,0.002,0.065,0.004c0.224,0.027,0.458,0.002,0.671-0.116l10.931-6.07
			c0.503-0.28,0.683-0.886,0.401-1.354c-0.281-0.469-0.917-0.622-1.42-0.343L3.442,24.58L7.652,17h16.74l4.21,7.58l-8.036-4.464
			c-0.503-0.279-1.139-0.126-1.42,0.343c-0.281,0.468-0.102,1.073,0.401,1.354l10.931,6.07c0.213,0.118,0.447,0.144,0.671,0.116
			c0.022-0.002,0.044-0.001,0.065-0.004c0.074-0.014,0.14-0.043,0.209-0.071c0.046-0.019,0.096-0.021,0.14-0.048
			c0.013-0.008,0.02-0.021,0.031-0.029c0.055-0.036,0.096-0.086,0.143-0.132c0.046-0.047,0.096-0.088,0.132-0.143
			c0.008-0.012,0.021-0.019,0.029-0.031c0.026-0.044,0.029-0.094,0.048-0.14c0.028-0.069,0.058-0.135,0.071-0.209
			c0.003-0.021,0.002-0.043,0.004-0.064C32.049,26.904,32.023,26.669,31.905,26.456z"/>
	</g>
</g>
<g id="Shape_3_">
	<g>
		<path style="fill-rule:evenodd;clip-rule:evenodd;fill:#808080;" d="M19.022,7h-6c-1.104,0-2,0.896-2,2v8h10V9
			C21.022,7.896,20.127,7,19.022,7z"/>
	</g>
</g>
<g id="Cable">
	<g>
		<path style="fill-rule:evenodd;clip-rule:evenodd;fill:#4D4D4D;" d="M16.022,0c-0.553,0-1,0.447-1,1v6h2V1
			C17.022,0.447,16.575,0,16.022,0z"/>
	</g>
</g>
<g id="Microphone_1_">
	<g>
		<path style="fill:#666666;" d="M21.022,18h-10c-0.553,0-1,0.447-1,1v12c0,0.552,0.447,1,1,1h10c0.553,0,1-0.448,1-1V19
			C22.022,18.447,21.575,18,21.022,18z"/>
	</g>
</g>
<g id="Shape_4_">
	<g>
		<path style="fill:#333333;" d="M22.022,16h-12c-0.553,0-1,0.447-1,1v2c0,0.552,0.447,1,1,1h12c0.553,0,1-0.448,1-1v-2
			C23.022,16.447,22.575,16,22.022,16z"/>
	</g>
</g>
<g id="Holes">
	<g>
		<path style="fill-rule:evenodd;clip-rule:evenodd;fill:#999999;" d="M13.022,22c-0.553,0-1,0.447-1,1c0,0.552,0.447,1,1,1
			s1-0.448,1-1C14.022,22.447,13.575,22,13.022,22z M16.022,22c-0.553,0-1,0.447-1,1c0,0.552,0.447,1,1,1s1-0.448,1-1
			C17.022,22.447,16.575,22,16.022,22z M19.022,24c0.552,0,1-0.448,1-1c0-0.553-0.448-1-1-1c-0.553,0-1,0.447-1,1
			C18.022,23.552,18.47,24,19.022,24z M13.022,25c-0.553,0-1,0.447-1,1c0,0.552,0.447,1,1,1s1-0.448,1-1
			C14.022,25.447,13.575,25,13.022,25z M16.022,25c-0.553,0-1,0.447-1,1c0,0.552,0.447,1,1,1s1-0.448,1-1
			C17.022,25.447,16.575,25,16.022,25z M19.022,25c-0.553,0-1,0.447-1,1c0,0.552,0.447,1,1,1c0.552,0,1-0.448,1-1
			C20.022,25.447,19.574,25,19.022,25z M13.022,28c-0.553,0-1,0.447-1,1c0,0.552,0.447,1,1,1s1-0.448,1-1
			C14.022,28.447,13.575,28,13.022,28z M16.022,28c-0.553,0-1,0.447-1,1c0,0.552,0.447,1,1,1s1-0.448,1-1
			C17.022,28.447,16.575,28,16.022,28z M19.022,28c-0.553,0-1,0.447-1,1c0,0.552,0.447,1,1,1c0.552,0,1-0.448,1-1
			C20.022,28.447,19.574,28,19.022,28z"/>
	</g>
</g>
<g>
</g>
<g>
</g>
<g>
</g>
<g>
</g>
<g>
</g>
<g>
</g>
<g>
</g>
<g>
</g>
<g>
</g>
<g>
</g>
<g>
</g>
<g>
</g>
<g>
</g>
<g>
</g>
<g>
</g>
</svg>
