<?xml version="1.0" encoding="iso-8859-1"?>
<!-- Generator: Adobe Illustrator 16.0.0, SVG Export Plug-In . SVG Version: 6.00 Build 0)  -->
<!DOCTYPE svg PUBLIC "-//W3C//DTD SVG 1.1//EN" "http://www.w3.org/Graphics/SVG/1.1/DTD/svg11.dtd">
<svg version="1.1" id="Layer_1" xmlns="http://www.w3.org/2000/svg" xmlns:xlink="http://www.w3.org/1999/xlink" x="0px" y="0px"
	 width="32px" height="34px" viewBox="0 0 32 34" style="enable-background:new 0 0 32 34;" xml:space="preserve">
<g id="Suit_1_">
	<g>
		<path style="fill:#666666;" d="M0,31.999L12,32V21c0,0-9.06,4.06-10,5C0.12,27.88,0,31.999,0,31.999z M30,26c-0.94-0.94-10-5-10-5
			v10.999h12C32,31.999,31.88,27.88,30,26z"/>
	</g>
</g>
<g id="Neck_2_">
	<g>
		<polygon style="fill:#DBB599;" points="12,15 12,19 12,32 20,31.999 20,19 20,15 		"/>
	</g>
</g>
<g id="Shirt_1_">
	<g>
		<path style="fill-rule:evenodd;clip-rule:evenodd;fill:#666666;" d="M16,23c-1.539,0-2.938-0.487-4-1.281v10.28h8v-10.28
			C18.938,22.513,17.539,23,16,23z"/>
	</g>
</g>
<g id="Skull">
	<g>
		<path style="fill-rule:evenodd;clip-rule:evenodd;fill:#999999;" d="M16,34c0.003,0,0.006-0.001,0.01-0.001h-0.02
			C15.994,33.999,15.997,34,16,34z M16,24c-2.762,0-5,2.238-5,5c0,1.131,0.39,2.162,1.023,3h7.954C20.61,31.162,21,30.131,21,29
			C21,26.238,18.761,24,16,24z M14,30c-0.552,0-1-0.448-1-1c0-0.553,0.448-1,1-1s1,0.447,1,1C15,29.552,14.552,30,14,30z M18,30
			c-0.552,0-1-0.448-1-1c0-0.553,0.448-1,1-1s1,0.447,1,1C19,29.552,18.552,30,18,30z"/>
	</g>
</g>
<g id="Head_2_">
	<g>
		<path style="fill:#F6CBAD;" d="M16,2C9.644,2,9,5.236,9,8.997C9,8.998,9,8.998,9,9c0,3,1,4.999,2,7c1,1.999,3.041,3.999,5,3.999
			c1.959,0,4-2,5-3.999c1-2.001,2-4,2-7C23,5.068,22.357,2,16,2z"/>
	</g>
</g>
<g id="Gotee">
	<g>
		<path style="fill-rule:evenodd;clip-rule:evenodd;fill:#664B31;" d="M18,15h-4c-0.552,0-1,0.447-1,1l0.286,1h5.429L19,16
			C19,15.447,18.552,15,18,15z M15,23c0,0.552,0.448,1,1,1s1-0.448,1-1l1.143-4h-4.286L15,23z"/>
	</g>
</g>
<g id="Hair_2_">
	<g>
		<path style="fill-rule:evenodd;clip-rule:evenodd;fill:#333333;" d="M22.997,7.73C22.997,7.705,23,7.679,23,7.654
			c0-0.057-0.005-0.115-0.006-0.173C22.931,3.719,22.078,0,16,0C9.643,0,9,3.892,9,7.654C9,7.383,9.032,7.118,9.085,6.86
			C9.031,7.245,9,7.629,9,8c0,0.449,0.04,0.921,0.103,1.401C9.36,8.078,10.155,5,12,5c0.215,0,0.394,0,0.546,0
			C13.359,6.006,14.914,7,16,7c2.946,0,2.273-1,4-1c1.845,0,2.64,1.729,2.897,2.995c0.051-0.376,0.081-0.744,0.092-1.102
			C22.991,7.93,23,7.964,23,8C23,7.91,22.998,7.82,22.997,7.73z"/>
	</g>
</g>
<g>
</g>
<g>
</g>
<g>
</g>
<g>
</g>
<g>
</g>
<g>
</g>
<g>
</g>
<g>
</g>
<g>
</g>
<g>
</g>
<g>
</g>
<g>
</g>
<g>
</g>
<g>
</g>
<g>
</g>
</svg>
