<?xml version="1.0" encoding="iso-8859-1"?>
<!-- Generator: Adobe Illustrator 16.0.0, SVG Export Plug-In . SVG Version: 6.00 Build 0)  -->
<!DOCTYPE svg PUBLIC "-//W3C//DTD SVG 1.1//EN" "http://www.w3.org/Graphics/SVG/1.1/DTD/svg11.dtd">
<svg version="1.1" id="Layer_1" xmlns="http://www.w3.org/2000/svg" xmlns:xlink="http://www.w3.org/1999/xlink" x="0px" y="0px"
	 width="36px" height="32px" viewBox="0 0 36 32" style="enable-background:new 0 0 36 32;" xml:space="preserve">
<g id="Fingers">
	<g>
		<path style="fill-rule:evenodd;clip-rule:evenodd;fill:#F6CBAD;" d="M33.097,11.872c-1.189-1.189-3.117-1.189-4.307,0L26,14.662V3
			c0-1.656-1.344-3-3-3c-1.657,0-3,1.344-3,3v10c0-1.656-1.344-3-3-3c-1.657,0-3,1.344-3,3c0-1.656-1.344-3-3-3
			c-1.657,0-3,1.344-3,3V5c0-1.656-1.344-3-3-3C3.343,2,2,3.344,2,5v16c0,1.657,1.343,3,3,3c1.656,0,3-1.343,3-3v-1
			c0,1.657,1.343,3,3,3c1.656,0,3-1.343,3-3v2c0,1.262,0.78,2.336,1.882,2.78l-0.011,0.011c-1.189,1.188-1.189,3.117,0,4.306
			C17.061,30.286,21.811,29.189,23,28l10.097-11.822C34.286,14.988,34.286,13.061,33.097,11.872z"/>
	</g>
</g>
<g id="Fingers_1_">
	<g>
		<path style="fill-rule:evenodd;clip-rule:evenodd;fill:#DBB59A;" d="M17,10.001c-1.657,0-3,1.343-3,2.999
			c0-1.656-1.344-2.999-3-2.999c-1.657,0-3,1.343-3,2.999v7c0,1.657,1.343,3.001,3,3.001c1.656,0,3-1.344,3-3.001v2.001
			c0,1.656,1.343,3,3,3c1.656,0,3-1.344,3-3V13C20,11.344,18.656,10.001,17,10.001z"/>
	</g>
</g>
<g id="Nails">
	<g>
		<path style="fill-rule:evenodd;clip-rule:evenodd;fill:#FFEFE0;" d="M9,20c0,1.105,0.896,2.001,2,2.001s2-0.896,2-2.001v-0.999H9
			V20z M15,21.001v1c0,1.104,0.896,2,2,2s2-0.896,2-2v-1H15z"/>
	</g>
</g>
<g id="Glove">
	<g>
		<path style="fill-rule:evenodd;clip-rule:evenodd;fill:#808080;" d="M23,0c-0.003,0-0.007,0.001-0.01,0.001h0.02
			C23.007,0.001,23.003,0,23,0z M25,17h-4h-1v3v2c0,1.657-1.344,3-3,3c-1.657,0-3-1.343-3-3v-2c0,1.657-1.344,3-3,3
			c-1.657,0-3-1.343-3-3v-3H7H3H2v4c0,0.344,0.07,0.669,0.177,0.977C3.12,27.661,8.047,32,14,32c3.472,0,6.589-1.483,8.78-3.839
			C22.849,28.106,22.945,28.055,23,28l5.99-7.015L26.6,17H25z M32.388,17l-0.737,0.871L32.395,17H32.388z"/>
	</g>
</g>
<g>
</g>
<g>
</g>
<g>
</g>
<g>
</g>
<g>
</g>
<g>
</g>
<g>
</g>
<g>
</g>
<g>
</g>
<g>
</g>
<g>
</g>
<g>
</g>
<g>
</g>
<g>
</g>
<g>
</g>
</svg>
