<?xml version="1.0" encoding="iso-8859-1"?>
<!-- Generator: Adobe Illustrator 16.0.0, SVG Export Plug-In . SVG Version: 6.00 Build 0)  -->
<!DOCTYPE svg PUBLIC "-//W3C//DTD SVG 1.1//EN" "http://www.w3.org/Graphics/SVG/1.1/DTD/svg11.dtd">
<svg version="1.1" id="Layer_1" xmlns="http://www.w3.org/2000/svg" xmlns:xlink="http://www.w3.org/1999/xlink" x="0px" y="0px"
	 width="28.004px" height="31.989px" viewBox="0 0 28.004 31.989" style="enable-background:new 0 0 28.004 31.989;"
	 xml:space="preserve">
<g id="Base_34_">
	<g>
		<path style="fill-rule:evenodd;clip-rule:evenodd;fill:#FFCC66;" d="M9.004,21.935c2.903-2.144,12.59-9.537,16-12.937
			c1.569-1.564,3-3.068,3-4.999c0-2.024-4.778-2-7-2l-1,1.994c2.806,0,4,0.031,4,1.006c0,2.301-20.217,11.645-22.751,15.835
			c-2.474,4.09-1.058,8.373,2.273,10.209c6.481,3.572,11.78-4.125,13.478-4.125c1.109,0,1.287,0.241,1.497,0.529
			c0.266,0.96,0.616,1.549,1.003,1.549c0.828,0,1.5-2.687,1.5-5.999c0-3.313-0.672-6-1.5-6c-0.452,0-0.856,0.803-1.131,2.067
			c-1.038,1.133-4.194,1.25-6.369,2.87c-3.325,2.478-6,4.523-6,2.99C6.004,24.061,6.779,23.577,9.004,21.935z"/>
	</g>
</g>
<g id="Nozzle_2_">
	<g>
		<path style="fill:#CCA352;" d="M18.004,0l-1,1c0,0,0.469,2.999,3,2.999l1-2C18.879,1.999,18.004,0,18.004,0z"/>
	</g>
</g>
<g id="Btns_13_">
	<g>
		<path style="fill-rule:evenodd;clip-rule:evenodd;fill:#CCA352;" d="M17.854,13.384c-0.556-0.307-1.266-0.124-1.586,0.407
			s-0.131,1.212,0.425,1.519c0.555,0.308,1.266,0.125,1.586-0.407C18.6,14.371,18.409,13.691,17.854,13.384z M15.107,15.717
			c-0.555-0.307-1.265-0.125-1.586,0.406c-0.32,0.532-0.13,1.212,0.426,1.519c0.555,0.308,1.265,0.125,1.585-0.406
			C15.854,16.703,15.663,16.023,15.107,15.717z M12.361,18.049c-0.556-0.308-1.266-0.125-1.586,0.407
			c-0.32,0.531-0.131,1.211,0.425,1.519c0.556,0.307,1.266,0.124,1.586-0.407S12.916,18.355,12.361,18.049z"/>
	</g>
</g>
<g>
</g>
<g>
</g>
<g>
</g>
<g>
</g>
<g>
</g>
<g>
</g>
<g>
</g>
<g>
</g>
<g>
</g>
<g>
</g>
<g>
</g>
<g>
</g>
<g>
</g>
<g>
</g>
<g>
</g>
</svg>
