<?xml version="1.0" encoding="iso-8859-1"?>
<!-- Generator: Adobe Illustrator 16.0.0, SVG Export Plug-In . SVG Version: 6.00 Build 0)  -->
<!DOCTYPE svg PUBLIC "-//W3C//DTD SVG 1.1//EN" "http://www.w3.org/Graphics/SVG/1.1/DTD/svg11.dtd">
<svg version="1.1" id="Layer_1" xmlns="http://www.w3.org/2000/svg" xmlns:xlink="http://www.w3.org/1999/xlink" x="0px" y="0px"
	 width="28px" height="32.001px" viewBox="0 0 28 32.001" style="enable-background:new 0 0 28 32.001;" xml:space="preserve">
<g id="Hair">
	<g>
		<path style="fill:#ED7161;" d="M14,0.001c-5.545,0-8,3-8,8V22h16V8.001C22,3.001,18.729,0.001,14,0.001z"/>
	</g>
</g>
<g id="Suit">
	<g>
		<path style="fill:#333333;" d="M26,24.001C25.06,23.061,18,20,18,20h-8c0,0-7.061,3.061-8,4.001c-1.88,1.88-2,8-2,8h28
			C28,32.001,27.88,25.881,26,24.001z"/>
	</g>
</g>
<g id="Chest">
	<g>
		<path style="fill-rule:evenodd;clip-rule:evenodd;fill:#DBB599;" d="M14,20.001h-4c0,0,1.345,10,4,10s4-10,4-10H14z"/>
	</g>
</g>
<g id="Neck">
	<g>
		<path style="fill:#DBB599;" d="M16,15h-4l-2,5.001c0,0,2.012,1,4,1s4-1,4-1L16,15z"/>
	</g>
</g>
<g id="Head">
	<g>
		<path style="fill-rule:evenodd;clip-rule:evenodd;fill:#F6CBAD;" d="M14,6.001C13.219,7.729,11.275,8.996,8.015,9
			C8.059,10.958,8.24,12.48,9,14.001c1,1.999,3.041,4,5,4s4-2.001,5-4c0.759-1.52,0.94-3.044,0.984-5.001
			C16.725,8.996,14.781,7.729,14,6.001z"/>
	</g>
</g>
<g>
</g>
<g>
</g>
<g>
</g>
<g>
</g>
<g>
</g>
<g>
</g>
<g>
</g>
<g>
</g>
<g>
</g>
<g>
</g>
<g>
</g>
<g>
</g>
<g>
</g>
<g>
</g>
<g>
</g>
</svg>
