<?xml version="1.0" encoding="iso-8859-1"?>
<!-- Generator: Adobe Illustrator 16.0.0, SVG Export Plug-In . SVG Version: 6.00 Build 0)  -->
<!DOCTYPE svg PUBLIC "-//W3C//DTD SVG 1.1//EN" "http://www.w3.org/Graphics/SVG/1.1/DTD/svg11.dtd">
<svg version="1.1" id="Layer_1" xmlns="http://www.w3.org/2000/svg" xmlns:xlink="http://www.w3.org/1999/xlink" x="0px" y="0px"
	 width="32px" height="22px" viewBox="0 0 32 22" style="enable-background:new 0 0 32 22;" xml:space="preserve">
<g id="Lower_Lip">
	<g>
		<path style="fill:#D46557;" d="M30,17c-3.906,0-7.938-3-10-3s-4,1-4,1s-1.938-1-4-1s-6.094,3-10,3H0c0,0,0.63,0.683,2,1
			c4.719,1.094,1.688,4,14,4s9.281-2.906,14-4c1.37-0.317,2-1,2-1H30z"/>
	</g>
</g>
<g id="Upper_Lip">
	<g>
		<path style="fill:#ED7161;" d="M31,13C27.406,1.563,19.531,0,18,0s-2,1-2,1s-0.469-1-2-1S4.594,1.563,1,13c0,0,0,1.563-1,3
			c0,0,0.406,1,2,1s4.188-1.063,7-5s5.438-2.313,7-2c1.563-0.313,4.188-1.938,7,2s5.406,5,7,5s2-1,2-1C31,14.563,31,13,31,13z"/>
	</g>
</g>
<g>
</g>
<g>
</g>
<g>
</g>
<g>
</g>
<g>
</g>
<g>
</g>
<g>
</g>
<g>
</g>
<g>
</g>
<g>
</g>
<g>
</g>
<g>
</g>
<g>
</g>
<g>
</g>
<g>
</g>
</svg>
