<?xml version="1.0" encoding="iso-8859-1"?>
<!-- Generator: Adobe Illustrator 16.0.0, SVG Export Plug-In . SVG Version: 6.00 Build 0)  -->
<!DOCTYPE svg PUBLIC "-//W3C//DTD SVG 1.1//EN" "http://www.w3.org/Graphics/SVG/1.1/DTD/svg11.dtd">
<svg version="1.1" id="Layer_1" xmlns="http://www.w3.org/2000/svg" xmlns:xlink="http://www.w3.org/1999/xlink" x="0px" y="0px"
	 width="35.977px" height="32.995px" viewBox="0 0 35.977 32.995" style="enable-background:new 0 0 35.977 32.995;"
	 xml:space="preserve">
<g id="Rims_1_">
	<g>
		<path style="fill-rule:evenodd;clip-rule:evenodd;fill:#808080;" d="M2.988,11.979h30c0.553,0,1-0.448,1-1c0-0.553-0.447-1-1-1
			h-30c-0.553,0-1,0.447-1,1C1.988,11.531,2.436,11.979,2.988,11.979z M32.988,29.979h-30c-0.553,0-1,0.447-1,1s0.447,1,1,1h30
			c0.553,0,1-0.447,1-1S33.541,29.979,32.988,29.979z"/>
	</g>
</g>
<g id="Body_33_">
	<g>
		<rect x="3.988" y="11.979" style="fill:#88C057;" width="28" height="18"/>
	</g>
</g>
<g id="Stripes_4_">
	<g>
		<polygon style="fill-rule:evenodd;clip-rule:evenodd;fill:#A5D977;" points="3.988,18.833 3.988,25.634 6.988,15.393 
			11.262,29.979 13.715,29.979 17.988,15.393 22.262,29.979 24.715,29.979 28.988,15.393 31.988,25.634 31.988,18.833 
			29.915,12.229 29.988,11.979 27.988,11.979 28.062,12.229 23.488,26.795 18.915,12.229 18.988,11.979 16.988,11.979 
			17.062,12.229 12.488,26.795 7.915,12.229 7.988,11.979 5.988,11.979 6.062,12.229 		"/>
	</g>
</g>
<g id="Stick_1_">
	<g>
		<path style="fill-rule:evenodd;clip-rule:evenodd;fill:#FFCC66;" d="M33.909,0.631c-0.206-0.516-0.801-0.766-1.329-0.558
			L12.475,6.187l0.747,1.869l20.105-6.113C33.854,1.734,34.115,1.147,33.909,0.631z"/>
	</g>
</g>
<g id="Head_6_">
	<g>
		<path style="fill:#E6B85C;" d="M14.76,6.367c-0.412-1.032-2.244-1.278-4.092-0.551c-1.849,0.729-3.012,2.155-2.6,3.188
			s2.244,1.278,4.092,0.551C14.009,8.827,15.172,7.399,14.76,6.367z"/>
	</g>
</g>
<g>
</g>
<g>
</g>
<g>
</g>
<g>
</g>
<g>
</g>
<g>
</g>
<g>
</g>
<g>
</g>
<g>
</g>
<g>
</g>
<g>
</g>
<g>
</g>
<g>
</g>
<g>
</g>
<g>
</g>
</svg>
