<?xml version="1.0" encoding="iso-8859-1"?>
<!-- Generator: Adobe Illustrator 16.0.0, SVG Export Plug-In . SVG Version: 6.00 Build 0)  -->
<!DOCTYPE svg PUBLIC "-//W3C//DTD SVG 1.1//EN" "http://www.w3.org/Graphics/SVG/1.1/DTD/svg11.dtd">
<svg version="1.1" id="Layer_1" xmlns="http://www.w3.org/2000/svg" xmlns:xlink="http://www.w3.org/1999/xlink" x="0px" y="0px"
	 width="32.019px" height="31.999px" viewBox="0 0 32.019 31.999" style="enable-background:new 0 0 32.019 31.999;"
	 xml:space="preserve">
<g id="Base_31_">
	<g>
		<circle style="fill:#88C057;" cx="16.017" cy="15.003" r="14.995"/>
	</g>
</g>
<g id="Shape_36_">
	<g>
		<circle style="fill:#FFFFFF;" cx="16.017" cy="15.003" r="12.996"/>
	</g>
</g>
<g id="Stick">
	<g>
		<path style="fill-rule:evenodd;clip-rule:evenodd;fill:#FFCC66;" d="M21.184,18.672L0.493,30.178
			c-0.477,0.265-0.635,0.858-0.354,1.326c0.281,0.469,0.895,0.633,1.37,0.368l20.69-11.506c0.477-0.265,0.635-0.858,0.354-1.326
			C22.272,18.572,21.659,18.407,21.184,18.672z M31.888,0.49c-0.274-0.473-0.889-0.63-1.372-0.354l-21,13.045
			c-0.483,0.276-0.652,0.884-0.378,1.356c0.273,0.473,0.888,0.631,1.371,0.354l21-13.044C31.992,1.57,32.161,0.962,31.888,0.49z"/>
	</g>
</g>
<g id="Tip">
	<g>
		<path style="fill-rule:evenodd;clip-rule:evenodd;fill:#E6B85C;" d="M26.869,16.627c-0.545-0.914-2.483-0.816-4.33,0.217
			s-2.902,2.611-2.358,3.524c0.545,0.913,2.483,0.816,4.33-0.217S27.413,17.541,26.869,16.627z M8.562,12.86
			c-1.871,1.06-2.957,2.649-2.426,3.552s2.479,0.775,4.35-0.284c1.871-1.059,2.957-2.648,2.426-3.551
			C12.381,11.673,10.433,11.801,8.562,12.86z"/>
	</g>
</g>
<g>
</g>
<g>
</g>
<g>
</g>
<g>
</g>
<g>
</g>
<g>
</g>
<g>
</g>
<g>
</g>
<g>
</g>
<g>
</g>
<g>
</g>
<g>
</g>
<g>
</g>
<g>
</g>
<g>
</g>
</svg>
