<?xml version="1.0" encoding="iso-8859-1"?>
<!-- Generator: Adobe Illustrator 16.0.0, SVG Export Plug-In . SVG Version: 6.00 Build 0)  -->
<!DOCTYPE svg PUBLIC "-//W3C//DTD SVG 1.1//EN" "http://www.w3.org/Graphics/SVG/1.1/DTD/svg11.dtd">
<svg version="1.1" id="Layer_1" xmlns="http://www.w3.org/2000/svg" xmlns:xlink="http://www.w3.org/1999/xlink" x="0px" y="0px"
	 width="30px" height="30px" viewBox="0 0 30 30" style="enable-background:new 0 0 30 30;" xml:space="preserve">
<g id="Wave">
	<g>
		<path style="fill-rule:evenodd;clip-rule:evenodd;fill:#54BBFF;" d="M5,5.999C4.447,5.999,4,6.447,4,7v16c0,0.552,0.447,1,1,1
			c0.552,0,1-0.448,1-1V7C6,6.447,5.552,5.999,5,5.999z M13,9c-0.553,0-1,0.447-1,0.999v10C12,20.552,12.447,21,13,21
			c0.552,0,1-0.448,1-1.001v-10C14,9.447,13.552,9,13,9z M29,9c-0.553,0-1,0.447-1,0.999v10C28,20.552,28.447,21,29,21
			c0.552,0,1-0.448,1-1.001v-10C30,9.447,29.552,9,29,9z M21,0c-0.553,0-1,0.447-1,1v28c0,0.552,0.447,1,1,1c0.552,0,1-0.448,1-1V1
			C22,0.447,21.552,0,21,0z"/>
	</g>
</g>
<g id="Wave_1_">
	<g>
		<path style="fill-rule:evenodd;clip-rule:evenodd;fill:#4395CC;" d="M1,11c-0.553,0-1,0.447-1,0.999v6C0,18.552,0.447,19,1,19
			c0.552,0,1-0.448,1-1.001v-6C2,11.447,1.552,11,1,11z M17,5.999c-0.553,0-1,0.448-1,1.001v16c0,0.552,0.447,1,1,1
			c0.552,0,1-0.448,1-1V7C18,6.447,17.552,5.999,17,5.999z M25,5.999c-0.553,0-1,0.448-1,1.001v16c0,0.552,0.447,1,1,1
			c0.552,0,1-0.448,1-1V7C26,6.447,25.552,5.999,25,5.999z M9,3C8.447,3,8,3.447,8,4v22c0,0.552,0.447,1,1,1c0.552,0,1-0.448,1-1V4
			C10,3.447,9.552,3,9,3z"/>
	</g>
</g>
<g>
</g>
<g>
</g>
<g>
</g>
<g>
</g>
<g>
</g>
<g>
</g>
<g>
</g>
<g>
</g>
<g>
</g>
<g>
</g>
<g>
</g>
<g>
</g>
<g>
</g>
<g>
</g>
<g>
</g>
</svg>
