<?xml version="1.0" encoding="iso-8859-1"?>
<!-- Generator: Adobe Illustrator 16.0.0, SVG Export Plug-In . SVG Version: 6.00 Build 0)  -->
<!DOCTYPE svg PUBLIC "-//W3C//DTD SVG 1.1//EN" "http://www.w3.org/Graphics/SVG/1.1/DTD/svg11.dtd">
<svg version="1.1" id="Layer_1" xmlns="http://www.w3.org/2000/svg" xmlns:xlink="http://www.w3.org/1999/xlink" x="0px" y="0px"
	 width="22.001px" height="31.999px" viewBox="0 0 22.001 31.999" style="enable-background:new 0 0 22.001 31.999;"
	 xml:space="preserve">
<g id="Base_3_">
	<g>
		<path style="fill:#808080;" d="M9.001,0H1C0.448,0,0,0.447,0,0.999v30c0,0.553,0.448,1,1,1h8.001c0.552,0,1-0.447,1-1v-30
			C10.001,0.447,9.553,0,9.001,0z"/>
	</g>
</g>
<g id="Base_4_">
	<g>
		<path style="fill:#808080;" d="M21.001,0h-8c-0.553,0-1,0.447-1,0.999v30c0,0.553,0.447,1,1,1h8c0.553,0,1-0.447,1-1v-30
			C22.001,0.447,21.554,0,21.001,0z"/>
	</g>
</g>
<g id="Speaker_Shape">
	<g>
		<path style="fill-rule:evenodd;clip-rule:evenodd;fill:#4D4D4D;" d="M5,2.999c-1.656,0-3,1.344-3,3c0,1.657,1.344,3,3,3
			c1.657,0,3.001-1.343,3.001-3C8.001,4.343,6.657,2.999,5,2.999z M5,12.999c-1.656,0-3,1.344-3,3.001c0,1.656,1.344,3,3,3
			c1.657,0,3.001-1.344,3.001-3C8.001,14.343,6.657,12.999,5,12.999z M17.001,8.999c1.657,0,3-1.343,3-3c0-1.656-1.343-3-3-3
			s-3,1.344-3,3C14.001,7.656,15.344,8.999,17.001,8.999z M17.001,12.999c-1.657,0-3,1.344-3,3.001c0,1.656,1.343,3,3,3s3-1.344,3-3
			C20.001,14.343,18.658,12.999,17.001,12.999z M5,23.999c-1.104,0-2,0.896-2,2.001c0,1.104,0.896,1.999,2,1.999
			c1.105,0,2.001-0.896,2.001-1.999C7.001,24.895,6.105,23.999,5,23.999z M17.001,23.999c-1.104,0-2,0.896-2,2.001
			c0,1.104,0.896,1.999,2,1.999s2-0.896,2-1.999C19.001,24.895,18.105,23.999,17.001,23.999z"/>
	</g>
</g>
<g id="Nozzle">
	<g>
		<path style="fill-rule:evenodd;clip-rule:evenodd;fill:#666666;" d="M17.001,24.999c-0.552,0-1,0.448-1,1.001c0,0.552,0.448,1,1,1
			c0.553,0,1-0.448,1-1C18.001,25.447,17.554,24.999,17.001,24.999z M5,24.999c-0.552,0-1,0.448-1,1.001c0,0.552,0.448,1,1,1
			c0.553,0,1-0.448,1-1C6,25.447,5.553,24.999,5,24.999z M17.001,14.999c-0.552,0-1,0.448-1,1.001c0,0.552,0.448,0.999,1,0.999
			c0.553,0,1-0.447,1-0.999C18.001,15.447,17.554,14.999,17.001,14.999z M5,14.999c-0.552,0-1,0.448-1,1.001
			c0,0.552,0.448,0.999,1,0.999c0.553,0,1-0.447,1-0.999C6,15.447,5.553,14.999,5,14.999z M17.001,6.999c0.553,0,1-0.447,1-1
			c0-0.552-0.447-1-1-1c-0.552,0-1,0.448-1,1C16.001,6.552,16.449,6.999,17.001,6.999z M5,4.999c-0.552,0-1,0.448-1,1
			c0,0.553,0.448,1,1,1c0.553,0,1-0.447,1-1C6,5.447,5.553,4.999,5,4.999z"/>
	</g>
</g>
<g>
</g>
<g>
</g>
<g>
</g>
<g>
</g>
<g>
</g>
<g>
</g>
<g>
</g>
<g>
</g>
<g>
</g>
<g>
</g>
<g>
</g>
<g>
</g>
<g>
</g>
<g>
</g>
<g>
</g>
</svg>
