<?xml version="1.0" encoding="iso-8859-1"?>
<!-- Generator: Adobe Illustrator 16.0.0, SVG Export Plug-In . SVG Version: 6.00 Build 0)  -->
<!DOCTYPE svg PUBLIC "-//W3C//DTD SVG 1.1//EN" "http://www.w3.org/Graphics/SVG/1.1/DTD/svg11.dtd">
<svg version="1.1" id="Layer_1" xmlns="http://www.w3.org/2000/svg" xmlns:xlink="http://www.w3.org/1999/xlink" x="0px" y="0px"
	 width="31.987px" height="31.995px" viewBox="0 0 31.987 31.995" style="enable-background:new 0 0 31.987 31.995;"
	 xml:space="preserve">
<g id="Magnet">
	<g>
		<path style="fill:#666666;" d="M30.491,17.162c-2.585-2.618-7.624-1.76-11.254,1.918c-3.631,3.677-4.479,8.78-1.894,11.398
			c2.585,2.618,7.624,1.761,11.254-1.917C32.228,24.884,33.076,19.78,30.491,17.162z"/>
	</g>
</g>
<g id="Speaker_7_">
	<g>
		<path style="fill:#999999;" d="M27.228,3.764C21.636-1.825,11.851-1.106,5.372,5.37c-6.479,6.476-7.198,16.256-1.607,21.846
			c5.592,5.589,15.377,4.87,21.856-1.605C32.101,19.134,32.82,9.353,27.228,3.764z"/>
	</g>
</g>
<g id="Speaker_4_">
	<g>
		<path style="fill:#FFFFFF;" d="M25.731,5.285C20.865,0.424,12.339,1.058,6.688,6.702c-5.65,5.644-6.285,14.16-1.418,19.021
			c4.867,4.861,13.393,4.228,19.042-1.417C29.963,18.662,30.598,10.146,25.731,5.285z"/>
	</g>
</g>
<g id="Speaker_5_">
	<g>
		<path style="fill:#CCCCCC;" d="M24.19,6.79C20.043,2.645,12.784,3.18,7.977,7.985S2.635,20.047,6.782,24.192
			s11.406,3.611,16.213-1.194C27.802,18.192,28.337,10.936,24.19,6.79z"/>
	</g>
</g>
<g id="Speaker_6_">
	<g>
		<path style="fill:#FFFFFF;" d="M19.948,13.062c-1.602-1.594-4.442-1.351-6.346,0.544c-1.904,1.895-2.148,4.722-0.547,6.315
			c1.601,1.594,4.442,1.351,6.346-0.544C21.304,17.483,21.549,14.655,19.948,13.062z"/>
	</g>
</g>
<g id="Hole">
	<g>
		<path style="fill:#AEAEAE;" d="M17.502,15.05c-1.07,0.263-2.161,1.342-2.436,2.411s0.371,1.723,1.441,1.46
			c1.071-0.263,2.161-1.342,2.436-2.411C19.218,15.441,18.573,14.787,17.502,15.05z"/>
	</g>
</g>
<g>
</g>
<g>
</g>
<g>
</g>
<g>
</g>
<g>
</g>
<g>
</g>
<g>
</g>
<g>
</g>
<g>
</g>
<g>
</g>
<g>
</g>
<g>
</g>
<g>
</g>
<g>
</g>
<g>
</g>
</svg>
