<?xml version="1.0" encoding="iso-8859-1"?>
<!-- Generator: Adobe Illustrator 16.0.0, SVG Export Plug-In . SVG Version: 6.00 Build 0)  -->
<!DOCTYPE svg PUBLIC "-//W3C//DTD SVG 1.1//EN" "http://www.w3.org/Graphics/SVG/1.1/DTD/svg11.dtd">
<svg version="1.1" id="Layer_1" xmlns="http://www.w3.org/2000/svg" xmlns:xlink="http://www.w3.org/1999/xlink" x="0px" y="0px"
	 width="24.002px" height="31.97px" viewBox="0 0 24.002 31.97" style="enable-background:new 0 0 24.002 31.97;"
	 xml:space="preserve">
<g id="Box">
	<g>
		<path style="fill:#CCCCCC;" d="M22.675,2H1.327C0.594,2,0,2.599,0,3.337v27.294c0,0.738,0.594,1.339,1.327,1.339h21.348
			c0.733,0,1.327-0.601,1.327-1.339V3.337C24.002,2.599,23.408,2,22.675,2z"/>
	</g>
</g>
<g id="Shape_6_">
	<g>
		<path style="fill:#808080;" d="M20.675,0H3.327C2.594,0,2,0.599,2,1.338v27.293c0,0.738,0.594,1.339,1.327,1.339h17.348
			c0.733,0,1.327-0.601,1.327-1.339V1.338C22.002,0.599,21.408,0,20.675,0z"/>
	</g>
</g>
<g id="Speaker_3_">
	<g>
		<path style="fill-rule:evenodd;clip-rule:evenodd;fill:#404040;" d="M16.892,25.447c0.699-0.979,1.114-2.172,1.114-3.464
			c0-1.293-0.416-2.487-1.116-3.466l0.797-0.796c0.394-0.394,0.394-1.031,0-1.424c-0.394-0.394-1.032-0.394-1.426,0l-0.801,0.8
			c-0.979-0.689-2.17-1.099-3.459-1.099c-1.292,0-2.486,0.411-3.466,1.104l-0.777-0.776c-0.391-0.39-1.024-0.39-1.415,0
			c-0.39,0.391-0.39,1.022,0,1.413l0.773,0.771c-0.703,0.98-1.121,2.177-1.121,3.473c0,1.289,0.414,2.48,1.11,3.457l-0.822,0.821
			c-0.394,0.394-0.394,1.031,0,1.424c0.394,0.394,1.032,0.394,1.425,0l0.824-0.823c0.98,0.693,2.175,1.104,3.468,1.104
			c1.296,0,2.493-0.413,3.474-1.109l0.769,0.768c0.391,0.391,1.024,0.391,1.415,0c0.391-0.39,0.391-1.021,0-1.412L16.892,25.447z
			 M12.001,11.978c2.216,0,4.012-1.789,4.012-3.996s-1.796-3.996-4.012-3.996S7.989,5.774,7.989,7.981S9.785,11.978,12.001,11.978z"
			/>
	</g>
</g>
<g id="Speaker_2_">
	<g>
		<path style="fill-rule:evenodd;clip-rule:evenodd;fill:#989898;" d="M12.001,21.002c-0.558,0-1.011,0.447-1.011,0.999
			S11.443,23,12.001,23s1.011-0.447,1.011-0.999S12.559,21.002,12.001,21.002z M12.001,8.983c0.547,0,0.99-0.446,0.99-0.998
			s-0.443-1-0.99-1s-0.99,0.448-0.99,1S11.454,8.983,12.001,8.983z"/>
	</g>
</g>
<g>
</g>
<g>
</g>
<g>
</g>
<g>
</g>
<g>
</g>
<g>
</g>
<g>
</g>
<g>
</g>
<g>
</g>
<g>
</g>
<g>
</g>
<g>
</g>
<g>
</g>
<g>
</g>
<g>
</g>
</svg>
