<?xml version="1.0" encoding="iso-8859-1"?>
<!-- Generator: Adobe Illustrator 16.0.0, SVG Export Plug-In . SVG Version: 6.00 Build 0)  -->
<!DOCTYPE svg PUBLIC "-//W3C//DTD SVG 1.1//EN" "http://www.w3.org/Graphics/SVG/1.1/DTD/svg11.dtd">
<svg version="1.1" id="Layer_1" xmlns="http://www.w3.org/2000/svg" xmlns:xlink="http://www.w3.org/1999/xlink" x="0px" y="0px"
	 width="30.018px" height="31.996px" viewBox="0 0 30.018 31.996" style="enable-background:new 0 0 30.018 31.996;"
	 xml:space="preserve">
<g id="Elipses">
	<g>
		<path style="fill-rule:evenodd;clip-rule:evenodd;" d="M15.009,25.996c-1.657,0-3,1.344-3,3c0,1.657,1.343,3,3,3
			c1.656,0,3-1.343,3-3C18.009,27.34,16.665,25.996,15.009,25.996z M15.009,0c-1.657,0-3,1.344-3,3s1.343,3,3,3c1.656,0,3-1.344,3-3
			S16.665,0,15.009,0z M28.491,19.399c-1.461-0.828-3.327-0.337-4.17,1.099c-0.844,1.435-0.343,3.269,1.117,4.098
			c1.46,0.828,3.326,0.336,4.17-1.099C30.451,22.063,29.951,20.228,28.491,19.399z M4.579,7.401c-1.46-0.828-3.327-0.337-4.17,1.098
			s-0.343,3.27,1.117,4.098s3.327,0.337,4.17-1.098C6.539,10.063,6.039,8.229,4.579,7.401z M28.491,12.597
			c1.46-0.828,1.96-2.663,1.117-4.098c-0.844-1.435-2.71-1.926-4.17-1.098s-1.961,2.662-1.117,4.098
			C25.164,12.934,27.03,13.425,28.491,12.597z M1.526,19.399c-1.46,0.828-1.96,2.663-1.117,4.098s2.71,1.927,4.17,1.099
			c1.46-0.829,1.96-2.663,1.117-4.098C4.854,19.063,2.986,18.571,1.526,19.399z"/>
	</g>
</g>
<g id="Shape_37_">
	<g>
		<circle style="fill:#CCCCCC;" cx="15.006" cy="15.998" r="13.993"/>
	</g>
</g>
<g id="Shape_38_">
	<g>
		<circle style="fill:#FFFFFF;" cx="15.006" cy="15.998" r="11.994"/>
	</g>
</g>
<g>
</g>
<g>
</g>
<g>
</g>
<g>
</g>
<g>
</g>
<g>
</g>
<g>
</g>
<g>
</g>
<g>
</g>
<g>
</g>
<g>
</g>
<g>
</g>
<g>
</g>
<g>
</g>
<g>
</g>
</svg>
