<?xml version="1.0" encoding="iso-8859-1"?>
<!-- Generator: Adobe Illustrator 16.0.0, SVG Export Plug-In . SVG Version: 6.00 Build 0)  -->
<!DOCTYPE svg PUBLIC "-//W3C//DTD SVG 1.1//EN" "http://www.w3.org/Graphics/SVG/1.1/DTD/svg11.dtd">
<svg version="1.1" id="Layer_1" xmlns="http://www.w3.org/2000/svg" xmlns:xlink="http://www.w3.org/1999/xlink" x="0px" y="0px"
	 width="32px" height="23.999px" viewBox="0 0 32 23.999" style="enable-background:new 0 0 32 23.999;" xml:space="preserve">
<g id="Handle_1_">
	<g>
		<path style="fill-rule:evenodd;clip-rule:evenodd;fill:#CCCCCC;" d="M20,0h-8c-1.104,0-2,0.895-2,2v6.999c0,1.104,0.896,2,2,2h1
			c-0.553,0-1-0.447-1-1v-7C12,2.447,12.447,2,13,2h6c0.552,0,1,0.447,1,0.999v7c0,0.553-0.448,1-1,1h1c1.104,0,2-0.896,2-2V2
			C22,0.895,21.104,0,20,0z"/>
	</g>
</g>
<g id="Legs">
	<g>
		<path style="fill-rule:evenodd;clip-rule:evenodd;fill:#B3B3B3;" d="M8,19.999c-1.104,0-2,0.896-2,2s0.896,2,2,2s2-0.896,2-2
			S9.104,19.999,8,19.999z M24,19.999c-1.104,0-2,0.896-2,2s0.896,2,2,2s2-0.896,2-2S25.104,19.999,24,19.999z"/>
	</g>
</g>
<g id="Shape_27_">
	<g>
		<path style="fill-rule:evenodd;clip-rule:evenodd;fill:#FFCC66;" d="M26,5.999c0,0-1.65-0.312-4-0.587v0.587c0,0.553-0.448,1-1,1
			c-0.553,0-1-0.447-1-1V5.208c-1.398-0.122-2.918-0.209-4.429-0.209c-1.224,0-2.438,0.063-3.571,0.159v0.841c0,0.553-0.448,1-1,1
			c-0.553,0-1-0.447-1-1V5.365C7.652,5.65,6,5.999,6,5.999c-3.47,1.156-6,3.687-6,7v2c0,3.314,2.718,6.281,6,7c0,0,4.736,0,9.6,0
			c5.13,0,10.4,0,10.4,0c3.345-0.969,6-3.686,6-7v-2C32,9.686,29.313,6.844,26,5.999z"/>
	</g>
</g>
<g id="Display_3_">
	<g>
		<path style="fill:#FFFFFF;" d="M18,10.999h-4c-0.553,0-1,0.448-1,1V16c0,0.552,0.447,0.999,1,0.999h4c0.552,0,1-0.447,1-0.999
			v-4.001C19,11.447,18.552,10.999,18,10.999z"/>
	</g>
</g>
<g id="Speaker_12_">
	<g>
		<path style="fill-rule:evenodd;clip-rule:evenodd;fill:#CCA352;" d="M7,9.999c-2.209,0-4,1.791-4,4c0,2.21,1.791,4,4,4s4-1.79,4-4
			C11,11.79,9.209,9.999,7,9.999z M25,9.999c-2.209,0-4,1.791-4,4c0,2.21,1.791,4,4,4s4-1.79,4-4C29,11.79,27.209,9.999,25,9.999z"
			/>
	</g>
</g>
<g id="Shape_28_">
	<g>
		<path style="fill-rule:evenodd;clip-rule:evenodd;fill:#997A3D;" d="M7,12.999c-0.553,0-1,0.448-1,1c0,0.553,0.447,1,1,1
			c0.552,0,1-0.447,1-1C8,13.447,7.552,12.999,7,12.999z M25,12.999c-0.553,0-1,0.448-1,1c0,0.553,0.447,1,1,1c0.552,0,1-0.447,1-1
			C26,13.447,25.552,12.999,25,12.999z"/>
	</g>
</g>
<g>
</g>
<g>
</g>
<g>
</g>
<g>
</g>
<g>
</g>
<g>
</g>
<g>
</g>
<g>
</g>
<g>
</g>
<g>
</g>
<g>
</g>
<g>
</g>
<g>
</g>
<g>
</g>
<g>
</g>
</svg>
