<?xml version="1.0" encoding="iso-8859-1"?>
<!-- Generator: Adobe Illustrator 16.0.0, SVG Export Plug-In . SVG Version: 6.00 Build 0)  -->
<!DOCTYPE svg PUBLIC "-//W3C//DTD SVG 1.1//EN" "http://www.w3.org/Graphics/SVG/1.1/DTD/svg11.dtd">
<svg version="1.1" id="Layer_1" xmlns="http://www.w3.org/2000/svg" xmlns:xlink="http://www.w3.org/1999/xlink" x="0px" y="0px"
	 width="32px" height="20px" viewBox="0 0 32 20" style="enable-background:new 0 0 32 20;" xml:space="preserve">
<g id="Base_19_">
	<g>
		<path style="fill:#CCCCCC;" d="M30,2H2C0.896,2,0,2.896,0,4v14c0,1.104,0.896,2,2,2h28c1.104,0,2-0.896,2-2V4
			C32,2.896,31.104,2,30,2z"/>
	</g>
</g>
<g id="Background_1_">
	<g>
		<path style="fill-rule:evenodd;clip-rule:evenodd;fill:#808080;" d="M2,17c0,0.553,0.447,1,1,1h26c0.552,0,1-0.447,1-1V2H2V17z"/>
	</g>
</g>
<g id="Base_20_">
	<g>
		<path style="fill:#FFFFFF;" d="M13,4H5C4.447,4,4,4.448,4,5v10c0,0.553,0.447,1,1,1h8c0.552,0,1-0.447,1-1V5
			C14,4.448,13.552,4,13,4z"/>
	</g>
</g>
<g id="Shape_21_">
	<g>
		<path style="fill-rule:evenodd;clip-rule:evenodd;fill:#666666;" d="M27,13H17c-0.553,0-1,0.448-1,1c0,0.553,0.447,1,1,1h10
			c0.552,0,1-0.447,1-1C28,13.448,27.552,13,27,13z M27,9H17c-0.553,0-1,0.448-1,1c0,0.553,0.447,1,1,1h10c0.552,0,1-0.447,1-1
			C28,9.448,27.552,9,27,9z M17,7h10c0.552,0,1-0.447,1-1c0-0.552-0.448-1-1-1H17c-0.553,0-1,0.448-1,1C16,6.553,16.447,7,17,7z"/>
	</g>
</g>
<g id="Btns_7_">
	<g>
		<path style="fill-rule:evenodd;clip-rule:evenodd;fill:#808080;" d="M9,10c-1.104,0-2,0.896-2,2s0.896,2,2,2s2-0.896,2-2
			S10.104,10,9,10z M9,8c0.552,0,1-0.447,1-1c0-0.552-0.448-1-1-1C8.447,6,8,6.448,8,7C8,7.553,8.447,8,9,8z"/>
	</g>
</g>
<g>
</g>
<g>
</g>
<g>
</g>
<g>
</g>
<g>
</g>
<g>
</g>
<g>
</g>
<g>
</g>
<g>
</g>
<g>
</g>
<g>
</g>
<g>
</g>
<g>
</g>
<g>
</g>
<g>
</g>
</svg>
