<?xml version="1.0" encoding="iso-8859-1"?>
<!-- Generator: Adobe Illustrator 16.0.0, SVG Export Plug-In . SVG Version: 6.00 Build 0)  -->
<!DOCTYPE svg PUBLIC "-//W3C//DTD SVG 1.1//EN" "http://www.w3.org/Graphics/SVG/1.1/DTD/svg11.dtd">
<svg version="1.1" id="Layer_1" xmlns="http://www.w3.org/2000/svg" xmlns:xlink="http://www.w3.org/1999/xlink" x="0px" y="0px"
	 width="30px" height="32px" viewBox="0 0 30 32" style="enable-background:new 0 0 30 32;" xml:space="preserve">
<g id="Shape_39_">
	<g>
		<path style="fill-rule:evenodd;clip-rule:evenodd;fill:#B3B3B3;" d="M12,2c-0.734,0-3,0-3,0s0,1.77,0,3c0,2.209,3.021,3,3,3
			c-0.022,0,3-0.791,3-3c0-1.265,0-3,0-3S12.708,2,12,2z M12,6c-0.553,0-1,0.104-1-1s0.447-1,1-1c0.552,0,1-0.104,1,1S12.552,6,12,6
			z"/>
	</g>
</g>
<g id="Triangle">
	<g>
		<path style="fill-rule:evenodd;clip-rule:evenodd;fill:#CECECE;" d="M2,26L12,7l7.792,14.805l1.673-1.115L13.77,6.068
			C13.424,5.411,12.743,5,12,5c-0.743,0-1.424,0.411-1.771,1.068l-10,19c-0.326,0.62-0.304,1.365,0.058,1.965
			C0.65,27.634,1.299,28,2,28h16v-2H2z"/>
	</g>
</g>
<g id="Stick_3_">
	<g>
		<path style="fill:#CECECE;" d="M28,0c-0.553,0-1,0.447-1,1v27c0,0.552,0.447,1,1,1c0.552,0,1-0.448,1-1V1C29,0.447,28.552,0,28,0z
			"/>
	</g>
</g>
<g id="Handle_2_">
	<g>
		<path style="fill:#9B7CAB;" d="M28,22c-1.104,0-2,0.896-2,2v6c0,1.104,0.896,2,2,2s2-0.896,2-2v-6C30,22.896,29.105,22,28,22z"/>
	</g>
</g>
<g>
</g>
<g>
</g>
<g>
</g>
<g>
</g>
<g>
</g>
<g>
</g>
<g>
</g>
<g>
</g>
<g>
</g>
<g>
</g>
<g>
</g>
<g>
</g>
<g>
</g>
<g>
</g>
<g>
</g>
</svg>
