<?xml version="1.0" encoding="iso-8859-1"?>
<!-- Generator: Adobe Illustrator 16.0.0, SVG Export Plug-In . SVG Version: 6.00 Build 0)  -->
<!DOCTYPE svg PUBLIC "-//W3C//DTD SVG 1.1//EN" "http://www.w3.org/Graphics/SVG/1.1/DTD/svg11.dtd">
<svg version="1.1" id="Layer_1" xmlns="http://www.w3.org/2000/svg" xmlns:xlink="http://www.w3.org/1999/xlink" x="0px" y="0px"
	 width="31.99px" height="23.004px" viewBox="0 0 31.99 23.004" style="enable-background:new 0 0 31.99 23.004;"
	 xml:space="preserve">
<g id="Shape_45_">
	<g>
		<path style="fill-rule:evenodd;clip-rule:evenodd;fill:#CEA453;" d="M25.823,10.433L21.581,6.19c-0.391-0.39-1.023-0.39-1.414,0
			c-0.391,0.391-0.391,1.024,0,1.415l4.242,4.242c0.391,0.391,1.023,0.391,1.414,0S26.214,10.824,25.823,10.433z M6.581,12.191
			c-0.391-0.391-1.023-0.391-1.414,0c-0.391,0.39-0.391,1.023,0,1.414l4.242,4.242c0.391,0.391,1.023,0.391,1.414,0
			s0.391-1.023,0-1.414L6.581,12.191z M9.581,9.191c-0.391-0.392-1.023-0.392-1.414,0c-0.391,0.39-0.391,1.023,0,1.414l4.242,4.242
			c0.391,0.391,1.023,0.391,1.414,0s0.391-1.023,0-1.414L9.581,9.191z"/>
	</g>
</g>
<g id="Body_42_">
	<g>
		<path style="fill-rule:evenodd;clip-rule:evenodd;fill:#FFCC66;" d="M30.811,1.158c-1.573-1.544-4.122-1.544-5.694,0l-0.367,0.361
			c-0.018,0.015-0.04,0.02-0.057,0.037L6.185,19.727c-0.001,0-0.001,0.001-0.002,0.002L6.09,19.821
			c-0.766,0.751-2.023,0.734-2.81-0.037c-0.786-0.772-0.803-2.008-0.037-2.759l7.93-7.786c0,0,0,0-0.001,0L14.46,6.01
			c0.018-0.017,0.027-0.022,0.045-0.04c0.971-0.963,3.471-1.282,4.015-1.282s0.717-0.764,0-1.4l-2.823-2.8
			c-0.776-0.784-1.412-0.481-1.412,0c0,0.468-0.189,2.944-1.103,3.982l-5.818,5.713c0,0-0.001,0-0.001,0.001l-6.236,6.123
			c-0.001,0.001-0.002,0.003-0.003,0.004L0.49,16.932c-0.231,0.227-0.31,0.533-0.27,0.828c-0.472,1.365-0.151,2.952,0.981,4.063
			c1.572,1.544,4.088,1.578,5.618,0.075l0.787-0.773c0,0,0.001,0,0.001,0l10.069-9.887c0.001,0.005,0.002,0.01,0.003,0.015
			l8.146-7.999c0.787-0.772,2.062-0.772,2.848,0c0.754,0.74,0.776,1.916,0.086,2.693L16.15,18.33c-0.394,0.386-0.394,1.012,0,1.397
			c0.393,0.387,1.03,0.387,1.424,0l6.682-6.561c0.049-0.043,0.102-0.081,0.148-0.127l6.406-6.29
			C32.383,5.205,32.383,2.702,30.811,1.158z"/>
	</g>
</g>
<g>
</g>
<g>
</g>
<g>
</g>
<g>
</g>
<g>
</g>
<g>
</g>
<g>
</g>
<g>
</g>
<g>
</g>
<g>
</g>
<g>
</g>
<g>
</g>
<g>
</g>
<g>
</g>
<g>
</g>
</svg>
