<?xml version="1.0" encoding="iso-8859-1"?>
<!-- Generator: Adobe Illustrator 16.0.0, SVG Export Plug-In . SVG Version: 6.00 Build 0)  -->
<!DOCTYPE svg PUBLIC "-//W3C//DTD SVG 1.1//EN" "http://www.w3.org/Graphics/SVG/1.1/DTD/svg11.dtd">
<svg version="1.1" id="Layer_1" xmlns="http://www.w3.org/2000/svg" xmlns:xlink="http://www.w3.org/1999/xlink" x="0px" y="0px"
	 width="31.79px" height="32px" viewBox="0 0 31.79 32" style="enable-background:new 0 0 31.79 32;" xml:space="preserve">
<g id="Shape_44_">
	<g>
		<path style="fill-rule:evenodd;clip-rule:evenodd;fill:#B35F24;" d="M21.494,21.318l-8.021-8.014
			c-0.389-0.388-1.018-0.388-1.405,0c-0.389,0.388-0.389,1.017,0,1.404l8.021,8.013c0.388,0.388,1.018,0.388,1.405,0
			C21.883,22.334,21.883,21.706,21.494,21.318z M10.474,16.302c-0.389-0.388-1.018-0.388-1.405,0c-0.389,0.388-0.389,1.017,0,1.404
			l8.021,8.013c0.388,0.388,1.018,0.388,1.405,0c0.389-0.387,0.389-1.016,0-1.403L10.474,16.302z M7.474,19.299
			c-0.389-0.388-1.018-0.388-1.405,0c-0.389,0.388-0.389,1.017,0,1.404l8.021,8.013c0.388,0.388,1.018,0.388,1.405,0
			c0.389-0.388,0.389-1.016,0-1.404L7.474,19.299z"/>
	</g>
</g>
<g id="Btns_12_">
	<g>
		<path style="fill-rule:evenodd;clip-rule:evenodd;fill:#B35F24;" d="M13.513,12.24c-0.344-0.344-0.901-0.344-1.245,0l-1.246,1.246
			c-0.344,0.344-0.344,0.901,0,1.245c0.345,0.344,0.902,0.344,1.246,0l1.245-1.245C13.857,13.143,13.857,12.584,13.513,12.24z
			 M9.268,15.24l-1.246,1.246c-0.344,0.344-0.344,0.901,0,1.245c0.345,0.344,0.902,0.344,1.246,0l1.245-1.245
			c0.345-0.344,0.345-0.902,0-1.246C10.169,14.896,9.611,14.896,9.268,15.24z M6.268,18.24l-1.246,1.246
			c-0.344,0.344-0.344,0.901,0,1.245c0.345,0.344,0.902,0.344,1.246,0l1.245-1.245c0.345-0.345,0.345-0.902,0-1.246
			C7.169,17.896,6.611,17.896,6.268,18.24z"/>
	</g>
</g>
<g id="Body_41_">
	<g>
		<path style="fill-rule:evenodd;clip-rule:evenodd;fill:#FF8833;" d="M24.207,15.336l-2.776-2.773c-0.767-0.766-2.01-0.766-2.776,0
			L5.325,25.879c-0.767,0.766-0.767,2.008,0,2.773l2.776,2.773c0.767,0.766,2.01,0.766,2.776,0L24.207,18.11
			C24.974,17.344,24.974,16.103,24.207,15.336z M22.125,17.416l-11.941,11.93c-0.384,0.383-1.005,0.383-1.389,0l-1.388-1.387
			c-0.384-0.383-0.384-1.004,0-1.387l11.941-11.93c0.383-0.383,1.004-0.383,1.388,0l1.389,1.387
			C22.508,16.412,22.508,17.033,22.125,17.416z"/>
	</g>
</g>
<g id="Horn">
	<g>
		<path style="fill-rule:evenodd;clip-rule:evenodd;fill:#FF8833;" d="M30.781,7.024l-6-5.994c-1.648-1.679-3-1.03-3,0
			c0,0.787,0.218,4.284-0.612,6.825C17.356,11.881,7.129,22.657,2.781,27c-1.151,1.15-1,1-1,1c-0.392,0.391-2.114,2.886-1.724,3.276
			l0.417,0.416c0.391,0.39,2.908-1.297,3.305-1.69c0.02-0.021,0.172-0.173,1.002-1.002c4.335-4.332,14.995-14.466,19.068-18.33
			c2.514-0.851,6.04-0.649,6.932-0.649C31.938,10.021,32.304,8.387,30.781,7.024z"/>
	</g>
</g>
<g>
</g>
<g>
</g>
<g>
</g>
<g>
</g>
<g>
</g>
<g>
</g>
<g>
</g>
<g>
</g>
<g>
</g>
<g>
</g>
<g>
</g>
<g>
</g>
<g>
</g>
<g>
</g>
<g>
</g>
</svg>
