<?xml version="1.0" encoding="iso-8859-1"?>
<!-- Generator: Adobe Illustrator 16.0.0, SVG Export Plug-In . SVG Version: 6.00 Build 0)  -->
<!DOCTYPE svg PUBLIC "-//W3C//DTD SVG 1.1//EN" "http://www.w3.org/Graphics/SVG/1.1/DTD/svg11.dtd">
<svg version="1.1" id="Layer_1" xmlns="http://www.w3.org/2000/svg" xmlns:xlink="http://www.w3.org/1999/xlink" x="0px" y="0px"
	 width="23px" height="32.007px" viewBox="0 0 23 32.007" style="enable-background:new 0 0 23 32.007;" xml:space="preserve">
<g id="Tube">
	<g>
		<path style="fill:#E6B85C;" d="M21,29.047H8c-0.552,0-1,0.442-1,0.987s0.448,0.986,1,0.986h13c0.552,0,1-0.441,1-0.986
			S21.552,29.047,21,29.047z"/>
	</g>
</g>
<g id="Nozzle_1_">
	<g>
		<path style="fill:#CCA352;" d="M22,28.061c-0.552,0-1,0.441-1,0.986v1.974c0,0.545,0.448,0.986,1,0.986s1-0.441,1-0.986v-1.974
			C23,28.502,22.552,28.061,22,28.061z"/>
	</g>
</g>
<g id="Body_40_">
	<g>
		<path style="fill-rule:evenodd;clip-rule:evenodd;fill:#FFCC66;" d="M19,7.344C18.5,6.851,6,0.438,6,0.438s-1.344-0.986-2,0
			C3.224,1.604,4,2.411,4,2.411c3,4.771,1.962,7.676,0,9.865c-1.641,1.831-2.633,4.731-2.914,5.634C0.394,19.168,0,20.61,0,22.142
			c0,4.903,4.029,8.879,9,8.879s9-3.976,9-8.879s-4.029-8.879-9-8.879c-1.098,0-2.146,0.204-3.118,0.559
			C10.969,9.192,19.704,9.859,20,9.317C20.695,8.044,19.5,7.837,19,7.344z M16,22.142c0,3.813-3.134,6.905-7,6.905
			c-3.866,0-7-3.092-7-6.905s3.134-6.905,7-6.905C12.866,15.236,16,18.328,16,22.142z"/>
	</g>
</g>
<g>
</g>
<g>
</g>
<g>
</g>
<g>
</g>
<g>
</g>
<g>
</g>
<g>
</g>
<g>
</g>
<g>
</g>
<g>
</g>
<g>
</g>
<g>
</g>
<g>
</g>
<g>
</g>
<g>
</g>
</svg>
