<?xml version="1.0" encoding="iso-8859-1"?>
<!-- Generator: Adobe Illustrator 16.0.0, SVG Export Plug-In . SVG Version: 6.00 Build 0)  -->
<!DOCTYPE svg PUBLIC "-//W3C//DTD SVG 1.1//EN" "http://www.w3.org/Graphics/SVG/1.1/DTD/svg11.dtd">
<svg version="1.1" id="Layer_1" xmlns="http://www.w3.org/2000/svg" xmlns:xlink="http://www.w3.org/1999/xlink" x="0px" y="0px"
	 width="32.033px" height="32.001px" viewBox="0 0 32.033 32.001" style="enable-background:new 0 0 32.033 32.001;"
	 xml:space="preserve">
<g id="Handle_3_">
	<g>
		<path style="fill:#CCCCCC;" d="M10.686,21.325c-0.398-0.398-1.043-0.398-1.441,0l-8.647,8.639c-0.398,0.397-0.398,1.043,0,1.44
			s1.043,0.397,1.441,0l8.648-8.64C11.083,22.367,11.083,21.723,10.686,21.325z"/>
	</g>
</g>
<g id="Ball_1_">
	<g>
		<circle style="fill:#B3B3B3;" cx="2.007" cy="29.996" r="2.006"/>
	</g>
</g>
<g id="U_Shape">
	<g>
		<path style="fill:#B3B3B3;" d="M30.707,5.338l-15.5,15.768c-1.18,1.18-3.094,1.18-4.274,0c-1.18-1.181-1.18-3.096,0-4.275
			c0,0,15.762-15.464,15.762-15.506L25.114,0L9.508,15.404c-1.967,1.968-1.967,5.158,0,7.126s5.156,1.968,7.123,0L32.033,6.928
			L30.707,5.338z"/>
	</g>
</g>
<g>
</g>
<g>
</g>
<g>
</g>
<g>
</g>
<g>
</g>
<g>
</g>
<g>
</g>
<g>
</g>
<g>
</g>
<g>
</g>
<g>
</g>
<g>
</g>
<g>
</g>
<g>
</g>
<g>
</g>
</svg>
