<?xml version="1.0" encoding="iso-8859-1"?>
<!-- Generator: Adobe Illustrator 16.0.0, SVG Export Plug-In . SVG Version: 6.00 Build 0)  -->
<!DOCTYPE svg PUBLIC "-//W3C//DTD SVG 1.1//EN" "http://www.w3.org/Graphics/SVG/1.1/DTD/svg11.dtd">
<svg version="1.1" id="Layer_1" xmlns="http://www.w3.org/2000/svg" xmlns:xlink="http://www.w3.org/1999/xlink" x="0px" y="0px"
	 width="37.002px" height="52px" viewBox="0 0 37.002 52" style="enable-background:new 0 0 37.002 52;" xml:space="preserve">
<g id="Disc_5_">
	<g>
		<path style="fill-rule:evenodd;clip-rule:evenodd;fill:#666666;" d="M19.001,8C10.164,8,3,15.163,3,24s7.164,16,16.001,16
			s16-7.163,16-16S27.838,8,19.001,8z M19.001,25c-0.553,0-1-0.447-1-1c0-0.552,0.447-1,1-1c0.552,0,1,0.448,1,1
			C20.001,24.553,19.553,25,19.001,25z"/>
	</g>
</g>
<g id="Reflection_1_">
	<g>
		<path style="fill-rule:evenodd;clip-rule:evenodd;fill:#808080;" d="M19.001,32c-0.004,0-0.007,0.002-0.011,0.002
			c-2.762-0.007-5.445-1.435-6.925-3.998c-0.729-1.262-1.067-2.639-1.066-3.998C10.999,24.004,11,24.002,11,24c0-0.552-0.447-1-1-1
			c-0.552,0-1,0.448-1,1c0,0.02,0.01,0.036,0.011,0.056C9.019,25.737,9.438,27.439,10.34,29c1.84,3.188,5.171,4.966,8.604,4.988
			C18.964,33.989,18.98,34,19.001,34c0.552,0,1-0.447,1-1S19.553,32,19.001,32z M19.001,36v-0.009
			C14.858,35.986,10.829,33.846,8.608,30c-1.094-1.894-1.601-3.96-1.599-6H7c0-0.552-0.447-1-1-1c-0.552,0-1,0.448-1,1
			c0,0.023,0.012,0.043,0.013,0.065C5.021,26.424,5.612,28.812,6.876,31c2.58,4.468,7.25,6.96,12.062,6.987
			C18.959,37.988,18.979,38,19.001,38c0.552,0,1-0.447,1-1S19.553,36,19.001,36z M27.661,19c-1.84-3.188-5.171-4.966-8.603-4.988
			C19.038,14.01,19.021,14,19.001,14c-0.553,0-1,0.448-1,1c0,0.553,0.447,1,1,1c0.002,0,0.005-0.001,0.007-0.001
			c2.763,0.005,5.447,1.433,6.928,3.998c0.728,1.261,1.066,2.636,1.066,3.995c0,0.003-0.002,0.006-0.002,0.009c0,0.553,0.448,1,1,1
			c0.553,0,1-0.447,1-1c0-0.02-0.01-0.036-0.011-0.056C28.982,22.263,28.563,20.561,27.661,19z M32.989,23.94
			c-0.007-2.361-0.598-4.75-1.863-6.94c-2.58-4.468-7.25-6.96-12.062-6.987C19.042,10.011,19.023,10,19.001,10c-0.553,0-1,0.448-1,1
			c0,0.553,0.447,1,1,1v0.009c4.143,0.004,8.172,2.145,10.393,5.991c1.093,1.894,1.601,3.96,1.598,6h0.009c0,0.553,0.448,1,1,1
			c0.553,0,1-0.447,1-1C33.001,23.979,32.99,23.961,32.989,23.94z"/>
	</g>
</g>
<g id="Label_4_">
	<g>
		<path style="fill-rule:evenodd;clip-rule:evenodd;fill:#ED7161;" d="M19.001,18c-3.314,0-6,2.687-6,6s2.686,6,6,6
			c3.313,0,6-2.687,6-6S22.314,18,19.001,18z M19.001,25c-0.553,0-1-0.447-1-1c0-0.552,0.447-1,1-1c0.552,0,1,0.448,1,1
			C20.001,24.553,19.553,25,19.001,25z"/>
	</g>
</g>
<g>
</g>
<g>
</g>
<g>
</g>
<g>
</g>
<g>
</g>
<g>
</g>
<g>
</g>
<g>
</g>
<g>
</g>
<g>
</g>
<g>
</g>
<g>
</g>
<g>
</g>
<g>
</g>
<g>
</g>
</svg>
