<?xml version="1.0" encoding="iso-8859-1"?>
<!-- Generator: Adobe Illustrator 16.0.0, SVG Export Plug-In . SVG Version: 6.00 Build 0)  -->
<!DOCTYPE svg PUBLIC "-//W3C//DTD SVG 1.1//EN" "http://www.w3.org/Graphics/SVG/1.1/DTD/svg11.dtd">
<svg version="1.1" id="Layer_1" xmlns="http://www.w3.org/2000/svg" xmlns:xlink="http://www.w3.org/1999/xlink" x="0px" y="0px"
	 width="32px" height="24px" viewBox="0 0 32 24" style="enable-background:new 0 0 32 24;" xml:space="preserve">
<g id="Body_19_">
	<g>
		<path style="fill:#CCCCCC;" d="M30,0H2C0.896,0,0,0.896,0,2v20c0,1.104,0.896,2,2,2h28c1.104,0,2-0.896,2-2V2
			C32,0.896,31.104,0,30,0z"/>
	</g>
</g>
<g id="Shape_29_">
	<g>
		<path style="fill-rule:evenodd;clip-rule:evenodd;fill:#999999;" d="M29,16.989V3c0-0.552-0.448-1-1-1c-0.553,0-1,0.448-1,1v13.53
			l-2.704,2.704c-0.405,0.406-0.405,1.064,0,1.47c0.405,0.406,1.063,0.406,1.47,0l2.938-2.938C28.918,17.552,29.012,17.27,29,16.989
			z"/>
	</g>
</g>
<g id="Shape_30_">
	<g>
		<path style="fill:#666666;" d="M29,4h-2c-0.553,0-1,0.448-1,1v2c0,0.553,0.447,1,1,1h2c0.552,0,1-0.447,1-1V5
			C30,4.448,29.552,4,29,4z"/>
	</g>
</g>
<g id="Disc_3_">
	<g>
		<circle style="fill:#666666;" cx="12.007" cy="12" r="10"/>
	</g>
</g>
<g id="Label_2_">
	<g>
		<circle style="fill:#9B7CAB;" cx="12.007" cy="12" r="4"/>
	</g>
</g>
<g id="Pin">
	<g>
		<circle style="fill:#FFFFFF;" cx="12.002" cy="12" r="1"/>
	</g>
</g>
<g>
</g>
<g>
</g>
<g>
</g>
<g>
</g>
<g>
</g>
<g>
</g>
<g>
</g>
<g>
</g>
<g>
</g>
<g>
</g>
<g>
</g>
<g>
</g>
<g>
</g>
<g>
</g>
<g>
</g>
</svg>
