<?xml version="1.0" encoding="iso-8859-1"?>
<!-- Generator: Adobe Illustrator 16.0.0, SVG Export Plug-In . SVG Version: 6.00 Build 0)  -->
<!DOCTYPE svg PUBLIC "-//W3C//DTD SVG 1.1//EN" "http://www.w3.org/Graphics/SVG/1.1/DTD/svg11.dtd">
<svg version="1.1" id="Layer_1" xmlns="http://www.w3.org/2000/svg" xmlns:xlink="http://www.w3.org/1999/xlink" x="0px" y="0px"
	 width="37.002px" height="52px" viewBox="0 0 37.002 52" style="enable-background:new 0 0 37.002 52;" xml:space="preserve">
<g id="Disc_4_">
	<g>
		<path style="fill-rule:evenodd;clip-rule:evenodd;fill:#666666;" d="M19.001,8C10.164,8,3,15.163,3,24s7.164,16,16.001,16
			s16-7.163,16-16S27.838,8,19.001,8z M19.001,25c-0.553,0-1-0.447-1-1c0-0.552,0.447-1,1-1c0.552,0,1,0.448,1,1
			C20.001,24.553,19.553,25,19.001,25z"/>
	</g>
</g>
<g id="Reflection">
	<g>
		<path style="fill-rule:evenodd;clip-rule:evenodd;fill:#808080;" d="M19.001,36v-0.009C14.857,35.986,10.829,33.846,8.608,30
			c-1.094-1.894-1.601-3.96-1.599-6H7c0-0.552-0.447-1-1-1c-0.552,0-1,0.448-1,1c0,0.022,0.012,0.041,0.013,0.063
			C5.021,26.422,5.611,28.811,6.876,31c2.579,4.468,7.25,6.96,12.062,6.987C18.959,37.988,18.979,38,19.001,38c0.552,0,1-0.447,1-1
			S19.553,36,19.001,36z M19.001,32c-0.004,0-0.007,0.002-0.011,0.002c-2.761-0.007-5.445-1.435-6.925-3.998
			c-0.729-1.262-1.066-2.638-1.067-3.996C10.998,24.005,11,24.003,11,24c0-0.552-0.447-1-1-1c-0.552,0-1,0.448-1,1
			c0,0.02,0.01,0.036,0.012,0.056C9.019,25.737,9.438,27.439,10.34,29c1.84,3.188,5.171,4.966,8.604,4.988
			C18.964,33.989,18.98,34,19.001,34c0.552,0,1-0.447,1-1S19.553,32,19.001,32z M32.989,23.943
			c-0.007-2.361-0.598-4.751-1.863-6.943c-2.579-4.468-7.25-6.96-12.062-6.987C19.042,10.011,19.023,10,19.001,10
			c-0.553,0-1,0.448-1,1c0,0.553,0.447,1,1,1v0.009c4.144,0.004,8.172,2.145,10.393,5.991c1.093,1.894,1.601,3.96,1.599,6h0.009
			c0,0.553,0.448,1,1,1c0.553,0,1-0.447,1-1C33.001,23.98,32.99,23.963,32.989,23.943z M27.661,19
			c-1.841-3.188-5.171-4.965-8.604-4.988C19.038,14.01,19.021,14,19.001,14c-0.553,0-1,0.448-1,1c0,0.553,0.447,1,1,1
			c0.003,0,0.005-0.001,0.007-0.001c2.763,0.005,5.447,1.433,6.929,3.998c0.728,1.26,1.065,2.635,1.066,3.993
			c0,0.004-0.002,0.007-0.002,0.011c0,0.553,0.448,1,1,1c0.553,0,1-0.447,1-1c0-0.02-0.01-0.036-0.012-0.056
			C28.982,22.263,28.563,20.561,27.661,19z"/>
	</g>
</g>
<g id="Label_3_">
	<g>
		<path style="fill-rule:evenodd;clip-rule:evenodd;fill:#CCCCCC;" d="M19.001,18C15.687,18,13,20.687,13,24s2.687,6,6.001,6
			c3.313,0,6-2.687,6-6S22.314,18,19.001,18z M19.001,25c-0.553,0-1-0.447-1-1c0-0.552,0.447-1,1-1c0.552,0,1,0.448,1,1
			C20.001,24.553,19.553,25,19.001,25z"/>
	</g>
</g>
<g id="Dot">
	<g>
		<circle style="fill:#FFFFFF;" cx="18.99" cy="24" r="1"/>
	</g>
</g>
<g id="Vinyl_Cover">
	<g>
		<path style="fill-rule:evenodd;clip-rule:evenodd;fill:#9B7CAB;" d="M32.903,8H5.077C3.925,8,2.99,8.935,2.99,10.087v27.826
			C2.99,39.065,3.925,40,5.077,40h27.826c1.152,0,2.087-0.935,2.087-2.087v-4.174V33.51v-1.436
			c-3.599-0.928-6.261-4.186-6.261-8.074c0-3.888,2.662-7.146,6.261-8.074v-1.435v-0.23v-4.174C34.99,8.935,34.056,8,32.903,8z
			 M18.99,31c-3.866,0-7-3.134-7-7s3.134-7,7-7s7,3.134,7,7S22.856,31,18.99,31z"/>
	</g>
</g>
<g>
</g>
<g>
</g>
<g>
</g>
<g>
</g>
<g>
</g>
<g>
</g>
<g>
</g>
<g>
</g>
<g>
</g>
<g>
</g>
<g>
</g>
<g>
</g>
<g>
</g>
<g>
</g>
<g>
</g>
</svg>
