<?xml version="1.0" encoding="iso-8859-1"?>
<!-- Generator: Adobe Illustrator 16.0.0, SVG Export Plug-In . SVG Version: 6.00 Build 0)  -->
<!DOCTYPE svg PUBLIC "-//W3C//DTD SVG 1.1//EN" "http://www.w3.org/Graphics/SVG/1.1/DTD/svg11.dtd">
<svg version="1.1" id="Layer_1" xmlns="http://www.w3.org/2000/svg" xmlns:xlink="http://www.w3.org/1999/xlink" x="0px" y="0px"
	 width="32.001px" height="32.021px" viewBox="0 0 32.001 32.021" style="enable-background:new 0 0 32.001 32.021;"
	 xml:space="preserve">
<g id="Body_45_">
	<g>
		<path style="fill:#A67C52;" d="M21.743,10.25c0,0-5.439-4.531-9.253-0.713c-3.813,3.819-0.473,4.751-2.847,7.127
			c-2.374,2.377-3.909-1.787-7.829,2.139c-3.92,3.925-0.561,7.99,1.423,9.977c1.984,1.987,6.044,5.351,9.964,1.426
			c3.92-3.926-0.238-5.463,2.135-7.84c2.374-2.376,3.303,0.969,7.117-2.851C26.269,15.696,21.743,10.25,21.743,10.25z"/>
	</g>
</g>
<g id="Strings_2_">
	<g>
		
			<rect x="4.698" y="16.003" transform="matrix(0.7071 -0.7071 0.7071 0.7071 -7.6465 15.591)" style="fill:#BF9469;" width="20.597" height="2.044"/>
	</g>
</g>
<g id="Bottom">
	<g>
		<path style="fill-rule:evenodd;clip-rule:evenodd;fill:#664C32;" d="M11.006,25.226l-2.105-2.104l-2.105-2.105
			c0,0-0.723,3.527-2.103,4.91L3.288,27.33c-0.388,0.388-0.388,1.017,0,1.403c0.387,0.388,1.016,0.388,1.403,0l1.408-1.407
			C7.483,25.948,11.006,25.226,11.006,25.226z"/>
	</g>
</g>
<g id="Neck_3_">
	<g>
		
			<rect x="12.491" y="7.503" transform="matrix(0.7071 -0.7071 0.7071 0.7071 0.8537 19.1118)" style="fill:#805F3E;" width="22.011" height="2.044"/>
	</g>
</g>
<g id="Head_7_">
	<g>
		<path style="fill:#664B31;" d="M31.685,1.773l-1.47-1.469c-0.406-0.406-1.063-0.406-1.469,0l-1.469,2.469
			c-0.406,0.406-0.406,1.064,0,1.47l0.469,0.469c0.406,0.406,1.063,0.406,1.469,0l2.47-1.469C32.09,2.837,32.09,2.18,31.685,1.773z"
			/>
	</g>
</g>
<g>
</g>
<g>
</g>
<g>
</g>
<g>
</g>
<g>
</g>
<g>
</g>
<g>
</g>
<g>
</g>
<g>
</g>
<g>
</g>
<g>
</g>
<g>
</g>
<g>
</g>
<g>
</g>
<g>
</g>
</svg>
