<?xml version="1.0" encoding="iso-8859-1"?>
<!-- Generator: Adobe Illustrator 16.0.0, SVG Export Plug-In . SVG Version: 6.00 Build 0)  -->
<!DOCTYPE svg PUBLIC "-//W3C//DTD SVG 1.1//EN" "http://www.w3.org/Graphics/SVG/1.1/DTD/svg11.dtd">
<svg version="1.1" id="Layer_1" xmlns="http://www.w3.org/2000/svg" xmlns:xlink="http://www.w3.org/1999/xlink" x="0px" y="0px"
	 width="49.003px" height="37.963px" viewBox="0 0 49.003 37.963" style="enable-background:new 0 0 49.003 37.963;"
	 xml:space="preserve">
<g id="Volume">
	<g>
		<path style="fill-rule:evenodd;clip-rule:evenodd;fill:#AAD1EC;" d="M16.035,35.937c-3.073,0.006-6.148-1.163-8.493-3.508
			c-4.679-4.68-4.679-12.267,0-16.945c2.345-2.345,5.42-3.514,8.493-3.509V3.947C11.93,3.94,7.822,5.502,4.689,8.635
			c-6.252,6.252-6.252,16.389,0,22.641c3.133,3.133,7.24,4.694,11.346,4.688V35.937z"/>
	</g>
</g>
<g id="Knob">
	<g>
		<circle style="fill:#333333;" cx="16.034" cy="23.976" r="8.992"/>
	</g>
</g>
<g id="Level">
	<g>
		<path style="fill-rule:evenodd;clip-rule:evenodd;fill:#FFFFFF;" d="M17.033,15.154c-0.324-0.035-0.652-0.057-0.985-0.057
			c-0.343,0-0.681,0.024-1.014,0.063l-0.005,8.82l1.999-0.002L17.033,15.154z"/>
	</g>
</g>
<g>
</g>
<g>
</g>
<g>
</g>
<g>
</g>
<g>
</g>
<g>
</g>
<g>
</g>
<g>
</g>
<g>
</g>
<g>
</g>
<g>
</g>
<g>
</g>
<g>
</g>
<g>
</g>
<g>
</g>
</svg>
