<?xml version="1.0" encoding="iso-8859-1"?>
<!-- Generator: Adobe Illustrator 16.0.0, SVG Export Plug-In . SVG Version: 6.00 Build 0)  -->
<!DOCTYPE svg PUBLIC "-//W3C//DTD SVG 1.1//EN" "http://www.w3.org/Graphics/SVG/1.1/DTD/svg11.dtd">
<svg version="1.1" id="Layer_1" xmlns="http://www.w3.org/2000/svg" xmlns:xlink="http://www.w3.org/1999/xlink" x="0px" y="0px"
	 width="32px" height="32px" viewBox="0 0 32 32" style="enable-background:new 0 0 32 32;" xml:space="preserve">
<g id="Body">
	<g>
		<path style="fill:#CCCCCC;" d="M30,0H2C0.896,0,0,0.896,0,2v28c0,1.104,0.896,2,2,2h28c1.104,0,2-0.896,2-2V2
			C32,0.896,31.104,0,30,0z"/>
	</g>
</g>
<g id="Display">
	<g>
		<path style="fill:#FFFFFF;" d="M28,4H4C3.447,4,3,4.447,3,5v16c0,0.552,0.447,1,1,1h24c0.552,0,1-0.448,1-1V5
			C29,4.447,28.552,4,28,4z"/>
	</g>
</g>
<g id="Level_1_">
	<g>
		<path style="fill:#B3B3B3;" d="M25.205,9.762C22.355,8.63,19.253,8,16,8c-3.227,0-6.299,0.633-9.129,1.746
			C6.433,9.852,6.1,10.229,6.1,10.699c0,0.553,0.448,1,1,1c0.12,0,0.232-0.029,0.339-0.068l0.011,0.029
			C10.095,10.599,12.976,10,16,10c3.036,0,5.928,0.6,8.58,1.67l0.011-0.033c0.099,0.033,0.199,0.063,0.309,0.063
			c0.553,0,1-0.447,1-1C25.899,10.256,25.605,9.892,25.205,9.762z"/>
	</g>
</g>
<g id="Needle">
	<g>
		<path style="fill-rule:evenodd;clip-rule:evenodd;fill:#ED7161;" d="M13.075,6.771c-0.149-0.551-0.727-0.877-1.288-0.729
			c-0.561,0.147-0.895,0.713-0.744,1.264L15.057,22h2.179L13.075,6.771z"/>
	</g>
</g>
<g>
</g>
<g>
</g>
<g>
</g>
<g>
</g>
<g>
</g>
<g>
</g>
<g>
</g>
<g>
</g>
<g>
</g>
<g>
</g>
<g>
</g>
<g>
</g>
<g>
</g>
<g>
</g>
<g>
</g>
</svg>
