<?xml version="1.0" encoding="iso-8859-1"?>
<!-- Generator: Adobe Illustrator 16.0.0, SVG Export Plug-In . SVG Version: 6.00 Build 0)  -->
<!DOCTYPE svg PUBLIC "-//W3C//DTD SVG 1.1//EN" "http://www.w3.org/Graphics/SVG/1.1/DTD/svg11.dtd">
<svg version="1.1" id="Layer_1" xmlns="http://www.w3.org/2000/svg" xmlns:xlink="http://www.w3.org/1999/xlink" x="0px" y="0px"
	 width="22px" height="32px" viewBox="0 0 22 32" style="enable-background:new 0 0 22 32;" xml:space="preserve">
<g id="Btns">
	<g>
		<path style="fill-rule:evenodd;clip-rule:evenodd;fill:#4D4D4D;" d="M5,2H1C0.447,2,0,2.448,0,3v4c0,0.553,0.447,1,1,1h4
			c0.552,0,1-0.447,1-1V3C6,2.448,5.552,2,5,2z M5,10H1c-0.553,0-1,0.448-1,1v4c0,0.553,0.447,1,1,1h4c0.552,0,1-0.447,1-1v-4
			C6,10.448,5.552,10,5,10z M5,18H1c-0.553,0-1,0.448-1,1v4c0,0.553,0.447,1,1,1h4c0.552,0,1-0.447,1-1v-4C6,18.448,5.552,18,5,18z"
			/>
	</g>
</g>
<g id="Base_9_">
	<g>
		<path style="fill:#ED7161;" d="M20,0H4C2.896,0,2,0.896,2,2v28c0,1.104,0.896,2,2,2h16c1.104,0,2-0.896,2-2V2
			C22,0.896,21.104,0,20,0z"/>
	</g>
</g>
<g id="Shape_15_">
	<g>
		<path style="fill:#CCCCCC;" d="M21,2H7C6.447,2,6,2.448,6,3v22c0,0.553,0.447,1,1,1h14c0.552,0,1-0.447,1-1V3
			C22,2.448,21.552,2,21,2z"/>
	</g>
</g>
<g id="Glass" style="opacity:0.4;">
	<g>
		<rect x="8" y="4" style="fill:#808080;" width="12" height="20"/>
	</g>
</g>
<g id="Hole_1_">
	<g>
		<path style="fill-rule:evenodd;clip-rule:evenodd;fill:#4D4D4D;" d="M14,10c0.552,0,1-0.447,1-1c0-0.552-0.448-1-1-1
			c-0.553,0-1,0.448-1,1C13,9.553,13.447,10,14,10z M14,18c-0.553,0-1,0.448-1,1c0,0.553,0.447,1,1,1c0.552,0,1-0.447,1-1
			C15,18.448,14.552,18,14,18z"/>
	</g>
</g>
<g id="Label_1_">
	<g>
		<path style="fill:#808080;" d="M14,12c-0.553,0-1,0.448-1,1v2c0,0.553,0.447,1,1,1c0.552,0,1-0.447,1-1v-2
			C15,12.448,14.552,12,14,12z"/>
	</g>
</g>
<g>
</g>
<g>
</g>
<g>
</g>
<g>
</g>
<g>
</g>
<g>
</g>
<g>
</g>
<g>
</g>
<g>
</g>
<g>
</g>
<g>
</g>
<g>
</g>
<g>
</g>
<g>
</g>
<g>
</g>
</svg>
