<?xml version="1.0" encoding="iso-8859-1"?>
<!-- Generator: Adobe Illustrator 16.0.0, SVG Export Plug-In . SVG Version: 6.00 Build 0)  -->
<!DOCTYPE svg PUBLIC "-//W3C//DTD SVG 1.1//EN" "http://www.w3.org/Graphics/SVG/1.1/DTD/svg11.dtd">
<svg version="1.1" id="Layer_1" xmlns="http://www.w3.org/2000/svg" xmlns:xlink="http://www.w3.org/1999/xlink" x="0px" y="0px"
	 width="30px" height="30.021px" viewBox="0 0 30 30.021" style="enable-background:new 0 0 30 30.021;" xml:space="preserve">
<g id="Red">
	<g>
		<path style="fill:#ED7161;" d="M27,6c-1.657,0-3,1.343-3,3v12c0,1.656,1.343,3,3,3s3-1.344,3-3V9C30,7.343,28.657,6,27,6z"/>
	</g>
</g>
<g id="Green">
	<g>
		<path style="fill:#88C057;" d="M19,4c-1.657,0-3,1.343-3,3v16c0,1.656,1.343,3,3,3c1.656,0,3-1.344,3-3V7C22,5.343,20.656,4,19,4z
			"/>
	</g>
</g>
<g id="Yellow">
	<g>
		<path style="fill:#FFCC66;" d="M11,2C9.343,2,8,3.343,8,5v20c0,1.656,1.343,3,3,3c1.656,0,3-1.344,3-3V5C14,3.343,12.656,2,11,2z"
			/>
	</g>
</g>
<g id="Blue">
	<g>
		<path style="fill:#54BBFF;" d="M3,0C1.343,0,0,1.343,0,3v24c0,1.656,1.343,3,3,3c1.656,0,3-1.344,3-3V3C6,1.343,4.656,0,3,0z"/>
	</g>
</g>
<g id="Holes_7_">
	<g>
		<path style="fill-rule:evenodd;clip-rule:evenodd;fill:#FFFFFF;" d="M3,10c-0.553,0-1,0.447-1,1c0,0.552,0.447,1,1,1
			c0.552,0,1-0.448,1-1C4,10.447,3.552,10,3,10z M3,18c-0.553,0-1,0.447-1,1c0,0.552,0.447,1,1,1c0.552,0,1-0.448,1-1
			C4,18.447,3.552,18,3,18z M11,10c-0.553,0-1,0.447-1,1c0,0.552,0.447,1,1,1c0.552,0,1-0.448,1-1C12,10.447,11.552,10,11,10z
			 M11,18c-0.553,0-1,0.447-1,1c0,0.552,0.447,1,1,1c0.552,0,1-0.448,1-1C12,18.447,11.552,18,11,18z M19,10c-0.553,0-1,0.447-1,1
			c0,0.552,0.447,1,1,1c0.552,0,1-0.448,1-1C20,10.447,19.552,10,19,10z M19,18c-0.553,0-1,0.447-1,1c0,0.552,0.447,1,1,1
			c0.552,0,1-0.448,1-1C20,18.447,19.552,18,19,18z M27,12c0.552,0,1-0.448,1-1c0-0.553-0.448-1-1-1c-0.553,0-1,0.447-1,1
			C26,11.552,26.447,12,27,12z M27,18c-0.553,0-1,0.447-1,1c0,0.552,0.447,1,1,1c0.552,0,1-0.448,1-1C28,18.447,27.552,18,27,18z"/>
	</g>
</g>
<g id="Stick_2_">
	<g>
		<path style="fill-rule:evenodd;clip-rule:evenodd;fill:#9B7CAB;" d="M17.872,28.544L13.5,20.75c1.213-1.229,1.53-3.18,0.64-4.767
			c-1.057-1.884-3.396-2.529-5.227-1.441s-2.457,3.496-1.4,5.38c0.891,1.587,2.69,2.281,4.33,1.813l4.372,7.795
			c0.265,0.471,0.85,0.632,1.307,0.36C17.979,29.617,18.136,29.016,17.872,28.544z"/>
	</g>
</g>
<g>
</g>
<g>
</g>
<g>
</g>
<g>
</g>
<g>
</g>
<g>
</g>
<g>
</g>
<g>
</g>
<g>
</g>
<g>
</g>
<g>
</g>
<g>
</g>
<g>
</g>
<g>
</g>
<g>
</g>
</svg>
