<?xml version="1.0" encoding="iso-8859-1"?>
<!-- Generator: Adobe Illustrator 16.0.0, SVG Export Plug-In . SVG Version: 6.00 Build 0)  -->
<!DOCTYPE svg PUBLIC "-//W3C//DTD SVG 1.1//EN" "http://www.w3.org/Graphics/SVG/1.1/DTD/svg11.dtd">
<svg version="1.1" xmlns="http://www.w3.org/2000/svg" xmlns:xlink="http://www.w3.org/1999/xlink" x="0px" y="0px"
	 width="32.044px" height="32.043px" viewBox="0 0 32.044 32.043" style="enable-background:new 0 0 32.044 32.043;"
	 xml:space="preserve">
<g id="maraca">
	<path d="M9.052,18.925l-0.392,0.392c-1.616,1.617-3.567,2.893-5.7,3.714c-0.58,0.224-1.123,0.567-1.592,1.037
		c-1.825,1.824-1.825,4.782,0,6.606c1.824,1.826,4.782,1.824,6.606,0c0.469-0.469,0.813-1.012,1.037-1.592
		c0.828-2.15,2.083-4.068,3.713-5.698l0.377-0.377c-0.877-0.433-1.675-0.995-2.373-1.693C10.025,20.609,9.477,19.799,9.052,18.925z"
		/>
	<path d="M29.775,2.266C28.293,0.783,26.266,0,23.91,0c-0.846,0-1.699,0.102-2.553,0.294c-1.615,0.364-3.215,1.075-4.713,2.067
		C16.359,2.55,16.08,2.75,15.803,2.96c-0.617,0.467-1.22,0.97-1.785,1.536c-0.108,0.108-0.204,0.223-0.309,0.334
		c-4.682,4.938-5.567,11.774-1.92,15.423c1.482,1.482,3.511,2.266,5.867,2.266c3.301,0,6.756-1.529,9.557-4.189
		c0.111-0.104,0.227-0.198,0.334-0.306c0.559-0.559,1.068-1.151,1.533-1.765c0.211-0.279,0.408-0.565,0.6-0.853
		c0.988-1.497,1.693-3.104,2.063-4.735c0.068-0.305,0.133-0.609,0.178-0.915C32.365,6.753,31.604,4.093,29.775,2.266z
		 M27.363,16.755l-7.176,2.05c-0.248,0.072-0.514,0.009-0.705-0.162s-0.283-0.429-0.24-0.683l1.033-6.193l-6.194,1.032
		c-0.251,0.044-0.512-0.048-0.683-0.24c-0.171-0.191-0.232-0.458-0.161-0.705l2.046-7.162c0.555-0.504,1.135-0.968,1.74-1.377
		c0.078,0.162,0.115,0.34,0.064,0.518l-2.083,7.292l6.059-1.01c0.236-0.042,0.48,0.038,0.652,0.21
		c0.172,0.171,0.25,0.414,0.211,0.653l-1.012,6.06l7.295-2.084c0.18-0.052,0.359-0.012,0.521,0.066
		C28.324,15.62,27.867,16.2,27.363,16.755z M30.205,12.25l0.018-0.098l-6.014,1.717c-0.248,0.071-0.514,0.01-0.705-0.161
		s-0.283-0.429-0.24-0.683l0.85-5.096l-5.098,0.85c-0.25,0.044-0.512-0.049-0.682-0.24c-0.172-0.192-0.232-0.459-0.162-0.706
		l1.719-6.013l-0.039,0.006c0.582-0.227,1.168-0.42,1.754-0.553l-1.666,5.83l4.963-0.826c0.236-0.041,0.482,0.037,0.652,0.209
		c0.172,0.172,0.25,0.415,0.211,0.654l-0.828,4.961l5.832-1.666C30.633,11.046,30.441,11.651,30.205,12.25z"/>
</g>
<g id="Layer_1">
</g>
</svg>
