<?xml version="1.0" encoding="iso-8859-1"?>
<!-- Generator: Adobe Illustrator 16.0.0, SVG Export Plug-In . SVG Version: 6.00 Build 0)  -->
<!DOCTYPE svg PUBLIC "-//W3C//DTD SVG 1.1//EN" "http://www.w3.org/Graphics/SVG/1.1/DTD/svg11.dtd">
<svg version="1.1" xmlns="http://www.w3.org/2000/svg" xmlns:xlink="http://www.w3.org/1999/xlink" x="0px" y="0px" width="32px"
	 height="28px" viewBox="0 0 32 28" style="enable-background:new 0 0 32 28;" xml:space="preserve">
<g id="megaphone">
	<path d="M27.684,0.622c-0.172-0.139-0.362-0.212-0.581-0.212c-0.07,0-0.13,0.009-0.202,0.025L4.053,5.61
		C3.442,5.749,3,6.291,3,6.917V7H1.209C0.55,7,0,7.518,0,8.178v3.596C0,12.433,0.55,13,1.209,13H3v-0.006
		c0,0.627,0.449,1.166,1.061,1.307l22.844,4.965c0.072,0.017,0.148,0.022,0.221,0.022c0.219,0,0.384-0.073,0.558-0.212
		C27.913,18.891,28,18.611,28,18.314V1.384C28,1.088,27.916,0.808,27.684,0.622z M24.664,4.964L8.467,8.374
		C8.429,8.381,8.389,8.387,8.35,8.387c-0.264,0-0.498-0.184-0.555-0.452C7.73,7.628,7.926,7.325,8.233,7.262l16.197-3.41
		c0.303-0.061,0.607,0.131,0.673,0.439C25.168,4.598,24.972,4.899,24.664,4.964z"/>
	<path d="M17.791,20H16v-1.726l-4.988-1.25l1.126,9.713C12.227,27.469,12.852,28,13.589,28h0.948C15.342,28,16,27.387,16,26.583V23
		h1.791C18.439,23,19,22.543,19,21.895v-0.733C19,20.512,18.439,20,17.791,20z"/>
	<path d="M30.512,0h-0.027c-0.725,0-1.318,0.424-1.463,0.953C29,1.033,29,1.142,29,1.227v17.577c0,0.087,0,0.173,0.021,0.254
		c0.152,0.538,0.752,0.941,1.487,0.941c0.833,0,1.491-0.525,1.491-1.172V1.227C32,0.578,31.343,0,30.512,0z"/>
</g>
<g id="Layer_1">
</g>
</svg>
