<?xml version="1.0" encoding="iso-8859-1"?>
<!-- Generator: Adobe Illustrator 16.0.0, SVG Export Plug-In . SVG Version: 6.00 Build 0)  -->
<!DOCTYPE svg PUBLIC "-//W3C//DTD SVG 1.1//EN" "http://www.w3.org/Graphics/SVG/1.1/DTD/svg11.dtd">
<svg version="1.1" xmlns="http://www.w3.org/2000/svg" xmlns:xlink="http://www.w3.org/1999/xlink" x="0px" y="0px" width="32px"
	 height="32px" viewBox="0 0 32 32" style="enable-background:new 0 0 32 32;" xml:space="preserve">
<g id="metronome">
	<path d="M12.825,8.674l0.91,1.812c2.942-0.826,6.236-0.089,8.548,2.222C22.479,12.902,22.734,13,22.99,13s0.512-0.098,0.707-0.293
		c0.391-0.391,0.391-1.023,0-1.414C20.76,8.355,16.533,7.488,12.825,8.674z"/>
	<path d="M8.52,11.293c-0.391,0.391-0.391,1.023,0,1.414s1.023,0.391,1.414,0c0.238-0.237,0.488-0.455,0.745-0.659l-0.384-2.184
		C9.666,10.27,9.069,10.743,8.52,11.293z"/>
	<path d="M29,0H3C1.344,0,0,1.343,0,3v26c0,1.657,1.344,3,3,3h26c1.656,0,3-1.343,3-3V3C32,1.343,30.656,0,29,0z M6.542,29.19
		c-1.417,0-2.566-1.149-2.566-2.567c0-1.417,1.149-2.566,2.566-2.566c1.418,0,2.567,1.149,2.567,2.566
		C9.109,28.041,7.96,29.19,6.542,29.19z M18,29c-1.104,0-2-0.896-2-2s0.896-2,2-2s2,0.896,2,2S19.104,29,18,29z M24,29
		c-1.104,0-2-0.896-2-2s0.896-2,2-2s2,0.896,2,2S25.104,29,24,29z M28,19.463C28,20.312,27.312,21,26.463,21h-9.515l-0.944-2.346
		L11.583,7.671c-0.093-0.231-0.345-0.362-0.593-0.298c-0.268,0.07-0.427,0.345-0.356,0.612l2.752,10.469L14.055,21H5.537
		C4.688,21,4,20.312,4,19.463V5.47C4,4.621,4.688,4,5.537,4h20.926C27.312,4,28,4.621,28,5.47V19.463z"/>
	<circle cx="18" cy="27" r="1"/>
	<circle cx="24" cy="27" r="1"/>
</g>
<g id="Layer_1">
</g>
</svg>
