<?xml version="1.0" encoding="iso-8859-1"?>
<!-- Generator: Adobe Illustrator 16.0.0, SVG Export Plug-In . SVG Version: 6.00 Build 0)  -->
<!DOCTYPE svg PUBLIC "-//W3C//DTD SVG 1.1//EN" "http://www.w3.org/Graphics/SVG/1.1/DTD/svg11.dtd">
<svg version="1.1" xmlns="http://www.w3.org/2000/svg" xmlns:xlink="http://www.w3.org/1999/xlink" x="0px" y="0px"
	 width="26.849px" height="31.986px" viewBox="0 0 26.849 31.986" style="enable-background:new 0 0 26.849 31.986;"
	 xml:space="preserve">
<g id="microphone">
	<path d="M25.031,1.818c-2.338-2.34-6.006-2.464-8.344-0.123c-0.272,0.271-0.643,0.696-0.593,0.746l-0.133-0.134
		c-0.472-0.47-1.263-0.441-1.735,0.029c-0.472,0.472-0.5,1.265-0.028,1.735l0.781,0.781l-1.232,1.233
		c-0.424,0.424-0.298,0.765,0.126,1.188l5.702,5.702c0.203,0.204,0.325,0.399,0.612,0.401c0.287,0,0.408-0.032,0.612-0.235
		l1.234-1.234l0.744,0.744c0.235,0.235,0.449,0.448,0.759,0.448c0.308,0.001,0.693-0.195,0.929-0.43
		c0.472-0.471,0.548-1.312,0.077-1.783l-0.134-0.132c0.049,0.048,0.475-0.322,0.747-0.594C27.494,7.824,27.369,4.156,25.031,1.818z"
		/>
	<path d="M17.397,23.203c-1.509-0.075-2.995,0.457-4.105,1.466l-4.848,4.402c-1.404,1.273-3.559,1.226-4.903-0.108l-1.103-1.094
		c-0.271-0.27-0.426-0.642-0.427-1.023c0-0.021,0.005-0.04,0.006-0.061c0.104,0.041,0.215,0.065,0.328,0.065
		c0.244,0,0.478-0.097,0.649-0.269l1.575-1.576c0.825,0.123,1.679-0.09,2.36-0.708l10.742-9.697l-5.425-5.423L2.587,19.883
		c-0.618,0.684-0.843,1.549-0.729,2.384l-1.589,1.59c-0.359,0.358-0.359,0.939,0,1.298l0.141,0.142
		c-0.245,0.48-0.391,1.012-0.389,1.555c0.001,0.904,0.371,1.791,1.015,2.431l1.104,1.095c1.081,1.071,2.494,1.61,3.91,1.61
		c1.334,0,2.671-0.479,3.731-1.442l4.849-4.402c0.721-0.653,1.679-1.012,2.664-0.95c0.987,0.052,1.895,0.485,2.553,1.222
		c0.366,0.41,0.995,0.445,1.405,0.078c0.409-0.367,0.444-0.995,0.078-1.405C20.331,23.968,18.897,23.282,17.397,23.203z
		 M10.892,15.96c-0.502-0.503-0.502-1.316,0-1.818c0.251-0.252,0.58-0.377,0.91-0.377c0.328,0,0.656,0.125,0.908,0.377
		c0.502,0.501,0.503,1.315,0,1.818c-0.252,0.25-0.58,0.376-0.908,0.376C11.472,16.336,11.143,16.21,10.892,15.96z M12.284,12.074
		c0.194-0.194,0.51-0.194,0.704,0l1.788,1.788c0.093,0.094,0.146,0.22,0.146,0.352c0,0.133-0.053,0.259-0.146,0.353l-0.719,0.718
		c0.068-0.66-0.14-1.342-0.644-1.847c-0.431-0.432-1.004-0.668-1.612-0.668c-0.08,0-0.157,0.015-0.235,0.023L12.284,12.074z
		 M7.635,16.725l1.909-1.91c-0.043,0.41,0.023,0.825,0.202,1.205l-1.057,1.057l1.085,1.085l1.056-1.055
		c0.3,0.142,0.628,0.225,0.972,0.225c0.078,0,0.155-0.015,0.231-0.022l-1.907,1.907c-0.097,0.098-0.225,0.146-0.352,0.146
		c-0.128,0-0.255-0.048-0.352-0.146l-1.788-1.788C7.44,17.233,7.44,16.919,7.635,16.725z"/>
</g>
<g id="Layer_1">
</g>
</svg>
