<?xml version="1.0" encoding="iso-8859-1"?>
<!-- Generator: Adobe Illustrator 16.0.0, SVG Export Plug-In . SVG Version: 6.00 Build 0)  -->
<!DOCTYPE svg PUBLIC "-//W3C//DTD SVG 1.1//EN" "http://www.w3.org/Graphics/SVG/1.1/DTD/svg11.dtd">
<svg version="1.1" xmlns="http://www.w3.org/2000/svg" xmlns:xlink="http://www.w3.org/1999/xlink" x="0px" y="0px"
	 width="31.904px" height="26.436px" viewBox="0 0 31.904 26.436" style="enable-background:new 0 0 31.904 26.436;"
	 xml:space="preserve">
<g id="mp3-player">
	<path d="M31.848,9.447c-0.355-3.049-2.313-5.752-5.437-7.59c0.047-0.218-0.002-0.452-0.172-0.621l-1.037-1.037
		C25.074,0.07,24.902,0,24.722,0c-0.18,0-0.353,0.07-0.48,0.199l-1.323,1.323c-1.037-0.661-2.247-1.024-3.497-1.024
		c-1.729,0-3.386,0.687-4.608,1.908L1.908,15.313C0.687,16.533,0,18.191,0,19.92c0,1.727,0.687,3.385,1.91,4.607
		c2.545,2.545,6.672,2.545,9.217,0l12.902-12.905c2.201-2.201,2.494-5.583,0.888-8.104l0.53-0.53
		c1.164,1.352,2.953,3.787,2.735,5.773c-0.095,0.858-0.562,1.533-1.428,2.063c-3.474,2.123-4.207,4.649-3.78,6.168
		c0.322,1.145,1.303,1.883,2.498,1.883h0.001c0.848,0,1.753-0.357,2.618-1.035C30.808,15.713,32.212,12.575,31.848,9.447z
		 M6.5,23.436c-1.934,0-3.5-1.566-3.5-3.5s1.566-3.5,3.5-3.5s3.5,1.566,3.5,3.5S8.434,23.436,6.5,23.436z M16.087,13.97
		l-4.333,4.333c-0.535-1.725-1.896-3.084-3.619-3.621l4.333-4.333C12.947,9.87,13.599,9.6,14.277,9.6s1.329,0.271,1.81,0.75
		C17.086,11.349,17.086,12.97,16.087,13.97z M19.883,5.556c-0.572,0.57-1.501,0.57-2.074,0c-0.571-0.574-0.571-1.502,0-2.074
		c0.573-0.574,1.502-0.574,2.074,0C20.456,4.054,20.456,4.982,19.883,5.556z M22.955,8.626c-0.572,0.574-1.501,0.574-2.073,0
		c-0.573-0.57-0.573-1.5,0-2.072c0.572-0.572,1.501-0.572,2.073,0S23.527,8.056,22.955,8.626z M27.475,17.053
		c-0.688,0.537-1.379,0.822-2.001,0.822c-0.759,0-1.333-0.432-1.536-1.152c-0.333-1.184,0.342-3.215,3.339-5.045
		c1.133-0.692,1.771-1.637,1.9-2.807c0.196-1.795-0.887-3.785-1.975-5.283c2.091,1.603,3.385,3.687,3.652,5.975
		C31.183,12.382,29.951,15.113,27.475,17.053z"/>
	<circle cx="6.5" cy="19.936" r="1.5"/>
</g>
<g id="Layer_1">
</g>
</svg>
