<?xml version="1.0" encoding="iso-8859-1"?>
<!-- Generator: Adobe Illustrator 16.0.0, SVG Export Plug-In . SVG Version: 6.00 Build 0)  -->
<!DOCTYPE svg PUBLIC "-//W3C//DTD SVG 1.1//EN" "http://www.w3.org/Graphics/SVG/1.1/DTD/svg11.dtd">
<svg version="1.1" xmlns="http://www.w3.org/2000/svg" xmlns:xlink="http://www.w3.org/1999/xlink" x="0px" y="0px" width="32px"
	 height="31px" viewBox="0 0 32 31" style="enable-background:new 0 0 32 31;" xml:space="preserve">
<g id="mp4-player-3">
	<polygon points="18.305,0 18.313,0.001 18.316,0 	"/>
	<path d="M29.839,0h-0.013C27.168,0,25,2.403,25,5.306v15.851C25,21.647,24.615,22,24.14,22h-0.306C23.359,22,23,21.647,23,21.156
		V5.324c0-2.899-2.086-5.318-4.688-5.323C17.12,0.006,16.16,2.005,16.16,4.5c0,2.498,0.974,4.5,2.167,4.5H20v4
		c0,0.555,0.445,1.007,1,1.016v7.141c0,1.293,0.855,2.348,2,2.704v4.22c0,0.5-0.412,0.92-0.938,0.92H8.988C8.463,29,8,28.58,8,28.08
		V27h0.104C8.598,27,9,26.582,9,26.089V23h3.291C13.248,23,14,22.18,14,21.224V1.74C14,0.782,13.248,0,12.291,0H1.78
		C0.823,0,0,0.782,0,1.74v19.483C0,22.18,0.823,23,1.78,23H5v3.089C5,26.582,5.375,27,5.869,27H6v1.08C6,29.684,7.36,31,8.988,31
		h13.074C23.69,31,25,29.684,25,28.08v-4.228c1.141-0.363,2-1.412,2-2.696V14c0.262,0.008,0.517-0.09,0.705-0.272
		S28,13.293,28,13.031V9h1.839C31.032,9,32,6.998,32,4.5S31.032,0,29.839,0z M3,15V3h8v12H3z M5.058,18.962
		c0-1.078,0.875-1.948,1.95-1.948c1.076,0,1.949,0.87,1.949,1.948c0,1.081-0.873,1.951-1.949,1.951
		C5.933,20.913,5.058,20.043,5.058,18.962z"/>
</g>
<g id="Layer_1">
</g>
</svg>
