<?xml version="1.0" encoding="iso-8859-1"?>
<!-- Generator: Adobe Illustrator 16.0.0, SVG Export Plug-In . SVG Version: 6.00 Build 0)  -->
<!DOCTYPE svg PUBLIC "-//W3C//DTD SVG 1.1//EN" "http://www.w3.org/Graphics/SVG/1.1/DTD/svg11.dtd">
<svg version="1.1" xmlns="http://www.w3.org/2000/svg" xmlns:xlink="http://www.w3.org/1999/xlink" x="0px" y="0px" width="28px"
	 height="28px" viewBox="0 0 28 28" style="enable-background:new 0 0 28 28;" xml:space="preserve">
<g id="music-button">
	<path d="M24.786,0H3.214C1.438,0,0,1.439,0,3.214v21.572C0,26.561,1.438,28,3.214,28h21.572C26.562,28,28,26.561,28,24.786V3.214
		C28,1.439,26.562,0,24.786,0z M14.093,25.846c-6.567,0-11.911-5.344-11.911-11.912S7.525,2.021,14.093,2.021
		s11.911,5.344,11.911,11.912S20.66,25.846,14.093,25.846z"/>
	<path d="M14.093,4.008c-5.473,0-9.925,4.453-9.925,9.926s4.452,9.926,9.925,9.926s9.925-4.453,9.925-9.926
		S19.565,4.008,14.093,4.008z M12.571,14.493l-4.742,3.374C7.372,18.159,6.999,17.954,7,17.412v-6.827
		c0.001-0.543,0.373-0.744,0.829-0.449l4.747,3.29C13.03,13.721,13.028,14.201,12.571,14.493z M17,16.192
		c0,0.62-0.379,1.128-1,1.128s-1-0.508-1-1.128v-4.518c0-0.62,0.379-1.128,1-1.128s1,0.508,1,1.128V16.192z M21,16.192
		c0,0.62-0.379,1.128-1,1.128c-0.62,0-1-0.508-1-1.128v-4.518c0-0.62,0.38-1.128,1-1.128c0.621,0,1,0.508,1,1.128V16.192z"/>
</g>
<g id="Layer_1">
</g>
</svg>
