<?xml version="1.0" encoding="utf-8"?>
<!-- Generator: Adobe Illustrator 16.0.0, SVG Export Plug-In . SVG Version: 6.00 Build 0)  -->
<!DOCTYPE svg PUBLIC "-//W3C//DTD SVG 1.1//EN" "http://www.w3.org/Graphics/SVG/1.1/DTD/svg11.dtd">
<svg version="1.1" id="Layer_1" xmlns="http://www.w3.org/2000/svg" xmlns:xlink="http://www.w3.org/1999/xlink" x="0px" y="0px"
	 width="31px" height="32px" viewBox="0 0 31 32" enable-background="new 0 0 31 32" xml:space="preserve">
<g id="gas-station">
	<path d="M30.936,24.109L27.408,6.465l-6.547-5.188C20.57,0.531,19.85,0,19,0H5C3.896,0,3,0.896,3,2v28H1c-0.553,0-1,0.447-1,1v1h3
		h18h3v-1c0-0.553-0.446-1-1-1h-2V18h1.494c1.104,0,2,0.896,2,2v4.748c0,1.793,1.459,3.252,3.252,3.252
		c0.979,0,1.896-0.434,2.517-1.19C30.882,26.052,31.128,25.067,30.936,24.109z M5,5c0-1.104,0.896-2,2-2h10c1.104,0,2,0.896,2,2v6
		c0,1.104-0.896,2-2,2H7c-1.104,0-2-0.896-2-2V5z M28.714,25.542C28.477,25.833,28.123,26,27.746,26
		c-0.689,0-1.252-0.563-1.252-1.252V20c0-2.206-1.793-4-4-4H21V4.031l2.494,1.714V9c0,0.553,0.447,1,1,1h1.58l2.9,14.502
		C29.048,24.871,28.955,25.25,28.714,25.542z"/>
</g>
<g id="Layer_1_1_">
</g>
</svg>
