<?xml version="1.0" encoding="iso-8859-1"?>
<!-- Generator: Adobe Illustrator 16.0.0, SVG Export Plug-In . SVG Version: 6.00 Build 0)  -->
<!DOCTYPE svg PUBLIC "-//W3C//DTD SVG 1.1//EN" "http://www.w3.org/Graphics/SVG/1.1/DTD/svg11.dtd">
<svg version="1.1" xmlns="http://www.w3.org/2000/svg" xmlns:xlink="http://www.w3.org/1999/xlink" x="0px" y="0px" width="26px"
	 height="30px" viewBox="0 0 26 30" style="enable-background:new 0 0 26 30;" xml:space="preserve">
<g id="gas">
	<rect x="13" y="13" width="6" height="10"/>
	<path d="M24,6V3.84C24,2.824,23.176,2,22.16,2h-6.32C14.824,2,14,2.824,14,3.84V6H9.999L9.061,6.939l-3-3
		C5.749,3.628,5.336,3.494,4.928,3.514L1.707,0.293c-0.391-0.391-1.023-0.391-1.414,0s-0.391,1.023,0,1.414l3.221,3.221
		c-0.02,0.408,0.114,0.821,0.426,1.133l3,3L6,10v18c0,1.104,0.896,2,2,2h16c1.104,0,2-0.896,2-2V8C26,6.896,25.104,6,24,6z M16,4h6
		v2h-6V4z M23.354,26.646c0.195,0.195,0.195,0.512,0,0.707C23.256,27.451,23.128,27.5,23,27.5s-0.256-0.049-0.354-0.146L20.293,25
		h-8.586l-2.354,2.354C9.256,27.451,9.128,27.5,9,27.5s-0.256-0.049-0.354-0.146c-0.195-0.195-0.195-0.512,0-0.707L11,24.293V11.707
		L8.646,9.354c-0.195-0.195-0.195-0.512,0-0.707s0.512-0.195,0.707,0L11.707,11h8.586l2.354-2.354c0.195-0.195,0.512-0.195,0.707,0
		s0.195,0.512,0,0.707L21,11.707v12.586L23.354,26.646z"/>
</g>
<g id="Layer_1">
</g>
</svg>
