<?xml version="1.0" encoding="iso-8859-1"?>
<!-- Generator: Adobe Illustrator 16.0.0, SVG Export Plug-In . SVG Version: 6.00 Build 0)  -->
<!DOCTYPE svg PUBLIC "-//W3C//DTD SVG 1.1//EN" "http://www.w3.org/Graphics/SVG/1.1/DTD/svg11.dtd">
<svg version="1.1" xmlns="http://www.w3.org/2000/svg" xmlns:xlink="http://www.w3.org/1999/xlink" x="0px" y="0px" width="32px"
	 height="32px" viewBox="0 0 32 32" style="enable-background:new 0 0 32 32;" xml:space="preserve">
<g id="global-search">
	<path d="M2.173,12.743C2.931,12.763,3.962,12.519,5,12c2-1,0-1-1-3s2-1,3-2s2-1,0-2C5.948,4.474,6.281,3.673,6.831,3.031
		C8.079,2.375,9.495,2,11,2c0.682,0,1.343,0.083,1.981,0.227C13.458,3.489,13.642,5.358,13,6c-1,1-2,2-1,2
		c0.445,0,0.692,0.396,0.918,0.748c0.742-0.393,1.534-0.698,2.367-0.893c0.75-0.175,1.502-0.263,2.234-0.263
		c1.465,0,2.889,0.327,4.194,0.947C20.595,3.65,16.229,0,11,0C4.925,0,0,4.925,0,11c0,5.291,3.736,9.705,8.713,10.759
		c-0.369-0.743-0.636-1.525-0.805-2.333C4.999,18.355,2.784,15.843,2.173,12.743z"/>
	<path d="M31.004,27.452l-2.131-2.132c-0.656-0.656-1.494-0.995-2.277-0.995c-0.088,0-0.176,0.004-0.262,0.013l-2.415-2.415
		c0.898-1.273,1.426-2.827,1.426-4.505c0-2.654-1.324-4.996-3.345-6.411c-1.27-0.889-2.813-1.415-4.48-1.415
		c-0.613,0-1.207,0.078-1.78,0.211c-1.925,0.448-3.577,1.602-4.665,3.18c-0.869,1.261-1.38,2.787-1.38,4.434
		c0,1.709,0.555,3.286,1.484,4.573c1.422,1.967,3.729,3.251,6.341,3.251c1.615,0,3.118-0.49,4.365-1.329l2.45,2.45
		c-0.073,0.847,0.265,1.789,0.984,2.51l2.132,2.131C28.107,31.661,28.947,32,29.731,32c0.616,0,1.198-0.21,1.628-0.641
		C32.338,30.383,32.178,28.624,31.004,27.452z M17.52,22.812c-1.309,0-2.492-0.485-3.427-1.26c-0.57-0.474-1.038-1.056-1.375-1.724
		c-0.366-0.729-0.593-1.539-0.593-2.41c0-2.979,2.416-5.394,5.395-5.394c0.555,0,1.08,0.108,1.584,0.264
		c0.982,0.304,1.838,0.872,2.492,1.633c0.811,0.944,1.318,2.156,1.318,3.498C22.914,20.396,20.5,22.812,17.52,22.812z"/>
</g>
<g id="Layer_1">
</g>
</svg>
