<?xml version="1.0" encoding="iso-8859-1"?>
<!-- Generator: Adobe Illustrator 16.0.0, SVG Export Plug-In . SVG Version: 6.00 Build 0)  -->
<!DOCTYPE svg PUBLIC "-//W3C//DTD SVG 1.1//EN" "http://www.w3.org/Graphics/SVG/1.1/DTD/svg11.dtd">
<svg version="1.1" xmlns="http://www.w3.org/2000/svg" xmlns:xlink="http://www.w3.org/1999/xlink" x="0px" y="0px"
	 width="23.993px" height="32px" viewBox="0 0 23.993 32" style="enable-background:new 0 0 23.993 32;" xml:space="preserve">
<g id="globe">
	<circle cx="12.993" cy="14" r="9"/>
	<path d="M21.993,20c-1.104,0-2,0.896-2,2c0,0.15,0.02,0.295,0.051,0.436c-4.317,3.612-10.773,3.397-14.829-0.657
		c-4.288-4.288-4.288-11.268,0-15.557c1.685-1.684,3.821-2.741,6.134-3.087C11.71,3.657,12.311,4,12.993,4c1.104,0,2-0.896,2-2
		s-0.896-2-2-2c-0.794,0-1.475,0.467-1.798,1.138c-2.789,0.385-5.369,1.645-7.395,3.67c-5.068,5.069-5.068,13.316,0,18.385
		c2.024,2.024,4.559,3.226,7.192,3.633v1.468c-2.329,0.663-4,2.271-4,2.707c0,0.553,2.687,1,6,1s6-0.447,6-1
		c0-0.436-1.671-2.044-4-2.707v-1.468c2.307-0.356,4.53-1.328,6.408-2.925c0.188,0.059,0.385,0.1,0.592,0.1c1.104,0,2-0.896,2-2
		S23.098,20,21.993,20z"/>
</g>
<g id="Layer_1">
</g>
</svg>
