<?xml version="1.0" encoding="iso-8859-1"?>
<!-- Generator: Adobe Illustrator 16.0.0, SVG Export Plug-In . SVG Version: 6.00 Build 0)  -->
<!DOCTYPE svg PUBLIC "-//W3C//DTD SVG 1.1//EN" "http://www.w3.org/Graphics/SVG/1.1/DTD/svg11.dtd">
<svg version="1.1" xmlns="http://www.w3.org/2000/svg" xmlns:xlink="http://www.w3.org/1999/xlink" x="0px" y="0px" width="32px"
	 height="25.578px" viewBox="0 0 32 25.578" style="enable-background:new 0 0 32 25.578;" xml:space="preserve">
<g id="gps-signals">
	<path d="M8.929,4.535c0.391-0.391,0.391-1.023,0-1.414s-1.023-0.391-1.414,0c-4.679,4.679-4.679,12.292,0,16.971
		c0.195,0.195,0.451,0.293,0.707,0.293s0.512-0.098,0.707-0.293c0.391-0.391,0.391-1.023,0-1.414
		C5.029,14.778,5.029,8.435,8.929,4.535z"/>
	<path d="M24.485,3.121c-0.391-0.391-1.023-0.391-1.414,0s-0.391,1.023,0,1.414c3.899,3.899,3.899,10.243,0,14.143
		c-0.391,0.391-0.391,1.023,0,1.414c0.195,0.195,0.451,0.293,0.707,0.293s0.512-0.098,0.707-0.293
		C29.164,15.413,29.164,7.8,24.485,3.121z"/>
	<path d="M2,11.606c0-3.739,1.456-7.255,4.101-9.899c0.391-0.391,0.391-1.023,0-1.414s-1.023-0.391-1.414,0
		C1.664,3.314,0,7.333,0,11.606s1.664,8.292,4.687,11.313c0.195,0.195,0.451,0.293,0.707,0.293s0.512-0.098,0.707-0.293
		c0.391-0.391,0.391-1.023,0-1.414C3.456,18.861,2,15.346,2,11.606z"/>
	<path d="M27.313,0.293c-0.391-0.391-1.023-0.391-1.414,0s-0.391,1.023,0,1.414C28.544,4.352,30,7.867,30,11.606
		s-1.456,7.255-4.101,9.899c-0.391,0.391-0.391,1.023,0,1.414c0.195,0.195,0.451,0.293,0.707,0.293s0.512-0.098,0.707-0.293
		C30.336,19.898,32,15.88,32,11.606S30.336,3.314,27.313,0.293z"/>
	<path d="M15.905,4.453c-4.167,0-7.545,3.377-7.545,7.545c0,7.544,7.545,13.58,7.545,13.58s7.545-6.036,7.545-13.58
		C23.45,7.83,20.073,4.453,15.905,4.453z M15.905,15.016c-1.667,0-3.018-1.352-3.018-3.018c0-1.667,1.351-3.019,3.018-3.019
		s3.019,1.352,3.019,3.019C18.924,13.664,17.572,15.016,15.905,15.016z"/>
</g>
<g id="Layer_1">
</g>
</svg>
