<?xml version="1.0" encoding="iso-8859-1"?>
<!-- Generator: Adobe Illustrator 16.0.0, SVG Export Plug-In . SVG Version: 6.00 Build 0)  -->
<!DOCTYPE svg PUBLIC "-//W3C//DTD SVG 1.1//EN" "http://www.w3.org/Graphics/SVG/1.1/DTD/svg11.dtd">
<svg version="1.1" xmlns="http://www.w3.org/2000/svg" xmlns:xlink="http://www.w3.org/1999/xlink" x="0px" y="0px"
	 width="32.925px" height="32.354px" viewBox="0 0 32.925 32.354" style="enable-background:new 0 0 32.925 32.354;"
	 xml:space="preserve">
<g id="gps-settings">
	<path d="M32.058,23.354c0.516,0,0.942-0.815,0.942-1.331V20.89c0-0.516-0.427-0.536-0.942-0.536h-0.656
		c-0.217-1-0.691-2.558-1.373-3.54l0.807-0.905c0.189-0.191,0.297-0.498,0.297-0.767s-0.107-0.551-0.297-0.741l-0.643-0.655
		c-0.197-0.197-0.469-0.31-0.748-0.301s-0.543,0.129-0.729,0.339l-0.589,0.709C27.145,13.806,26,13.324,25,13.104v-1.165
		c0-0.545-0.517-0.585-1.062-0.585h-1.027c-0.545,0-0.911,0.04-0.911,0.585v1.164c-2,0.219-2.58,0.698-3.564,1.385l-0.908-0.8
		c-0.396-0.396-1.091-0.396-1.488,0l-0.715,0.688c-0.189,0.19-0.31,0.448-0.31,0.717s0.099,0.526,0.29,0.717l0.799,1.001
		c-0.684,0.982-1.165,2.544-1.381,3.544h-0.766c-0.56,0-0.956,0.057-0.956,0.616v0.973c0,0.56,0.396,1.411,0.956,1.411h0.771
		c0.221,1,0.701,2.153,1.386,3.134l-0.815,0.716c-0.19,0.189-0.297,0.398-0.297,0.667s0.106,0.502,0.297,0.692l0.727,0.713
		c0.38,0.38,0.991,0.393,1.393,0.033l1.038-0.899C19.434,29.089,20,29.56,22,29.777v1.194c0,0.544,0.366,1.382,0.909,1.382h1.031
		c0.543,0,1.06-0.838,1.06-1.382v-1.195c1-0.219,2.129-0.694,3.107-1.374l0.715,0.822c0.189,0.19,0.394,0.297,0.662,0.297
		s0.5-0.106,0.689-0.297l0.674-0.688c0.396-0.396,0.389-1.038-0.006-1.434l-0.824-0.622c0.683-0.979,1.157-2.128,1.378-3.128H32.058
		z M23.062,25.917c-2.469,0-4.477-2.009-4.477-4.479c0-2.468,2.008-4.476,4.477-4.476s4.477,2.008,4.477,4.476
		C27.538,23.908,25.53,25.917,23.062,25.917z"/>
	<path d="M13.2,24.899c-1.292-0.349-2.275-1.562-2.275-2.957V20.97c0-1.377,0.961-2.537,2.261-2.872
		c0.123-0.358,0.274-0.751,0.458-1.152c-0.41-0.525-0.632-1.171-0.632-1.854c0-0.783,0.324-1.559,0.917-2.154l0.688-0.664
		c0.569-0.569,1.334-0.884,2.153-0.884c0.667,0,1.298,0.208,1.816,0.593c0.404-0.218,0.844-0.403,1.382-0.553
		c0.063-0.373,0.2-0.718,0.39-1.026c0.007-0.189,0.018-0.378,0.018-0.569c0-5.627-4.561-10.188-10.188-10.188S0,4.207,0,9.834
		c0,10.188,10.188,18.338,10.188,18.338s1.379-1.105,3.121-3.005C13.275,25.08,13.229,24.982,13.2,24.899z M6.112,9.834
		c0-2.25,1.824-4.075,4.075-4.075s4.075,1.825,4.075,4.075s-1.824,4.075-4.075,4.075S6.112,12.084,6.112,9.834z"/>
</g>
<g id="Layer_1">
</g>
</svg>
