<?xml version="1.0" encoding="iso-8859-1"?>
<!-- Generator: Adobe Illustrator 16.0.0, SVG Export Plug-In . SVG Version: 6.00 Build 0)  -->
<!DOCTYPE svg PUBLIC "-//W3C//DTD SVG 1.1//EN" "http://www.w3.org/Graphics/SVG/1.1/DTD/svg11.dtd">
<svg version="1.1" xmlns="http://www.w3.org/2000/svg" xmlns:xlink="http://www.w3.org/1999/xlink" x="0px" y="0px" width="32px"
	 height="32px" viewBox="0 0 32 32" style="enable-background:new 0 0 32 32;" xml:space="preserve">
<g id="gps">
	<path d="M30,12.678V22H16v-9h6.247c-0.476-0.586-0.963-1.254-1.413-2H16V6h3.057C19.022,5.671,19,5.339,19,5
		c0-0.34,0.033-0.672,0.08-1H5C2.238,4,0,6.239,0,9v18c0,2.762,2.238,5,5,5h22c2.762,0,5-2.238,5-5V9.396
		C31.441,10.653,30.717,11.755,30,12.678z M5,6h9v16H8V11V9H6H2C2,7.346,3.346,6,5,6z M2,11h4v11H2V11z M18,30H5
		c-1.654,0-3-1.346-3-3v-3h16V30z M30,27c0,1.654-1.346,3-3,3h-7v-6h10V27z"/>
	<path d="M26,16.561l-1.25-1c-0.045-0.036-0.286-0.234-0.639-0.562H22v5h6v-5h-0.111c-0.354,0.328-0.595,0.526-0.64,0.562L26,16.561
		z"/>
	<path d="M26,14c0,0,5-4,5-9c0-2.762-2.238-5-5-5s-5,2.238-5,5C21,10,26,14,26,14z M24,5c0-1.104,0.896-2,2-2s2,0.896,2,2
		s-0.896,2-2,2S24,6.104,24,5z"/>
</g>
<g id="Layer_1">
</g>
</svg>
