<?xml version="1.0" encoding="iso-8859-1"?>
<!-- Generator: Adobe Illustrator 16.0.0, SVG Export Plug-In . SVG Version: 6.00 Build 0)  -->
<!DOCTYPE svg PUBLIC "-//W3C//DTD SVG 1.1//EN" "http://www.w3.org/Graphics/SVG/1.1/DTD/svg11.dtd">
<svg version="1.1" xmlns="http://www.w3.org/2000/svg" xmlns:xlink="http://www.w3.org/1999/xlink" x="0px" y="0px" width="30px"
	 height="31px" viewBox="0 0 30 31" style="enable-background:new 0 0 30 31;" xml:space="preserve">
<g id="hikers-bag">
	<path d="M30,12.5C30,6.052,26.926,1,23,1c-1.546,0-2.951,0.799-4.097,2.145C18.511,1.348,16.915,0,15,0
		c-1.915,0-3.511,1.348-3.903,3.145C9.952,1.799,8.546,1,7,1C3.075,1,0,6.052,0,12.5c0,4.535,1.524,8.371,3.792,10.253l-0.321,1.475
		c-0.359,1.651,0.049,3.376,1.109,4.691C5.642,30.235,7.24,31,8.93,31h12.139c1.689,0,3.289-0.765,4.35-2.081
		c1.06-1.315,1.468-3.04,1.108-4.691l-0.32-1.475C28.476,20.872,30,17.036,30,12.5z M9,9V8h12v1H9z M16,15v2c0,0.553-0.448,1-1,1
		s-1-0.447-1-1v-2c0-0.553,0.448-1,1-1S16,14.447,16,15z M15,2c0.778,0,1.445,0.45,1.776,1.1C16.199,3.038,15.607,3,15,3
		s-1.199,0.038-1.776,0.1C13.555,2.45,14.223,2,15,2z M20.844,28.128C20.43,28.677,19.781,29,19.093,29h-8.186
		c-0.688,0-1.336-0.323-1.751-0.872c-0.414-0.55-0.547-1.262-0.357-1.923L9.46,23.89C9.78,22.771,10.802,22,11.965,22h6.167
		c1.105,0,2.076,0.732,2.38,1.795l0.688,2.41C21.391,26.866,21.258,27.578,20.844,28.128z M24.084,12.984
		c-1.223,1.137-2.974,2.034-5.084,2.548V18c0,1.654-1.346,3-3,3h-2c-1.654,0-3-1.346-3-3v-2.468
		c-2.111-0.514-3.861-1.411-5.084-2.548l-1.62,7.449C2.927,18.718,2,15.772,2,12.5C2,7.351,4.29,3,7,3
		c0.813,0,1.584,0.399,2.271,1.087C6.691,5.172,5,6.967,5,9c0,2.687,2.943,4.96,7,5.725V18c0,1.104,0.896,2,2,2h2
		c1.104,0,2-0.896,2-2v-3.275c4.057-0.765,7-3.038,7-5.725c0-2.033-1.69-3.828-4.271-4.913C21.415,3.399,22.188,3,23,3
		c2.711,0,5,4.351,5,9.5c0,3.273-0.927,6.219-2.297,7.935L24.084,12.984z"/>
	<path d="M19.551,24.069C19.371,23.439,18.788,23,18.133,23h-6.167c-0.713,0-1.348,0.479-1.544,1.165L9.76,26.479
		c-0.103,0.358-0.029,0.749,0.195,1.047C10.179,27.822,10.535,28,10.907,28h8.186c0.372,0,0.729-0.178,0.953-0.475
		c0.224-0.297,0.296-0.688,0.194-1.045L19.551,24.069z"/>
</g>
<g id="Layer_1">
</g>
</svg>
