<?xml version="1.0" encoding="iso-8859-1"?>
<!-- Generator: Adobe Illustrator 16.0.0, SVG Export Plug-In . SVG Version: 6.00 Build 0)  -->
<!DOCTYPE svg PUBLIC "-//W3C//DTD SVG 1.1//EN" "http://www.w3.org/Graphics/SVG/1.1/DTD/svg11.dtd">
<svg version="1.1" xmlns="http://www.w3.org/2000/svg" xmlns:xlink="http://www.w3.org/1999/xlink" x="0px" y="0px" width="30px"
	 height="25px" viewBox="0 0 30 25" style="enable-background:new 0 0 30 25;" xml:space="preserve">
<g id="hotel">
	<path d="M27,17h-7v-4c0-1.104-0.896-2-2-2h-6c-1.104,0-2,0.896-2,2v4H3c-0.553,0-1,0.447-1,1v6c0,0.553,0.447,1,1,1h24
		c0.553,0,1-0.447,1-1v-6C28,17.447,27.553,17,27,17z M8,22c0,0.553-0.447,1-1,1H5c-0.553,0-1-0.447-1-1v-2c0-0.553,0.447-1,1-1h2
		c0.553,0,1,0.447,1,1V22z M14,22c0,0.553-0.447,1-1,1h-2c-0.553,0-1-0.447-1-1v-2c0-0.553,0.447-1,1-1h2c0.553,0,1,0.447,1,1V22z
		 M20,22c0,0.553-0.447,1-1,1h-2c-0.553,0-1-0.447-1-1v-2c0-0.553,0.447-1,1-1h2c0.553,0,1,0.447,1,1V22z M26,22
		c0,0.553-0.447,1-1,1h-2c-0.553,0-1-0.447-1-1v-2c0-0.553,0.447-1,1-1h2c0.553,0,1,0.447,1,1V22z"/>
	<polygon points="12.062,9.045 15,7.5 17.938,9.045 17.378,5.772 19.755,3.455 16.47,2.978 15,0 13.53,2.978 10.245,3.455 
		12.622,5.772 	"/>
	<polygon points="4.755,12.455 7.693,14 7.133,10.728 9.51,8.41 6.225,7.933 4.755,4.955 3.285,7.933 0,8.41 2.377,10.728 1.816,14 
			"/>
	<polygon points="30,8.41 26.715,7.933 25.245,4.955 23.775,7.933 20.49,8.41 22.867,10.728 22.307,14 25.245,12.455 28.184,14 
		27.623,10.728 	"/>
</g>
<g id="Layer_1">
</g>
</svg>
