<?xml version="1.0" encoding="iso-8859-1"?>
<!-- Generator: Adobe Illustrator 16.0.0, SVG Export Plug-In . SVG Version: 6.00 Build 0)  -->
<!DOCTYPE svg PUBLIC "-//W3C//DTD SVG 1.1//EN" "http://www.w3.org/Graphics/SVG/1.1/DTD/svg11.dtd">
<svg version="1.1" xmlns="http://www.w3.org/2000/svg" xmlns:xlink="http://www.w3.org/1999/xlink" x="0px" y="0px"
	 width="32.381px" height="30px" viewBox="0 0 32.381 30" style="enable-background:new 0 0 32.381 30;" xml:space="preserve">
<g id="hotel-2">
	<path d="M28.381,16h-7v-4c0-1.104-0.896-2-2-2h-6c-1.104,0-2,0.896-2,2v4h-7c-0.553,0-1,0.447-1,1v12c0,0.553,0.447,1,1,1h24
		c0.553,0,1-0.447,1-1V17C29.381,16.447,28.934,16,28.381,16z M9.381,27c0,0.553-0.447,1-1,1h-2c-0.553,0-1-0.447-1-1v-2
		c0-0.553,0.447-1,1-1h2c0.553,0,1,0.447,1,1V27z M9.381,21c0,0.553-0.447,1-1,1h-2c-0.553,0-1-0.447-1-1v-2c0-0.553,0.447-1,1-1h2
		c0.553,0,1,0.447,1,1V21z M15.381,27c0,0.553-0.447,1-1,1h-2c-0.553,0-1-0.447-1-1v-2c0-0.553,0.447-1,1-1h2c0.553,0,1,0.447,1,1
		V27z M15.381,21c0,0.553-0.447,1-1,1h-2c-0.553,0-1-0.447-1-1v-2c0-0.553,0.447-1,1-1h2c0.553,0,1,0.447,1,1V21z M21.381,27
		c0,0.553-0.447,1-1,1h-2c-0.553,0-1-0.447-1-1v-2c0-0.553,0.447-1,1-1h2c0.553,0,1,0.447,1,1V27z M21.381,21c0,0.553-0.447,1-1,1
		h-2c-0.553,0-1-0.447-1-1v-2c0-0.553,0.447-1,1-1h2c0.553,0,1,0.447,1,1V21z M27.381,27c0,0.553-0.447,1-1,1h-2
		c-0.553,0-1-0.447-1-1v-2c0-0.553,0.447-1,1-1h2c0.553,0,1,0.447,1,1V27z M27.381,21c0,0.553-0.447,1-1,1h-2c-0.553,0-1-0.447-1-1
		v-2c0-0.553,0.447-1,1-1h2c0.553,0,1,0.447,1,1V21z"/>
	<polygon points="14.719,5.116 16.381,4.242 18.043,5.116 17.726,3.266 19.071,1.954 17.212,1.684 16.381,0 15.55,1.684 
		13.69,1.954 15.036,3.266 	"/>
	<polygon points="22.028,7.944 23.69,7.07 25.353,7.944 25.035,6.094 26.381,4.782 24.521,4.512 23.69,2.828 22.859,4.512 21,4.782 
		22.346,6.094 	"/>
	<polygon points="7.028,7.944 8.69,7.07 10.353,7.944 10.035,6.094 11.381,4.782 9.521,4.512 8.69,2.828 7.859,4.512 6,4.782 
		7.346,6.094 	"/>
	<polygon points="32.381,9.666 30.521,9.396 29.69,7.712 28.859,9.396 27,9.666 28.346,10.978 28.028,12.828 29.69,11.954 
		31.353,12.828 31.035,10.978 	"/>
	<polygon points="4.035,10.978 5.381,9.666 3.521,9.396 2.69,7.712 1.859,9.396 0,9.666 1.346,10.978 1.028,12.828 2.69,11.954 
		4.353,12.828 	"/>
</g>
<g id="Layer_1">
</g>
</svg>
