<?xml version="1.0" encoding="utf-8"?>
<!-- Generator: Adobe Illustrator 16.0.0, SVG Export Plug-In . SVG Version: 6.00 Build 0)  -->
<!DOCTYPE svg PUBLIC "-//W3C//DTD SVG 1.1//EN" "http://www.w3.org/Graphics/SVG/1.1/DTD/svg11.dtd">
<svg version="1.1" id="Layer_1" xmlns="http://www.w3.org/2000/svg" xmlns:xlink="http://www.w3.org/1999/xlink" x="0px" y="0px"
	 width="32px" height="20px" viewBox="0 0 32 20" enable-background="new 0 0 32 20" xml:space="preserve">
<g id="jeep">
	<path d="M30,13v-2.001L25.8,7l-2.166-5.415C23.251,0.628,22.325,0,21.293,0H12v7H3C2.449,7,2,7.447,2,8v1c-0.552,0-1,0.447-1,1
		s0.448,1,1,1v2H1c-0.552,0-1,0.447-1,1v1c0,0.553,0.448,1,1,1h0.051c0.252-2.244,2.139-4,4.449-4s4.197,1.756,4.449,4h11.102
		c0.253-2.244,2.14-4,4.449-4s4.196,1.756,4.449,4H30H30H31c0.552,0,1-0.447,1-1v-1c0-0.553-0.448-1-1-1H30z M20.25,5
		C19.56,5,19,5.447,19,6v1h-5V2h7.293c0.214,0,0.403,0.129,0.483,0.328L22.845,5H20.25z"/>
	<path d="M25.5,13c-1.935,0-3.5,1.566-3.5,3.5s1.565,3.5,3.5,3.5s3.5-1.566,3.5-3.5S27.435,13,25.5,13z M25.5,17.667
		c-0.644,0-1.167-0.523-1.167-1.167s0.523-1.167,1.167-1.167s1.167,0.523,1.167,1.167S26.144,17.667,25.5,17.667z"/>
	<path d="M5.5,13C3.566,13,2,14.566,2,16.5S3.566,20,5.5,20S9,18.434,9,16.5S7.435,13,5.5,13z M5.5,17.667
		c-0.645,0-1.167-0.522-1.167-1.167s0.522-1.167,1.167-1.167s1.167,0.522,1.167,1.167S6.146,17.667,5.5,17.667z"/>
</g>
<g id="Layer_1_1_">
</g>
</svg>
